%TF.GenerationSoftware,KiCad,Pcbnew,(6.0.0)*%
%TF.CreationDate,2022-08-13T20:29:40+02:00*%
%TF.ProjectId,PCBWallet,50434257-616c-46c6-9574-2e6b69636164,rev?*%
%TF.SameCoordinates,Original*%
%TF.FileFunction,Copper,L2,Bot*%
%TF.FilePolarity,Positive*%
%FSLAX46Y46*%
G04 Gerber Fmt 4.6, Leading zero omitted, Abs format (unit mm)*
G04 Created by KiCad (PCBNEW (6.0.0)) date 2022-08-13 20:29:40*
%MOMM*%
%LPD*%
G01*
G04 APERTURE LIST*
%TA.AperFunction,EtchedComponent*%
%ADD10C,0.300000*%
%TD*%
%TA.AperFunction,ComponentPad*%
%ADD11C,0.400000*%
%TD*%
%TA.AperFunction,ViaPad*%
%ADD12C,1.000000*%
%TD*%
%TA.AperFunction,ViaPad*%
%ADD13C,0.800000*%
%TD*%
G04 APERTURE END LIST*
D10*
%TO.C,AE1*%
X172800049Y-111100000D02*
G75*
G03*
X171200049Y-112700000I40J-1600040D01*
G01*
X214600001Y-113297798D02*
G75*
G03*
X214200001Y-112899997I-399948J-2153D01*
G01*
X214202228Y-128100004D02*
G75*
G03*
X214600029Y-127700004I-2153J399948D01*
G01*
X215200001Y-113300052D02*
G75*
G03*
X214200001Y-112300052I-1000003J-3D01*
G01*
X217000001Y-113300052D02*
G75*
G03*
X214199999Y-110500002I-2800027J23D01*
G01*
X216400001Y-113300052D02*
G75*
G03*
X214200001Y-111100052I-2197746J2254D01*
G01*
X172797795Y-112300000D02*
G75*
G03*
X172399994Y-112700000I2153J-399948D01*
G01*
X172800049Y-111700000D02*
G75*
G03*
X171800049Y-112700000I3J-1000003D01*
G01*
X171199999Y-127700003D02*
G75*
G03*
X172799999Y-129300003I1600040J40D01*
G01*
X172800049Y-109900000D02*
G75*
G03*
X169999999Y-112700002I-23J-2800027D01*
G01*
X171799999Y-127700003D02*
G75*
G03*
X172799999Y-128700003I1000003J3D01*
G01*
X214199974Y-130500004D02*
G75*
G03*
X217000024Y-127700002I23J2800027D01*
G01*
X169999999Y-127700003D02*
G75*
G03*
X172800001Y-130500053I2800027J-23D01*
G01*
X170599999Y-127700003D02*
G75*
G03*
X172799999Y-129900003I2197746J-2254D01*
G01*
X215800001Y-113300052D02*
G75*
G03*
X214200001Y-111700052I-1600040J-40D01*
G01*
X172800049Y-110500000D02*
G75*
G03*
X170600049Y-112700000I-2254J-2197746D01*
G01*
X214199974Y-129300004D02*
G75*
G03*
X215799974Y-127700004I-40J1600040D01*
G01*
X214199974Y-129900004D02*
G75*
G03*
X216399974Y-127700004I2254J2197746D01*
G01*
X214199974Y-128700004D02*
G75*
G03*
X215199974Y-127700004I-3J1000003D01*
G01*
X172399999Y-127702257D02*
G75*
G03*
X172799999Y-128100058I399948J2153D01*
G01*
X169999999Y-127700003D02*
X169999999Y-112700002D01*
X172800049Y-109900000D02*
X202700000Y-109900000D01*
X214600001Y-113297798D02*
X214600029Y-127700004D01*
X214199999Y-112299947D02*
X172797795Y-112300000D01*
X216400001Y-113300052D02*
X216399974Y-127700004D01*
X214199999Y-111100002D02*
X172800049Y-111100000D01*
X171199999Y-127700003D02*
X171200049Y-112700000D01*
X214200001Y-112900000D02*
X204100000Y-112900000D01*
X215200001Y-113300052D02*
X215199974Y-127700004D01*
X215800001Y-113300052D02*
X215799974Y-127700004D01*
X171799999Y-127700003D02*
X171800049Y-112700000D01*
X172800001Y-130500053D02*
X214199949Y-130500005D01*
X214199999Y-111700002D02*
X172800049Y-111700000D01*
X172799999Y-129300003D02*
X214199949Y-129300005D01*
X170599999Y-127700003D02*
X170600049Y-112700000D01*
X172799999Y-128100058D02*
X214202203Y-128100005D01*
X172799999Y-128700003D02*
X214199949Y-128700005D01*
X172399999Y-127702257D02*
X172399994Y-112700000D01*
X172799999Y-129900003D02*
X214199949Y-129900005D01*
X214199999Y-110500002D02*
X172800049Y-110500000D01*
X217000001Y-113300052D02*
X217000024Y-127700002D01*
%TD*%
D11*
%TO.P,AE1,2*%
%TO.N,Net-(AE1-Pad2)*%
X203600000Y-109000000D03*
%TO.P,AE1,1*%
%TO.N,Net-(AE1-Pad1)*%
X204600000Y-109000000D03*
%TO.P,AE1, *%
%TO.N,N/C*%
X202700000Y-109900025D03*
X204100000Y-112900000D03*
%TD*%
D12*
%TO.N,*%
X156500000Y-78000000D03*
X100500000Y-78000000D03*
X100500000Y-106000000D03*
X156500000Y-106000000D03*
D13*
X153000000Y-54000000D03*
X104000000Y-54000000D03*
X153000000Y-75000000D03*
X104000000Y-75000000D03*
X104000000Y-130000000D03*
X104000000Y-109000000D03*
X153000000Y-109000000D03*
X153000000Y-130000000D03*
%TD*%
M02*
