G04 #@! TF.GenerationSoftware,KiCad,Pcbnew,(6.0.7)*
G04 #@! TF.CreationDate,2023-01-11T21:48:03+01:00*
G04 #@! TF.ProjectId,PCBWallet,50434257-616c-46c6-9574-2e6b69636164,rev?*
G04 #@! TF.SameCoordinates,Original*
G04 #@! TF.FileFunction,Soldermask,Bot*
G04 #@! TF.FilePolarity,Negative*
%FSLAX46Y46*%
G04 Gerber Fmt 4.6, Leading zero omitted, Abs format (unit mm)*
G04 Created by KiCad (PCBNEW (6.0.7)) date 2023-01-11 21:48:03*
%MOMM*%
%LPD*%
G01*
G04 APERTURE LIST*
%ADD10C,1.050000*%
%ADD11C,0.500000*%
%ADD12C,0.400000*%
G04 APERTURE END LIST*
D10*
X93325000Y-65000000D02*
G75*
G03*
X93325000Y-65000000I-525000J0D01*
G01*
X142325000Y-65000000D02*
G75*
G03*
X142325000Y-65000000I-525000J0D01*
G01*
X34325000Y-65000000D02*
G75*
G03*
X34325000Y-65000000I-525000J0D01*
G01*
X83325000Y-65000000D02*
G75*
G03*
X83325000Y-65000000I-525000J0D01*
G01*
X93325000Y-170000000D02*
G75*
G03*
X93325000Y-170000000I-525000J0D01*
G01*
X142325000Y-170000000D02*
G75*
G03*
X142325000Y-170000000I-525000J0D01*
G01*
X142325000Y-57000000D02*
G75*
G03*
X142325000Y-57000000I-525000J0D01*
G01*
X83325000Y-36000000D02*
G75*
G03*
X83325000Y-36000000I-525000J0D01*
G01*
X83325000Y-57000000D02*
G75*
G03*
X83325000Y-57000000I-525000J0D01*
G01*
X93325000Y-57000000D02*
G75*
G03*
X93325000Y-57000000I-525000J0D01*
G01*
X83325000Y-170000000D02*
G75*
G03*
X83325000Y-170000000I-525000J0D01*
G01*
X34325000Y-149000000D02*
G75*
G03*
X34325000Y-149000000I-525000J0D01*
G01*
X34325000Y-36000000D02*
G75*
G03*
X34325000Y-36000000I-525000J0D01*
G01*
X34325000Y-57000000D02*
G75*
G03*
X34325000Y-57000000I-525000J0D01*
G01*
X83325000Y-149000000D02*
G75*
G03*
X83325000Y-149000000I-525000J0D01*
G01*
X142325000Y-149000000D02*
G75*
G03*
X142325000Y-149000000I-525000J0D01*
G01*
X93325000Y-36000000D02*
G75*
G03*
X93325000Y-36000000I-525000J0D01*
G01*
X142325000Y-36000000D02*
G75*
G03*
X142325000Y-36000000I-525000J0D01*
G01*
X93325000Y-149000000D02*
G75*
G03*
X93325000Y-149000000I-525000J0D01*
G01*
X34325000Y-170000000D02*
G75*
G03*
X34325000Y-170000000I-525000J0D01*
G01*
D11*
X87051248Y-78400062D03*
X88551248Y-79150062D03*
X87051248Y-80650062D03*
X87051248Y-77650062D03*
X88551248Y-78400062D03*
X88551248Y-79900062D03*
X87051248Y-79150062D03*
X87051248Y-79900062D03*
X88551248Y-80650062D03*
X88551248Y-77650062D03*
X87051248Y-51500062D03*
X88551248Y-52250062D03*
X87051248Y-53750062D03*
X87051248Y-50750062D03*
X88551248Y-51500062D03*
X88551248Y-53000062D03*
X87051248Y-52250062D03*
X87051248Y-53000062D03*
X88551248Y-53750062D03*
X88551248Y-50750062D03*
X88550000Y-127550000D03*
X87050000Y-126800000D03*
X88550000Y-125300000D03*
X88550000Y-128300000D03*
X87050000Y-127550000D03*
X87050000Y-126050000D03*
X88550000Y-126800000D03*
X88550000Y-126050000D03*
X87050000Y-125300000D03*
X87050000Y-128300000D03*
X88550000Y-154450000D03*
X87050000Y-153700000D03*
X88550000Y-152200000D03*
X88550000Y-155200000D03*
X87050000Y-154450000D03*
X87050000Y-152950000D03*
X88550000Y-153700000D03*
X88550000Y-152950000D03*
X87050000Y-152200000D03*
X87050000Y-155200000D03*
X137250000Y-146750000D03*
X138000000Y-145250000D03*
X139500000Y-146750000D03*
X136500000Y-146750000D03*
X137250000Y-145250000D03*
X138750000Y-145250000D03*
X138000000Y-146750000D03*
X138750000Y-146750000D03*
X139500000Y-145250000D03*
X136500000Y-145250000D03*
X95800000Y-146750000D03*
X96550000Y-145250000D03*
X98050000Y-146750000D03*
X95050000Y-146750000D03*
X95800000Y-145250000D03*
X97300000Y-145250000D03*
X96550000Y-146750000D03*
X97300000Y-146750000D03*
X98050000Y-145250000D03*
X95050000Y-145250000D03*
X137250000Y-60750000D03*
X138000000Y-59250000D03*
X139500000Y-60750000D03*
X136500000Y-60750000D03*
X137250000Y-59250000D03*
X138750000Y-59250000D03*
X138000000Y-60750000D03*
X138750000Y-60750000D03*
X139500000Y-59250000D03*
X136500000Y-59250000D03*
X95800000Y-60750000D03*
X96550000Y-59250000D03*
X98050000Y-60750000D03*
X95050000Y-60750000D03*
X95800000Y-59250000D03*
X97300000Y-59250000D03*
X96550000Y-60750000D03*
X97300000Y-60750000D03*
X98050000Y-59250000D03*
X95050000Y-59250000D03*
X77500000Y-59250000D03*
X80500000Y-59250000D03*
X79750000Y-60750000D03*
X79000000Y-60750000D03*
X79750000Y-59250000D03*
X78250000Y-59250000D03*
X77500000Y-60750000D03*
X80500000Y-60750000D03*
X79000000Y-59250000D03*
X78250000Y-60750000D03*
X36050000Y-59250000D03*
X39050000Y-59250000D03*
X38300000Y-60750000D03*
X37550000Y-60750000D03*
X38300000Y-59250000D03*
X36800000Y-59250000D03*
X36050000Y-60750000D03*
X39050000Y-60750000D03*
X37550000Y-59250000D03*
X36800000Y-60750000D03*
X78250000Y-146750000D03*
X79000000Y-145250000D03*
X80500000Y-146750000D03*
X77500000Y-146750000D03*
X78250000Y-145250000D03*
X79750000Y-145250000D03*
X79000000Y-146750000D03*
X79750000Y-146750000D03*
X80500000Y-145250000D03*
X77500000Y-145250000D03*
X36800000Y-146750000D03*
X36800000Y-145250000D03*
X37550000Y-146750000D03*
X37550000Y-145250000D03*
X38300000Y-145250000D03*
X38300000Y-146750000D03*
X39050000Y-145250000D03*
X36050000Y-145250000D03*
X36050000Y-146750000D03*
X39050000Y-146750000D03*
D12*
X74900000Y-120900025D03*
X74900000Y-123900000D03*
M02*
