G04 #@! TF.GenerationSoftware,KiCad,Pcbnew,(6.0.7)*
G04 #@! TF.CreationDate,2023-01-11T21:48:02+01:00*
G04 #@! TF.ProjectId,PCBWallet,50434257-616c-46c6-9574-2e6b69636164,rev?*
G04 #@! TF.SameCoordinates,Original*
G04 #@! TF.FileFunction,Copper,L1,Top*
G04 #@! TF.FilePolarity,Positive*
%FSLAX46Y46*%
G04 Gerber Fmt 4.6, Leading zero omitted, Abs format (unit mm)*
G04 Created by KiCad (PCBNEW (6.0.7)) date 2023-01-11 21:48:02*
%MOMM*%
%LPD*%
G01*
G04 APERTURE LIST*
G04 Aperture macros list*
%AMRoundRect*
0 Rectangle with rounded corners*
0 $1 Rounding radius*
0 $2 $3 $4 $5 $6 $7 $8 $9 X,Y pos of 4 corners*
0 Add a 4 corners polygon primitive as box body*
4,1,4,$2,$3,$4,$5,$6,$7,$8,$9,$2,$3,0*
0 Add four circle primitives for the rounded corners*
1,1,$1+$1,$2,$3*
1,1,$1+$1,$4,$5*
1,1,$1+$1,$6,$7*
1,1,$1+$1,$8,$9*
0 Add four rect primitives between the rounded corners*
20,1,$1+$1,$2,$3,$4,$5,0*
20,1,$1+$1,$4,$5,$6,$7,0*
20,1,$1+$1,$6,$7,$8,$9,0*
20,1,$1+$1,$8,$9,$2,$3,0*%
G04 Aperture macros list end*
G04 #@! TA.AperFunction,NonConductor*
%ADD10C,0.200000*%
G04 #@! TD*
G04 #@! TA.AperFunction,NonConductor*
%ADD11C,1.100000*%
G04 #@! TD*
%ADD12C,0.150000*%
G04 #@! TA.AperFunction,NonConductor*
%ADD13C,0.150000*%
G04 #@! TD*
G04 #@! TA.AperFunction,EtchedComponent*
%ADD14C,0.300000*%
G04 #@! TD*
G04 #@! TA.AperFunction,SMDPad,CuDef*
%ADD15RoundRect,0.140000X0.170000X-0.140000X0.170000X0.140000X-0.170000X0.140000X-0.170000X-0.140000X0*%
G04 #@! TD*
G04 #@! TA.AperFunction,SMDPad,CuDef*
%ADD16RoundRect,0.140000X-0.140000X-0.170000X0.140000X-0.170000X0.140000X0.170000X-0.140000X0.170000X0*%
G04 #@! TD*
G04 #@! TA.AperFunction,SMDPad,CuDef*
%ADD17RoundRect,0.218750X0.218750X0.256250X-0.218750X0.256250X-0.218750X-0.256250X0.218750X-0.256250X0*%
G04 #@! TD*
G04 #@! TA.AperFunction,SMDPad,CuDef*
%ADD18R,0.250000X0.700000*%
G04 #@! TD*
G04 #@! TA.AperFunction,SMDPad,CuDef*
%ADD19R,2.380000X1.660000*%
G04 #@! TD*
G04 #@! TA.AperFunction,SMDPad,CuDef*
%ADD20RoundRect,0.135000X0.185000X-0.135000X0.185000X0.135000X-0.185000X0.135000X-0.185000X-0.135000X0*%
G04 #@! TD*
G04 #@! TA.AperFunction,ComponentPad*
%ADD21C,0.400000*%
G04 #@! TD*
G04 #@! TA.AperFunction,SMDPad,CuDef*
%ADD22RoundRect,0.075000X-0.075000X-0.425000X0.075000X-0.425000X0.075000X0.425000X-0.075000X0.425000X0*%
G04 #@! TD*
G04 #@! TA.AperFunction,ViaPad*
%ADD23C,1.200000*%
G04 #@! TD*
G04 #@! TA.AperFunction,ViaPad*
%ADD24C,0.600000*%
G04 #@! TD*
G04 #@! TA.AperFunction,Conductor*
%ADD25C,0.225000*%
G04 #@! TD*
G04 #@! TA.AperFunction,Conductor*
%ADD26C,0.250000*%
G04 #@! TD*
G04 APERTURE END LIST*
D10*
X58000000Y-51000000D02*
X61000000Y-51000000D01*
X61000000Y-51000000D02*
X61000000Y-54000000D01*
X61000000Y-54000000D02*
X58000000Y-54000000D01*
X58000000Y-54000000D02*
X58000000Y-51000000D01*
G36*
X58000000Y-51000000D02*
G01*
X61000000Y-51000000D01*
X61000000Y-54000000D01*
X58000000Y-54000000D01*
X58000000Y-51000000D01*
G37*
X54500000Y-51000000D02*
X57500000Y-51000000D01*
X57500000Y-51000000D02*
X57500000Y-54000000D01*
X57500000Y-54000000D02*
X54500000Y-54000000D01*
X54500000Y-54000000D02*
X54500000Y-51000000D01*
G36*
X54500000Y-51000000D02*
G01*
X57500000Y-51000000D01*
X57500000Y-54000000D01*
X54500000Y-54000000D01*
X54500000Y-51000000D01*
G37*
X47500000Y-51000000D02*
X50500000Y-51000000D01*
X50500000Y-51000000D02*
X50500000Y-54000000D01*
X50500000Y-54000000D02*
X47500000Y-54000000D01*
X47500000Y-54000000D02*
X47500000Y-51000000D01*
G36*
X47500000Y-51000000D02*
G01*
X50500000Y-51000000D01*
X50500000Y-54000000D01*
X47500000Y-54000000D01*
X47500000Y-51000000D01*
G37*
X51000000Y-51000000D02*
X54000000Y-51000000D01*
X54000000Y-51000000D02*
X54000000Y-54000000D01*
X54000000Y-54000000D02*
X51000000Y-54000000D01*
X51000000Y-54000000D02*
X51000000Y-51000000D01*
G36*
X51000000Y-51000000D02*
G01*
X54000000Y-51000000D01*
X54000000Y-54000000D01*
X51000000Y-54000000D01*
X51000000Y-51000000D01*
G37*
X40500000Y-51000000D02*
X43500000Y-51000000D01*
X43500000Y-51000000D02*
X43500000Y-54000000D01*
X43500000Y-54000000D02*
X40500000Y-54000000D01*
X40500000Y-54000000D02*
X40500000Y-51000000D01*
G36*
X40500000Y-51000000D02*
G01*
X43500000Y-51000000D01*
X43500000Y-54000000D01*
X40500000Y-54000000D01*
X40500000Y-51000000D01*
G37*
X44000000Y-51000000D02*
X47000000Y-51000000D01*
X47000000Y-51000000D02*
X47000000Y-54000000D01*
X47000000Y-54000000D02*
X44000000Y-54000000D01*
X44000000Y-54000000D02*
X44000000Y-51000000D01*
G36*
X44000000Y-51000000D02*
G01*
X47000000Y-51000000D01*
X47000000Y-54000000D01*
X44000000Y-54000000D01*
X44000000Y-51000000D01*
G37*
X33500000Y-51000000D02*
X36500000Y-51000000D01*
X36500000Y-51000000D02*
X36500000Y-54000000D01*
X36500000Y-54000000D02*
X33500000Y-54000000D01*
X33500000Y-54000000D02*
X33500000Y-51000000D01*
G36*
X33500000Y-51000000D02*
G01*
X36500000Y-51000000D01*
X36500000Y-54000000D01*
X33500000Y-54000000D01*
X33500000Y-51000000D01*
G37*
X54500000Y-47400000D02*
X57500000Y-47400000D01*
X57500000Y-47400000D02*
X57500000Y-50400000D01*
X57500000Y-50400000D02*
X54500000Y-50400000D01*
X54500000Y-50400000D02*
X54500000Y-47400000D01*
G36*
X54500000Y-47400000D02*
G01*
X57500000Y-47400000D01*
X57500000Y-50400000D01*
X54500000Y-50400000D01*
X54500000Y-47400000D01*
G37*
X51000000Y-47400000D02*
X54000000Y-47400000D01*
X54000000Y-47400000D02*
X54000000Y-50400000D01*
X54000000Y-50400000D02*
X51000000Y-50400000D01*
X51000000Y-50400000D02*
X51000000Y-47400000D01*
G36*
X51000000Y-47400000D02*
G01*
X54000000Y-47400000D01*
X54000000Y-50400000D01*
X51000000Y-50400000D01*
X51000000Y-47400000D01*
G37*
X47500000Y-47400000D02*
X50500000Y-47400000D01*
X50500000Y-47400000D02*
X50500000Y-50400000D01*
X50500000Y-50400000D02*
X47500000Y-50400000D01*
X47500000Y-50400000D02*
X47500000Y-47400000D01*
G36*
X47500000Y-47400000D02*
G01*
X50500000Y-47400000D01*
X50500000Y-50400000D01*
X47500000Y-50400000D01*
X47500000Y-47400000D01*
G37*
X44000000Y-47400000D02*
X47000000Y-47400000D01*
X47000000Y-47400000D02*
X47000000Y-50400000D01*
X47000000Y-50400000D02*
X44000000Y-50400000D01*
X44000000Y-50400000D02*
X44000000Y-47400000D01*
G36*
X44000000Y-47400000D02*
G01*
X47000000Y-47400000D01*
X47000000Y-50400000D01*
X44000000Y-50400000D01*
X44000000Y-47400000D01*
G37*
X40500000Y-47400000D02*
X43500000Y-47400000D01*
X43500000Y-47400000D02*
X43500000Y-50400000D01*
X43500000Y-50400000D02*
X40500000Y-50400000D01*
X40500000Y-50400000D02*
X40500000Y-47400000D01*
G36*
X40500000Y-47400000D02*
G01*
X43500000Y-47400000D01*
X43500000Y-50400000D01*
X40500000Y-50400000D01*
X40500000Y-47400000D01*
G37*
X92500000Y-105250000D02*
X94100000Y-105250000D01*
X94100000Y-105250000D02*
X94100000Y-106750000D01*
X94100000Y-106750000D02*
X92500000Y-106750000D01*
X92500000Y-106750000D02*
X92500000Y-105250000D01*
G36*
X92500000Y-105250000D02*
G01*
X94100000Y-105250000D01*
X94100000Y-106750000D01*
X92500000Y-106750000D01*
X92500000Y-105250000D01*
G37*
X35500000Y-89250000D02*
X37100000Y-89250000D01*
X37100000Y-89250000D02*
X37100000Y-90750000D01*
X37100000Y-90750000D02*
X35500000Y-90750000D01*
X35500000Y-90750000D02*
X35500000Y-89250000D01*
G36*
X35500000Y-89250000D02*
G01*
X37100000Y-89250000D01*
X37100000Y-90750000D01*
X35500000Y-90750000D01*
X35500000Y-89250000D01*
G37*
X102500000Y-111250000D02*
X104100000Y-111250000D01*
X104100000Y-111250000D02*
X104100000Y-112750000D01*
X104100000Y-112750000D02*
X102500000Y-112750000D01*
X102500000Y-112750000D02*
X102500000Y-111250000D01*
G36*
X102500000Y-111250000D02*
G01*
X104100000Y-111250000D01*
X104100000Y-112750000D01*
X102500000Y-112750000D01*
X102500000Y-111250000D01*
G37*
X120500000Y-115250000D02*
X122100000Y-115250000D01*
X122100000Y-115250000D02*
X122100000Y-116750000D01*
X122100000Y-116750000D02*
X120500000Y-116750000D01*
X120500000Y-116750000D02*
X120500000Y-115250000D01*
G36*
X120500000Y-115250000D02*
G01*
X122100000Y-115250000D01*
X122100000Y-116750000D01*
X120500000Y-116750000D01*
X120500000Y-115250000D01*
G37*
X57500000Y-95250000D02*
X59100000Y-95250000D01*
X59100000Y-95250000D02*
X59100000Y-96750000D01*
X59100000Y-96750000D02*
X57500000Y-96750000D01*
X57500000Y-96750000D02*
X57500000Y-95250000D01*
G36*
X57500000Y-95250000D02*
G01*
X59100000Y-95250000D01*
X59100000Y-96750000D01*
X57500000Y-96750000D01*
X57500000Y-95250000D01*
G37*
X108500000Y-109250000D02*
X110100000Y-109250000D01*
X110100000Y-109250000D02*
X110100000Y-110750000D01*
X110100000Y-110750000D02*
X108500000Y-110750000D01*
X108500000Y-110750000D02*
X108500000Y-109250000D01*
G36*
X108500000Y-109250000D02*
G01*
X110100000Y-109250000D01*
X110100000Y-110750000D01*
X108500000Y-110750000D01*
X108500000Y-109250000D01*
G37*
X140500000Y-91250000D02*
X142100000Y-91250000D01*
X142100000Y-91250000D02*
X142100000Y-92750000D01*
X142100000Y-92750000D02*
X140500000Y-92750000D01*
X140500000Y-92750000D02*
X140500000Y-91250000D01*
G36*
X140500000Y-91250000D02*
G01*
X142100000Y-91250000D01*
X142100000Y-92750000D01*
X140500000Y-92750000D01*
X140500000Y-91250000D01*
G37*
X69500000Y-99250000D02*
X71100000Y-99250000D01*
X71100000Y-99250000D02*
X71100000Y-100750000D01*
X71100000Y-100750000D02*
X69500000Y-100750000D01*
X69500000Y-100750000D02*
X69500000Y-99250000D01*
G36*
X69500000Y-99250000D02*
G01*
X71100000Y-99250000D01*
X71100000Y-100750000D01*
X69500000Y-100750000D01*
X69500000Y-99250000D01*
G37*
X61500000Y-115250000D02*
X63100000Y-115250000D01*
X63100000Y-115250000D02*
X63100000Y-116750000D01*
X63100000Y-116750000D02*
X61500000Y-116750000D01*
X61500000Y-116750000D02*
X61500000Y-115250000D01*
G36*
X61500000Y-115250000D02*
G01*
X63100000Y-115250000D01*
X63100000Y-116750000D01*
X61500000Y-116750000D01*
X61500000Y-115250000D01*
G37*
D11*
X83350000Y-120000000D02*
G75*
G03*
X83350000Y-120000000I-550000J0D01*
G01*
D10*
X77500000Y-109250000D02*
X79100000Y-109250000D01*
X79100000Y-109250000D02*
X79100000Y-110750000D01*
X79100000Y-110750000D02*
X77500000Y-110750000D01*
X77500000Y-110750000D02*
X77500000Y-109250000D01*
G36*
X77500000Y-109250000D02*
G01*
X79100000Y-109250000D01*
X79100000Y-110750000D01*
X77500000Y-110750000D01*
X77500000Y-109250000D01*
G37*
X57500000Y-107250000D02*
X59100000Y-107250000D01*
X59100000Y-107250000D02*
X59100000Y-108750000D01*
X59100000Y-108750000D02*
X57500000Y-108750000D01*
X57500000Y-108750000D02*
X57500000Y-107250000D01*
G36*
X57500000Y-107250000D02*
G01*
X59100000Y-107250000D01*
X59100000Y-108750000D01*
X57500000Y-108750000D01*
X57500000Y-107250000D01*
G37*
X110500000Y-91250000D02*
X112100000Y-91250000D01*
X112100000Y-91250000D02*
X112100000Y-92750000D01*
X112100000Y-92750000D02*
X110500000Y-92750000D01*
X110500000Y-92750000D02*
X110500000Y-91250000D01*
G36*
X110500000Y-91250000D02*
G01*
X112100000Y-91250000D01*
X112100000Y-92750000D01*
X110500000Y-92750000D01*
X110500000Y-91250000D01*
G37*
X45500000Y-111250000D02*
X47100000Y-111250000D01*
X47100000Y-111250000D02*
X47100000Y-112750000D01*
X47100000Y-112750000D02*
X45500000Y-112750000D01*
X45500000Y-112750000D02*
X45500000Y-111250000D01*
G36*
X45500000Y-111250000D02*
G01*
X47100000Y-111250000D01*
X47100000Y-112750000D01*
X45500000Y-112750000D01*
X45500000Y-111250000D01*
G37*
X55500000Y-111250000D02*
X57100000Y-111250000D01*
X57100000Y-111250000D02*
X57100000Y-112750000D01*
X57100000Y-112750000D02*
X55500000Y-112750000D01*
X55500000Y-112750000D02*
X55500000Y-111250000D01*
G36*
X55500000Y-111250000D02*
G01*
X57100000Y-111250000D01*
X57100000Y-112750000D01*
X55500000Y-112750000D01*
X55500000Y-111250000D01*
G37*
X53500000Y-101250000D02*
X55100000Y-101250000D01*
X55100000Y-101250000D02*
X55100000Y-102750000D01*
X55100000Y-102750000D02*
X53500000Y-102750000D01*
X53500000Y-102750000D02*
X53500000Y-101250000D01*
G36*
X53500000Y-101250000D02*
G01*
X55100000Y-101250000D01*
X55100000Y-102750000D01*
X53500000Y-102750000D01*
X53500000Y-101250000D01*
G37*
X122500000Y-97250000D02*
X124100000Y-97250000D01*
X124100000Y-97250000D02*
X124100000Y-98750000D01*
X124100000Y-98750000D02*
X122500000Y-98750000D01*
X122500000Y-98750000D02*
X122500000Y-97250000D01*
G36*
X122500000Y-97250000D02*
G01*
X124100000Y-97250000D01*
X124100000Y-98750000D01*
X122500000Y-98750000D01*
X122500000Y-97250000D01*
G37*
X102500000Y-113250000D02*
X104100000Y-113250000D01*
X104100000Y-113250000D02*
X104100000Y-114750000D01*
X104100000Y-114750000D02*
X102500000Y-114750000D01*
X102500000Y-114750000D02*
X102500000Y-113250000D01*
G36*
X102500000Y-113250000D02*
G01*
X104100000Y-113250000D01*
X104100000Y-114750000D01*
X102500000Y-114750000D01*
X102500000Y-113250000D01*
G37*
X108500000Y-89250000D02*
X110100000Y-89250000D01*
X110100000Y-89250000D02*
X110100000Y-90750000D01*
X110100000Y-90750000D02*
X108500000Y-90750000D01*
X108500000Y-90750000D02*
X108500000Y-89250000D01*
G36*
X108500000Y-89250000D02*
G01*
X110100000Y-89250000D01*
X110100000Y-90750000D01*
X108500000Y-90750000D01*
X108500000Y-89250000D01*
G37*
X55500000Y-109250000D02*
X57100000Y-109250000D01*
X57100000Y-109250000D02*
X57100000Y-110750000D01*
X57100000Y-110750000D02*
X55500000Y-110750000D01*
X55500000Y-110750000D02*
X55500000Y-109250000D01*
G36*
X55500000Y-109250000D02*
G01*
X57100000Y-109250000D01*
X57100000Y-110750000D01*
X55500000Y-110750000D01*
X55500000Y-109250000D01*
G37*
X100500000Y-113250000D02*
X102100000Y-113250000D01*
X102100000Y-113250000D02*
X102100000Y-114750000D01*
X102100000Y-114750000D02*
X100500000Y-114750000D01*
X100500000Y-114750000D02*
X100500000Y-113250000D01*
G36*
X100500000Y-113250000D02*
G01*
X102100000Y-113250000D01*
X102100000Y-114750000D01*
X100500000Y-114750000D01*
X100500000Y-113250000D01*
G37*
X55500000Y-99250000D02*
X57100000Y-99250000D01*
X57100000Y-99250000D02*
X57100000Y-100750000D01*
X57100000Y-100750000D02*
X55500000Y-100750000D01*
X55500000Y-100750000D02*
X55500000Y-99250000D01*
G36*
X55500000Y-99250000D02*
G01*
X57100000Y-99250000D01*
X57100000Y-100750000D01*
X55500000Y-100750000D01*
X55500000Y-99250000D01*
G37*
X106500000Y-89250000D02*
X108100000Y-89250000D01*
X108100000Y-89250000D02*
X108100000Y-90750000D01*
X108100000Y-90750000D02*
X106500000Y-90750000D01*
X106500000Y-90750000D02*
X106500000Y-89250000D01*
G36*
X106500000Y-89250000D02*
G01*
X108100000Y-89250000D01*
X108100000Y-90750000D01*
X106500000Y-90750000D01*
X106500000Y-89250000D01*
G37*
X57500000Y-99250000D02*
X59100000Y-99250000D01*
X59100000Y-99250000D02*
X59100000Y-100750000D01*
X59100000Y-100750000D02*
X57500000Y-100750000D01*
X57500000Y-100750000D02*
X57500000Y-99250000D01*
G36*
X57500000Y-99250000D02*
G01*
X59100000Y-99250000D01*
X59100000Y-100750000D01*
X57500000Y-100750000D01*
X57500000Y-99250000D01*
G37*
X59500000Y-101250000D02*
X61100000Y-101250000D01*
X61100000Y-101250000D02*
X61100000Y-102750000D01*
X61100000Y-102750000D02*
X59500000Y-102750000D01*
X59500000Y-102750000D02*
X59500000Y-101250000D01*
G36*
X59500000Y-101250000D02*
G01*
X61100000Y-101250000D01*
X61100000Y-102750000D01*
X59500000Y-102750000D01*
X59500000Y-101250000D01*
G37*
X81500000Y-93250000D02*
X83100000Y-93250000D01*
X83100000Y-93250000D02*
X83100000Y-94750000D01*
X83100000Y-94750000D02*
X81500000Y-94750000D01*
X81500000Y-94750000D02*
X81500000Y-93250000D01*
G36*
X81500000Y-93250000D02*
G01*
X83100000Y-93250000D01*
X83100000Y-94750000D01*
X81500000Y-94750000D01*
X81500000Y-93250000D01*
G37*
X81500000Y-111250000D02*
X83100000Y-111250000D01*
X83100000Y-111250000D02*
X83100000Y-112750000D01*
X83100000Y-112750000D02*
X81500000Y-112750000D01*
X81500000Y-112750000D02*
X81500000Y-111250000D01*
G36*
X81500000Y-111250000D02*
G01*
X83100000Y-111250000D01*
X83100000Y-112750000D01*
X81500000Y-112750000D01*
X81500000Y-111250000D01*
G37*
X71500000Y-103250000D02*
X73100000Y-103250000D01*
X73100000Y-103250000D02*
X73100000Y-104750000D01*
X73100000Y-104750000D02*
X71500000Y-104750000D01*
X71500000Y-104750000D02*
X71500000Y-103250000D01*
G36*
X71500000Y-103250000D02*
G01*
X73100000Y-103250000D01*
X73100000Y-104750000D01*
X71500000Y-104750000D01*
X71500000Y-103250000D01*
G37*
X108500000Y-105250000D02*
X110100000Y-105250000D01*
X110100000Y-105250000D02*
X110100000Y-106750000D01*
X110100000Y-106750000D02*
X108500000Y-106750000D01*
X108500000Y-106750000D02*
X108500000Y-105250000D01*
G36*
X108500000Y-105250000D02*
G01*
X110100000Y-105250000D01*
X110100000Y-106750000D01*
X108500000Y-106750000D01*
X108500000Y-105250000D01*
G37*
X128500000Y-91250000D02*
X130100000Y-91250000D01*
X130100000Y-91250000D02*
X130100000Y-92750000D01*
X130100000Y-92750000D02*
X128500000Y-92750000D01*
X128500000Y-92750000D02*
X128500000Y-91250000D01*
G36*
X128500000Y-91250000D02*
G01*
X130100000Y-91250000D01*
X130100000Y-92750000D01*
X128500000Y-92750000D01*
X128500000Y-91250000D01*
G37*
X81500000Y-103250000D02*
X83100000Y-103250000D01*
X83100000Y-103250000D02*
X83100000Y-104750000D01*
X83100000Y-104750000D02*
X81500000Y-104750000D01*
X81500000Y-104750000D02*
X81500000Y-103250000D01*
G36*
X81500000Y-103250000D02*
G01*
X83100000Y-103250000D01*
X83100000Y-104750000D01*
X81500000Y-104750000D01*
X81500000Y-103250000D01*
G37*
X116500000Y-115250000D02*
X118100000Y-115250000D01*
X118100000Y-115250000D02*
X118100000Y-116750000D01*
X118100000Y-116750000D02*
X116500000Y-116750000D01*
X116500000Y-116750000D02*
X116500000Y-115250000D01*
G36*
X116500000Y-115250000D02*
G01*
X118100000Y-115250000D01*
X118100000Y-116750000D01*
X116500000Y-116750000D01*
X116500000Y-115250000D01*
G37*
X140500000Y-93250000D02*
X142100000Y-93250000D01*
X142100000Y-93250000D02*
X142100000Y-94750000D01*
X142100000Y-94750000D02*
X140500000Y-94750000D01*
X140500000Y-94750000D02*
X140500000Y-93250000D01*
G36*
X140500000Y-93250000D02*
G01*
X142100000Y-93250000D01*
X142100000Y-94750000D01*
X140500000Y-94750000D01*
X140500000Y-93250000D01*
G37*
X65500000Y-113250000D02*
X67100000Y-113250000D01*
X67100000Y-113250000D02*
X67100000Y-114750000D01*
X67100000Y-114750000D02*
X65500000Y-114750000D01*
X65500000Y-114750000D02*
X65500000Y-113250000D01*
G36*
X65500000Y-113250000D02*
G01*
X67100000Y-113250000D01*
X67100000Y-114750000D01*
X65500000Y-114750000D01*
X65500000Y-113250000D01*
G37*
X118500000Y-111250000D02*
X120100000Y-111250000D01*
X120100000Y-111250000D02*
X120100000Y-112750000D01*
X120100000Y-112750000D02*
X118500000Y-112750000D01*
X118500000Y-112750000D02*
X118500000Y-111250000D01*
G36*
X118500000Y-111250000D02*
G01*
X120100000Y-111250000D01*
X120100000Y-112750000D01*
X118500000Y-112750000D01*
X118500000Y-111250000D01*
G37*
X108500000Y-95250000D02*
X110100000Y-95250000D01*
X110100000Y-95250000D02*
X110100000Y-96750000D01*
X110100000Y-96750000D02*
X108500000Y-96750000D01*
X108500000Y-96750000D02*
X108500000Y-95250000D01*
G36*
X108500000Y-95250000D02*
G01*
X110100000Y-95250000D01*
X110100000Y-96750000D01*
X108500000Y-96750000D01*
X108500000Y-95250000D01*
G37*
X59500000Y-107250000D02*
X61100000Y-107250000D01*
X61100000Y-107250000D02*
X61100000Y-108750000D01*
X61100000Y-108750000D02*
X59500000Y-108750000D01*
X59500000Y-108750000D02*
X59500000Y-107250000D01*
G36*
X59500000Y-107250000D02*
G01*
X61100000Y-107250000D01*
X61100000Y-108750000D01*
X59500000Y-108750000D01*
X59500000Y-107250000D01*
G37*
X61500000Y-105250000D02*
X63100000Y-105250000D01*
X63100000Y-105250000D02*
X63100000Y-106750000D01*
X63100000Y-106750000D02*
X61500000Y-106750000D01*
X61500000Y-106750000D02*
X61500000Y-105250000D01*
G36*
X61500000Y-105250000D02*
G01*
X63100000Y-105250000D01*
X63100000Y-106750000D01*
X61500000Y-106750000D01*
X61500000Y-105250000D01*
G37*
X92500000Y-111250000D02*
X94100000Y-111250000D01*
X94100000Y-111250000D02*
X94100000Y-112750000D01*
X94100000Y-112750000D02*
X92500000Y-112750000D01*
X92500000Y-112750000D02*
X92500000Y-111250000D01*
G36*
X92500000Y-111250000D02*
G01*
X94100000Y-111250000D01*
X94100000Y-112750000D01*
X92500000Y-112750000D01*
X92500000Y-111250000D01*
G37*
X55500000Y-95250000D02*
X57100000Y-95250000D01*
X57100000Y-95250000D02*
X57100000Y-96750000D01*
X57100000Y-96750000D02*
X55500000Y-96750000D01*
X55500000Y-96750000D02*
X55500000Y-95250000D01*
G36*
X55500000Y-95250000D02*
G01*
X57100000Y-95250000D01*
X57100000Y-96750000D01*
X55500000Y-96750000D01*
X55500000Y-95250000D01*
G37*
X100500000Y-97250000D02*
X102100000Y-97250000D01*
X102100000Y-97250000D02*
X102100000Y-98750000D01*
X102100000Y-98750000D02*
X100500000Y-98750000D01*
X100500000Y-98750000D02*
X100500000Y-97250000D01*
G36*
X100500000Y-97250000D02*
G01*
X102100000Y-97250000D01*
X102100000Y-98750000D01*
X100500000Y-98750000D01*
X100500000Y-97250000D01*
G37*
X138500000Y-97250000D02*
X140100000Y-97250000D01*
X140100000Y-97250000D02*
X140100000Y-98750000D01*
X140100000Y-98750000D02*
X138500000Y-98750000D01*
X138500000Y-98750000D02*
X138500000Y-97250000D01*
G36*
X138500000Y-97250000D02*
G01*
X140100000Y-97250000D01*
X140100000Y-98750000D01*
X138500000Y-98750000D01*
X138500000Y-97250000D01*
G37*
X69500000Y-105250000D02*
X71100000Y-105250000D01*
X71100000Y-105250000D02*
X71100000Y-106750000D01*
X71100000Y-106750000D02*
X69500000Y-106750000D01*
X69500000Y-106750000D02*
X69500000Y-105250000D01*
G36*
X69500000Y-105250000D02*
G01*
X71100000Y-105250000D01*
X71100000Y-106750000D01*
X69500000Y-106750000D01*
X69500000Y-105250000D01*
G37*
X53500000Y-95250000D02*
X55100000Y-95250000D01*
X55100000Y-95250000D02*
X55100000Y-96750000D01*
X55100000Y-96750000D02*
X53500000Y-96750000D01*
X53500000Y-96750000D02*
X53500000Y-95250000D01*
G36*
X53500000Y-95250000D02*
G01*
X55100000Y-95250000D01*
X55100000Y-96750000D01*
X53500000Y-96750000D01*
X53500000Y-95250000D01*
G37*
D11*
X142350000Y-141000000D02*
G75*
G03*
X142350000Y-141000000I-550000J0D01*
G01*
D10*
X59500000Y-99250000D02*
X61100000Y-99250000D01*
X61100000Y-99250000D02*
X61100000Y-100750000D01*
X61100000Y-100750000D02*
X59500000Y-100750000D01*
X59500000Y-100750000D02*
X59500000Y-99250000D01*
G36*
X59500000Y-99250000D02*
G01*
X61100000Y-99250000D01*
X61100000Y-100750000D01*
X59500000Y-100750000D01*
X59500000Y-99250000D01*
G37*
X108500000Y-107250000D02*
X110100000Y-107250000D01*
X110100000Y-107250000D02*
X110100000Y-108750000D01*
X110100000Y-108750000D02*
X108500000Y-108750000D01*
X108500000Y-108750000D02*
X108500000Y-107250000D01*
G36*
X108500000Y-107250000D02*
G01*
X110100000Y-107250000D01*
X110100000Y-108750000D01*
X108500000Y-108750000D01*
X108500000Y-107250000D01*
G37*
X41500000Y-115250000D02*
X43100000Y-115250000D01*
X43100000Y-115250000D02*
X43100000Y-116750000D01*
X43100000Y-116750000D02*
X41500000Y-116750000D01*
X41500000Y-116750000D02*
X41500000Y-115250000D01*
G36*
X41500000Y-115250000D02*
G01*
X43100000Y-115250000D01*
X43100000Y-116750000D01*
X41500000Y-116750000D01*
X41500000Y-115250000D01*
G37*
X37500000Y-107250000D02*
X39100000Y-107250000D01*
X39100000Y-107250000D02*
X39100000Y-108750000D01*
X39100000Y-108750000D02*
X37500000Y-108750000D01*
X37500000Y-108750000D02*
X37500000Y-107250000D01*
G36*
X37500000Y-107250000D02*
G01*
X39100000Y-107250000D01*
X39100000Y-108750000D01*
X37500000Y-108750000D01*
X37500000Y-107250000D01*
G37*
X65500000Y-91250000D02*
X67100000Y-91250000D01*
X67100000Y-91250000D02*
X67100000Y-92750000D01*
X67100000Y-92750000D02*
X65500000Y-92750000D01*
X65500000Y-92750000D02*
X65500000Y-91250000D01*
G36*
X65500000Y-91250000D02*
G01*
X67100000Y-91250000D01*
X67100000Y-92750000D01*
X65500000Y-92750000D01*
X65500000Y-91250000D01*
G37*
X51500000Y-95250000D02*
X53100000Y-95250000D01*
X53100000Y-95250000D02*
X53100000Y-96750000D01*
X53100000Y-96750000D02*
X51500000Y-96750000D01*
X51500000Y-96750000D02*
X51500000Y-95250000D01*
G36*
X51500000Y-95250000D02*
G01*
X53100000Y-95250000D01*
X53100000Y-96750000D01*
X51500000Y-96750000D01*
X51500000Y-95250000D01*
G37*
X33500000Y-111250000D02*
X35100000Y-111250000D01*
X35100000Y-111250000D02*
X35100000Y-112750000D01*
X35100000Y-112750000D02*
X33500000Y-112750000D01*
X33500000Y-112750000D02*
X33500000Y-111250000D01*
G36*
X33500000Y-111250000D02*
G01*
X35100000Y-111250000D01*
X35100000Y-112750000D01*
X33500000Y-112750000D01*
X33500000Y-111250000D01*
G37*
X79500000Y-99250000D02*
X81100000Y-99250000D01*
X81100000Y-99250000D02*
X81100000Y-100750000D01*
X81100000Y-100750000D02*
X79500000Y-100750000D01*
X79500000Y-100750000D02*
X79500000Y-99250000D01*
G36*
X79500000Y-99250000D02*
G01*
X81100000Y-99250000D01*
X81100000Y-100750000D01*
X79500000Y-100750000D01*
X79500000Y-99250000D01*
G37*
X118500000Y-113250000D02*
X120100000Y-113250000D01*
X120100000Y-113250000D02*
X120100000Y-114750000D01*
X120100000Y-114750000D02*
X118500000Y-114750000D01*
X118500000Y-114750000D02*
X118500000Y-113250000D01*
G36*
X118500000Y-113250000D02*
G01*
X120100000Y-113250000D01*
X120100000Y-114750000D01*
X118500000Y-114750000D01*
X118500000Y-113250000D01*
G37*
X79500000Y-113250000D02*
X81100000Y-113250000D01*
X81100000Y-113250000D02*
X81100000Y-114750000D01*
X81100000Y-114750000D02*
X79500000Y-114750000D01*
X79500000Y-114750000D02*
X79500000Y-113250000D01*
G36*
X79500000Y-113250000D02*
G01*
X81100000Y-113250000D01*
X81100000Y-114750000D01*
X79500000Y-114750000D01*
X79500000Y-113250000D01*
G37*
X47500000Y-109250000D02*
X49100000Y-109250000D01*
X49100000Y-109250000D02*
X49100000Y-110750000D01*
X49100000Y-110750000D02*
X47500000Y-110750000D01*
X47500000Y-110750000D02*
X47500000Y-109250000D01*
G36*
X47500000Y-109250000D02*
G01*
X49100000Y-109250000D01*
X49100000Y-110750000D01*
X47500000Y-110750000D01*
X47500000Y-109250000D01*
G37*
X132500000Y-97250000D02*
X134100000Y-97250000D01*
X134100000Y-97250000D02*
X134100000Y-98750000D01*
X134100000Y-98750000D02*
X132500000Y-98750000D01*
X132500000Y-98750000D02*
X132500000Y-97250000D01*
G36*
X132500000Y-97250000D02*
G01*
X134100000Y-97250000D01*
X134100000Y-98750000D01*
X132500000Y-98750000D01*
X132500000Y-97250000D01*
G37*
X116500000Y-95250000D02*
X118100000Y-95250000D01*
X118100000Y-95250000D02*
X118100000Y-96750000D01*
X118100000Y-96750000D02*
X116500000Y-96750000D01*
X116500000Y-96750000D02*
X116500000Y-95250000D01*
G36*
X116500000Y-95250000D02*
G01*
X118100000Y-95250000D01*
X118100000Y-96750000D01*
X116500000Y-96750000D01*
X116500000Y-95250000D01*
G37*
X126500000Y-105250000D02*
X128100000Y-105250000D01*
X128100000Y-105250000D02*
X128100000Y-106750000D01*
X128100000Y-106750000D02*
X126500000Y-106750000D01*
X126500000Y-106750000D02*
X126500000Y-105250000D01*
G36*
X126500000Y-105250000D02*
G01*
X128100000Y-105250000D01*
X128100000Y-106750000D01*
X126500000Y-106750000D01*
X126500000Y-105250000D01*
G37*
X96500000Y-93250000D02*
X98100000Y-93250000D01*
X98100000Y-93250000D02*
X98100000Y-94750000D01*
X98100000Y-94750000D02*
X96500000Y-94750000D01*
X96500000Y-94750000D02*
X96500000Y-93250000D01*
G36*
X96500000Y-93250000D02*
G01*
X98100000Y-93250000D01*
X98100000Y-94750000D01*
X96500000Y-94750000D01*
X96500000Y-93250000D01*
G37*
X98500000Y-99250000D02*
X100100000Y-99250000D01*
X100100000Y-99250000D02*
X100100000Y-100750000D01*
X100100000Y-100750000D02*
X98500000Y-100750000D01*
X98500000Y-100750000D02*
X98500000Y-99250000D01*
G36*
X98500000Y-99250000D02*
G01*
X100100000Y-99250000D01*
X100100000Y-100750000D01*
X98500000Y-100750000D01*
X98500000Y-99250000D01*
G37*
X55500000Y-105250000D02*
X57100000Y-105250000D01*
X57100000Y-105250000D02*
X57100000Y-106750000D01*
X57100000Y-106750000D02*
X55500000Y-106750000D01*
X55500000Y-106750000D02*
X55500000Y-105250000D01*
G36*
X55500000Y-105250000D02*
G01*
X57100000Y-105250000D01*
X57100000Y-106750000D01*
X55500000Y-106750000D01*
X55500000Y-105250000D01*
G37*
X57500000Y-91250000D02*
X59100000Y-91250000D01*
X59100000Y-91250000D02*
X59100000Y-92750000D01*
X59100000Y-92750000D02*
X57500000Y-92750000D01*
X57500000Y-92750000D02*
X57500000Y-91250000D01*
G36*
X57500000Y-91250000D02*
G01*
X59100000Y-91250000D01*
X59100000Y-92750000D01*
X57500000Y-92750000D01*
X57500000Y-91250000D01*
G37*
X104500000Y-103250000D02*
X106100000Y-103250000D01*
X106100000Y-103250000D02*
X106100000Y-104750000D01*
X106100000Y-104750000D02*
X104500000Y-104750000D01*
X104500000Y-104750000D02*
X104500000Y-103250000D01*
G36*
X104500000Y-103250000D02*
G01*
X106100000Y-103250000D01*
X106100000Y-104750000D01*
X104500000Y-104750000D01*
X104500000Y-103250000D01*
G37*
X61500000Y-93250000D02*
X63100000Y-93250000D01*
X63100000Y-93250000D02*
X63100000Y-94750000D01*
X63100000Y-94750000D02*
X61500000Y-94750000D01*
X61500000Y-94750000D02*
X61500000Y-93250000D01*
G36*
X61500000Y-93250000D02*
G01*
X63100000Y-93250000D01*
X63100000Y-94750000D01*
X61500000Y-94750000D01*
X61500000Y-93250000D01*
G37*
X136500000Y-107250000D02*
X138100000Y-107250000D01*
X138100000Y-107250000D02*
X138100000Y-108750000D01*
X138100000Y-108750000D02*
X136500000Y-108750000D01*
X136500000Y-108750000D02*
X136500000Y-107250000D01*
G36*
X136500000Y-107250000D02*
G01*
X138100000Y-107250000D01*
X138100000Y-108750000D01*
X136500000Y-108750000D01*
X136500000Y-107250000D01*
G37*
X138500000Y-109250000D02*
X140100000Y-109250000D01*
X140100000Y-109250000D02*
X140100000Y-110750000D01*
X140100000Y-110750000D02*
X138500000Y-110750000D01*
X138500000Y-110750000D02*
X138500000Y-109250000D01*
G36*
X138500000Y-109250000D02*
G01*
X140100000Y-109250000D01*
X140100000Y-110750000D01*
X138500000Y-110750000D01*
X138500000Y-109250000D01*
G37*
X136500000Y-97250000D02*
X138100000Y-97250000D01*
X138100000Y-97250000D02*
X138100000Y-98750000D01*
X138100000Y-98750000D02*
X136500000Y-98750000D01*
X136500000Y-98750000D02*
X136500000Y-97250000D01*
G36*
X136500000Y-97250000D02*
G01*
X138100000Y-97250000D01*
X138100000Y-98750000D01*
X136500000Y-98750000D01*
X136500000Y-97250000D01*
G37*
X47500000Y-97250000D02*
X49100000Y-97250000D01*
X49100000Y-97250000D02*
X49100000Y-98750000D01*
X49100000Y-98750000D02*
X47500000Y-98750000D01*
X47500000Y-98750000D02*
X47500000Y-97250000D01*
G36*
X47500000Y-97250000D02*
G01*
X49100000Y-97250000D01*
X49100000Y-98750000D01*
X47500000Y-98750000D01*
X47500000Y-97250000D01*
G37*
X59500000Y-111250000D02*
X61100000Y-111250000D01*
X61100000Y-111250000D02*
X61100000Y-112750000D01*
X61100000Y-112750000D02*
X59500000Y-112750000D01*
X59500000Y-112750000D02*
X59500000Y-111250000D01*
G36*
X59500000Y-111250000D02*
G01*
X61100000Y-111250000D01*
X61100000Y-112750000D01*
X59500000Y-112750000D01*
X59500000Y-111250000D01*
G37*
X100500000Y-101250000D02*
X102100000Y-101250000D01*
X102100000Y-101250000D02*
X102100000Y-102750000D01*
X102100000Y-102750000D02*
X100500000Y-102750000D01*
X100500000Y-102750000D02*
X100500000Y-101250000D01*
G36*
X100500000Y-101250000D02*
G01*
X102100000Y-101250000D01*
X102100000Y-102750000D01*
X100500000Y-102750000D01*
X100500000Y-101250000D01*
G37*
X73500000Y-99250000D02*
X75100000Y-99250000D01*
X75100000Y-99250000D02*
X75100000Y-100750000D01*
X75100000Y-100750000D02*
X73500000Y-100750000D01*
X73500000Y-100750000D02*
X73500000Y-99250000D01*
G36*
X73500000Y-99250000D02*
G01*
X75100000Y-99250000D01*
X75100000Y-100750000D01*
X73500000Y-100750000D01*
X73500000Y-99250000D01*
G37*
X98500000Y-107250000D02*
X100100000Y-107250000D01*
X100100000Y-107250000D02*
X100100000Y-108750000D01*
X100100000Y-108750000D02*
X98500000Y-108750000D01*
X98500000Y-108750000D02*
X98500000Y-107250000D01*
G36*
X98500000Y-107250000D02*
G01*
X100100000Y-107250000D01*
X100100000Y-108750000D01*
X98500000Y-108750000D01*
X98500000Y-107250000D01*
G37*
X61500000Y-111250000D02*
X63100000Y-111250000D01*
X63100000Y-111250000D02*
X63100000Y-112750000D01*
X63100000Y-112750000D02*
X61500000Y-112750000D01*
X61500000Y-112750000D02*
X61500000Y-111250000D01*
G36*
X61500000Y-111250000D02*
G01*
X63100000Y-111250000D01*
X63100000Y-112750000D01*
X61500000Y-112750000D01*
X61500000Y-111250000D01*
G37*
X110500000Y-111250000D02*
X112100000Y-111250000D01*
X112100000Y-111250000D02*
X112100000Y-112750000D01*
X112100000Y-112750000D02*
X110500000Y-112750000D01*
X110500000Y-112750000D02*
X110500000Y-111250000D01*
G36*
X110500000Y-111250000D02*
G01*
X112100000Y-111250000D01*
X112100000Y-112750000D01*
X110500000Y-112750000D01*
X110500000Y-111250000D01*
G37*
X79500000Y-109250000D02*
X81100000Y-109250000D01*
X81100000Y-109250000D02*
X81100000Y-110750000D01*
X81100000Y-110750000D02*
X79500000Y-110750000D01*
X79500000Y-110750000D02*
X79500000Y-109250000D01*
G36*
X79500000Y-109250000D02*
G01*
X81100000Y-109250000D01*
X81100000Y-110750000D01*
X79500000Y-110750000D01*
X79500000Y-109250000D01*
G37*
D11*
X83350000Y-86000000D02*
G75*
G03*
X83350000Y-86000000I-550000J0D01*
G01*
D10*
X57500000Y-111250000D02*
X59100000Y-111250000D01*
X59100000Y-111250000D02*
X59100000Y-112750000D01*
X59100000Y-112750000D02*
X57500000Y-112750000D01*
X57500000Y-112750000D02*
X57500000Y-111250000D01*
G36*
X57500000Y-111250000D02*
G01*
X59100000Y-111250000D01*
X59100000Y-112750000D01*
X57500000Y-112750000D01*
X57500000Y-111250000D01*
G37*
X94500000Y-89250000D02*
X96100000Y-89250000D01*
X96100000Y-89250000D02*
X96100000Y-90750000D01*
X96100000Y-90750000D02*
X94500000Y-90750000D01*
X94500000Y-90750000D02*
X94500000Y-89250000D01*
G36*
X94500000Y-89250000D02*
G01*
X96100000Y-89250000D01*
X96100000Y-90750000D01*
X94500000Y-90750000D01*
X94500000Y-89250000D01*
G37*
X39500000Y-105250000D02*
X41100000Y-105250000D01*
X41100000Y-105250000D02*
X41100000Y-106750000D01*
X41100000Y-106750000D02*
X39500000Y-106750000D01*
X39500000Y-106750000D02*
X39500000Y-105250000D01*
G36*
X39500000Y-105250000D02*
G01*
X41100000Y-105250000D01*
X41100000Y-106750000D01*
X39500000Y-106750000D01*
X39500000Y-105250000D01*
G37*
X130500000Y-111250000D02*
X132100000Y-111250000D01*
X132100000Y-111250000D02*
X132100000Y-112750000D01*
X132100000Y-112750000D02*
X130500000Y-112750000D01*
X130500000Y-112750000D02*
X130500000Y-111250000D01*
G36*
X130500000Y-111250000D02*
G01*
X132100000Y-111250000D01*
X132100000Y-112750000D01*
X130500000Y-112750000D01*
X130500000Y-111250000D01*
G37*
X75500000Y-115250000D02*
X77100000Y-115250000D01*
X77100000Y-115250000D02*
X77100000Y-116750000D01*
X77100000Y-116750000D02*
X75500000Y-116750000D01*
X75500000Y-116750000D02*
X75500000Y-115250000D01*
G36*
X75500000Y-115250000D02*
G01*
X77100000Y-115250000D01*
X77100000Y-116750000D01*
X75500000Y-116750000D01*
X75500000Y-115250000D01*
G37*
X112500000Y-95250000D02*
X114100000Y-95250000D01*
X114100000Y-95250000D02*
X114100000Y-96750000D01*
X114100000Y-96750000D02*
X112500000Y-96750000D01*
X112500000Y-96750000D02*
X112500000Y-95250000D01*
G36*
X112500000Y-95250000D02*
G01*
X114100000Y-95250000D01*
X114100000Y-96750000D01*
X112500000Y-96750000D01*
X112500000Y-95250000D01*
G37*
X134500000Y-99250000D02*
X136100000Y-99250000D01*
X136100000Y-99250000D02*
X136100000Y-100750000D01*
X136100000Y-100750000D02*
X134500000Y-100750000D01*
X134500000Y-100750000D02*
X134500000Y-99250000D01*
G36*
X134500000Y-99250000D02*
G01*
X136100000Y-99250000D01*
X136100000Y-100750000D01*
X134500000Y-100750000D01*
X134500000Y-99250000D01*
G37*
X114500000Y-111250000D02*
X116100000Y-111250000D01*
X116100000Y-111250000D02*
X116100000Y-112750000D01*
X116100000Y-112750000D02*
X114500000Y-112750000D01*
X114500000Y-112750000D02*
X114500000Y-111250000D01*
G36*
X114500000Y-111250000D02*
G01*
X116100000Y-111250000D01*
X116100000Y-112750000D01*
X114500000Y-112750000D01*
X114500000Y-111250000D01*
G37*
X35500000Y-97250000D02*
X37100000Y-97250000D01*
X37100000Y-97250000D02*
X37100000Y-98750000D01*
X37100000Y-98750000D02*
X35500000Y-98750000D01*
X35500000Y-98750000D02*
X35500000Y-97250000D01*
G36*
X35500000Y-97250000D02*
G01*
X37100000Y-97250000D01*
X37100000Y-98750000D01*
X35500000Y-98750000D01*
X35500000Y-97250000D01*
G37*
X53500000Y-113250000D02*
X55100000Y-113250000D01*
X55100000Y-113250000D02*
X55100000Y-114750000D01*
X55100000Y-114750000D02*
X53500000Y-114750000D01*
X53500000Y-114750000D02*
X53500000Y-113250000D01*
G36*
X53500000Y-113250000D02*
G01*
X55100000Y-113250000D01*
X55100000Y-114750000D01*
X53500000Y-114750000D01*
X53500000Y-113250000D01*
G37*
X98500000Y-111250000D02*
X100100000Y-111250000D01*
X100100000Y-111250000D02*
X100100000Y-112750000D01*
X100100000Y-112750000D02*
X98500000Y-112750000D01*
X98500000Y-112750000D02*
X98500000Y-111250000D01*
G36*
X98500000Y-111250000D02*
G01*
X100100000Y-111250000D01*
X100100000Y-112750000D01*
X98500000Y-112750000D01*
X98500000Y-111250000D01*
G37*
X49500000Y-113250000D02*
X51100000Y-113250000D01*
X51100000Y-113250000D02*
X51100000Y-114750000D01*
X51100000Y-114750000D02*
X49500000Y-114750000D01*
X49500000Y-114750000D02*
X49500000Y-113250000D01*
G36*
X49500000Y-113250000D02*
G01*
X51100000Y-113250000D01*
X51100000Y-114750000D01*
X49500000Y-114750000D01*
X49500000Y-113250000D01*
G37*
X71500000Y-101250000D02*
X73100000Y-101250000D01*
X73100000Y-101250000D02*
X73100000Y-102750000D01*
X73100000Y-102750000D02*
X71500000Y-102750000D01*
X71500000Y-102750000D02*
X71500000Y-101250000D01*
G36*
X71500000Y-101250000D02*
G01*
X73100000Y-101250000D01*
X73100000Y-102750000D01*
X71500000Y-102750000D01*
X71500000Y-101250000D01*
G37*
X114500000Y-97250000D02*
X116100000Y-97250000D01*
X116100000Y-97250000D02*
X116100000Y-98750000D01*
X116100000Y-98750000D02*
X114500000Y-98750000D01*
X114500000Y-98750000D02*
X114500000Y-97250000D01*
G36*
X114500000Y-97250000D02*
G01*
X116100000Y-97250000D01*
X116100000Y-98750000D01*
X114500000Y-98750000D01*
X114500000Y-97250000D01*
G37*
X77500000Y-93250000D02*
X79100000Y-93250000D01*
X79100000Y-93250000D02*
X79100000Y-94750000D01*
X79100000Y-94750000D02*
X77500000Y-94750000D01*
X77500000Y-94750000D02*
X77500000Y-93250000D01*
G36*
X77500000Y-93250000D02*
G01*
X79100000Y-93250000D01*
X79100000Y-94750000D01*
X77500000Y-94750000D01*
X77500000Y-93250000D01*
G37*
X71500000Y-99250000D02*
X73100000Y-99250000D01*
X73100000Y-99250000D02*
X73100000Y-100750000D01*
X73100000Y-100750000D02*
X71500000Y-100750000D01*
X71500000Y-100750000D02*
X71500000Y-99250000D01*
G36*
X71500000Y-99250000D02*
G01*
X73100000Y-99250000D01*
X73100000Y-100750000D01*
X71500000Y-100750000D01*
X71500000Y-99250000D01*
G37*
D11*
X142350000Y-65000000D02*
G75*
G03*
X142350000Y-65000000I-550000J0D01*
G01*
D10*
X69500000Y-101250000D02*
X71100000Y-101250000D01*
X71100000Y-101250000D02*
X71100000Y-102750000D01*
X71100000Y-102750000D02*
X69500000Y-102750000D01*
X69500000Y-102750000D02*
X69500000Y-101250000D01*
G36*
X69500000Y-101250000D02*
G01*
X71100000Y-101250000D01*
X71100000Y-102750000D01*
X69500000Y-102750000D01*
X69500000Y-101250000D01*
G37*
X94500000Y-91250000D02*
X96100000Y-91250000D01*
X96100000Y-91250000D02*
X96100000Y-92750000D01*
X96100000Y-92750000D02*
X94500000Y-92750000D01*
X94500000Y-92750000D02*
X94500000Y-91250000D01*
G36*
X94500000Y-91250000D02*
G01*
X96100000Y-91250000D01*
X96100000Y-92750000D01*
X94500000Y-92750000D01*
X94500000Y-91250000D01*
G37*
X120500000Y-89250000D02*
X122100000Y-89250000D01*
X122100000Y-89250000D02*
X122100000Y-90750000D01*
X122100000Y-90750000D02*
X120500000Y-90750000D01*
X120500000Y-90750000D02*
X120500000Y-89250000D01*
G36*
X120500000Y-89250000D02*
G01*
X122100000Y-89250000D01*
X122100000Y-90750000D01*
X120500000Y-90750000D01*
X120500000Y-89250000D01*
G37*
X126500000Y-115250000D02*
X128100000Y-115250000D01*
X128100000Y-115250000D02*
X128100000Y-116750000D01*
X128100000Y-116750000D02*
X126500000Y-116750000D01*
X126500000Y-116750000D02*
X126500000Y-115250000D01*
G36*
X126500000Y-115250000D02*
G01*
X128100000Y-115250000D01*
X128100000Y-116750000D01*
X126500000Y-116750000D01*
X126500000Y-115250000D01*
G37*
X130500000Y-99250000D02*
X132100000Y-99250000D01*
X132100000Y-99250000D02*
X132100000Y-100750000D01*
X132100000Y-100750000D02*
X130500000Y-100750000D01*
X130500000Y-100750000D02*
X130500000Y-99250000D01*
G36*
X130500000Y-99250000D02*
G01*
X132100000Y-99250000D01*
X132100000Y-100750000D01*
X130500000Y-100750000D01*
X130500000Y-99250000D01*
G37*
X110500000Y-89250000D02*
X112100000Y-89250000D01*
X112100000Y-89250000D02*
X112100000Y-90750000D01*
X112100000Y-90750000D02*
X110500000Y-90750000D01*
X110500000Y-90750000D02*
X110500000Y-89250000D01*
G36*
X110500000Y-89250000D02*
G01*
X112100000Y-89250000D01*
X112100000Y-90750000D01*
X110500000Y-90750000D01*
X110500000Y-89250000D01*
G37*
X63500000Y-101250000D02*
X65100000Y-101250000D01*
X65100000Y-101250000D02*
X65100000Y-102750000D01*
X65100000Y-102750000D02*
X63500000Y-102750000D01*
X63500000Y-102750000D02*
X63500000Y-101250000D01*
G36*
X63500000Y-101250000D02*
G01*
X65100000Y-101250000D01*
X65100000Y-102750000D01*
X63500000Y-102750000D01*
X63500000Y-101250000D01*
G37*
X77500000Y-91250000D02*
X79100000Y-91250000D01*
X79100000Y-91250000D02*
X79100000Y-92750000D01*
X79100000Y-92750000D02*
X77500000Y-92750000D01*
X77500000Y-92750000D02*
X77500000Y-91250000D01*
G36*
X77500000Y-91250000D02*
G01*
X79100000Y-91250000D01*
X79100000Y-92750000D01*
X77500000Y-92750000D01*
X77500000Y-91250000D01*
G37*
X118500000Y-115250000D02*
X120100000Y-115250000D01*
X120100000Y-115250000D02*
X120100000Y-116750000D01*
X120100000Y-116750000D02*
X118500000Y-116750000D01*
X118500000Y-116750000D02*
X118500000Y-115250000D01*
G36*
X118500000Y-115250000D02*
G01*
X120100000Y-115250000D01*
X120100000Y-116750000D01*
X118500000Y-116750000D01*
X118500000Y-115250000D01*
G37*
X57500000Y-103250000D02*
X59100000Y-103250000D01*
X59100000Y-103250000D02*
X59100000Y-104750000D01*
X59100000Y-104750000D02*
X57500000Y-104750000D01*
X57500000Y-104750000D02*
X57500000Y-103250000D01*
G36*
X57500000Y-103250000D02*
G01*
X59100000Y-103250000D01*
X59100000Y-104750000D01*
X57500000Y-104750000D01*
X57500000Y-103250000D01*
G37*
X124500000Y-97250000D02*
X126100000Y-97250000D01*
X126100000Y-97250000D02*
X126100000Y-98750000D01*
X126100000Y-98750000D02*
X124500000Y-98750000D01*
X124500000Y-98750000D02*
X124500000Y-97250000D01*
G36*
X124500000Y-97250000D02*
G01*
X126100000Y-97250000D01*
X126100000Y-98750000D01*
X124500000Y-98750000D01*
X124500000Y-97250000D01*
G37*
X114500000Y-91250000D02*
X116100000Y-91250000D01*
X116100000Y-91250000D02*
X116100000Y-92750000D01*
X116100000Y-92750000D02*
X114500000Y-92750000D01*
X114500000Y-92750000D02*
X114500000Y-91250000D01*
G36*
X114500000Y-91250000D02*
G01*
X116100000Y-91250000D01*
X116100000Y-92750000D01*
X114500000Y-92750000D01*
X114500000Y-91250000D01*
G37*
X104500000Y-113250000D02*
X106100000Y-113250000D01*
X106100000Y-113250000D02*
X106100000Y-114750000D01*
X106100000Y-114750000D02*
X104500000Y-114750000D01*
X104500000Y-114750000D02*
X104500000Y-113250000D01*
G36*
X104500000Y-113250000D02*
G01*
X106100000Y-113250000D01*
X106100000Y-114750000D01*
X104500000Y-114750000D01*
X104500000Y-113250000D01*
G37*
D11*
X34350000Y-86000000D02*
G75*
G03*
X34350000Y-86000000I-550000J0D01*
G01*
D10*
X39500000Y-115250000D02*
X41100000Y-115250000D01*
X41100000Y-115250000D02*
X41100000Y-116750000D01*
X41100000Y-116750000D02*
X39500000Y-116750000D01*
X39500000Y-116750000D02*
X39500000Y-115250000D01*
G36*
X39500000Y-115250000D02*
G01*
X41100000Y-115250000D01*
X41100000Y-116750000D01*
X39500000Y-116750000D01*
X39500000Y-115250000D01*
G37*
X112500000Y-91250000D02*
X114100000Y-91250000D01*
X114100000Y-91250000D02*
X114100000Y-92750000D01*
X114100000Y-92750000D02*
X112500000Y-92750000D01*
X112500000Y-92750000D02*
X112500000Y-91250000D01*
G36*
X112500000Y-91250000D02*
G01*
X114100000Y-91250000D01*
X114100000Y-92750000D01*
X112500000Y-92750000D01*
X112500000Y-91250000D01*
G37*
X132500000Y-99250000D02*
X134100000Y-99250000D01*
X134100000Y-99250000D02*
X134100000Y-100750000D01*
X134100000Y-100750000D02*
X132500000Y-100750000D01*
X132500000Y-100750000D02*
X132500000Y-99250000D01*
G36*
X132500000Y-99250000D02*
G01*
X134100000Y-99250000D01*
X134100000Y-100750000D01*
X132500000Y-100750000D01*
X132500000Y-99250000D01*
G37*
D11*
X34350000Y-65000000D02*
G75*
G03*
X34350000Y-65000000I-550000J0D01*
G01*
D10*
X124500000Y-111250000D02*
X126100000Y-111250000D01*
X126100000Y-111250000D02*
X126100000Y-112750000D01*
X126100000Y-112750000D02*
X124500000Y-112750000D01*
X124500000Y-112750000D02*
X124500000Y-111250000D01*
G36*
X124500000Y-111250000D02*
G01*
X126100000Y-111250000D01*
X126100000Y-112750000D01*
X124500000Y-112750000D01*
X124500000Y-111250000D01*
G37*
X114500000Y-109250000D02*
X116100000Y-109250000D01*
X116100000Y-109250000D02*
X116100000Y-110750000D01*
X116100000Y-110750000D02*
X114500000Y-110750000D01*
X114500000Y-110750000D02*
X114500000Y-109250000D01*
G36*
X114500000Y-109250000D02*
G01*
X116100000Y-109250000D01*
X116100000Y-110750000D01*
X114500000Y-110750000D01*
X114500000Y-109250000D01*
G37*
X104500000Y-91250000D02*
X106100000Y-91250000D01*
X106100000Y-91250000D02*
X106100000Y-92750000D01*
X106100000Y-92750000D02*
X104500000Y-92750000D01*
X104500000Y-92750000D02*
X104500000Y-91250000D01*
G36*
X104500000Y-91250000D02*
G01*
X106100000Y-91250000D01*
X106100000Y-92750000D01*
X104500000Y-92750000D01*
X104500000Y-91250000D01*
G37*
X118500000Y-107250000D02*
X120100000Y-107250000D01*
X120100000Y-107250000D02*
X120100000Y-108750000D01*
X120100000Y-108750000D02*
X118500000Y-108750000D01*
X118500000Y-108750000D02*
X118500000Y-107250000D01*
G36*
X118500000Y-107250000D02*
G01*
X120100000Y-107250000D01*
X120100000Y-108750000D01*
X118500000Y-108750000D01*
X118500000Y-107250000D01*
G37*
X112500000Y-101250000D02*
X114100000Y-101250000D01*
X114100000Y-101250000D02*
X114100000Y-102750000D01*
X114100000Y-102750000D02*
X112500000Y-102750000D01*
X112500000Y-102750000D02*
X112500000Y-101250000D01*
G36*
X112500000Y-101250000D02*
G01*
X114100000Y-101250000D01*
X114100000Y-102750000D01*
X112500000Y-102750000D01*
X112500000Y-101250000D01*
G37*
D11*
X142350000Y-86000000D02*
G75*
G03*
X142350000Y-86000000I-550000J0D01*
G01*
D10*
X124500000Y-113250000D02*
X126100000Y-113250000D01*
X126100000Y-113250000D02*
X126100000Y-114750000D01*
X126100000Y-114750000D02*
X124500000Y-114750000D01*
X124500000Y-114750000D02*
X124500000Y-113250000D01*
G36*
X124500000Y-113250000D02*
G01*
X126100000Y-113250000D01*
X126100000Y-114750000D01*
X124500000Y-114750000D01*
X124500000Y-113250000D01*
G37*
X33500000Y-113250000D02*
X35100000Y-113250000D01*
X35100000Y-113250000D02*
X35100000Y-114750000D01*
X35100000Y-114750000D02*
X33500000Y-114750000D01*
X33500000Y-114750000D02*
X33500000Y-113250000D01*
G36*
X33500000Y-113250000D02*
G01*
X35100000Y-113250000D01*
X35100000Y-114750000D01*
X33500000Y-114750000D01*
X33500000Y-113250000D01*
G37*
X67500000Y-95250000D02*
X69100000Y-95250000D01*
X69100000Y-95250000D02*
X69100000Y-96750000D01*
X69100000Y-96750000D02*
X67500000Y-96750000D01*
X67500000Y-96750000D02*
X67500000Y-95250000D01*
G36*
X67500000Y-95250000D02*
G01*
X69100000Y-95250000D01*
X69100000Y-96750000D01*
X67500000Y-96750000D01*
X67500000Y-95250000D01*
G37*
X35500000Y-111250000D02*
X37100000Y-111250000D01*
X37100000Y-111250000D02*
X37100000Y-112750000D01*
X37100000Y-112750000D02*
X35500000Y-112750000D01*
X35500000Y-112750000D02*
X35500000Y-111250000D01*
G36*
X35500000Y-111250000D02*
G01*
X37100000Y-111250000D01*
X37100000Y-112750000D01*
X35500000Y-112750000D01*
X35500000Y-111250000D01*
G37*
X81500000Y-105250000D02*
X83100000Y-105250000D01*
X83100000Y-105250000D02*
X83100000Y-106750000D01*
X83100000Y-106750000D02*
X81500000Y-106750000D01*
X81500000Y-106750000D02*
X81500000Y-105250000D01*
G36*
X81500000Y-105250000D02*
G01*
X83100000Y-105250000D01*
X83100000Y-106750000D01*
X81500000Y-106750000D01*
X81500000Y-105250000D01*
G37*
X138500000Y-113250000D02*
X140100000Y-113250000D01*
X140100000Y-113250000D02*
X140100000Y-114750000D01*
X140100000Y-114750000D02*
X138500000Y-114750000D01*
X138500000Y-114750000D02*
X138500000Y-113250000D01*
G36*
X138500000Y-113250000D02*
G01*
X140100000Y-113250000D01*
X140100000Y-114750000D01*
X138500000Y-114750000D01*
X138500000Y-113250000D01*
G37*
X49500000Y-99250000D02*
X51100000Y-99250000D01*
X51100000Y-99250000D02*
X51100000Y-100750000D01*
X51100000Y-100750000D02*
X49500000Y-100750000D01*
X49500000Y-100750000D02*
X49500000Y-99250000D01*
G36*
X49500000Y-99250000D02*
G01*
X51100000Y-99250000D01*
X51100000Y-100750000D01*
X49500000Y-100750000D01*
X49500000Y-99250000D01*
G37*
X75500000Y-99250000D02*
X77100000Y-99250000D01*
X77100000Y-99250000D02*
X77100000Y-100750000D01*
X77100000Y-100750000D02*
X75500000Y-100750000D01*
X75500000Y-100750000D02*
X75500000Y-99250000D01*
G36*
X75500000Y-99250000D02*
G01*
X77100000Y-99250000D01*
X77100000Y-100750000D01*
X75500000Y-100750000D01*
X75500000Y-99250000D01*
G37*
X67500000Y-89250000D02*
X69100000Y-89250000D01*
X69100000Y-89250000D02*
X69100000Y-90750000D01*
X69100000Y-90750000D02*
X67500000Y-90750000D01*
X67500000Y-90750000D02*
X67500000Y-89250000D01*
G36*
X67500000Y-89250000D02*
G01*
X69100000Y-89250000D01*
X69100000Y-90750000D01*
X67500000Y-90750000D01*
X67500000Y-89250000D01*
G37*
X128500000Y-111250000D02*
X130100000Y-111250000D01*
X130100000Y-111250000D02*
X130100000Y-112750000D01*
X130100000Y-112750000D02*
X128500000Y-112750000D01*
X128500000Y-112750000D02*
X128500000Y-111250000D01*
G36*
X128500000Y-111250000D02*
G01*
X130100000Y-111250000D01*
X130100000Y-112750000D01*
X128500000Y-112750000D01*
X128500000Y-111250000D01*
G37*
X106500000Y-97250000D02*
X108100000Y-97250000D01*
X108100000Y-97250000D02*
X108100000Y-98750000D01*
X108100000Y-98750000D02*
X106500000Y-98750000D01*
X106500000Y-98750000D02*
X106500000Y-97250000D01*
G36*
X106500000Y-97250000D02*
G01*
X108100000Y-97250000D01*
X108100000Y-98750000D01*
X106500000Y-98750000D01*
X106500000Y-97250000D01*
G37*
X41500000Y-113250000D02*
X43100000Y-113250000D01*
X43100000Y-113250000D02*
X43100000Y-114750000D01*
X43100000Y-114750000D02*
X41500000Y-114750000D01*
X41500000Y-114750000D02*
X41500000Y-113250000D01*
G36*
X41500000Y-113250000D02*
G01*
X43100000Y-113250000D01*
X43100000Y-114750000D01*
X41500000Y-114750000D01*
X41500000Y-113250000D01*
G37*
X102500000Y-95250000D02*
X104100000Y-95250000D01*
X104100000Y-95250000D02*
X104100000Y-96750000D01*
X104100000Y-96750000D02*
X102500000Y-96750000D01*
X102500000Y-96750000D02*
X102500000Y-95250000D01*
G36*
X102500000Y-95250000D02*
G01*
X104100000Y-95250000D01*
X104100000Y-96750000D01*
X102500000Y-96750000D01*
X102500000Y-95250000D01*
G37*
X55500000Y-97250000D02*
X57100000Y-97250000D01*
X57100000Y-97250000D02*
X57100000Y-98750000D01*
X57100000Y-98750000D02*
X55500000Y-98750000D01*
X55500000Y-98750000D02*
X55500000Y-97250000D01*
G36*
X55500000Y-97250000D02*
G01*
X57100000Y-97250000D01*
X57100000Y-98750000D01*
X55500000Y-98750000D01*
X55500000Y-97250000D01*
G37*
X138500000Y-99250000D02*
X140100000Y-99250000D01*
X140100000Y-99250000D02*
X140100000Y-100750000D01*
X140100000Y-100750000D02*
X138500000Y-100750000D01*
X138500000Y-100750000D02*
X138500000Y-99250000D01*
G36*
X138500000Y-99250000D02*
G01*
X140100000Y-99250000D01*
X140100000Y-100750000D01*
X138500000Y-100750000D01*
X138500000Y-99250000D01*
G37*
X81500000Y-101250000D02*
X83100000Y-101250000D01*
X83100000Y-101250000D02*
X83100000Y-102750000D01*
X83100000Y-102750000D02*
X81500000Y-102750000D01*
X81500000Y-102750000D02*
X81500000Y-101250000D01*
G36*
X81500000Y-101250000D02*
G01*
X83100000Y-101250000D01*
X83100000Y-102750000D01*
X81500000Y-102750000D01*
X81500000Y-101250000D01*
G37*
X65500000Y-111250000D02*
X67100000Y-111250000D01*
X67100000Y-111250000D02*
X67100000Y-112750000D01*
X67100000Y-112750000D02*
X65500000Y-112750000D01*
X65500000Y-112750000D02*
X65500000Y-111250000D01*
G36*
X65500000Y-111250000D02*
G01*
X67100000Y-111250000D01*
X67100000Y-112750000D01*
X65500000Y-112750000D01*
X65500000Y-111250000D01*
G37*
X110500000Y-97250000D02*
X112100000Y-97250000D01*
X112100000Y-97250000D02*
X112100000Y-98750000D01*
X112100000Y-98750000D02*
X110500000Y-98750000D01*
X110500000Y-98750000D02*
X110500000Y-97250000D01*
G36*
X110500000Y-97250000D02*
G01*
X112100000Y-97250000D01*
X112100000Y-98750000D01*
X110500000Y-98750000D01*
X110500000Y-97250000D01*
G37*
X37500000Y-93250000D02*
X39100000Y-93250000D01*
X39100000Y-93250000D02*
X39100000Y-94750000D01*
X39100000Y-94750000D02*
X37500000Y-94750000D01*
X37500000Y-94750000D02*
X37500000Y-93250000D01*
G36*
X37500000Y-93250000D02*
G01*
X39100000Y-93250000D01*
X39100000Y-94750000D01*
X37500000Y-94750000D01*
X37500000Y-93250000D01*
G37*
X69500000Y-91250000D02*
X71100000Y-91250000D01*
X71100000Y-91250000D02*
X71100000Y-92750000D01*
X71100000Y-92750000D02*
X69500000Y-92750000D01*
X69500000Y-92750000D02*
X69500000Y-91250000D01*
G36*
X69500000Y-91250000D02*
G01*
X71100000Y-91250000D01*
X71100000Y-92750000D01*
X69500000Y-92750000D01*
X69500000Y-91250000D01*
G37*
X47500000Y-103250000D02*
X49100000Y-103250000D01*
X49100000Y-103250000D02*
X49100000Y-104750000D01*
X49100000Y-104750000D02*
X47500000Y-104750000D01*
X47500000Y-104750000D02*
X47500000Y-103250000D01*
G36*
X47500000Y-103250000D02*
G01*
X49100000Y-103250000D01*
X49100000Y-104750000D01*
X47500000Y-104750000D01*
X47500000Y-103250000D01*
G37*
X33500000Y-103250000D02*
X35100000Y-103250000D01*
X35100000Y-103250000D02*
X35100000Y-104750000D01*
X35100000Y-104750000D02*
X33500000Y-104750000D01*
X33500000Y-104750000D02*
X33500000Y-103250000D01*
G36*
X33500000Y-103250000D02*
G01*
X35100000Y-103250000D01*
X35100000Y-104750000D01*
X33500000Y-104750000D01*
X33500000Y-103250000D01*
G37*
X134500000Y-115250000D02*
X136100000Y-115250000D01*
X136100000Y-115250000D02*
X136100000Y-116750000D01*
X136100000Y-116750000D02*
X134500000Y-116750000D01*
X134500000Y-116750000D02*
X134500000Y-115250000D01*
G36*
X134500000Y-115250000D02*
G01*
X136100000Y-115250000D01*
X136100000Y-116750000D01*
X134500000Y-116750000D01*
X134500000Y-115250000D01*
G37*
X37500000Y-113250000D02*
X39100000Y-113250000D01*
X39100000Y-113250000D02*
X39100000Y-114750000D01*
X39100000Y-114750000D02*
X37500000Y-114750000D01*
X37500000Y-114750000D02*
X37500000Y-113250000D01*
G36*
X37500000Y-113250000D02*
G01*
X39100000Y-113250000D01*
X39100000Y-114750000D01*
X37500000Y-114750000D01*
X37500000Y-113250000D01*
G37*
X33500000Y-47400000D02*
X36500000Y-47400000D01*
X36500000Y-47400000D02*
X36500000Y-50400000D01*
X36500000Y-50400000D02*
X33500000Y-50400000D01*
X33500000Y-50400000D02*
X33500000Y-47400000D01*
G36*
X33500000Y-47400000D02*
G01*
X36500000Y-47400000D01*
X36500000Y-50400000D01*
X33500000Y-50400000D01*
X33500000Y-47400000D01*
G37*
X81500000Y-91250000D02*
X83100000Y-91250000D01*
X83100000Y-91250000D02*
X83100000Y-92750000D01*
X83100000Y-92750000D02*
X81500000Y-92750000D01*
X81500000Y-92750000D02*
X81500000Y-91250000D01*
G36*
X81500000Y-91250000D02*
G01*
X83100000Y-91250000D01*
X83100000Y-92750000D01*
X81500000Y-92750000D01*
X81500000Y-91250000D01*
G37*
X96500000Y-113250000D02*
X98100000Y-113250000D01*
X98100000Y-113250000D02*
X98100000Y-114750000D01*
X98100000Y-114750000D02*
X96500000Y-114750000D01*
X96500000Y-114750000D02*
X96500000Y-113250000D01*
G36*
X96500000Y-113250000D02*
G01*
X98100000Y-113250000D01*
X98100000Y-114750000D01*
X96500000Y-114750000D01*
X96500000Y-113250000D01*
G37*
X33500000Y-91250000D02*
X35100000Y-91250000D01*
X35100000Y-91250000D02*
X35100000Y-92750000D01*
X35100000Y-92750000D02*
X33500000Y-92750000D01*
X33500000Y-92750000D02*
X33500000Y-91250000D01*
G36*
X33500000Y-91250000D02*
G01*
X35100000Y-91250000D01*
X35100000Y-92750000D01*
X33500000Y-92750000D01*
X33500000Y-91250000D01*
G37*
X77500000Y-97250000D02*
X79100000Y-97250000D01*
X79100000Y-97250000D02*
X79100000Y-98750000D01*
X79100000Y-98750000D02*
X77500000Y-98750000D01*
X77500000Y-98750000D02*
X77500000Y-97250000D01*
G36*
X77500000Y-97250000D02*
G01*
X79100000Y-97250000D01*
X79100000Y-98750000D01*
X77500000Y-98750000D01*
X77500000Y-97250000D01*
G37*
X126500000Y-113250000D02*
X128100000Y-113250000D01*
X128100000Y-113250000D02*
X128100000Y-114750000D01*
X128100000Y-114750000D02*
X126500000Y-114750000D01*
X126500000Y-114750000D02*
X126500000Y-113250000D01*
G36*
X126500000Y-113250000D02*
G01*
X128100000Y-113250000D01*
X128100000Y-114750000D01*
X126500000Y-114750000D01*
X126500000Y-113250000D01*
G37*
X114500000Y-115250000D02*
X116100000Y-115250000D01*
X116100000Y-115250000D02*
X116100000Y-116750000D01*
X116100000Y-116750000D02*
X114500000Y-116750000D01*
X114500000Y-116750000D02*
X114500000Y-115250000D01*
G36*
X114500000Y-115250000D02*
G01*
X116100000Y-115250000D01*
X116100000Y-116750000D01*
X114500000Y-116750000D01*
X114500000Y-115250000D01*
G37*
X39500000Y-111250000D02*
X41100000Y-111250000D01*
X41100000Y-111250000D02*
X41100000Y-112750000D01*
X41100000Y-112750000D02*
X39500000Y-112750000D01*
X39500000Y-112750000D02*
X39500000Y-111250000D01*
G36*
X39500000Y-111250000D02*
G01*
X41100000Y-111250000D01*
X41100000Y-112750000D01*
X39500000Y-112750000D01*
X39500000Y-111250000D01*
G37*
X33500000Y-107250000D02*
X35100000Y-107250000D01*
X35100000Y-107250000D02*
X35100000Y-108750000D01*
X35100000Y-108750000D02*
X33500000Y-108750000D01*
X33500000Y-108750000D02*
X33500000Y-107250000D01*
G36*
X33500000Y-107250000D02*
G01*
X35100000Y-107250000D01*
X35100000Y-108750000D01*
X33500000Y-108750000D01*
X33500000Y-107250000D01*
G37*
X75500000Y-91250000D02*
X77100000Y-91250000D01*
X77100000Y-91250000D02*
X77100000Y-92750000D01*
X77100000Y-92750000D02*
X75500000Y-92750000D01*
X75500000Y-92750000D02*
X75500000Y-91250000D01*
G36*
X75500000Y-91250000D02*
G01*
X77100000Y-91250000D01*
X77100000Y-92750000D01*
X75500000Y-92750000D01*
X75500000Y-91250000D01*
G37*
X114500000Y-95250000D02*
X116100000Y-95250000D01*
X116100000Y-95250000D02*
X116100000Y-96750000D01*
X116100000Y-96750000D02*
X114500000Y-96750000D01*
X114500000Y-96750000D02*
X114500000Y-95250000D01*
G36*
X114500000Y-95250000D02*
G01*
X116100000Y-95250000D01*
X116100000Y-96750000D01*
X114500000Y-96750000D01*
X114500000Y-95250000D01*
G37*
X94500000Y-111250000D02*
X96100000Y-111250000D01*
X96100000Y-111250000D02*
X96100000Y-112750000D01*
X96100000Y-112750000D02*
X94500000Y-112750000D01*
X94500000Y-112750000D02*
X94500000Y-111250000D01*
G36*
X94500000Y-111250000D02*
G01*
X96100000Y-111250000D01*
X96100000Y-112750000D01*
X94500000Y-112750000D01*
X94500000Y-111250000D01*
G37*
X45500000Y-113250000D02*
X47100000Y-113250000D01*
X47100000Y-113250000D02*
X47100000Y-114750000D01*
X47100000Y-114750000D02*
X45500000Y-114750000D01*
X45500000Y-114750000D02*
X45500000Y-113250000D01*
G36*
X45500000Y-113250000D02*
G01*
X47100000Y-113250000D01*
X47100000Y-114750000D01*
X45500000Y-114750000D01*
X45500000Y-113250000D01*
G37*
X79500000Y-111250000D02*
X81100000Y-111250000D01*
X81100000Y-111250000D02*
X81100000Y-112750000D01*
X81100000Y-112750000D02*
X79500000Y-112750000D01*
X79500000Y-112750000D02*
X79500000Y-111250000D01*
G36*
X79500000Y-111250000D02*
G01*
X81100000Y-111250000D01*
X81100000Y-112750000D01*
X79500000Y-112750000D01*
X79500000Y-111250000D01*
G37*
X69500000Y-89250000D02*
X71100000Y-89250000D01*
X71100000Y-89250000D02*
X71100000Y-90750000D01*
X71100000Y-90750000D02*
X69500000Y-90750000D01*
X69500000Y-90750000D02*
X69500000Y-89250000D01*
G36*
X69500000Y-89250000D02*
G01*
X71100000Y-89250000D01*
X71100000Y-90750000D01*
X69500000Y-90750000D01*
X69500000Y-89250000D01*
G37*
X104500000Y-97250000D02*
X106100000Y-97250000D01*
X106100000Y-97250000D02*
X106100000Y-98750000D01*
X106100000Y-98750000D02*
X104500000Y-98750000D01*
X104500000Y-98750000D02*
X104500000Y-97250000D01*
G36*
X104500000Y-97250000D02*
G01*
X106100000Y-97250000D01*
X106100000Y-98750000D01*
X104500000Y-98750000D01*
X104500000Y-97250000D01*
G37*
X59500000Y-95250000D02*
X61100000Y-95250000D01*
X61100000Y-95250000D02*
X61100000Y-96750000D01*
X61100000Y-96750000D02*
X59500000Y-96750000D01*
X59500000Y-96750000D02*
X59500000Y-95250000D01*
G36*
X59500000Y-95250000D02*
G01*
X61100000Y-95250000D01*
X61100000Y-96750000D01*
X59500000Y-96750000D01*
X59500000Y-95250000D01*
G37*
X118500000Y-101250000D02*
X120100000Y-101250000D01*
X120100000Y-101250000D02*
X120100000Y-102750000D01*
X120100000Y-102750000D02*
X118500000Y-102750000D01*
X118500000Y-102750000D02*
X118500000Y-101250000D01*
G36*
X118500000Y-101250000D02*
G01*
X120100000Y-101250000D01*
X120100000Y-102750000D01*
X118500000Y-102750000D01*
X118500000Y-101250000D01*
G37*
D11*
X34350000Y-120000000D02*
G75*
G03*
X34350000Y-120000000I-550000J0D01*
G01*
D10*
X100500000Y-95250000D02*
X102100000Y-95250000D01*
X102100000Y-95250000D02*
X102100000Y-96750000D01*
X102100000Y-96750000D02*
X100500000Y-96750000D01*
X100500000Y-96750000D02*
X100500000Y-95250000D01*
G36*
X100500000Y-95250000D02*
G01*
X102100000Y-95250000D01*
X102100000Y-96750000D01*
X100500000Y-96750000D01*
X100500000Y-95250000D01*
G37*
X108500000Y-113250000D02*
X110100000Y-113250000D01*
X110100000Y-113250000D02*
X110100000Y-114750000D01*
X110100000Y-114750000D02*
X108500000Y-114750000D01*
X108500000Y-114750000D02*
X108500000Y-113250000D01*
G36*
X108500000Y-113250000D02*
G01*
X110100000Y-113250000D01*
X110100000Y-114750000D01*
X108500000Y-114750000D01*
X108500000Y-113250000D01*
G37*
X132500000Y-109250000D02*
X134100000Y-109250000D01*
X134100000Y-109250000D02*
X134100000Y-110750000D01*
X134100000Y-110750000D02*
X132500000Y-110750000D01*
X132500000Y-110750000D02*
X132500000Y-109250000D01*
G36*
X132500000Y-109250000D02*
G01*
X134100000Y-109250000D01*
X134100000Y-110750000D01*
X132500000Y-110750000D01*
X132500000Y-109250000D01*
G37*
X37500000Y-115250000D02*
X39100000Y-115250000D01*
X39100000Y-115250000D02*
X39100000Y-116750000D01*
X39100000Y-116750000D02*
X37500000Y-116750000D01*
X37500000Y-116750000D02*
X37500000Y-115250000D01*
G36*
X37500000Y-115250000D02*
G01*
X39100000Y-115250000D01*
X39100000Y-116750000D01*
X37500000Y-116750000D01*
X37500000Y-115250000D01*
G37*
D11*
X93350000Y-86000000D02*
G75*
G03*
X93350000Y-86000000I-550000J0D01*
G01*
D10*
X126500000Y-89250000D02*
X128100000Y-89250000D01*
X128100000Y-89250000D02*
X128100000Y-90750000D01*
X128100000Y-90750000D02*
X126500000Y-90750000D01*
X126500000Y-90750000D02*
X126500000Y-89250000D01*
G36*
X126500000Y-89250000D02*
G01*
X128100000Y-89250000D01*
X128100000Y-90750000D01*
X126500000Y-90750000D01*
X126500000Y-89250000D01*
G37*
X136500000Y-109250000D02*
X138100000Y-109250000D01*
X138100000Y-109250000D02*
X138100000Y-110750000D01*
X138100000Y-110750000D02*
X136500000Y-110750000D01*
X136500000Y-110750000D02*
X136500000Y-109250000D01*
G36*
X136500000Y-109250000D02*
G01*
X138100000Y-109250000D01*
X138100000Y-110750000D01*
X136500000Y-110750000D01*
X136500000Y-109250000D01*
G37*
X61500000Y-101250000D02*
X63100000Y-101250000D01*
X63100000Y-101250000D02*
X63100000Y-102750000D01*
X63100000Y-102750000D02*
X61500000Y-102750000D01*
X61500000Y-102750000D02*
X61500000Y-101250000D01*
G36*
X61500000Y-101250000D02*
G01*
X63100000Y-101250000D01*
X63100000Y-102750000D01*
X61500000Y-102750000D01*
X61500000Y-101250000D01*
G37*
X71500000Y-113250000D02*
X73100000Y-113250000D01*
X73100000Y-113250000D02*
X73100000Y-114750000D01*
X73100000Y-114750000D02*
X71500000Y-114750000D01*
X71500000Y-114750000D02*
X71500000Y-113250000D01*
G36*
X71500000Y-113250000D02*
G01*
X73100000Y-113250000D01*
X73100000Y-114750000D01*
X71500000Y-114750000D01*
X71500000Y-113250000D01*
G37*
X118500000Y-95250000D02*
X120100000Y-95250000D01*
X120100000Y-95250000D02*
X120100000Y-96750000D01*
X120100000Y-96750000D02*
X118500000Y-96750000D01*
X118500000Y-96750000D02*
X118500000Y-95250000D01*
G36*
X118500000Y-95250000D02*
G01*
X120100000Y-95250000D01*
X120100000Y-96750000D01*
X118500000Y-96750000D01*
X118500000Y-95250000D01*
G37*
X126500000Y-95250000D02*
X128100000Y-95250000D01*
X128100000Y-95250000D02*
X128100000Y-96750000D01*
X128100000Y-96750000D02*
X126500000Y-96750000D01*
X126500000Y-96750000D02*
X126500000Y-95250000D01*
G36*
X126500000Y-95250000D02*
G01*
X128100000Y-95250000D01*
X128100000Y-96750000D01*
X126500000Y-96750000D01*
X126500000Y-95250000D01*
G37*
X106500000Y-115250000D02*
X108100000Y-115250000D01*
X108100000Y-115250000D02*
X108100000Y-116750000D01*
X108100000Y-116750000D02*
X106500000Y-116750000D01*
X106500000Y-116750000D02*
X106500000Y-115250000D01*
G36*
X106500000Y-115250000D02*
G01*
X108100000Y-115250000D01*
X108100000Y-116750000D01*
X106500000Y-116750000D01*
X106500000Y-115250000D01*
G37*
X106500000Y-103250000D02*
X108100000Y-103250000D01*
X108100000Y-103250000D02*
X108100000Y-104750000D01*
X108100000Y-104750000D02*
X106500000Y-104750000D01*
X106500000Y-104750000D02*
X106500000Y-103250000D01*
G36*
X106500000Y-103250000D02*
G01*
X108100000Y-103250000D01*
X108100000Y-104750000D01*
X106500000Y-104750000D01*
X106500000Y-103250000D01*
G37*
X128500000Y-105250000D02*
X130100000Y-105250000D01*
X130100000Y-105250000D02*
X130100000Y-106750000D01*
X130100000Y-106750000D02*
X128500000Y-106750000D01*
X128500000Y-106750000D02*
X128500000Y-105250000D01*
G36*
X128500000Y-105250000D02*
G01*
X130100000Y-105250000D01*
X130100000Y-106750000D01*
X128500000Y-106750000D01*
X128500000Y-105250000D01*
G37*
X49500000Y-101250000D02*
X51100000Y-101250000D01*
X51100000Y-101250000D02*
X51100000Y-102750000D01*
X51100000Y-102750000D02*
X49500000Y-102750000D01*
X49500000Y-102750000D02*
X49500000Y-101250000D01*
G36*
X49500000Y-101250000D02*
G01*
X51100000Y-101250000D01*
X51100000Y-102750000D01*
X49500000Y-102750000D01*
X49500000Y-101250000D01*
G37*
X41500000Y-97250000D02*
X43100000Y-97250000D01*
X43100000Y-97250000D02*
X43100000Y-98750000D01*
X43100000Y-98750000D02*
X41500000Y-98750000D01*
X41500000Y-98750000D02*
X41500000Y-97250000D01*
G36*
X41500000Y-97250000D02*
G01*
X43100000Y-97250000D01*
X43100000Y-98750000D01*
X41500000Y-98750000D01*
X41500000Y-97250000D01*
G37*
X132500000Y-105250000D02*
X134100000Y-105250000D01*
X134100000Y-105250000D02*
X134100000Y-106750000D01*
X134100000Y-106750000D02*
X132500000Y-106750000D01*
X132500000Y-106750000D02*
X132500000Y-105250000D01*
G36*
X132500000Y-105250000D02*
G01*
X134100000Y-105250000D01*
X134100000Y-106750000D01*
X132500000Y-106750000D01*
X132500000Y-105250000D01*
G37*
X134500000Y-91250000D02*
X136100000Y-91250000D01*
X136100000Y-91250000D02*
X136100000Y-92750000D01*
X136100000Y-92750000D02*
X134500000Y-92750000D01*
X134500000Y-92750000D02*
X134500000Y-91250000D01*
G36*
X134500000Y-91250000D02*
G01*
X136100000Y-91250000D01*
X136100000Y-92750000D01*
X134500000Y-92750000D01*
X134500000Y-91250000D01*
G37*
X69500000Y-103250000D02*
X71100000Y-103250000D01*
X71100000Y-103250000D02*
X71100000Y-104750000D01*
X71100000Y-104750000D02*
X69500000Y-104750000D01*
X69500000Y-104750000D02*
X69500000Y-103250000D01*
G36*
X69500000Y-103250000D02*
G01*
X71100000Y-103250000D01*
X71100000Y-104750000D01*
X69500000Y-104750000D01*
X69500000Y-103250000D01*
G37*
D11*
X93350000Y-141000000D02*
G75*
G03*
X93350000Y-141000000I-550000J0D01*
G01*
D10*
X108500000Y-101250000D02*
X110100000Y-101250000D01*
X110100000Y-101250000D02*
X110100000Y-102750000D01*
X110100000Y-102750000D02*
X108500000Y-102750000D01*
X108500000Y-102750000D02*
X108500000Y-101250000D01*
G36*
X108500000Y-101250000D02*
G01*
X110100000Y-101250000D01*
X110100000Y-102750000D01*
X108500000Y-102750000D01*
X108500000Y-101250000D01*
G37*
X63500000Y-115250000D02*
X65100000Y-115250000D01*
X65100000Y-115250000D02*
X65100000Y-116750000D01*
X65100000Y-116750000D02*
X63500000Y-116750000D01*
X63500000Y-116750000D02*
X63500000Y-115250000D01*
G36*
X63500000Y-115250000D02*
G01*
X65100000Y-115250000D01*
X65100000Y-116750000D01*
X63500000Y-116750000D01*
X63500000Y-115250000D01*
G37*
X49500000Y-105250000D02*
X51100000Y-105250000D01*
X51100000Y-105250000D02*
X51100000Y-106750000D01*
X51100000Y-106750000D02*
X49500000Y-106750000D01*
X49500000Y-106750000D02*
X49500000Y-105250000D01*
G36*
X49500000Y-105250000D02*
G01*
X51100000Y-105250000D01*
X51100000Y-106750000D01*
X49500000Y-106750000D01*
X49500000Y-105250000D01*
G37*
X75500000Y-101250000D02*
X77100000Y-101250000D01*
X77100000Y-101250000D02*
X77100000Y-102750000D01*
X77100000Y-102750000D02*
X75500000Y-102750000D01*
X75500000Y-102750000D02*
X75500000Y-101250000D01*
G36*
X75500000Y-101250000D02*
G01*
X77100000Y-101250000D01*
X77100000Y-102750000D01*
X75500000Y-102750000D01*
X75500000Y-101250000D01*
G37*
X71500000Y-89250000D02*
X73100000Y-89250000D01*
X73100000Y-89250000D02*
X73100000Y-90750000D01*
X73100000Y-90750000D02*
X71500000Y-90750000D01*
X71500000Y-90750000D02*
X71500000Y-89250000D01*
G36*
X71500000Y-89250000D02*
G01*
X73100000Y-89250000D01*
X73100000Y-90750000D01*
X71500000Y-90750000D01*
X71500000Y-89250000D01*
G37*
X47500000Y-115250000D02*
X49100000Y-115250000D01*
X49100000Y-115250000D02*
X49100000Y-116750000D01*
X49100000Y-116750000D02*
X47500000Y-116750000D01*
X47500000Y-116750000D02*
X47500000Y-115250000D01*
G36*
X47500000Y-115250000D02*
G01*
X49100000Y-115250000D01*
X49100000Y-116750000D01*
X47500000Y-116750000D01*
X47500000Y-115250000D01*
G37*
X67500000Y-113250000D02*
X69100000Y-113250000D01*
X69100000Y-113250000D02*
X69100000Y-114750000D01*
X69100000Y-114750000D02*
X67500000Y-114750000D01*
X67500000Y-114750000D02*
X67500000Y-113250000D01*
G36*
X67500000Y-113250000D02*
G01*
X69100000Y-113250000D01*
X69100000Y-114750000D01*
X67500000Y-114750000D01*
X67500000Y-113250000D01*
G37*
X57500000Y-105250000D02*
X59100000Y-105250000D01*
X59100000Y-105250000D02*
X59100000Y-106750000D01*
X59100000Y-106750000D02*
X57500000Y-106750000D01*
X57500000Y-106750000D02*
X57500000Y-105250000D01*
G36*
X57500000Y-105250000D02*
G01*
X59100000Y-105250000D01*
X59100000Y-106750000D01*
X57500000Y-106750000D01*
X57500000Y-105250000D01*
G37*
X116500000Y-99250000D02*
X118100000Y-99250000D01*
X118100000Y-99250000D02*
X118100000Y-100750000D01*
X118100000Y-100750000D02*
X116500000Y-100750000D01*
X116500000Y-100750000D02*
X116500000Y-99250000D01*
G36*
X116500000Y-99250000D02*
G01*
X118100000Y-99250000D01*
X118100000Y-100750000D01*
X116500000Y-100750000D01*
X116500000Y-99250000D01*
G37*
X73500000Y-109250000D02*
X75100000Y-109250000D01*
X75100000Y-109250000D02*
X75100000Y-110750000D01*
X75100000Y-110750000D02*
X73500000Y-110750000D01*
X73500000Y-110750000D02*
X73500000Y-109250000D01*
G36*
X73500000Y-109250000D02*
G01*
X75100000Y-109250000D01*
X75100000Y-110750000D01*
X73500000Y-110750000D01*
X73500000Y-109250000D01*
G37*
X45500000Y-95250000D02*
X47100000Y-95250000D01*
X47100000Y-95250000D02*
X47100000Y-96750000D01*
X47100000Y-96750000D02*
X45500000Y-96750000D01*
X45500000Y-96750000D02*
X45500000Y-95250000D01*
G36*
X45500000Y-95250000D02*
G01*
X47100000Y-95250000D01*
X47100000Y-96750000D01*
X45500000Y-96750000D01*
X45500000Y-95250000D01*
G37*
X100500000Y-115250000D02*
X102100000Y-115250000D01*
X102100000Y-115250000D02*
X102100000Y-116750000D01*
X102100000Y-116750000D02*
X100500000Y-116750000D01*
X100500000Y-116750000D02*
X100500000Y-115250000D01*
G36*
X100500000Y-115250000D02*
G01*
X102100000Y-115250000D01*
X102100000Y-116750000D01*
X100500000Y-116750000D01*
X100500000Y-115250000D01*
G37*
X104500000Y-111250000D02*
X106100000Y-111250000D01*
X106100000Y-111250000D02*
X106100000Y-112750000D01*
X106100000Y-112750000D02*
X104500000Y-112750000D01*
X104500000Y-112750000D02*
X104500000Y-111250000D01*
G36*
X104500000Y-111250000D02*
G01*
X106100000Y-111250000D01*
X106100000Y-112750000D01*
X104500000Y-112750000D01*
X104500000Y-111250000D01*
G37*
D11*
X93350000Y-65000000D02*
G75*
G03*
X93350000Y-65000000I-550000J0D01*
G01*
D10*
X43500000Y-113250000D02*
X45100000Y-113250000D01*
X45100000Y-113250000D02*
X45100000Y-114750000D01*
X45100000Y-114750000D02*
X43500000Y-114750000D01*
X43500000Y-114750000D02*
X43500000Y-113250000D01*
G36*
X43500000Y-113250000D02*
G01*
X45100000Y-113250000D01*
X45100000Y-114750000D01*
X43500000Y-114750000D01*
X43500000Y-113250000D01*
G37*
X98500000Y-115250000D02*
X100100000Y-115250000D01*
X100100000Y-115250000D02*
X100100000Y-116750000D01*
X100100000Y-116750000D02*
X98500000Y-116750000D01*
X98500000Y-116750000D02*
X98500000Y-115250000D01*
G36*
X98500000Y-115250000D02*
G01*
X100100000Y-115250000D01*
X100100000Y-116750000D01*
X98500000Y-116750000D01*
X98500000Y-115250000D01*
G37*
X51500000Y-111250000D02*
X53100000Y-111250000D01*
X53100000Y-111250000D02*
X53100000Y-112750000D01*
X53100000Y-112750000D02*
X51500000Y-112750000D01*
X51500000Y-112750000D02*
X51500000Y-111250000D01*
G36*
X51500000Y-111250000D02*
G01*
X53100000Y-111250000D01*
X53100000Y-112750000D01*
X51500000Y-112750000D01*
X51500000Y-111250000D01*
G37*
X65500000Y-105250000D02*
X67100000Y-105250000D01*
X67100000Y-105250000D02*
X67100000Y-106750000D01*
X67100000Y-106750000D02*
X65500000Y-106750000D01*
X65500000Y-106750000D02*
X65500000Y-105250000D01*
G36*
X65500000Y-105250000D02*
G01*
X67100000Y-105250000D01*
X67100000Y-106750000D01*
X65500000Y-106750000D01*
X65500000Y-105250000D01*
G37*
X128500000Y-101250000D02*
X130100000Y-101250000D01*
X130100000Y-101250000D02*
X130100000Y-102750000D01*
X130100000Y-102750000D02*
X128500000Y-102750000D01*
X128500000Y-102750000D02*
X128500000Y-101250000D01*
G36*
X128500000Y-101250000D02*
G01*
X130100000Y-101250000D01*
X130100000Y-102750000D01*
X128500000Y-102750000D01*
X128500000Y-101250000D01*
G37*
X79500000Y-97250000D02*
X81100000Y-97250000D01*
X81100000Y-97250000D02*
X81100000Y-98750000D01*
X81100000Y-98750000D02*
X79500000Y-98750000D01*
X79500000Y-98750000D02*
X79500000Y-97250000D01*
G36*
X79500000Y-97250000D02*
G01*
X81100000Y-97250000D01*
X81100000Y-98750000D01*
X79500000Y-98750000D01*
X79500000Y-97250000D01*
G37*
X140500000Y-113250000D02*
X142100000Y-113250000D01*
X142100000Y-113250000D02*
X142100000Y-114750000D01*
X142100000Y-114750000D02*
X140500000Y-114750000D01*
X140500000Y-114750000D02*
X140500000Y-113250000D01*
G36*
X140500000Y-113250000D02*
G01*
X142100000Y-113250000D01*
X142100000Y-114750000D01*
X140500000Y-114750000D01*
X140500000Y-113250000D01*
G37*
X75500000Y-93250000D02*
X77100000Y-93250000D01*
X77100000Y-93250000D02*
X77100000Y-94750000D01*
X77100000Y-94750000D02*
X75500000Y-94750000D01*
X75500000Y-94750000D02*
X75500000Y-93250000D01*
G36*
X75500000Y-93250000D02*
G01*
X77100000Y-93250000D01*
X77100000Y-94750000D01*
X75500000Y-94750000D01*
X75500000Y-93250000D01*
G37*
X53500000Y-107250000D02*
X55100000Y-107250000D01*
X55100000Y-107250000D02*
X55100000Y-108750000D01*
X55100000Y-108750000D02*
X53500000Y-108750000D01*
X53500000Y-108750000D02*
X53500000Y-107250000D01*
G36*
X53500000Y-107250000D02*
G01*
X55100000Y-107250000D01*
X55100000Y-108750000D01*
X53500000Y-108750000D01*
X53500000Y-107250000D01*
G37*
X35500000Y-91250000D02*
X37100000Y-91250000D01*
X37100000Y-91250000D02*
X37100000Y-92750000D01*
X37100000Y-92750000D02*
X35500000Y-92750000D01*
X35500000Y-92750000D02*
X35500000Y-91250000D01*
G36*
X35500000Y-91250000D02*
G01*
X37100000Y-91250000D01*
X37100000Y-92750000D01*
X35500000Y-92750000D01*
X35500000Y-91250000D01*
G37*
X59500000Y-113250000D02*
X61100000Y-113250000D01*
X61100000Y-113250000D02*
X61100000Y-114750000D01*
X61100000Y-114750000D02*
X59500000Y-114750000D01*
X59500000Y-114750000D02*
X59500000Y-113250000D01*
G36*
X59500000Y-113250000D02*
G01*
X61100000Y-113250000D01*
X61100000Y-114750000D01*
X59500000Y-114750000D01*
X59500000Y-113250000D01*
G37*
X112500000Y-113250000D02*
X114100000Y-113250000D01*
X114100000Y-113250000D02*
X114100000Y-114750000D01*
X114100000Y-114750000D02*
X112500000Y-114750000D01*
X112500000Y-114750000D02*
X112500000Y-113250000D01*
G36*
X112500000Y-113250000D02*
G01*
X114100000Y-113250000D01*
X114100000Y-114750000D01*
X112500000Y-114750000D01*
X112500000Y-113250000D01*
G37*
X110500000Y-99250000D02*
X112100000Y-99250000D01*
X112100000Y-99250000D02*
X112100000Y-100750000D01*
X112100000Y-100750000D02*
X110500000Y-100750000D01*
X110500000Y-100750000D02*
X110500000Y-99250000D01*
G36*
X110500000Y-99250000D02*
G01*
X112100000Y-99250000D01*
X112100000Y-100750000D01*
X110500000Y-100750000D01*
X110500000Y-99250000D01*
G37*
X98500000Y-109250000D02*
X100100000Y-109250000D01*
X100100000Y-109250000D02*
X100100000Y-110750000D01*
X100100000Y-110750000D02*
X98500000Y-110750000D01*
X98500000Y-110750000D02*
X98500000Y-109250000D01*
G36*
X98500000Y-109250000D02*
G01*
X100100000Y-109250000D01*
X100100000Y-110750000D01*
X98500000Y-110750000D01*
X98500000Y-109250000D01*
G37*
X67500000Y-105250000D02*
X69100000Y-105250000D01*
X69100000Y-105250000D02*
X69100000Y-106750000D01*
X69100000Y-106750000D02*
X67500000Y-106750000D01*
X67500000Y-106750000D02*
X67500000Y-105250000D01*
G36*
X67500000Y-105250000D02*
G01*
X69100000Y-105250000D01*
X69100000Y-106750000D01*
X67500000Y-106750000D01*
X67500000Y-105250000D01*
G37*
X33500000Y-105250000D02*
X35100000Y-105250000D01*
X35100000Y-105250000D02*
X35100000Y-106750000D01*
X35100000Y-106750000D02*
X33500000Y-106750000D01*
X33500000Y-106750000D02*
X33500000Y-105250000D01*
G36*
X33500000Y-105250000D02*
G01*
X35100000Y-105250000D01*
X35100000Y-106750000D01*
X33500000Y-106750000D01*
X33500000Y-105250000D01*
G37*
X65500000Y-115250000D02*
X67100000Y-115250000D01*
X67100000Y-115250000D02*
X67100000Y-116750000D01*
X67100000Y-116750000D02*
X65500000Y-116750000D01*
X65500000Y-116750000D02*
X65500000Y-115250000D01*
G36*
X65500000Y-115250000D02*
G01*
X67100000Y-115250000D01*
X67100000Y-116750000D01*
X65500000Y-116750000D01*
X65500000Y-115250000D01*
G37*
X51500000Y-89250000D02*
X53100000Y-89250000D01*
X53100000Y-89250000D02*
X53100000Y-90750000D01*
X53100000Y-90750000D02*
X51500000Y-90750000D01*
X51500000Y-90750000D02*
X51500000Y-89250000D01*
G36*
X51500000Y-89250000D02*
G01*
X53100000Y-89250000D01*
X53100000Y-90750000D01*
X51500000Y-90750000D01*
X51500000Y-89250000D01*
G37*
X43500000Y-111250000D02*
X45100000Y-111250000D01*
X45100000Y-111250000D02*
X45100000Y-112750000D01*
X45100000Y-112750000D02*
X43500000Y-112750000D01*
X43500000Y-112750000D02*
X43500000Y-111250000D01*
G36*
X43500000Y-111250000D02*
G01*
X45100000Y-111250000D01*
X45100000Y-112750000D01*
X43500000Y-112750000D01*
X43500000Y-111250000D01*
G37*
X102500000Y-109250000D02*
X104100000Y-109250000D01*
X104100000Y-109250000D02*
X104100000Y-110750000D01*
X104100000Y-110750000D02*
X102500000Y-110750000D01*
X102500000Y-110750000D02*
X102500000Y-109250000D01*
G36*
X102500000Y-109250000D02*
G01*
X104100000Y-109250000D01*
X104100000Y-110750000D01*
X102500000Y-110750000D01*
X102500000Y-109250000D01*
G37*
X41500000Y-105250000D02*
X43100000Y-105250000D01*
X43100000Y-105250000D02*
X43100000Y-106750000D01*
X43100000Y-106750000D02*
X41500000Y-106750000D01*
X41500000Y-106750000D02*
X41500000Y-105250000D01*
G36*
X41500000Y-105250000D02*
G01*
X43100000Y-105250000D01*
X43100000Y-106750000D01*
X41500000Y-106750000D01*
X41500000Y-105250000D01*
G37*
X49500000Y-89250000D02*
X51100000Y-89250000D01*
X51100000Y-89250000D02*
X51100000Y-90750000D01*
X51100000Y-90750000D02*
X49500000Y-90750000D01*
X49500000Y-90750000D02*
X49500000Y-89250000D01*
G36*
X49500000Y-89250000D02*
G01*
X51100000Y-89250000D01*
X51100000Y-90750000D01*
X49500000Y-90750000D01*
X49500000Y-89250000D01*
G37*
X128500000Y-97250000D02*
X130100000Y-97250000D01*
X130100000Y-97250000D02*
X130100000Y-98750000D01*
X130100000Y-98750000D02*
X128500000Y-98750000D01*
X128500000Y-98750000D02*
X128500000Y-97250000D01*
G36*
X128500000Y-97250000D02*
G01*
X130100000Y-97250000D01*
X130100000Y-98750000D01*
X128500000Y-98750000D01*
X128500000Y-97250000D01*
G37*
X41500000Y-103250000D02*
X43100000Y-103250000D01*
X43100000Y-103250000D02*
X43100000Y-104750000D01*
X43100000Y-104750000D02*
X41500000Y-104750000D01*
X41500000Y-104750000D02*
X41500000Y-103250000D01*
G36*
X41500000Y-103250000D02*
G01*
X43100000Y-103250000D01*
X43100000Y-104750000D01*
X41500000Y-104750000D01*
X41500000Y-103250000D01*
G37*
X61500000Y-103250000D02*
X63100000Y-103250000D01*
X63100000Y-103250000D02*
X63100000Y-104750000D01*
X63100000Y-104750000D02*
X61500000Y-104750000D01*
X61500000Y-104750000D02*
X61500000Y-103250000D01*
G36*
X61500000Y-103250000D02*
G01*
X63100000Y-103250000D01*
X63100000Y-104750000D01*
X61500000Y-104750000D01*
X61500000Y-103250000D01*
G37*
X124500000Y-105250000D02*
X126100000Y-105250000D01*
X126100000Y-105250000D02*
X126100000Y-106750000D01*
X126100000Y-106750000D02*
X124500000Y-106750000D01*
X124500000Y-106750000D02*
X124500000Y-105250000D01*
G36*
X124500000Y-105250000D02*
G01*
X126100000Y-105250000D01*
X126100000Y-106750000D01*
X124500000Y-106750000D01*
X124500000Y-105250000D01*
G37*
X92500000Y-115250000D02*
X94100000Y-115250000D01*
X94100000Y-115250000D02*
X94100000Y-116750000D01*
X94100000Y-116750000D02*
X92500000Y-116750000D01*
X92500000Y-116750000D02*
X92500000Y-115250000D01*
G36*
X92500000Y-115250000D02*
G01*
X94100000Y-115250000D01*
X94100000Y-116750000D01*
X92500000Y-116750000D01*
X92500000Y-115250000D01*
G37*
X118500000Y-99250000D02*
X120100000Y-99250000D01*
X120100000Y-99250000D02*
X120100000Y-100750000D01*
X120100000Y-100750000D02*
X118500000Y-100750000D01*
X118500000Y-100750000D02*
X118500000Y-99250000D01*
G36*
X118500000Y-99250000D02*
G01*
X120100000Y-99250000D01*
X120100000Y-100750000D01*
X118500000Y-100750000D01*
X118500000Y-99250000D01*
G37*
X134500000Y-103250000D02*
X136100000Y-103250000D01*
X136100000Y-103250000D02*
X136100000Y-104750000D01*
X136100000Y-104750000D02*
X134500000Y-104750000D01*
X134500000Y-104750000D02*
X134500000Y-103250000D01*
G36*
X134500000Y-103250000D02*
G01*
X136100000Y-103250000D01*
X136100000Y-104750000D01*
X134500000Y-104750000D01*
X134500000Y-103250000D01*
G37*
X55500000Y-91250000D02*
X57100000Y-91250000D01*
X57100000Y-91250000D02*
X57100000Y-92750000D01*
X57100000Y-92750000D02*
X55500000Y-92750000D01*
X55500000Y-92750000D02*
X55500000Y-91250000D01*
G36*
X55500000Y-91250000D02*
G01*
X57100000Y-91250000D01*
X57100000Y-92750000D01*
X55500000Y-92750000D01*
X55500000Y-91250000D01*
G37*
X81500000Y-107250000D02*
X83100000Y-107250000D01*
X83100000Y-107250000D02*
X83100000Y-108750000D01*
X83100000Y-108750000D02*
X81500000Y-108750000D01*
X81500000Y-108750000D02*
X81500000Y-107250000D01*
G36*
X81500000Y-107250000D02*
G01*
X83100000Y-107250000D01*
X83100000Y-108750000D01*
X81500000Y-108750000D01*
X81500000Y-107250000D01*
G37*
X136500000Y-93250000D02*
X138100000Y-93250000D01*
X138100000Y-93250000D02*
X138100000Y-94750000D01*
X138100000Y-94750000D02*
X136500000Y-94750000D01*
X136500000Y-94750000D02*
X136500000Y-93250000D01*
G36*
X136500000Y-93250000D02*
G01*
X138100000Y-93250000D01*
X138100000Y-94750000D01*
X136500000Y-94750000D01*
X136500000Y-93250000D01*
G37*
X120500000Y-101250000D02*
X122100000Y-101250000D01*
X122100000Y-101250000D02*
X122100000Y-102750000D01*
X122100000Y-102750000D02*
X120500000Y-102750000D01*
X120500000Y-102750000D02*
X120500000Y-101250000D01*
G36*
X120500000Y-101250000D02*
G01*
X122100000Y-101250000D01*
X122100000Y-102750000D01*
X120500000Y-102750000D01*
X120500000Y-101250000D01*
G37*
X65500000Y-109250000D02*
X67100000Y-109250000D01*
X67100000Y-109250000D02*
X67100000Y-110750000D01*
X67100000Y-110750000D02*
X65500000Y-110750000D01*
X65500000Y-110750000D02*
X65500000Y-109250000D01*
G36*
X65500000Y-109250000D02*
G01*
X67100000Y-109250000D01*
X67100000Y-110750000D01*
X65500000Y-110750000D01*
X65500000Y-109250000D01*
G37*
X96500000Y-99250000D02*
X98100000Y-99250000D01*
X98100000Y-99250000D02*
X98100000Y-100750000D01*
X98100000Y-100750000D02*
X96500000Y-100750000D01*
X96500000Y-100750000D02*
X96500000Y-99250000D01*
G36*
X96500000Y-99250000D02*
G01*
X98100000Y-99250000D01*
X98100000Y-100750000D01*
X96500000Y-100750000D01*
X96500000Y-99250000D01*
G37*
X94500000Y-107250000D02*
X96100000Y-107250000D01*
X96100000Y-107250000D02*
X96100000Y-108750000D01*
X96100000Y-108750000D02*
X94500000Y-108750000D01*
X94500000Y-108750000D02*
X94500000Y-107250000D01*
G36*
X94500000Y-107250000D02*
G01*
X96100000Y-107250000D01*
X96100000Y-108750000D01*
X94500000Y-108750000D01*
X94500000Y-107250000D01*
G37*
X41500000Y-109250000D02*
X43100000Y-109250000D01*
X43100000Y-109250000D02*
X43100000Y-110750000D01*
X43100000Y-110750000D02*
X41500000Y-110750000D01*
X41500000Y-110750000D02*
X41500000Y-109250000D01*
G36*
X41500000Y-109250000D02*
G01*
X43100000Y-109250000D01*
X43100000Y-110750000D01*
X41500000Y-110750000D01*
X41500000Y-109250000D01*
G37*
X67500000Y-115250000D02*
X69100000Y-115250000D01*
X69100000Y-115250000D02*
X69100000Y-116750000D01*
X69100000Y-116750000D02*
X67500000Y-116750000D01*
X67500000Y-116750000D02*
X67500000Y-115250000D01*
G36*
X67500000Y-115250000D02*
G01*
X69100000Y-115250000D01*
X69100000Y-116750000D01*
X67500000Y-116750000D01*
X67500000Y-115250000D01*
G37*
X47500000Y-105250000D02*
X49100000Y-105250000D01*
X49100000Y-105250000D02*
X49100000Y-106750000D01*
X49100000Y-106750000D02*
X47500000Y-106750000D01*
X47500000Y-106750000D02*
X47500000Y-105250000D01*
G36*
X47500000Y-105250000D02*
G01*
X49100000Y-105250000D01*
X49100000Y-106750000D01*
X47500000Y-106750000D01*
X47500000Y-105250000D01*
G37*
X33500000Y-93250000D02*
X35100000Y-93250000D01*
X35100000Y-93250000D02*
X35100000Y-94750000D01*
X35100000Y-94750000D02*
X33500000Y-94750000D01*
X33500000Y-94750000D02*
X33500000Y-93250000D01*
G36*
X33500000Y-93250000D02*
G01*
X35100000Y-93250000D01*
X35100000Y-94750000D01*
X33500000Y-94750000D01*
X33500000Y-93250000D01*
G37*
X75500000Y-103250000D02*
X77100000Y-103250000D01*
X77100000Y-103250000D02*
X77100000Y-104750000D01*
X77100000Y-104750000D02*
X75500000Y-104750000D01*
X75500000Y-104750000D02*
X75500000Y-103250000D01*
G36*
X75500000Y-103250000D02*
G01*
X77100000Y-103250000D01*
X77100000Y-104750000D01*
X75500000Y-104750000D01*
X75500000Y-103250000D01*
G37*
X92500000Y-107250000D02*
X94100000Y-107250000D01*
X94100000Y-107250000D02*
X94100000Y-108750000D01*
X94100000Y-108750000D02*
X92500000Y-108750000D01*
X92500000Y-108750000D02*
X92500000Y-107250000D01*
G36*
X92500000Y-107250000D02*
G01*
X94100000Y-107250000D01*
X94100000Y-108750000D01*
X92500000Y-108750000D01*
X92500000Y-107250000D01*
G37*
X59500000Y-115250000D02*
X61100000Y-115250000D01*
X61100000Y-115250000D02*
X61100000Y-116750000D01*
X61100000Y-116750000D02*
X59500000Y-116750000D01*
X59500000Y-116750000D02*
X59500000Y-115250000D01*
G36*
X59500000Y-115250000D02*
G01*
X61100000Y-115250000D01*
X61100000Y-116750000D01*
X59500000Y-116750000D01*
X59500000Y-115250000D01*
G37*
X81500000Y-113250000D02*
X83100000Y-113250000D01*
X83100000Y-113250000D02*
X83100000Y-114750000D01*
X83100000Y-114750000D02*
X81500000Y-114750000D01*
X81500000Y-114750000D02*
X81500000Y-113250000D01*
G36*
X81500000Y-113250000D02*
G01*
X83100000Y-113250000D01*
X83100000Y-114750000D01*
X81500000Y-114750000D01*
X81500000Y-113250000D01*
G37*
X122500000Y-103250000D02*
X124100000Y-103250000D01*
X124100000Y-103250000D02*
X124100000Y-104750000D01*
X124100000Y-104750000D02*
X122500000Y-104750000D01*
X122500000Y-104750000D02*
X122500000Y-103250000D01*
G36*
X122500000Y-103250000D02*
G01*
X124100000Y-103250000D01*
X124100000Y-104750000D01*
X122500000Y-104750000D01*
X122500000Y-103250000D01*
G37*
X120500000Y-93250000D02*
X122100000Y-93250000D01*
X122100000Y-93250000D02*
X122100000Y-94750000D01*
X122100000Y-94750000D02*
X120500000Y-94750000D01*
X120500000Y-94750000D02*
X120500000Y-93250000D01*
G36*
X120500000Y-93250000D02*
G01*
X122100000Y-93250000D01*
X122100000Y-94750000D01*
X120500000Y-94750000D01*
X120500000Y-93250000D01*
G37*
X108500000Y-93250000D02*
X110100000Y-93250000D01*
X110100000Y-93250000D02*
X110100000Y-94750000D01*
X110100000Y-94750000D02*
X108500000Y-94750000D01*
X108500000Y-94750000D02*
X108500000Y-93250000D01*
G36*
X108500000Y-93250000D02*
G01*
X110100000Y-93250000D01*
X110100000Y-94750000D01*
X108500000Y-94750000D01*
X108500000Y-93250000D01*
G37*
X116500000Y-107250000D02*
X118100000Y-107250000D01*
X118100000Y-107250000D02*
X118100000Y-108750000D01*
X118100000Y-108750000D02*
X116500000Y-108750000D01*
X116500000Y-108750000D02*
X116500000Y-107250000D01*
G36*
X116500000Y-107250000D02*
G01*
X118100000Y-107250000D01*
X118100000Y-108750000D01*
X116500000Y-108750000D01*
X116500000Y-107250000D01*
G37*
X136500000Y-111250000D02*
X138100000Y-111250000D01*
X138100000Y-111250000D02*
X138100000Y-112750000D01*
X138100000Y-112750000D02*
X136500000Y-112750000D01*
X136500000Y-112750000D02*
X136500000Y-111250000D01*
G36*
X136500000Y-111250000D02*
G01*
X138100000Y-111250000D01*
X138100000Y-112750000D01*
X136500000Y-112750000D01*
X136500000Y-111250000D01*
G37*
X116500000Y-105250000D02*
X118100000Y-105250000D01*
X118100000Y-105250000D02*
X118100000Y-106750000D01*
X118100000Y-106750000D02*
X116500000Y-106750000D01*
X116500000Y-106750000D02*
X116500000Y-105250000D01*
G36*
X116500000Y-105250000D02*
G01*
X118100000Y-105250000D01*
X118100000Y-106750000D01*
X116500000Y-106750000D01*
X116500000Y-105250000D01*
G37*
X104500000Y-89250000D02*
X106100000Y-89250000D01*
X106100000Y-89250000D02*
X106100000Y-90750000D01*
X106100000Y-90750000D02*
X104500000Y-90750000D01*
X104500000Y-90750000D02*
X104500000Y-89250000D01*
G36*
X104500000Y-89250000D02*
G01*
X106100000Y-89250000D01*
X106100000Y-90750000D01*
X104500000Y-90750000D01*
X104500000Y-89250000D01*
G37*
X43500000Y-109250000D02*
X45100000Y-109250000D01*
X45100000Y-109250000D02*
X45100000Y-110750000D01*
X45100000Y-110750000D02*
X43500000Y-110750000D01*
X43500000Y-110750000D02*
X43500000Y-109250000D01*
G36*
X43500000Y-109250000D02*
G01*
X45100000Y-109250000D01*
X45100000Y-110750000D01*
X43500000Y-110750000D01*
X43500000Y-109250000D01*
G37*
X100500000Y-103250000D02*
X102100000Y-103250000D01*
X102100000Y-103250000D02*
X102100000Y-104750000D01*
X102100000Y-104750000D02*
X100500000Y-104750000D01*
X100500000Y-104750000D02*
X100500000Y-103250000D01*
G36*
X100500000Y-103250000D02*
G01*
X102100000Y-103250000D01*
X102100000Y-104750000D01*
X100500000Y-104750000D01*
X100500000Y-103250000D01*
G37*
D11*
X83350000Y-65000000D02*
G75*
G03*
X83350000Y-65000000I-550000J0D01*
G01*
D10*
X63500000Y-97250000D02*
X65100000Y-97250000D01*
X65100000Y-97250000D02*
X65100000Y-98750000D01*
X65100000Y-98750000D02*
X63500000Y-98750000D01*
X63500000Y-98750000D02*
X63500000Y-97250000D01*
G36*
X63500000Y-97250000D02*
G01*
X65100000Y-97250000D01*
X65100000Y-98750000D01*
X63500000Y-98750000D01*
X63500000Y-97250000D01*
G37*
X92500000Y-91250000D02*
X94100000Y-91250000D01*
X94100000Y-91250000D02*
X94100000Y-92750000D01*
X94100000Y-92750000D02*
X92500000Y-92750000D01*
X92500000Y-92750000D02*
X92500000Y-91250000D01*
G36*
X92500000Y-91250000D02*
G01*
X94100000Y-91250000D01*
X94100000Y-92750000D01*
X92500000Y-92750000D01*
X92500000Y-91250000D01*
G37*
X77500000Y-107250000D02*
X79100000Y-107250000D01*
X79100000Y-107250000D02*
X79100000Y-108750000D01*
X79100000Y-108750000D02*
X77500000Y-108750000D01*
X77500000Y-108750000D02*
X77500000Y-107250000D01*
G36*
X77500000Y-107250000D02*
G01*
X79100000Y-107250000D01*
X79100000Y-108750000D01*
X77500000Y-108750000D01*
X77500000Y-107250000D01*
G37*
X33500000Y-115250000D02*
X35100000Y-115250000D01*
X35100000Y-115250000D02*
X35100000Y-116750000D01*
X35100000Y-116750000D02*
X33500000Y-116750000D01*
X33500000Y-116750000D02*
X33500000Y-115250000D01*
G36*
X33500000Y-115250000D02*
G01*
X35100000Y-115250000D01*
X35100000Y-116750000D01*
X33500000Y-116750000D01*
X33500000Y-115250000D01*
G37*
X124500000Y-91250000D02*
X126100000Y-91250000D01*
X126100000Y-91250000D02*
X126100000Y-92750000D01*
X126100000Y-92750000D02*
X124500000Y-92750000D01*
X124500000Y-92750000D02*
X124500000Y-91250000D01*
G36*
X124500000Y-91250000D02*
G01*
X126100000Y-91250000D01*
X126100000Y-92750000D01*
X124500000Y-92750000D01*
X124500000Y-91250000D01*
G37*
X69500000Y-97250000D02*
X71100000Y-97250000D01*
X71100000Y-97250000D02*
X71100000Y-98750000D01*
X71100000Y-98750000D02*
X69500000Y-98750000D01*
X69500000Y-98750000D02*
X69500000Y-97250000D01*
G36*
X69500000Y-97250000D02*
G01*
X71100000Y-97250000D01*
X71100000Y-98750000D01*
X69500000Y-98750000D01*
X69500000Y-97250000D01*
G37*
X104500000Y-95250000D02*
X106100000Y-95250000D01*
X106100000Y-95250000D02*
X106100000Y-96750000D01*
X106100000Y-96750000D02*
X104500000Y-96750000D01*
X104500000Y-96750000D02*
X104500000Y-95250000D01*
G36*
X104500000Y-95250000D02*
G01*
X106100000Y-95250000D01*
X106100000Y-96750000D01*
X104500000Y-96750000D01*
X104500000Y-95250000D01*
G37*
X140500000Y-103250000D02*
X142100000Y-103250000D01*
X142100000Y-103250000D02*
X142100000Y-104750000D01*
X142100000Y-104750000D02*
X140500000Y-104750000D01*
X140500000Y-104750000D02*
X140500000Y-103250000D01*
G36*
X140500000Y-103250000D02*
G01*
X142100000Y-103250000D01*
X142100000Y-104750000D01*
X140500000Y-104750000D01*
X140500000Y-103250000D01*
G37*
X39500000Y-107250000D02*
X41100000Y-107250000D01*
X41100000Y-107250000D02*
X41100000Y-108750000D01*
X41100000Y-108750000D02*
X39500000Y-108750000D01*
X39500000Y-108750000D02*
X39500000Y-107250000D01*
G36*
X39500000Y-107250000D02*
G01*
X41100000Y-107250000D01*
X41100000Y-108750000D01*
X39500000Y-108750000D01*
X39500000Y-107250000D01*
G37*
X140500000Y-101250000D02*
X142100000Y-101250000D01*
X142100000Y-101250000D02*
X142100000Y-102750000D01*
X142100000Y-102750000D02*
X140500000Y-102750000D01*
X140500000Y-102750000D02*
X140500000Y-101250000D01*
G36*
X140500000Y-101250000D02*
G01*
X142100000Y-101250000D01*
X142100000Y-102750000D01*
X140500000Y-102750000D01*
X140500000Y-101250000D01*
G37*
X45500000Y-97250000D02*
X47100000Y-97250000D01*
X47100000Y-97250000D02*
X47100000Y-98750000D01*
X47100000Y-98750000D02*
X45500000Y-98750000D01*
X45500000Y-98750000D02*
X45500000Y-97250000D01*
G36*
X45500000Y-97250000D02*
G01*
X47100000Y-97250000D01*
X47100000Y-98750000D01*
X45500000Y-98750000D01*
X45500000Y-97250000D01*
G37*
X124500000Y-109250000D02*
X126100000Y-109250000D01*
X126100000Y-109250000D02*
X126100000Y-110750000D01*
X126100000Y-110750000D02*
X124500000Y-110750000D01*
X124500000Y-110750000D02*
X124500000Y-109250000D01*
G36*
X124500000Y-109250000D02*
G01*
X126100000Y-109250000D01*
X126100000Y-110750000D01*
X124500000Y-110750000D01*
X124500000Y-109250000D01*
G37*
X96500000Y-109250000D02*
X98100000Y-109250000D01*
X98100000Y-109250000D02*
X98100000Y-110750000D01*
X98100000Y-110750000D02*
X96500000Y-110750000D01*
X96500000Y-110750000D02*
X96500000Y-109250000D01*
G36*
X96500000Y-109250000D02*
G01*
X98100000Y-109250000D01*
X98100000Y-110750000D01*
X96500000Y-110750000D01*
X96500000Y-109250000D01*
G37*
X112500000Y-107250000D02*
X114100000Y-107250000D01*
X114100000Y-107250000D02*
X114100000Y-108750000D01*
X114100000Y-108750000D02*
X112500000Y-108750000D01*
X112500000Y-108750000D02*
X112500000Y-107250000D01*
G36*
X112500000Y-107250000D02*
G01*
X114100000Y-107250000D01*
X114100000Y-108750000D01*
X112500000Y-108750000D01*
X112500000Y-107250000D01*
G37*
X114500000Y-99250000D02*
X116100000Y-99250000D01*
X116100000Y-99250000D02*
X116100000Y-100750000D01*
X116100000Y-100750000D02*
X114500000Y-100750000D01*
X114500000Y-100750000D02*
X114500000Y-99250000D01*
G36*
X114500000Y-99250000D02*
G01*
X116100000Y-99250000D01*
X116100000Y-100750000D01*
X114500000Y-100750000D01*
X114500000Y-99250000D01*
G37*
X92500000Y-113250000D02*
X94100000Y-113250000D01*
X94100000Y-113250000D02*
X94100000Y-114750000D01*
X94100000Y-114750000D02*
X92500000Y-114750000D01*
X92500000Y-114750000D02*
X92500000Y-113250000D01*
G36*
X92500000Y-113250000D02*
G01*
X94100000Y-113250000D01*
X94100000Y-114750000D01*
X92500000Y-114750000D01*
X92500000Y-113250000D01*
G37*
X134500000Y-101250000D02*
X136100000Y-101250000D01*
X136100000Y-101250000D02*
X136100000Y-102750000D01*
X136100000Y-102750000D02*
X134500000Y-102750000D01*
X134500000Y-102750000D02*
X134500000Y-101250000D01*
G36*
X134500000Y-101250000D02*
G01*
X136100000Y-101250000D01*
X136100000Y-102750000D01*
X134500000Y-102750000D01*
X134500000Y-101250000D01*
G37*
X130500000Y-101250000D02*
X132100000Y-101250000D01*
X132100000Y-101250000D02*
X132100000Y-102750000D01*
X132100000Y-102750000D02*
X130500000Y-102750000D01*
X130500000Y-102750000D02*
X130500000Y-101250000D01*
G36*
X130500000Y-101250000D02*
G01*
X132100000Y-101250000D01*
X132100000Y-102750000D01*
X130500000Y-102750000D01*
X130500000Y-101250000D01*
G37*
X110500000Y-95250000D02*
X112100000Y-95250000D01*
X112100000Y-95250000D02*
X112100000Y-96750000D01*
X112100000Y-96750000D02*
X110500000Y-96750000D01*
X110500000Y-96750000D02*
X110500000Y-95250000D01*
G36*
X110500000Y-95250000D02*
G01*
X112100000Y-95250000D01*
X112100000Y-96750000D01*
X110500000Y-96750000D01*
X110500000Y-95250000D01*
G37*
X49500000Y-107250000D02*
X51100000Y-107250000D01*
X51100000Y-107250000D02*
X51100000Y-108750000D01*
X51100000Y-108750000D02*
X49500000Y-108750000D01*
X49500000Y-108750000D02*
X49500000Y-107250000D01*
G36*
X49500000Y-107250000D02*
G01*
X51100000Y-107250000D01*
X51100000Y-108750000D01*
X49500000Y-108750000D01*
X49500000Y-107250000D01*
G37*
X39500000Y-109250000D02*
X41100000Y-109250000D01*
X41100000Y-109250000D02*
X41100000Y-110750000D01*
X41100000Y-110750000D02*
X39500000Y-110750000D01*
X39500000Y-110750000D02*
X39500000Y-109250000D01*
G36*
X39500000Y-109250000D02*
G01*
X41100000Y-109250000D01*
X41100000Y-110750000D01*
X39500000Y-110750000D01*
X39500000Y-109250000D01*
G37*
X108500000Y-103250000D02*
X110100000Y-103250000D01*
X110100000Y-103250000D02*
X110100000Y-104750000D01*
X110100000Y-104750000D02*
X108500000Y-104750000D01*
X108500000Y-104750000D02*
X108500000Y-103250000D01*
G36*
X108500000Y-103250000D02*
G01*
X110100000Y-103250000D01*
X110100000Y-104750000D01*
X108500000Y-104750000D01*
X108500000Y-103250000D01*
G37*
X106500000Y-109250000D02*
X108100000Y-109250000D01*
X108100000Y-109250000D02*
X108100000Y-110750000D01*
X108100000Y-110750000D02*
X106500000Y-110750000D01*
X106500000Y-110750000D02*
X106500000Y-109250000D01*
G36*
X106500000Y-109250000D02*
G01*
X108100000Y-109250000D01*
X108100000Y-110750000D01*
X106500000Y-110750000D01*
X106500000Y-109250000D01*
G37*
X96500000Y-107250000D02*
X98100000Y-107250000D01*
X98100000Y-107250000D02*
X98100000Y-108750000D01*
X98100000Y-108750000D02*
X96500000Y-108750000D01*
X96500000Y-108750000D02*
X96500000Y-107250000D01*
G36*
X96500000Y-107250000D02*
G01*
X98100000Y-107250000D01*
X98100000Y-108750000D01*
X96500000Y-108750000D01*
X96500000Y-107250000D01*
G37*
X47500000Y-89250000D02*
X49100000Y-89250000D01*
X49100000Y-89250000D02*
X49100000Y-90750000D01*
X49100000Y-90750000D02*
X47500000Y-90750000D01*
X47500000Y-90750000D02*
X47500000Y-89250000D01*
G36*
X47500000Y-89250000D02*
G01*
X49100000Y-89250000D01*
X49100000Y-90750000D01*
X47500000Y-90750000D01*
X47500000Y-89250000D01*
G37*
X122500000Y-95250000D02*
X124100000Y-95250000D01*
X124100000Y-95250000D02*
X124100000Y-96750000D01*
X124100000Y-96750000D02*
X122500000Y-96750000D01*
X122500000Y-96750000D02*
X122500000Y-95250000D01*
G36*
X122500000Y-95250000D02*
G01*
X124100000Y-95250000D01*
X124100000Y-96750000D01*
X122500000Y-96750000D01*
X122500000Y-95250000D01*
G37*
X43500000Y-95250000D02*
X45100000Y-95250000D01*
X45100000Y-95250000D02*
X45100000Y-96750000D01*
X45100000Y-96750000D02*
X43500000Y-96750000D01*
X43500000Y-96750000D02*
X43500000Y-95250000D01*
G36*
X43500000Y-95250000D02*
G01*
X45100000Y-95250000D01*
X45100000Y-96750000D01*
X43500000Y-96750000D01*
X43500000Y-95250000D01*
G37*
X134500000Y-93250000D02*
X136100000Y-93250000D01*
X136100000Y-93250000D02*
X136100000Y-94750000D01*
X136100000Y-94750000D02*
X134500000Y-94750000D01*
X134500000Y-94750000D02*
X134500000Y-93250000D01*
G36*
X134500000Y-93250000D02*
G01*
X136100000Y-93250000D01*
X136100000Y-94750000D01*
X134500000Y-94750000D01*
X134500000Y-93250000D01*
G37*
X130500000Y-113250000D02*
X132100000Y-113250000D01*
X132100000Y-113250000D02*
X132100000Y-114750000D01*
X132100000Y-114750000D02*
X130500000Y-114750000D01*
X130500000Y-114750000D02*
X130500000Y-113250000D01*
G36*
X130500000Y-113250000D02*
G01*
X132100000Y-113250000D01*
X132100000Y-114750000D01*
X130500000Y-114750000D01*
X130500000Y-113250000D01*
G37*
X37500000Y-109250000D02*
X39100000Y-109250000D01*
X39100000Y-109250000D02*
X39100000Y-110750000D01*
X39100000Y-110750000D02*
X37500000Y-110750000D01*
X37500000Y-110750000D02*
X37500000Y-109250000D01*
G36*
X37500000Y-109250000D02*
G01*
X39100000Y-109250000D01*
X39100000Y-110750000D01*
X37500000Y-110750000D01*
X37500000Y-109250000D01*
G37*
X71500000Y-111250000D02*
X73100000Y-111250000D01*
X73100000Y-111250000D02*
X73100000Y-112750000D01*
X73100000Y-112750000D02*
X71500000Y-112750000D01*
X71500000Y-112750000D02*
X71500000Y-111250000D01*
G36*
X71500000Y-111250000D02*
G01*
X73100000Y-111250000D01*
X73100000Y-112750000D01*
X71500000Y-112750000D01*
X71500000Y-111250000D01*
G37*
X114500000Y-105250000D02*
X116100000Y-105250000D01*
X116100000Y-105250000D02*
X116100000Y-106750000D01*
X116100000Y-106750000D02*
X114500000Y-106750000D01*
X114500000Y-106750000D02*
X114500000Y-105250000D01*
G36*
X114500000Y-105250000D02*
G01*
X116100000Y-105250000D01*
X116100000Y-106750000D01*
X114500000Y-106750000D01*
X114500000Y-105250000D01*
G37*
X63500000Y-103250000D02*
X65100000Y-103250000D01*
X65100000Y-103250000D02*
X65100000Y-104750000D01*
X65100000Y-104750000D02*
X63500000Y-104750000D01*
X63500000Y-104750000D02*
X63500000Y-103250000D01*
G36*
X63500000Y-103250000D02*
G01*
X65100000Y-103250000D01*
X65100000Y-104750000D01*
X63500000Y-104750000D01*
X63500000Y-103250000D01*
G37*
X120500000Y-105250000D02*
X122100000Y-105250000D01*
X122100000Y-105250000D02*
X122100000Y-106750000D01*
X122100000Y-106750000D02*
X120500000Y-106750000D01*
X120500000Y-106750000D02*
X120500000Y-105250000D01*
G36*
X120500000Y-105250000D02*
G01*
X122100000Y-105250000D01*
X122100000Y-106750000D01*
X120500000Y-106750000D01*
X120500000Y-105250000D01*
G37*
X41500000Y-101250000D02*
X43100000Y-101250000D01*
X43100000Y-101250000D02*
X43100000Y-102750000D01*
X43100000Y-102750000D02*
X41500000Y-102750000D01*
X41500000Y-102750000D02*
X41500000Y-101250000D01*
G36*
X41500000Y-101250000D02*
G01*
X43100000Y-101250000D01*
X43100000Y-102750000D01*
X41500000Y-102750000D01*
X41500000Y-101250000D01*
G37*
X120500000Y-111250000D02*
X122100000Y-111250000D01*
X122100000Y-111250000D02*
X122100000Y-112750000D01*
X122100000Y-112750000D02*
X120500000Y-112750000D01*
X120500000Y-112750000D02*
X120500000Y-111250000D01*
G36*
X120500000Y-111250000D02*
G01*
X122100000Y-111250000D01*
X122100000Y-112750000D01*
X120500000Y-112750000D01*
X120500000Y-111250000D01*
G37*
X49500000Y-109250000D02*
X51100000Y-109250000D01*
X51100000Y-109250000D02*
X51100000Y-110750000D01*
X51100000Y-110750000D02*
X49500000Y-110750000D01*
X49500000Y-110750000D02*
X49500000Y-109250000D01*
G36*
X49500000Y-109250000D02*
G01*
X51100000Y-109250000D01*
X51100000Y-110750000D01*
X49500000Y-110750000D01*
X49500000Y-109250000D01*
G37*
X100500000Y-109250000D02*
X102100000Y-109250000D01*
X102100000Y-109250000D02*
X102100000Y-110750000D01*
X102100000Y-110750000D02*
X100500000Y-110750000D01*
X100500000Y-110750000D02*
X100500000Y-109250000D01*
G36*
X100500000Y-109250000D02*
G01*
X102100000Y-109250000D01*
X102100000Y-110750000D01*
X100500000Y-110750000D01*
X100500000Y-109250000D01*
G37*
X128500000Y-99250000D02*
X130100000Y-99250000D01*
X130100000Y-99250000D02*
X130100000Y-100750000D01*
X130100000Y-100750000D02*
X128500000Y-100750000D01*
X128500000Y-100750000D02*
X128500000Y-99250000D01*
G36*
X128500000Y-99250000D02*
G01*
X130100000Y-99250000D01*
X130100000Y-100750000D01*
X128500000Y-100750000D01*
X128500000Y-99250000D01*
G37*
X96500000Y-115250000D02*
X98100000Y-115250000D01*
X98100000Y-115250000D02*
X98100000Y-116750000D01*
X98100000Y-116750000D02*
X96500000Y-116750000D01*
X96500000Y-116750000D02*
X96500000Y-115250000D01*
G36*
X96500000Y-115250000D02*
G01*
X98100000Y-115250000D01*
X98100000Y-116750000D01*
X96500000Y-116750000D01*
X96500000Y-115250000D01*
G37*
X53500000Y-91250000D02*
X55100000Y-91250000D01*
X55100000Y-91250000D02*
X55100000Y-92750000D01*
X55100000Y-92750000D02*
X53500000Y-92750000D01*
X53500000Y-92750000D02*
X53500000Y-91250000D01*
G36*
X53500000Y-91250000D02*
G01*
X55100000Y-91250000D01*
X55100000Y-92750000D01*
X53500000Y-92750000D01*
X53500000Y-91250000D01*
G37*
X73500000Y-105250000D02*
X75100000Y-105250000D01*
X75100000Y-105250000D02*
X75100000Y-106750000D01*
X75100000Y-106750000D02*
X73500000Y-106750000D01*
X73500000Y-106750000D02*
X73500000Y-105250000D01*
G36*
X73500000Y-105250000D02*
G01*
X75100000Y-105250000D01*
X75100000Y-106750000D01*
X73500000Y-106750000D01*
X73500000Y-105250000D01*
G37*
X39500000Y-99250000D02*
X41100000Y-99250000D01*
X41100000Y-99250000D02*
X41100000Y-100750000D01*
X41100000Y-100750000D02*
X39500000Y-100750000D01*
X39500000Y-100750000D02*
X39500000Y-99250000D01*
G36*
X39500000Y-99250000D02*
G01*
X41100000Y-99250000D01*
X41100000Y-100750000D01*
X39500000Y-100750000D01*
X39500000Y-99250000D01*
G37*
X57500000Y-115250000D02*
X59100000Y-115250000D01*
X59100000Y-115250000D02*
X59100000Y-116750000D01*
X59100000Y-116750000D02*
X57500000Y-116750000D01*
X57500000Y-116750000D02*
X57500000Y-115250000D01*
G36*
X57500000Y-115250000D02*
G01*
X59100000Y-115250000D01*
X59100000Y-116750000D01*
X57500000Y-116750000D01*
X57500000Y-115250000D01*
G37*
X51500000Y-91250000D02*
X53100000Y-91250000D01*
X53100000Y-91250000D02*
X53100000Y-92750000D01*
X53100000Y-92750000D02*
X51500000Y-92750000D01*
X51500000Y-92750000D02*
X51500000Y-91250000D01*
G36*
X51500000Y-91250000D02*
G01*
X53100000Y-91250000D01*
X53100000Y-92750000D01*
X51500000Y-92750000D01*
X51500000Y-91250000D01*
G37*
D11*
X83350000Y-141000000D02*
G75*
G03*
X83350000Y-141000000I-550000J0D01*
G01*
D10*
X53500000Y-103250000D02*
X55100000Y-103250000D01*
X55100000Y-103250000D02*
X55100000Y-104750000D01*
X55100000Y-104750000D02*
X53500000Y-104750000D01*
X53500000Y-104750000D02*
X53500000Y-103250000D01*
G36*
X53500000Y-103250000D02*
G01*
X55100000Y-103250000D01*
X55100000Y-104750000D01*
X53500000Y-104750000D01*
X53500000Y-103250000D01*
G37*
X136500000Y-91250000D02*
X138100000Y-91250000D01*
X138100000Y-91250000D02*
X138100000Y-92750000D01*
X138100000Y-92750000D02*
X136500000Y-92750000D01*
X136500000Y-92750000D02*
X136500000Y-91250000D01*
G36*
X136500000Y-91250000D02*
G01*
X138100000Y-91250000D01*
X138100000Y-92750000D01*
X136500000Y-92750000D01*
X136500000Y-91250000D01*
G37*
X100500000Y-105250000D02*
X102100000Y-105250000D01*
X102100000Y-105250000D02*
X102100000Y-106750000D01*
X102100000Y-106750000D02*
X100500000Y-106750000D01*
X100500000Y-106750000D02*
X100500000Y-105250000D01*
G36*
X100500000Y-105250000D02*
G01*
X102100000Y-105250000D01*
X102100000Y-106750000D01*
X100500000Y-106750000D01*
X100500000Y-105250000D01*
G37*
X122500000Y-115250000D02*
X124100000Y-115250000D01*
X124100000Y-115250000D02*
X124100000Y-116750000D01*
X124100000Y-116750000D02*
X122500000Y-116750000D01*
X122500000Y-116750000D02*
X122500000Y-115250000D01*
G36*
X122500000Y-115250000D02*
G01*
X124100000Y-115250000D01*
X124100000Y-116750000D01*
X122500000Y-116750000D01*
X122500000Y-115250000D01*
G37*
X138500000Y-111250000D02*
X140100000Y-111250000D01*
X140100000Y-111250000D02*
X140100000Y-112750000D01*
X140100000Y-112750000D02*
X138500000Y-112750000D01*
X138500000Y-112750000D02*
X138500000Y-111250000D01*
G36*
X138500000Y-111250000D02*
G01*
X140100000Y-111250000D01*
X140100000Y-112750000D01*
X138500000Y-112750000D01*
X138500000Y-111250000D01*
G37*
X140500000Y-107250000D02*
X142100000Y-107250000D01*
X142100000Y-107250000D02*
X142100000Y-108750000D01*
X142100000Y-108750000D02*
X140500000Y-108750000D01*
X140500000Y-108750000D02*
X140500000Y-107250000D01*
G36*
X140500000Y-107250000D02*
G01*
X142100000Y-107250000D01*
X142100000Y-108750000D01*
X140500000Y-108750000D01*
X140500000Y-107250000D01*
G37*
X116500000Y-103250000D02*
X118100000Y-103250000D01*
X118100000Y-103250000D02*
X118100000Y-104750000D01*
X118100000Y-104750000D02*
X116500000Y-104750000D01*
X116500000Y-104750000D02*
X116500000Y-103250000D01*
G36*
X116500000Y-103250000D02*
G01*
X118100000Y-103250000D01*
X118100000Y-104750000D01*
X116500000Y-104750000D01*
X116500000Y-103250000D01*
G37*
X120500000Y-103250000D02*
X122100000Y-103250000D01*
X122100000Y-103250000D02*
X122100000Y-104750000D01*
X122100000Y-104750000D02*
X120500000Y-104750000D01*
X120500000Y-104750000D02*
X120500000Y-103250000D01*
G36*
X120500000Y-103250000D02*
G01*
X122100000Y-103250000D01*
X122100000Y-104750000D01*
X120500000Y-104750000D01*
X120500000Y-103250000D01*
G37*
X96500000Y-101250000D02*
X98100000Y-101250000D01*
X98100000Y-101250000D02*
X98100000Y-102750000D01*
X98100000Y-102750000D02*
X96500000Y-102750000D01*
X96500000Y-102750000D02*
X96500000Y-101250000D01*
G36*
X96500000Y-101250000D02*
G01*
X98100000Y-101250000D01*
X98100000Y-102750000D01*
X96500000Y-102750000D01*
X96500000Y-101250000D01*
G37*
X65500000Y-97250000D02*
X67100000Y-97250000D01*
X67100000Y-97250000D02*
X67100000Y-98750000D01*
X67100000Y-98750000D02*
X65500000Y-98750000D01*
X65500000Y-98750000D02*
X65500000Y-97250000D01*
G36*
X65500000Y-97250000D02*
G01*
X67100000Y-97250000D01*
X67100000Y-98750000D01*
X65500000Y-98750000D01*
X65500000Y-97250000D01*
G37*
X130500000Y-89250000D02*
X132100000Y-89250000D01*
X132100000Y-89250000D02*
X132100000Y-90750000D01*
X132100000Y-90750000D02*
X130500000Y-90750000D01*
X130500000Y-90750000D02*
X130500000Y-89250000D01*
G36*
X130500000Y-89250000D02*
G01*
X132100000Y-89250000D01*
X132100000Y-90750000D01*
X130500000Y-90750000D01*
X130500000Y-89250000D01*
G37*
X108500000Y-99250000D02*
X110100000Y-99250000D01*
X110100000Y-99250000D02*
X110100000Y-100750000D01*
X110100000Y-100750000D02*
X108500000Y-100750000D01*
X108500000Y-100750000D02*
X108500000Y-99250000D01*
G36*
X108500000Y-99250000D02*
G01*
X110100000Y-99250000D01*
X110100000Y-100750000D01*
X108500000Y-100750000D01*
X108500000Y-99250000D01*
G37*
X104500000Y-109250000D02*
X106100000Y-109250000D01*
X106100000Y-109250000D02*
X106100000Y-110750000D01*
X106100000Y-110750000D02*
X104500000Y-110750000D01*
X104500000Y-110750000D02*
X104500000Y-109250000D01*
G36*
X104500000Y-109250000D02*
G01*
X106100000Y-109250000D01*
X106100000Y-110750000D01*
X104500000Y-110750000D01*
X104500000Y-109250000D01*
G37*
X92500000Y-103250000D02*
X94100000Y-103250000D01*
X94100000Y-103250000D02*
X94100000Y-104750000D01*
X94100000Y-104750000D02*
X92500000Y-104750000D01*
X92500000Y-104750000D02*
X92500000Y-103250000D01*
G36*
X92500000Y-103250000D02*
G01*
X94100000Y-103250000D01*
X94100000Y-104750000D01*
X92500000Y-104750000D01*
X92500000Y-103250000D01*
G37*
X140500000Y-105250000D02*
X142100000Y-105250000D01*
X142100000Y-105250000D02*
X142100000Y-106750000D01*
X142100000Y-106750000D02*
X140500000Y-106750000D01*
X140500000Y-106750000D02*
X140500000Y-105250000D01*
G36*
X140500000Y-105250000D02*
G01*
X142100000Y-105250000D01*
X142100000Y-106750000D01*
X140500000Y-106750000D01*
X140500000Y-105250000D01*
G37*
X69500000Y-109250000D02*
X71100000Y-109250000D01*
X71100000Y-109250000D02*
X71100000Y-110750000D01*
X71100000Y-110750000D02*
X69500000Y-110750000D01*
X69500000Y-110750000D02*
X69500000Y-109250000D01*
G36*
X69500000Y-109250000D02*
G01*
X71100000Y-109250000D01*
X71100000Y-110750000D01*
X69500000Y-110750000D01*
X69500000Y-109250000D01*
G37*
X45500000Y-91250000D02*
X47100000Y-91250000D01*
X47100000Y-91250000D02*
X47100000Y-92750000D01*
X47100000Y-92750000D02*
X45500000Y-92750000D01*
X45500000Y-92750000D02*
X45500000Y-91250000D01*
G36*
X45500000Y-91250000D02*
G01*
X47100000Y-91250000D01*
X47100000Y-92750000D01*
X45500000Y-92750000D01*
X45500000Y-91250000D01*
G37*
X51500000Y-99250000D02*
X53100000Y-99250000D01*
X53100000Y-99250000D02*
X53100000Y-100750000D01*
X53100000Y-100750000D02*
X51500000Y-100750000D01*
X51500000Y-100750000D02*
X51500000Y-99250000D01*
G36*
X51500000Y-99250000D02*
G01*
X53100000Y-99250000D01*
X53100000Y-100750000D01*
X51500000Y-100750000D01*
X51500000Y-99250000D01*
G37*
X77500000Y-111250000D02*
X79100000Y-111250000D01*
X79100000Y-111250000D02*
X79100000Y-112750000D01*
X79100000Y-112750000D02*
X77500000Y-112750000D01*
X77500000Y-112750000D02*
X77500000Y-111250000D01*
G36*
X77500000Y-111250000D02*
G01*
X79100000Y-111250000D01*
X79100000Y-112750000D01*
X77500000Y-112750000D01*
X77500000Y-111250000D01*
G37*
X130500000Y-103250000D02*
X132100000Y-103250000D01*
X132100000Y-103250000D02*
X132100000Y-104750000D01*
X132100000Y-104750000D02*
X130500000Y-104750000D01*
X130500000Y-104750000D02*
X130500000Y-103250000D01*
G36*
X130500000Y-103250000D02*
G01*
X132100000Y-103250000D01*
X132100000Y-104750000D01*
X130500000Y-104750000D01*
X130500000Y-103250000D01*
G37*
X49500000Y-95250000D02*
X51100000Y-95250000D01*
X51100000Y-95250000D02*
X51100000Y-96750000D01*
X51100000Y-96750000D02*
X49500000Y-96750000D01*
X49500000Y-96750000D02*
X49500000Y-95250000D01*
G36*
X49500000Y-95250000D02*
G01*
X51100000Y-95250000D01*
X51100000Y-96750000D01*
X49500000Y-96750000D01*
X49500000Y-95250000D01*
G37*
X112500000Y-103250000D02*
X114100000Y-103250000D01*
X114100000Y-103250000D02*
X114100000Y-104750000D01*
X114100000Y-104750000D02*
X112500000Y-104750000D01*
X112500000Y-104750000D02*
X112500000Y-103250000D01*
G36*
X112500000Y-103250000D02*
G01*
X114100000Y-103250000D01*
X114100000Y-104750000D01*
X112500000Y-104750000D01*
X112500000Y-103250000D01*
G37*
X55500000Y-115250000D02*
X57100000Y-115250000D01*
X57100000Y-115250000D02*
X57100000Y-116750000D01*
X57100000Y-116750000D02*
X55500000Y-116750000D01*
X55500000Y-116750000D02*
X55500000Y-115250000D01*
G36*
X55500000Y-115250000D02*
G01*
X57100000Y-115250000D01*
X57100000Y-116750000D01*
X55500000Y-116750000D01*
X55500000Y-115250000D01*
G37*
D11*
X93350000Y-120000000D02*
G75*
G03*
X93350000Y-120000000I-550000J0D01*
G01*
D10*
X116500000Y-111250000D02*
X118100000Y-111250000D01*
X118100000Y-111250000D02*
X118100000Y-112750000D01*
X118100000Y-112750000D02*
X116500000Y-112750000D01*
X116500000Y-112750000D02*
X116500000Y-111250000D01*
G36*
X116500000Y-111250000D02*
G01*
X118100000Y-111250000D01*
X118100000Y-112750000D01*
X116500000Y-112750000D01*
X116500000Y-111250000D01*
G37*
X63500000Y-95250000D02*
X65100000Y-95250000D01*
X65100000Y-95250000D02*
X65100000Y-96750000D01*
X65100000Y-96750000D02*
X63500000Y-96750000D01*
X63500000Y-96750000D02*
X63500000Y-95250000D01*
G36*
X63500000Y-95250000D02*
G01*
X65100000Y-95250000D01*
X65100000Y-96750000D01*
X63500000Y-96750000D01*
X63500000Y-95250000D01*
G37*
X51500000Y-97250000D02*
X53100000Y-97250000D01*
X53100000Y-97250000D02*
X53100000Y-98750000D01*
X53100000Y-98750000D02*
X51500000Y-98750000D01*
X51500000Y-98750000D02*
X51500000Y-97250000D01*
G36*
X51500000Y-97250000D02*
G01*
X53100000Y-97250000D01*
X53100000Y-98750000D01*
X51500000Y-98750000D01*
X51500000Y-97250000D01*
G37*
X45500000Y-89250000D02*
X47100000Y-89250000D01*
X47100000Y-89250000D02*
X47100000Y-90750000D01*
X47100000Y-90750000D02*
X45500000Y-90750000D01*
X45500000Y-90750000D02*
X45500000Y-89250000D01*
G36*
X45500000Y-89250000D02*
G01*
X47100000Y-89250000D01*
X47100000Y-90750000D01*
X45500000Y-90750000D01*
X45500000Y-89250000D01*
G37*
X49500000Y-93250000D02*
X51100000Y-93250000D01*
X51100000Y-93250000D02*
X51100000Y-94750000D01*
X51100000Y-94750000D02*
X49500000Y-94750000D01*
X49500000Y-94750000D02*
X49500000Y-93250000D01*
G36*
X49500000Y-93250000D02*
G01*
X51100000Y-93250000D01*
X51100000Y-94750000D01*
X49500000Y-94750000D01*
X49500000Y-93250000D01*
G37*
X128500000Y-103250000D02*
X130100000Y-103250000D01*
X130100000Y-103250000D02*
X130100000Y-104750000D01*
X130100000Y-104750000D02*
X128500000Y-104750000D01*
X128500000Y-104750000D02*
X128500000Y-103250000D01*
G36*
X128500000Y-103250000D02*
G01*
X130100000Y-103250000D01*
X130100000Y-104750000D01*
X128500000Y-104750000D01*
X128500000Y-103250000D01*
G37*
X45500000Y-109250000D02*
X47100000Y-109250000D01*
X47100000Y-109250000D02*
X47100000Y-110750000D01*
X47100000Y-110750000D02*
X45500000Y-110750000D01*
X45500000Y-110750000D02*
X45500000Y-109250000D01*
G36*
X45500000Y-109250000D02*
G01*
X47100000Y-109250000D01*
X47100000Y-110750000D01*
X45500000Y-110750000D01*
X45500000Y-109250000D01*
G37*
X49500000Y-103250000D02*
X51100000Y-103250000D01*
X51100000Y-103250000D02*
X51100000Y-104750000D01*
X51100000Y-104750000D02*
X49500000Y-104750000D01*
X49500000Y-104750000D02*
X49500000Y-103250000D01*
G36*
X49500000Y-103250000D02*
G01*
X51100000Y-103250000D01*
X51100000Y-104750000D01*
X49500000Y-104750000D01*
X49500000Y-103250000D01*
G37*
X41500000Y-95250000D02*
X43100000Y-95250000D01*
X43100000Y-95250000D02*
X43100000Y-96750000D01*
X43100000Y-96750000D02*
X41500000Y-96750000D01*
X41500000Y-96750000D02*
X41500000Y-95250000D01*
G36*
X41500000Y-95250000D02*
G01*
X43100000Y-95250000D01*
X43100000Y-96750000D01*
X41500000Y-96750000D01*
X41500000Y-95250000D01*
G37*
X98500000Y-105250000D02*
X100100000Y-105250000D01*
X100100000Y-105250000D02*
X100100000Y-106750000D01*
X100100000Y-106750000D02*
X98500000Y-106750000D01*
X98500000Y-106750000D02*
X98500000Y-105250000D01*
G36*
X98500000Y-105250000D02*
G01*
X100100000Y-105250000D01*
X100100000Y-106750000D01*
X98500000Y-106750000D01*
X98500000Y-105250000D01*
G37*
X92500000Y-93250000D02*
X94100000Y-93250000D01*
X94100000Y-93250000D02*
X94100000Y-94750000D01*
X94100000Y-94750000D02*
X92500000Y-94750000D01*
X92500000Y-94750000D02*
X92500000Y-93250000D01*
G36*
X92500000Y-93250000D02*
G01*
X94100000Y-93250000D01*
X94100000Y-94750000D01*
X92500000Y-94750000D01*
X92500000Y-93250000D01*
G37*
X35500000Y-107250000D02*
X37100000Y-107250000D01*
X37100000Y-107250000D02*
X37100000Y-108750000D01*
X37100000Y-108750000D02*
X35500000Y-108750000D01*
X35500000Y-108750000D02*
X35500000Y-107250000D01*
G36*
X35500000Y-107250000D02*
G01*
X37100000Y-107250000D01*
X37100000Y-108750000D01*
X35500000Y-108750000D01*
X35500000Y-107250000D01*
G37*
X61500000Y-89250000D02*
X63100000Y-89250000D01*
X63100000Y-89250000D02*
X63100000Y-90750000D01*
X63100000Y-90750000D02*
X61500000Y-90750000D01*
X61500000Y-90750000D02*
X61500000Y-89250000D01*
G36*
X61500000Y-89250000D02*
G01*
X63100000Y-89250000D01*
X63100000Y-90750000D01*
X61500000Y-90750000D01*
X61500000Y-89250000D01*
G37*
X94500000Y-97250000D02*
X96100000Y-97250000D01*
X96100000Y-97250000D02*
X96100000Y-98750000D01*
X96100000Y-98750000D02*
X94500000Y-98750000D01*
X94500000Y-98750000D02*
X94500000Y-97250000D01*
G36*
X94500000Y-97250000D02*
G01*
X96100000Y-97250000D01*
X96100000Y-98750000D01*
X94500000Y-98750000D01*
X94500000Y-97250000D01*
G37*
X128500000Y-109250000D02*
X130100000Y-109250000D01*
X130100000Y-109250000D02*
X130100000Y-110750000D01*
X130100000Y-110750000D02*
X128500000Y-110750000D01*
X128500000Y-110750000D02*
X128500000Y-109250000D01*
G36*
X128500000Y-109250000D02*
G01*
X130100000Y-109250000D01*
X130100000Y-110750000D01*
X128500000Y-110750000D01*
X128500000Y-109250000D01*
G37*
X140500000Y-111250000D02*
X142100000Y-111250000D01*
X142100000Y-111250000D02*
X142100000Y-112750000D01*
X142100000Y-112750000D02*
X140500000Y-112750000D01*
X140500000Y-112750000D02*
X140500000Y-111250000D01*
G36*
X140500000Y-111250000D02*
G01*
X142100000Y-111250000D01*
X142100000Y-112750000D01*
X140500000Y-112750000D01*
X140500000Y-111250000D01*
G37*
D11*
X34350000Y-141000000D02*
G75*
G03*
X34350000Y-141000000I-550000J0D01*
G01*
D10*
X37500000Y-101250000D02*
X39100000Y-101250000D01*
X39100000Y-101250000D02*
X39100000Y-102750000D01*
X39100000Y-102750000D02*
X37500000Y-102750000D01*
X37500000Y-102750000D02*
X37500000Y-101250000D01*
G36*
X37500000Y-101250000D02*
G01*
X39100000Y-101250000D01*
X39100000Y-102750000D01*
X37500000Y-102750000D01*
X37500000Y-101250000D01*
G37*
X124500000Y-115250000D02*
X126100000Y-115250000D01*
X126100000Y-115250000D02*
X126100000Y-116750000D01*
X126100000Y-116750000D02*
X124500000Y-116750000D01*
X124500000Y-116750000D02*
X124500000Y-115250000D01*
G36*
X124500000Y-115250000D02*
G01*
X126100000Y-115250000D01*
X126100000Y-116750000D01*
X124500000Y-116750000D01*
X124500000Y-115250000D01*
G37*
X106500000Y-105250000D02*
X108100000Y-105250000D01*
X108100000Y-105250000D02*
X108100000Y-106750000D01*
X108100000Y-106750000D02*
X106500000Y-106750000D01*
X106500000Y-106750000D02*
X106500000Y-105250000D01*
G36*
X106500000Y-105250000D02*
G01*
X108100000Y-105250000D01*
X108100000Y-106750000D01*
X106500000Y-106750000D01*
X106500000Y-105250000D01*
G37*
X116500000Y-91250000D02*
X118100000Y-91250000D01*
X118100000Y-91250000D02*
X118100000Y-92750000D01*
X118100000Y-92750000D02*
X116500000Y-92750000D01*
X116500000Y-92750000D02*
X116500000Y-91250000D01*
G36*
X116500000Y-91250000D02*
G01*
X118100000Y-91250000D01*
X118100000Y-92750000D01*
X116500000Y-92750000D01*
X116500000Y-91250000D01*
G37*
X128500000Y-89250000D02*
X130100000Y-89250000D01*
X130100000Y-89250000D02*
X130100000Y-90750000D01*
X130100000Y-90750000D02*
X128500000Y-90750000D01*
X128500000Y-90750000D02*
X128500000Y-89250000D01*
G36*
X128500000Y-89250000D02*
G01*
X130100000Y-89250000D01*
X130100000Y-90750000D01*
X128500000Y-90750000D01*
X128500000Y-89250000D01*
G37*
X69500000Y-111250000D02*
X71100000Y-111250000D01*
X71100000Y-111250000D02*
X71100000Y-112750000D01*
X71100000Y-112750000D02*
X69500000Y-112750000D01*
X69500000Y-112750000D02*
X69500000Y-111250000D01*
G36*
X69500000Y-111250000D02*
G01*
X71100000Y-111250000D01*
X71100000Y-112750000D01*
X69500000Y-112750000D01*
X69500000Y-111250000D01*
G37*
X122500000Y-101250000D02*
X124100000Y-101250000D01*
X124100000Y-101250000D02*
X124100000Y-102750000D01*
X124100000Y-102750000D02*
X122500000Y-102750000D01*
X122500000Y-102750000D02*
X122500000Y-101250000D01*
G36*
X122500000Y-101250000D02*
G01*
X124100000Y-101250000D01*
X124100000Y-102750000D01*
X122500000Y-102750000D01*
X122500000Y-101250000D01*
G37*
X73500000Y-97250000D02*
X75100000Y-97250000D01*
X75100000Y-97250000D02*
X75100000Y-98750000D01*
X75100000Y-98750000D02*
X73500000Y-98750000D01*
X73500000Y-98750000D02*
X73500000Y-97250000D01*
G36*
X73500000Y-97250000D02*
G01*
X75100000Y-97250000D01*
X75100000Y-98750000D01*
X73500000Y-98750000D01*
X73500000Y-97250000D01*
G37*
D11*
X142350000Y-120000000D02*
G75*
G03*
X142350000Y-120000000I-550000J0D01*
G01*
D10*
X45500000Y-103250000D02*
X47100000Y-103250000D01*
X47100000Y-103250000D02*
X47100000Y-104750000D01*
X47100000Y-104750000D02*
X45500000Y-104750000D01*
X45500000Y-104750000D02*
X45500000Y-103250000D01*
G36*
X45500000Y-103250000D02*
G01*
X47100000Y-103250000D01*
X47100000Y-104750000D01*
X45500000Y-104750000D01*
X45500000Y-103250000D01*
G37*
X37500000Y-99250000D02*
X39100000Y-99250000D01*
X39100000Y-99250000D02*
X39100000Y-100750000D01*
X39100000Y-100750000D02*
X37500000Y-100750000D01*
X37500000Y-100750000D02*
X37500000Y-99250000D01*
G36*
X37500000Y-99250000D02*
G01*
X39100000Y-99250000D01*
X39100000Y-100750000D01*
X37500000Y-100750000D01*
X37500000Y-99250000D01*
G37*
D12*
D13*
X71571428Y-107607142D02*
X72171428Y-107607142D01*
X71785714Y-108507142D01*
X72685714Y-107607142D02*
X72771428Y-107607142D01*
X72857142Y-107650000D01*
X72900000Y-107692857D01*
X72942857Y-107778571D01*
X72985714Y-107950000D01*
X72985714Y-108164285D01*
X72942857Y-108335714D01*
X72900000Y-108421428D01*
X72857142Y-108464285D01*
X72771428Y-108507142D01*
X72685714Y-108507142D01*
X72600000Y-108464285D01*
X72557142Y-108421428D01*
X72514285Y-108335714D01*
X72471428Y-108164285D01*
X72471428Y-107950000D01*
X72514285Y-107778571D01*
X72557142Y-107692857D01*
X72600000Y-107650000D01*
X72685714Y-107607142D01*
D12*
D13*
X134571428Y-107607142D02*
X135171428Y-107607142D01*
X134785714Y-108507142D01*
X135471428Y-107692857D02*
X135514285Y-107650000D01*
X135600000Y-107607142D01*
X135814285Y-107607142D01*
X135900000Y-107650000D01*
X135942857Y-107692857D01*
X135985714Y-107778571D01*
X135985714Y-107864285D01*
X135942857Y-107992857D01*
X135428571Y-108507142D01*
X135985714Y-108507142D01*
D12*
D13*
X133142857Y-107607142D02*
X132971428Y-107607142D01*
X132885714Y-107650000D01*
X132842857Y-107692857D01*
X132757142Y-107821428D01*
X132714285Y-107992857D01*
X132714285Y-108335714D01*
X132757142Y-108421428D01*
X132800000Y-108464285D01*
X132885714Y-108507142D01*
X133057142Y-108507142D01*
X133142857Y-108464285D01*
X133185714Y-108421428D01*
X133228571Y-108335714D01*
X133228571Y-108121428D01*
X133185714Y-108035714D01*
X133142857Y-107992857D01*
X133057142Y-107950000D01*
X132885714Y-107950000D01*
X132800000Y-107992857D01*
X132757142Y-108035714D01*
X132714285Y-108121428D01*
X134042857Y-107607142D02*
X133614285Y-107607142D01*
X133571428Y-108035714D01*
X133614285Y-107992857D01*
X133700000Y-107950000D01*
X133914285Y-107950000D01*
X134000000Y-107992857D01*
X134042857Y-108035714D01*
X134085714Y-108121428D01*
X134085714Y-108335714D01*
X134042857Y-108421428D01*
X134000000Y-108464285D01*
X133914285Y-108507142D01*
X133700000Y-108507142D01*
X133614285Y-108464285D01*
X133571428Y-108421428D01*
D12*
D13*
X66085714Y-107607142D02*
X65914285Y-107607142D01*
X65828571Y-107650000D01*
X65785714Y-107692857D01*
X65700000Y-107821428D01*
X65657142Y-107992857D01*
X65657142Y-108335714D01*
X65700000Y-108421428D01*
X65742857Y-108464285D01*
X65828571Y-108507142D01*
X66000000Y-108507142D01*
X66085714Y-108464285D01*
X66128571Y-108421428D01*
X66171428Y-108335714D01*
X66171428Y-108121428D01*
X66128571Y-108035714D01*
X66085714Y-107992857D01*
X66000000Y-107950000D01*
X65828571Y-107950000D01*
X65742857Y-107992857D01*
X65700000Y-108035714D01*
X65657142Y-108121428D01*
X66942857Y-108464285D02*
X66857142Y-108507142D01*
X66685714Y-108507142D01*
X66600000Y-108464285D01*
X66557142Y-108421428D01*
X66514285Y-108335714D01*
X66514285Y-108078571D01*
X66557142Y-107992857D01*
X66600000Y-107950000D01*
X66685714Y-107907142D01*
X66857142Y-107907142D01*
X66942857Y-107950000D01*
D12*
D13*
X125085714Y-107607142D02*
X124914285Y-107607142D01*
X124828571Y-107650000D01*
X124785714Y-107692857D01*
X124700000Y-107821428D01*
X124657142Y-107992857D01*
X124657142Y-108335714D01*
X124700000Y-108421428D01*
X124742857Y-108464285D01*
X124828571Y-108507142D01*
X125000000Y-108507142D01*
X125085714Y-108464285D01*
X125128571Y-108421428D01*
X125171428Y-108335714D01*
X125171428Y-108121428D01*
X125128571Y-108035714D01*
X125085714Y-107992857D01*
X125000000Y-107950000D01*
X124828571Y-107950000D01*
X124742857Y-107992857D01*
X124700000Y-108035714D01*
X124657142Y-108121428D01*
X125942857Y-108464285D02*
X125857142Y-108507142D01*
X125685714Y-108507142D01*
X125600000Y-108464285D01*
X125557142Y-108421428D01*
X125514285Y-108335714D01*
X125514285Y-108078571D01*
X125557142Y-107992857D01*
X125600000Y-107950000D01*
X125685714Y-107907142D01*
X125857142Y-107907142D01*
X125942857Y-107950000D01*
D12*
D13*
X130571428Y-107607142D02*
X131171428Y-107607142D01*
X130785714Y-108507142D01*
X131685714Y-107607142D02*
X131771428Y-107607142D01*
X131857142Y-107650000D01*
X131900000Y-107692857D01*
X131942857Y-107778571D01*
X131985714Y-107950000D01*
X131985714Y-108164285D01*
X131942857Y-108335714D01*
X131900000Y-108421428D01*
X131857142Y-108464285D01*
X131771428Y-108507142D01*
X131685714Y-108507142D01*
X131600000Y-108464285D01*
X131557142Y-108421428D01*
X131514285Y-108335714D01*
X131471428Y-108164285D01*
X131471428Y-107950000D01*
X131514285Y-107778571D01*
X131557142Y-107692857D01*
X131600000Y-107650000D01*
X131685714Y-107607142D01*
D12*
D13*
X128571428Y-107607142D02*
X129171428Y-107607142D01*
X128785714Y-108507142D01*
X129685714Y-107607142D02*
X129771428Y-107607142D01*
X129857142Y-107650000D01*
X129900000Y-107692857D01*
X129942857Y-107778571D01*
X129985714Y-107950000D01*
X129985714Y-108164285D01*
X129942857Y-108335714D01*
X129900000Y-108421428D01*
X129857142Y-108464285D01*
X129771428Y-108507142D01*
X129685714Y-108507142D01*
X129600000Y-108464285D01*
X129557142Y-108421428D01*
X129514285Y-108335714D01*
X129471428Y-108164285D01*
X129471428Y-107950000D01*
X129514285Y-107778571D01*
X129557142Y-107692857D01*
X129600000Y-107650000D01*
X129685714Y-107607142D01*
D12*
D13*
X64064285Y-107907142D02*
X64064285Y-108507142D01*
X63850000Y-107564285D02*
X63635714Y-108207142D01*
X64192857Y-108207142D01*
X64535714Y-108507142D02*
X64535714Y-107607142D01*
X64535714Y-107950000D02*
X64621428Y-107907142D01*
X64792857Y-107907142D01*
X64878571Y-107950000D01*
X64921428Y-107992857D01*
X64964285Y-108078571D01*
X64964285Y-108335714D01*
X64921428Y-108421428D01*
X64878571Y-108464285D01*
X64792857Y-108507142D01*
X64621428Y-108507142D01*
X64535714Y-108464285D01*
D12*
D13*
X123064285Y-107907142D02*
X123064285Y-108507142D01*
X122850000Y-107564285D02*
X122635714Y-108207142D01*
X123192857Y-108207142D01*
X123535714Y-108507142D02*
X123535714Y-107607142D01*
X123535714Y-107950000D02*
X123621428Y-107907142D01*
X123792857Y-107907142D01*
X123878571Y-107950000D01*
X123921428Y-107992857D01*
X123964285Y-108078571D01*
X123964285Y-108335714D01*
X123921428Y-108421428D01*
X123878571Y-108464285D01*
X123792857Y-108507142D01*
X123621428Y-108507142D01*
X123535714Y-108464285D01*
D12*
D13*
X74142857Y-107607142D02*
X73971428Y-107607142D01*
X73885714Y-107650000D01*
X73842857Y-107692857D01*
X73757142Y-107821428D01*
X73714285Y-107992857D01*
X73714285Y-108335714D01*
X73757142Y-108421428D01*
X73800000Y-108464285D01*
X73885714Y-108507142D01*
X74057142Y-108507142D01*
X74142857Y-108464285D01*
X74185714Y-108421428D01*
X74228571Y-108335714D01*
X74228571Y-108121428D01*
X74185714Y-108035714D01*
X74142857Y-107992857D01*
X74057142Y-107950000D01*
X73885714Y-107950000D01*
X73800000Y-107992857D01*
X73757142Y-108035714D01*
X73714285Y-108121428D01*
X75042857Y-107607142D02*
X74614285Y-107607142D01*
X74571428Y-108035714D01*
X74614285Y-107992857D01*
X74700000Y-107950000D01*
X74914285Y-107950000D01*
X75000000Y-107992857D01*
X75042857Y-108035714D01*
X75085714Y-108121428D01*
X75085714Y-108335714D01*
X75042857Y-108421428D01*
X75000000Y-108464285D01*
X74914285Y-108507142D01*
X74700000Y-108507142D01*
X74614285Y-108464285D01*
X74571428Y-108421428D01*
D12*
D13*
X127042857Y-107607142D02*
X126871428Y-107607142D01*
X126785714Y-107650000D01*
X126742857Y-107692857D01*
X126657142Y-107821428D01*
X126614285Y-107992857D01*
X126614285Y-108335714D01*
X126657142Y-108421428D01*
X126700000Y-108464285D01*
X126785714Y-108507142D01*
X126957142Y-108507142D01*
X127042857Y-108464285D01*
X127085714Y-108421428D01*
X127128571Y-108335714D01*
X127128571Y-108121428D01*
X127085714Y-108035714D01*
X127042857Y-107992857D01*
X126957142Y-107950000D01*
X126785714Y-107950000D01*
X126700000Y-107992857D01*
X126657142Y-108035714D01*
X126614285Y-108121428D01*
X127942857Y-107607142D02*
X127514285Y-107607142D01*
X127471428Y-108035714D01*
X127514285Y-107992857D01*
X127600000Y-107950000D01*
X127814285Y-107950000D01*
X127900000Y-107992857D01*
X127942857Y-108035714D01*
X127985714Y-108121428D01*
X127985714Y-108335714D01*
X127942857Y-108421428D01*
X127900000Y-108464285D01*
X127814285Y-108507142D01*
X127600000Y-108507142D01*
X127514285Y-108464285D01*
X127471428Y-108421428D01*
D12*
D13*
X75571428Y-107607142D02*
X76171428Y-107607142D01*
X75785714Y-108507142D01*
X76471428Y-107692857D02*
X76514285Y-107650000D01*
X76600000Y-107607142D01*
X76814285Y-107607142D01*
X76900000Y-107650000D01*
X76942857Y-107692857D01*
X76985714Y-107778571D01*
X76985714Y-107864285D01*
X76942857Y-107992857D01*
X76428571Y-108507142D01*
X76985714Y-108507142D01*
D12*
D13*
X68042857Y-107607142D02*
X67871428Y-107607142D01*
X67785714Y-107650000D01*
X67742857Y-107692857D01*
X67657142Y-107821428D01*
X67614285Y-107992857D01*
X67614285Y-108335714D01*
X67657142Y-108421428D01*
X67700000Y-108464285D01*
X67785714Y-108507142D01*
X67957142Y-108507142D01*
X68042857Y-108464285D01*
X68085714Y-108421428D01*
X68128571Y-108335714D01*
X68128571Y-108121428D01*
X68085714Y-108035714D01*
X68042857Y-107992857D01*
X67957142Y-107950000D01*
X67785714Y-107950000D01*
X67700000Y-107992857D01*
X67657142Y-108035714D01*
X67614285Y-108121428D01*
X68942857Y-107607142D02*
X68514285Y-107607142D01*
X68471428Y-108035714D01*
X68514285Y-107992857D01*
X68600000Y-107950000D01*
X68814285Y-107950000D01*
X68900000Y-107992857D01*
X68942857Y-108035714D01*
X68985714Y-108121428D01*
X68985714Y-108335714D01*
X68942857Y-108421428D01*
X68900000Y-108464285D01*
X68814285Y-108507142D01*
X68600000Y-108507142D01*
X68514285Y-108464285D01*
X68471428Y-108421428D01*
D12*
D13*
X69571428Y-107607142D02*
X70171428Y-107607142D01*
X69785714Y-108507142D01*
X70685714Y-107607142D02*
X70771428Y-107607142D01*
X70857142Y-107650000D01*
X70900000Y-107692857D01*
X70942857Y-107778571D01*
X70985714Y-107950000D01*
X70985714Y-108164285D01*
X70942857Y-108335714D01*
X70900000Y-108421428D01*
X70857142Y-108464285D01*
X70771428Y-108507142D01*
X70685714Y-108507142D01*
X70600000Y-108464285D01*
X70557142Y-108421428D01*
X70514285Y-108335714D01*
X70471428Y-108164285D01*
X70471428Y-107950000D01*
X70514285Y-107778571D01*
X70557142Y-107692857D01*
X70600000Y-107650000D01*
X70685714Y-107607142D01*
D14*
X36600023Y-124300050D02*
X36600050Y-138700002D01*
X79000025Y-140900001D02*
X37600075Y-140900003D01*
X80000025Y-138700001D02*
X79999975Y-123699998D01*
X79000025Y-139700001D02*
X37600075Y-139700003D01*
X35400023Y-124300050D02*
X35400050Y-138700002D01*
X80600025Y-138700001D02*
X80599975Y-123699998D01*
X81200025Y-138700001D02*
X81199975Y-123699998D01*
X37600025Y-121500000D02*
X78999975Y-121499998D01*
X78999975Y-120899998D02*
X77700025Y-120900000D01*
X34800023Y-124300050D02*
X34800000Y-138700000D01*
X37200023Y-124297796D02*
X37199995Y-138700002D01*
X79000025Y-140300001D02*
X37600075Y-140300003D01*
X37600025Y-122700000D02*
X78999975Y-122699998D01*
X37600023Y-123899995D02*
X74900000Y-123900000D01*
X81800025Y-138700001D02*
X81800025Y-123700000D01*
X79400025Y-138702255D02*
X79400030Y-123699998D01*
X37600025Y-123299945D02*
X79002229Y-123299998D01*
X79000025Y-139100056D02*
X37597821Y-139100003D01*
X37600025Y-122100000D02*
X78999975Y-122099998D01*
X79000023Y-141500051D02*
X37600075Y-141500003D01*
X36000023Y-124300050D02*
X36000050Y-138700002D01*
X37600025Y-121500000D02*
G75*
G03*
X34800023Y-124300050I25J-2800027D01*
G01*
X81199972Y-123699998D02*
G75*
G03*
X78999975Y-121499998I-2197822J2178D01*
G01*
X35400050Y-138700002D02*
G75*
G03*
X37600050Y-140900002I2197746J-2254D01*
G01*
X37600023Y-123899994D02*
G75*
G03*
X37200023Y-124297796I-53J-399953D01*
G01*
X79000025Y-139700025D02*
G75*
G03*
X80000025Y-138700001I-25J1000025D01*
G01*
X79000023Y-141500055D02*
G75*
G03*
X81800025Y-138700001I-33J2800035D01*
G01*
X80000002Y-123699998D02*
G75*
G03*
X78999975Y-122699998I-1000002J-2D01*
G01*
X79000025Y-140899995D02*
G75*
G03*
X81200025Y-138700001I2265J2197735D01*
G01*
X36600050Y-138700002D02*
G75*
G03*
X37600050Y-139700002I1000003J3D01*
G01*
X79000025Y-140299995D02*
G75*
G03*
X80600025Y-138700001I-35J1600035D01*
G01*
X36000050Y-138700002D02*
G75*
G03*
X37600050Y-140300002I1600040J40D01*
G01*
X37600023Y-122100050D02*
G75*
G03*
X35400023Y-124300050I-2254J-2197746D01*
G01*
X34800000Y-138700000D02*
G75*
G03*
X37600050Y-141500002I2800027J25D01*
G01*
X80600002Y-123699998D02*
G75*
G03*
X78999975Y-122099998I-1600102J-102D01*
G01*
X76800000Y-120000000D02*
G75*
G03*
X77700025Y-120900000I900000J0D01*
G01*
X79000025Y-139100031D02*
G75*
G03*
X79400025Y-138702255I75J399931D01*
G01*
X74900000Y-120900000D02*
G75*
G03*
X75800000Y-120000000I0J900000D01*
G01*
X81800002Y-123700000D02*
G75*
G03*
X78999975Y-120899998I-2800002J0D01*
G01*
X37199994Y-138700002D02*
G75*
G03*
X37597796Y-139100002I399953J-53D01*
G01*
X79400008Y-123699998D02*
G75*
G03*
X79002229Y-123299998I-399908J98D01*
G01*
X37600023Y-123300050D02*
G75*
G03*
X36600023Y-124300050I3J-1000003D01*
G01*
X37600023Y-122700050D02*
G75*
G03*
X36000023Y-124300050I40J-1600040D01*
G01*
D15*
X74300000Y-70230000D03*
X74300000Y-69270000D03*
D16*
X75820000Y-81750000D03*
X76780000Y-81750000D03*
X77820000Y-81750000D03*
X78780000Y-81750000D03*
D17*
X77087500Y-69750000D03*
X75512500Y-69750000D03*
D18*
X74675000Y-80400000D03*
X75125000Y-80400000D03*
X75575000Y-80400000D03*
X76025000Y-80400000D03*
X76475000Y-80400000D03*
X76925000Y-80400000D03*
X76925000Y-77600000D03*
X76475000Y-77600000D03*
X76025000Y-77600000D03*
X75575000Y-77600000D03*
X75125000Y-77600000D03*
X74675000Y-77600000D03*
D19*
X75800000Y-79000000D03*
D20*
X78300000Y-70270000D03*
X78300000Y-69250000D03*
D16*
X73820000Y-81750000D03*
X74780000Y-81750000D03*
D21*
X74900000Y-120900025D03*
X74900000Y-123900000D03*
D22*
X76800000Y-119600000D03*
X75800000Y-119600000D03*
D23*
X141800000Y-86000000D03*
X141800000Y-65000000D03*
X92800000Y-141000000D03*
X92800000Y-86000000D03*
X82800000Y-120000000D03*
X82800000Y-65000000D03*
X141800000Y-141000000D03*
X82800000Y-86000000D03*
X82800000Y-141000000D03*
X92800000Y-120000000D03*
X33800000Y-65000000D03*
X141800000Y-120000000D03*
X33800000Y-141000000D03*
X33800000Y-120000000D03*
X92800000Y-65000000D03*
X33800000Y-86000000D03*
D24*
X75800000Y-86000000D03*
X75800000Y-119000000D03*
X76800000Y-119000000D03*
X76800000Y-86000000D03*
D25*
X75800000Y-119600000D02*
X75800000Y-119000000D01*
D26*
X76025000Y-80400000D02*
X76025000Y-81545000D01*
D25*
X75800000Y-81770000D02*
X75820000Y-81750000D01*
D26*
X75820000Y-81750000D02*
X74780000Y-81750000D01*
D25*
X75800000Y-81770000D02*
X75800000Y-86000000D01*
D26*
X76025000Y-81545000D02*
X75820000Y-81750000D01*
X76475020Y-81445020D02*
X76780000Y-81750000D01*
X76475000Y-80400000D02*
X76475000Y-80813590D01*
X76780000Y-81750000D02*
X77820000Y-81750000D01*
D25*
X76800000Y-81770000D02*
X76780000Y-81750000D01*
X76780000Y-85980000D02*
X76800000Y-86000000D01*
D26*
X76475020Y-80813610D02*
X76475020Y-81445020D01*
X76475000Y-80813590D02*
X76475020Y-80813610D01*
D25*
X76780000Y-81750000D02*
X76780000Y-85980000D01*
X76800000Y-119600000D02*
X76800000Y-119000000D01*
X73820000Y-81750000D02*
X73550000Y-81480000D01*
D26*
X74292374Y-69270000D02*
X74300000Y-69270000D01*
D25*
X73550000Y-70012374D02*
X74292374Y-69270000D01*
X77000000Y-81114990D02*
X77487384Y-81114990D01*
X78685010Y-81114990D02*
X78945010Y-80854990D01*
X76925000Y-80400000D02*
X76925000Y-81039990D01*
X76925000Y-81039990D02*
X77000000Y-81114990D01*
X77487384Y-81114990D02*
X78685010Y-81114990D01*
X77487384Y-81114990D02*
X77487384Y-81112616D01*
X74300000Y-69270000D02*
X74620010Y-68949990D01*
X76925000Y-80400000D02*
X76925000Y-80625000D01*
X78780000Y-81209980D02*
X78685010Y-81114990D01*
X74620010Y-68949990D02*
X77999990Y-68949990D01*
X73550000Y-70500000D02*
X73550000Y-70012374D01*
X78945010Y-69895010D02*
X78300000Y-69250000D01*
X77999990Y-68949990D02*
X78300000Y-69250000D01*
X78945010Y-80854990D02*
X78945010Y-69895010D01*
X78780000Y-81750000D02*
X78780000Y-81209980D01*
X73550000Y-81480000D02*
X73550000Y-70500000D01*
X75575001Y-81010001D02*
X75510001Y-81075001D01*
X75032500Y-70230000D02*
X75512500Y-69750000D01*
X74300000Y-70230000D02*
X75032500Y-70230000D01*
X74289999Y-81075001D02*
X74224999Y-81010001D01*
X74224999Y-81010001D02*
X74224999Y-70305001D01*
X74224999Y-70305001D02*
X74300000Y-70230000D01*
X75510001Y-81075001D02*
X74289999Y-81075001D01*
X75575000Y-80400000D02*
X75575001Y-81010001D01*
D26*
X78300000Y-70270000D02*
X77607500Y-70270000D01*
X77607500Y-70270000D02*
X77087500Y-69750000D01*
M02*
