M48
; DRILL file {KiCad (6.0.7)} date Wed Jan 11 21:48:00 2023
; FORMAT={-:-/ absolute / metric / decimal}
; #@! TF.CreationDate,2023-01-11T21:48:00+01:00
; #@! TF.GenerationSoftware,Kicad,Pcbnew,(6.0.7)
; #@! TF.FileFunction,NonPlated,1,2,NPTH
FMAT,2
METRIC
; #@! TA.AperFunction,NonPlated,NPTH,ComponentDrill
T1C0.500
%
G90
G05
T1
X36.05Y-59.25
X36.05Y-60.75
X36.05Y-145.25
X36.05Y-146.75
X36.8Y-59.25
X36.8Y-60.75
X36.8Y-145.25
X36.8Y-146.75
X37.55Y-59.25
X37.55Y-60.75
X37.55Y-145.25
X37.55Y-146.75
X38.3Y-59.25
X38.3Y-60.75
X38.3Y-145.25
X38.3Y-146.75
X39.05Y-59.25
X39.05Y-60.75
X39.05Y-145.25
X39.05Y-146.75
X77.5Y-59.25
X77.5Y-60.75
X77.5Y-145.25
X77.5Y-146.75
X78.25Y-59.25
X78.25Y-60.75
X78.25Y-145.25
X78.25Y-146.75
X79.0Y-59.25
X79.0Y-60.75
X79.0Y-145.25
X79.0Y-146.75
X79.75Y-59.25
X79.75Y-60.75
X79.75Y-145.25
X79.75Y-146.75
X80.5Y-59.25
X80.5Y-60.75
X80.5Y-145.25
X80.5Y-146.75
X87.05Y-125.3
X87.05Y-126.05
X87.05Y-126.8
X87.05Y-127.55
X87.05Y-128.3
X87.05Y-152.2
X87.05Y-152.95
X87.05Y-153.7
X87.05Y-154.45
X87.05Y-155.2
X87.051Y-50.75
X87.051Y-51.5
X87.051Y-52.25
X87.051Y-53.0
X87.051Y-53.75
X87.051Y-77.65
X87.051Y-78.4
X87.051Y-79.15
X87.051Y-79.9
X87.051Y-80.65
X88.55Y-125.3
X88.55Y-126.05
X88.55Y-126.8
X88.55Y-127.55
X88.55Y-128.3
X88.55Y-152.2
X88.55Y-152.95
X88.55Y-153.7
X88.55Y-154.45
X88.55Y-155.2
X88.551Y-50.75
X88.551Y-51.5
X88.551Y-52.25
X88.551Y-53.0
X88.551Y-53.75
X88.551Y-77.65
X88.551Y-78.4
X88.551Y-79.15
X88.551Y-79.9
X88.551Y-80.65
X95.05Y-59.25
X95.05Y-60.75
X95.05Y-145.25
X95.05Y-146.75
X95.8Y-59.25
X95.8Y-60.75
X95.8Y-145.25
X95.8Y-146.75
X96.55Y-59.25
X96.55Y-60.75
X96.55Y-145.25
X96.55Y-146.75
X97.3Y-59.25
X97.3Y-60.75
X97.3Y-145.25
X97.3Y-146.75
X98.05Y-59.25
X98.05Y-60.75
X98.05Y-145.25
X98.05Y-146.75
X136.5Y-59.25
X136.5Y-60.75
X136.5Y-145.25
X136.5Y-146.75
X137.25Y-59.25
X137.25Y-60.75
X137.25Y-145.25
X137.25Y-146.75
X138.0Y-59.25
X138.0Y-60.75
X138.0Y-145.25
X138.0Y-146.75
X138.75Y-59.25
X138.75Y-60.75
X138.75Y-145.25
X138.75Y-146.75
X139.5Y-59.25
X139.5Y-60.75
X139.5Y-145.25
X139.5Y-146.75
T0
M30
