M48
; DRILL file {KiCad (6.0.7)} date Wed Jan 11 21:48:00 2023
; FORMAT={-:-/ absolute / metric / decimal}
; #@! TF.CreationDate,2023-01-11T21:48:00+01:00
; #@! TF.GenerationSoftware,Kicad,Pcbnew,(6.0.7)
; #@! TF.FileFunction,Plated,1,2,PTH
FMAT,2
METRIC
; #@! TA.AperFunction,Plated,PTH,ComponentDrill
T1C0.200
; #@! TA.AperFunction,Plated,PTH,ViaDrill
T2C0.400
; #@! TA.AperFunction,Plated,PTH,ViaDrill
T3C0.800
%
G90
G05
T1
X74.9Y-120.9
X74.9Y-123.9
T2
X75.8Y-86.0
X75.8Y-119.0
X76.8Y-86.0
X76.8Y-119.0
T3
X33.8Y-65.0
X33.8Y-86.0
X33.8Y-120.0
X33.8Y-141.0
X82.8Y-65.0
X82.8Y-86.0
X82.8Y-120.0
X82.8Y-141.0
X92.8Y-65.0
X92.8Y-86.0
X92.8Y-120.0
X92.8Y-141.0
X141.8Y-65.0
X141.8Y-86.0
X141.8Y-120.0
X141.8Y-141.0
T0
M30
