G04 #@! TF.GenerationSoftware,KiCad,Pcbnew,(6.0.7)*
G04 #@! TF.CreationDate,2023-01-11T21:48:03+01:00*
G04 #@! TF.ProjectId,PCBWallet,50434257-616c-46c6-9574-2e6b69636164,rev?*
G04 #@! TF.SameCoordinates,Original*
G04 #@! TF.FileFunction,Soldermask,Top*
G04 #@! TF.FilePolarity,Negative*
%FSLAX46Y46*%
G04 Gerber Fmt 4.6, Leading zero omitted, Abs format (unit mm)*
G04 Created by KiCad (PCBNEW (6.0.7)) date 2023-01-11 21:48:03*
%MOMM*%
%LPD*%
G01*
G04 APERTURE LIST*
G04 Aperture macros list*
%AMRoundRect*
0 Rectangle with rounded corners*
0 $1 Rounding radius*
0 $2 $3 $4 $5 $6 $7 $8 $9 X,Y pos of 4 corners*
0 Add a 4 corners polygon primitive as box body*
4,1,4,$2,$3,$4,$5,$6,$7,$8,$9,$2,$3,0*
0 Add four circle primitives for the rounded corners*
1,1,$1+$1,$2,$3*
1,1,$1+$1,$4,$5*
1,1,$1+$1,$6,$7*
1,1,$1+$1,$8,$9*
0 Add four rect primitives between the rounded corners*
20,1,$1+$1,$2,$3,$4,$5,0*
20,1,$1+$1,$4,$5,$6,$7,0*
20,1,$1+$1,$6,$7,$8,$9,0*
20,1,$1+$1,$8,$9,$2,$3,0*%
G04 Aperture macros list end*
%ADD10C,0.200000*%
%ADD11C,0.500000*%
%ADD12RoundRect,0.140000X0.170000X-0.140000X0.170000X0.140000X-0.170000X0.140000X-0.170000X-0.140000X0*%
%ADD13RoundRect,0.140000X-0.140000X-0.170000X0.140000X-0.170000X0.140000X0.170000X-0.140000X0.170000X0*%
%ADD14RoundRect,0.218750X0.218750X0.256250X-0.218750X0.256250X-0.218750X-0.256250X0.218750X-0.256250X0*%
%ADD15R,0.250000X0.700000*%
%ADD16R,2.380000X1.660000*%
%ADD17RoundRect,0.135000X0.185000X-0.135000X0.185000X0.135000X-0.185000X0.135000X-0.185000X-0.135000X0*%
%ADD18C,0.400000*%
G04 APERTURE END LIST*
D10*
X33500000Y-51000000D02*
X36500000Y-51000000D01*
X36500000Y-51000000D02*
X36500000Y-54000000D01*
X36500000Y-54000000D02*
X33500000Y-54000000D01*
X33500000Y-54000000D02*
X33500000Y-51000000D01*
G36*
X33500000Y-51000000D02*
G01*
X36500000Y-51000000D01*
X36500000Y-54000000D01*
X33500000Y-54000000D01*
X33500000Y-51000000D01*
G37*
X33500000Y-105250000D02*
X35100000Y-105250000D01*
X35100000Y-105250000D02*
X35100000Y-106750000D01*
X35100000Y-106750000D02*
X33500000Y-106750000D01*
X33500000Y-106750000D02*
X33500000Y-105250000D01*
G36*
X33500000Y-105250000D02*
G01*
X35100000Y-105250000D01*
X35100000Y-106750000D01*
X33500000Y-106750000D01*
X33500000Y-105250000D01*
G37*
X114500000Y-95250000D02*
X116100000Y-95250000D01*
X116100000Y-95250000D02*
X116100000Y-96750000D01*
X116100000Y-96750000D02*
X114500000Y-96750000D01*
X114500000Y-96750000D02*
X114500000Y-95250000D01*
G36*
X114500000Y-95250000D02*
G01*
X116100000Y-95250000D01*
X116100000Y-96750000D01*
X114500000Y-96750000D01*
X114500000Y-95250000D01*
G37*
X39100000Y-116750000D02*
X37500000Y-116750000D01*
X37500000Y-116750000D02*
X37500000Y-115250000D01*
X37500000Y-115250000D02*
X39100000Y-115250000D01*
X39100000Y-115250000D02*
X39100000Y-116750000D01*
G36*
X39100000Y-116750000D02*
G01*
X37500000Y-116750000D01*
X37500000Y-115250000D01*
X39100000Y-115250000D01*
X39100000Y-116750000D01*
G37*
X43500000Y-113250000D02*
X45100000Y-113250000D01*
X45100000Y-113250000D02*
X45100000Y-114750000D01*
X45100000Y-114750000D02*
X43500000Y-114750000D01*
X43500000Y-114750000D02*
X43500000Y-113250000D01*
G36*
X43500000Y-113250000D02*
G01*
X45100000Y-113250000D01*
X45100000Y-114750000D01*
X43500000Y-114750000D01*
X43500000Y-113250000D01*
G37*
X108485648Y-99241953D02*
X110085648Y-99241953D01*
X110085648Y-99241953D02*
X110085648Y-100741953D01*
X110085648Y-100741953D02*
X108485648Y-100741953D01*
X108485648Y-100741953D02*
X108485648Y-99241953D01*
G36*
X108485648Y-99241953D02*
G01*
X110085648Y-99241953D01*
X110085648Y-100741953D01*
X108485648Y-100741953D01*
X108485648Y-99241953D01*
G37*
X112500000Y-103250000D02*
X114100000Y-103250000D01*
X114100000Y-103250000D02*
X114100000Y-104750000D01*
X114100000Y-104750000D02*
X112500000Y-104750000D01*
X112500000Y-104750000D02*
X112500000Y-103250000D01*
G36*
X112500000Y-103250000D02*
G01*
X114100000Y-103250000D01*
X114100000Y-104750000D01*
X112500000Y-104750000D01*
X112500000Y-103250000D01*
G37*
X92500000Y-91250000D02*
X94100000Y-91250000D01*
X94100000Y-91250000D02*
X94100000Y-92750000D01*
X94100000Y-92750000D02*
X92500000Y-92750000D01*
X92500000Y-92750000D02*
X92500000Y-91250000D01*
G36*
X92500000Y-91250000D02*
G01*
X94100000Y-91250000D01*
X94100000Y-92750000D01*
X92500000Y-92750000D01*
X92500000Y-91250000D01*
G37*
X102100000Y-104750000D02*
X100500000Y-104750000D01*
X100500000Y-104750000D02*
X100500000Y-103250000D01*
X100500000Y-103250000D02*
X102100000Y-103250000D01*
X102100000Y-103250000D02*
X102100000Y-104750000D01*
G36*
X102100000Y-104750000D02*
G01*
X100500000Y-104750000D01*
X100500000Y-103250000D01*
X102100000Y-103250000D01*
X102100000Y-104750000D01*
G37*
X126500000Y-115250000D02*
X128100000Y-115250000D01*
X128100000Y-115250000D02*
X128100000Y-116750000D01*
X128100000Y-116750000D02*
X126500000Y-116750000D01*
X126500000Y-116750000D02*
X126500000Y-115250000D01*
G36*
X126500000Y-115250000D02*
G01*
X128100000Y-115250000D01*
X128100000Y-116750000D01*
X126500000Y-116750000D01*
X126500000Y-115250000D01*
G37*
X92500000Y-103250000D02*
X94100000Y-103250000D01*
X94100000Y-103250000D02*
X94100000Y-104750000D01*
X94100000Y-104750000D02*
X92500000Y-104750000D01*
X92500000Y-104750000D02*
X92500000Y-103250000D01*
G36*
X92500000Y-103250000D02*
G01*
X94100000Y-103250000D01*
X94100000Y-104750000D01*
X92500000Y-104750000D01*
X92500000Y-103250000D01*
G37*
X33500000Y-111250000D02*
X35100000Y-111250000D01*
X35100000Y-111250000D02*
X35100000Y-112750000D01*
X35100000Y-112750000D02*
X33500000Y-112750000D01*
X33500000Y-112750000D02*
X33500000Y-111250000D01*
G36*
X33500000Y-111250000D02*
G01*
X35100000Y-111250000D01*
X35100000Y-112750000D01*
X33500000Y-112750000D01*
X33500000Y-111250000D01*
G37*
X92500000Y-115250000D02*
X94100000Y-115250000D01*
X94100000Y-115250000D02*
X94100000Y-116750000D01*
X94100000Y-116750000D02*
X92500000Y-116750000D01*
X92500000Y-116750000D02*
X92500000Y-115250000D01*
G36*
X92500000Y-115250000D02*
G01*
X94100000Y-115250000D01*
X94100000Y-116750000D01*
X92500000Y-116750000D01*
X92500000Y-115250000D01*
G37*
X35500000Y-89250000D02*
X37100000Y-89250000D01*
X37100000Y-89250000D02*
X37100000Y-90750000D01*
X37100000Y-90750000D02*
X35500000Y-90750000D01*
X35500000Y-90750000D02*
X35500000Y-89250000D01*
G36*
X35500000Y-89250000D02*
G01*
X37100000Y-89250000D01*
X37100000Y-90750000D01*
X35500000Y-90750000D01*
X35500000Y-89250000D01*
G37*
X122100000Y-94750000D02*
X120500000Y-94750000D01*
X120500000Y-94750000D02*
X120500000Y-93250000D01*
X120500000Y-93250000D02*
X122100000Y-93250000D01*
X122100000Y-93250000D02*
X122100000Y-94750000D01*
G36*
X122100000Y-94750000D02*
G01*
X120500000Y-94750000D01*
X120500000Y-93250000D01*
X122100000Y-93250000D01*
X122100000Y-94750000D01*
G37*
X61100000Y-108750000D02*
X59500000Y-108750000D01*
X59500000Y-108750000D02*
X59500000Y-107250000D01*
X59500000Y-107250000D02*
X61100000Y-107250000D01*
X61100000Y-107250000D02*
X61100000Y-108750000D01*
G36*
X61100000Y-108750000D02*
G01*
X59500000Y-108750000D01*
X59500000Y-107250000D01*
X61100000Y-107250000D01*
X61100000Y-108750000D01*
G37*
X96500000Y-93250000D02*
X98100000Y-93250000D01*
X98100000Y-93250000D02*
X98100000Y-94750000D01*
X98100000Y-94750000D02*
X96500000Y-94750000D01*
X96500000Y-94750000D02*
X96500000Y-93250000D01*
G36*
X96500000Y-93250000D02*
G01*
X98100000Y-93250000D01*
X98100000Y-94750000D01*
X96500000Y-94750000D01*
X96500000Y-93250000D01*
G37*
X114500000Y-105250000D02*
X116100000Y-105250000D01*
X116100000Y-105250000D02*
X116100000Y-106750000D01*
X116100000Y-106750000D02*
X114500000Y-106750000D01*
X114500000Y-106750000D02*
X114500000Y-105250000D01*
G36*
X114500000Y-105250000D02*
G01*
X116100000Y-105250000D01*
X116100000Y-106750000D01*
X114500000Y-106750000D01*
X114500000Y-105250000D01*
G37*
X49485648Y-99241953D02*
X51085648Y-99241953D01*
X51085648Y-99241953D02*
X51085648Y-100741953D01*
X51085648Y-100741953D02*
X49485648Y-100741953D01*
X49485648Y-100741953D02*
X49485648Y-99241953D01*
G36*
X49485648Y-99241953D02*
G01*
X51085648Y-99241953D01*
X51085648Y-100741953D01*
X49485648Y-100741953D01*
X49485648Y-99241953D01*
G37*
X33500000Y-47400000D02*
X36500000Y-47400000D01*
X36500000Y-47400000D02*
X36500000Y-50400000D01*
X36500000Y-50400000D02*
X33500000Y-50400000D01*
X33500000Y-50400000D02*
X33500000Y-47400000D01*
G36*
X33500000Y-47400000D02*
G01*
X36500000Y-47400000D01*
X36500000Y-50400000D01*
X33500000Y-50400000D01*
X33500000Y-47400000D01*
G37*
X108500000Y-107250000D02*
X110100000Y-107250000D01*
X110100000Y-107250000D02*
X110100000Y-108750000D01*
X110100000Y-108750000D02*
X108500000Y-108750000D01*
X108500000Y-108750000D02*
X108500000Y-107250000D01*
G36*
X108500000Y-107250000D02*
G01*
X110100000Y-107250000D01*
X110100000Y-108750000D01*
X108500000Y-108750000D01*
X108500000Y-107250000D01*
G37*
X33500000Y-107250000D02*
X35100000Y-107250000D01*
X35100000Y-107250000D02*
X35100000Y-108750000D01*
X35100000Y-108750000D02*
X33500000Y-108750000D01*
X33500000Y-108750000D02*
X33500000Y-107250000D01*
G36*
X33500000Y-107250000D02*
G01*
X35100000Y-107250000D01*
X35100000Y-108750000D01*
X33500000Y-108750000D01*
X33500000Y-107250000D01*
G37*
X35500000Y-97250000D02*
X37100000Y-97250000D01*
X37100000Y-97250000D02*
X37100000Y-98750000D01*
X37100000Y-98750000D02*
X35500000Y-98750000D01*
X35500000Y-98750000D02*
X35500000Y-97250000D01*
G36*
X35500000Y-97250000D02*
G01*
X37100000Y-97250000D01*
X37100000Y-98750000D01*
X35500000Y-98750000D01*
X35500000Y-97250000D01*
G37*
X100500000Y-109250000D02*
X102100000Y-109250000D01*
X102100000Y-109250000D02*
X102100000Y-110750000D01*
X102100000Y-110750000D02*
X100500000Y-110750000D01*
X100500000Y-110750000D02*
X100500000Y-109250000D01*
G36*
X100500000Y-109250000D02*
G01*
X102100000Y-109250000D01*
X102100000Y-110750000D01*
X100500000Y-110750000D01*
X100500000Y-109250000D01*
G37*
X122500000Y-97250000D02*
X124100000Y-97250000D01*
X124100000Y-97250000D02*
X124100000Y-98750000D01*
X124100000Y-98750000D02*
X122500000Y-98750000D01*
X122500000Y-98750000D02*
X122500000Y-97250000D01*
G36*
X122500000Y-97250000D02*
G01*
X124100000Y-97250000D01*
X124100000Y-98750000D01*
X122500000Y-98750000D01*
X122500000Y-97250000D01*
G37*
X94500000Y-91250000D02*
X96100000Y-91250000D01*
X96100000Y-91250000D02*
X96100000Y-92750000D01*
X96100000Y-92750000D02*
X94500000Y-92750000D01*
X94500000Y-92750000D02*
X94500000Y-91250000D01*
G36*
X94500000Y-91250000D02*
G01*
X96100000Y-91250000D01*
X96100000Y-92750000D01*
X94500000Y-92750000D01*
X94500000Y-91250000D01*
G37*
X124500000Y-109250000D02*
X126100000Y-109250000D01*
X126100000Y-109250000D02*
X126100000Y-110750000D01*
X126100000Y-110750000D02*
X124500000Y-110750000D01*
X124500000Y-110750000D02*
X124500000Y-109250000D01*
G36*
X124500000Y-109250000D02*
G01*
X126100000Y-109250000D01*
X126100000Y-110750000D01*
X124500000Y-110750000D01*
X124500000Y-109250000D01*
G37*
X55500000Y-115250000D02*
X57100000Y-115250000D01*
X57100000Y-115250000D02*
X57100000Y-116750000D01*
X57100000Y-116750000D02*
X55500000Y-116750000D01*
X55500000Y-116750000D02*
X55500000Y-115250000D01*
G36*
X55500000Y-115250000D02*
G01*
X57100000Y-115250000D01*
X57100000Y-116750000D01*
X55500000Y-116750000D01*
X55500000Y-115250000D01*
G37*
X126500000Y-89250000D02*
X128100000Y-89250000D01*
X128100000Y-89250000D02*
X128100000Y-90750000D01*
X128100000Y-90750000D02*
X126500000Y-90750000D01*
X126500000Y-90750000D02*
X126500000Y-89250000D01*
G36*
X126500000Y-89250000D02*
G01*
X128100000Y-89250000D01*
X128100000Y-90750000D01*
X126500000Y-90750000D01*
X126500000Y-89250000D01*
G37*
X39100000Y-110750000D02*
X37500000Y-110750000D01*
X37500000Y-110750000D02*
X37500000Y-109250000D01*
X37500000Y-109250000D02*
X39100000Y-109250000D01*
X39100000Y-109250000D02*
X39100000Y-110750000D01*
G36*
X39100000Y-110750000D02*
G01*
X37500000Y-110750000D01*
X37500000Y-109250000D01*
X39100000Y-109250000D01*
X39100000Y-110750000D01*
G37*
X37500000Y-99250000D02*
X39100000Y-99250000D01*
X39100000Y-99250000D02*
X39100000Y-100750000D01*
X39100000Y-100750000D02*
X37500000Y-100750000D01*
X37500000Y-100750000D02*
X37500000Y-99250000D01*
G36*
X37500000Y-99250000D02*
G01*
X39100000Y-99250000D01*
X39100000Y-100750000D01*
X37500000Y-100750000D01*
X37500000Y-99250000D01*
G37*
X47500000Y-103250000D02*
X49100000Y-103250000D01*
X49100000Y-103250000D02*
X49100000Y-104750000D01*
X49100000Y-104750000D02*
X47500000Y-104750000D01*
X47500000Y-104750000D02*
X47500000Y-103250000D01*
G36*
X47500000Y-103250000D02*
G01*
X49100000Y-103250000D01*
X49100000Y-104750000D01*
X47500000Y-104750000D01*
X47500000Y-103250000D01*
G37*
X37500000Y-113250000D02*
X39100000Y-113250000D01*
X39100000Y-113250000D02*
X39100000Y-114750000D01*
X39100000Y-114750000D02*
X37500000Y-114750000D01*
X37500000Y-114750000D02*
X37500000Y-113250000D01*
G36*
X37500000Y-113250000D02*
G01*
X39100000Y-113250000D01*
X39100000Y-114750000D01*
X37500000Y-114750000D01*
X37500000Y-113250000D01*
G37*
X102500000Y-109250000D02*
X104100000Y-109250000D01*
X104100000Y-109250000D02*
X104100000Y-110750000D01*
X104100000Y-110750000D02*
X102500000Y-110750000D01*
X102500000Y-110750000D02*
X102500000Y-109250000D01*
G36*
X102500000Y-109250000D02*
G01*
X104100000Y-109250000D01*
X104100000Y-110750000D01*
X102500000Y-110750000D01*
X102500000Y-109250000D01*
G37*
X110085648Y-102741953D02*
X108485648Y-102741953D01*
X108485648Y-102741953D02*
X108485648Y-101241953D01*
X108485648Y-101241953D02*
X110085648Y-101241953D01*
X110085648Y-101241953D02*
X110085648Y-102741953D01*
G36*
X110085648Y-102741953D02*
G01*
X108485648Y-102741953D01*
X108485648Y-101241953D01*
X110085648Y-101241953D01*
X110085648Y-102741953D01*
G37*
X45500000Y-95250000D02*
X47100000Y-95250000D01*
X47100000Y-95250000D02*
X47100000Y-96750000D01*
X47100000Y-96750000D02*
X45500000Y-96750000D01*
X45500000Y-96750000D02*
X45500000Y-95250000D01*
G36*
X45500000Y-95250000D02*
G01*
X47100000Y-95250000D01*
X47100000Y-96750000D01*
X45500000Y-96750000D01*
X45500000Y-95250000D01*
G37*
X55500000Y-95250000D02*
X57100000Y-95250000D01*
X57100000Y-95250000D02*
X57100000Y-96750000D01*
X57100000Y-96750000D02*
X55500000Y-96750000D01*
X55500000Y-96750000D02*
X55500000Y-95250000D01*
G36*
X55500000Y-95250000D02*
G01*
X57100000Y-95250000D01*
X57100000Y-96750000D01*
X55500000Y-96750000D01*
X55500000Y-95250000D01*
G37*
X63500000Y-97250000D02*
X65100000Y-97250000D01*
X65100000Y-97250000D02*
X65100000Y-98750000D01*
X65100000Y-98750000D02*
X63500000Y-98750000D01*
X63500000Y-98750000D02*
X63500000Y-97250000D01*
G36*
X63500000Y-97250000D02*
G01*
X65100000Y-97250000D01*
X65100000Y-98750000D01*
X63500000Y-98750000D01*
X63500000Y-97250000D01*
G37*
X35500000Y-107250000D02*
X37100000Y-107250000D01*
X37100000Y-107250000D02*
X37100000Y-108750000D01*
X37100000Y-108750000D02*
X35500000Y-108750000D01*
X35500000Y-108750000D02*
X35500000Y-107250000D01*
G36*
X35500000Y-107250000D02*
G01*
X37100000Y-107250000D01*
X37100000Y-108750000D01*
X35500000Y-108750000D01*
X35500000Y-107250000D01*
G37*
X110500000Y-89250000D02*
X112100000Y-89250000D01*
X112100000Y-89250000D02*
X112100000Y-90750000D01*
X112100000Y-90750000D02*
X110500000Y-90750000D01*
X110500000Y-90750000D02*
X110500000Y-89250000D01*
G36*
X110500000Y-89250000D02*
G01*
X112100000Y-89250000D01*
X112100000Y-90750000D01*
X110500000Y-90750000D01*
X110500000Y-89250000D01*
G37*
X104100000Y-112750000D02*
X102500000Y-112750000D01*
X102500000Y-112750000D02*
X102500000Y-111250000D01*
X102500000Y-111250000D02*
X104100000Y-111250000D01*
X104100000Y-111250000D02*
X104100000Y-112750000D01*
G36*
X104100000Y-112750000D02*
G01*
X102500000Y-112750000D01*
X102500000Y-111250000D01*
X104100000Y-111250000D01*
X104100000Y-112750000D01*
G37*
X61500000Y-115250000D02*
X63100000Y-115250000D01*
X63100000Y-115250000D02*
X63100000Y-116750000D01*
X63100000Y-116750000D02*
X61500000Y-116750000D01*
X61500000Y-116750000D02*
X61500000Y-115250000D01*
G36*
X61500000Y-115250000D02*
G01*
X63100000Y-115250000D01*
X63100000Y-116750000D01*
X61500000Y-116750000D01*
X61500000Y-115250000D01*
G37*
X63500000Y-101250000D02*
X65100000Y-101250000D01*
X65100000Y-101250000D02*
X65100000Y-102750000D01*
X65100000Y-102750000D02*
X63500000Y-102750000D01*
X63500000Y-102750000D02*
X63500000Y-101250000D01*
G36*
X63500000Y-101250000D02*
G01*
X65100000Y-101250000D01*
X65100000Y-102750000D01*
X63500000Y-102750000D01*
X63500000Y-101250000D01*
G37*
X45100000Y-112750000D02*
X43500000Y-112750000D01*
X43500000Y-112750000D02*
X43500000Y-111250000D01*
X43500000Y-111250000D02*
X45100000Y-111250000D01*
X45100000Y-111250000D02*
X45100000Y-112750000D01*
G36*
X45100000Y-112750000D02*
G01*
X43500000Y-112750000D01*
X43500000Y-111250000D01*
X45100000Y-111250000D01*
X45100000Y-112750000D01*
G37*
X118500000Y-95250000D02*
X120100000Y-95250000D01*
X120100000Y-95250000D02*
X120100000Y-96750000D01*
X120100000Y-96750000D02*
X118500000Y-96750000D01*
X118500000Y-96750000D02*
X118500000Y-95250000D01*
G36*
X118500000Y-95250000D02*
G01*
X120100000Y-95250000D01*
X120100000Y-96750000D01*
X118500000Y-96750000D01*
X118500000Y-95250000D01*
G37*
X33500000Y-93250000D02*
X35100000Y-93250000D01*
X35100000Y-93250000D02*
X35100000Y-94750000D01*
X35100000Y-94750000D02*
X33500000Y-94750000D01*
X33500000Y-94750000D02*
X33500000Y-93250000D01*
G36*
X33500000Y-93250000D02*
G01*
X35100000Y-93250000D01*
X35100000Y-94750000D01*
X33500000Y-94750000D01*
X33500000Y-93250000D01*
G37*
X116500000Y-103250000D02*
X118100000Y-103250000D01*
X118100000Y-103250000D02*
X118100000Y-104750000D01*
X118100000Y-104750000D02*
X116500000Y-104750000D01*
X116500000Y-104750000D02*
X116500000Y-103250000D01*
G36*
X116500000Y-103250000D02*
G01*
X118100000Y-103250000D01*
X118100000Y-104750000D01*
X116500000Y-104750000D01*
X116500000Y-103250000D01*
G37*
X94500000Y-107250000D02*
X96100000Y-107250000D01*
X96100000Y-107250000D02*
X96100000Y-108750000D01*
X96100000Y-108750000D02*
X94500000Y-108750000D01*
X94500000Y-108750000D02*
X94500000Y-107250000D01*
G36*
X94500000Y-107250000D02*
G01*
X96100000Y-107250000D01*
X96100000Y-108750000D01*
X94500000Y-108750000D01*
X94500000Y-107250000D01*
G37*
X106500000Y-103250000D02*
X108100000Y-103250000D01*
X108100000Y-103250000D02*
X108100000Y-104750000D01*
X108100000Y-104750000D02*
X106500000Y-104750000D01*
X106500000Y-104750000D02*
X106500000Y-103250000D01*
G36*
X106500000Y-103250000D02*
G01*
X108100000Y-103250000D01*
X108100000Y-104750000D01*
X106500000Y-104750000D01*
X106500000Y-103250000D01*
G37*
X37500000Y-107250000D02*
X39100000Y-107250000D01*
X39100000Y-107250000D02*
X39100000Y-108750000D01*
X39100000Y-108750000D02*
X37500000Y-108750000D01*
X37500000Y-108750000D02*
X37500000Y-107250000D01*
G36*
X37500000Y-107250000D02*
G01*
X39100000Y-107250000D01*
X39100000Y-108750000D01*
X37500000Y-108750000D01*
X37500000Y-107250000D01*
G37*
X39500000Y-105250000D02*
X41100000Y-105250000D01*
X41100000Y-105250000D02*
X41100000Y-106750000D01*
X41100000Y-106750000D02*
X39500000Y-106750000D01*
X39500000Y-106750000D02*
X39500000Y-105250000D01*
G36*
X39500000Y-105250000D02*
G01*
X41100000Y-105250000D01*
X41100000Y-106750000D01*
X39500000Y-106750000D01*
X39500000Y-105250000D01*
G37*
X53500000Y-103250000D02*
X55100000Y-103250000D01*
X55100000Y-103250000D02*
X55100000Y-104750000D01*
X55100000Y-104750000D02*
X53500000Y-104750000D01*
X53500000Y-104750000D02*
X53500000Y-103250000D01*
G36*
X53500000Y-103250000D02*
G01*
X55100000Y-103250000D01*
X55100000Y-104750000D01*
X53500000Y-104750000D01*
X53500000Y-103250000D01*
G37*
X55500000Y-105250000D02*
X57100000Y-105250000D01*
X57100000Y-105250000D02*
X57100000Y-106750000D01*
X57100000Y-106750000D02*
X55500000Y-106750000D01*
X55500000Y-106750000D02*
X55500000Y-105250000D01*
G36*
X55500000Y-105250000D02*
G01*
X57100000Y-105250000D01*
X57100000Y-106750000D01*
X55500000Y-106750000D01*
X55500000Y-105250000D01*
G37*
X35500000Y-91250000D02*
X37100000Y-91250000D01*
X37100000Y-91250000D02*
X37100000Y-92750000D01*
X37100000Y-92750000D02*
X35500000Y-92750000D01*
X35500000Y-92750000D02*
X35500000Y-91250000D01*
G36*
X35500000Y-91250000D02*
G01*
X37100000Y-91250000D01*
X37100000Y-92750000D01*
X35500000Y-92750000D01*
X35500000Y-91250000D01*
G37*
X41500000Y-95250000D02*
X43100000Y-95250000D01*
X43100000Y-95250000D02*
X43100000Y-96750000D01*
X43100000Y-96750000D02*
X41500000Y-96750000D01*
X41500000Y-96750000D02*
X41500000Y-95250000D01*
G36*
X41500000Y-95250000D02*
G01*
X43100000Y-95250000D01*
X43100000Y-96750000D01*
X41500000Y-96750000D01*
X41500000Y-95250000D01*
G37*
X98100000Y-110750000D02*
X96500000Y-110750000D01*
X96500000Y-110750000D02*
X96500000Y-109250000D01*
X96500000Y-109250000D02*
X98100000Y-109250000D01*
X98100000Y-109250000D02*
X98100000Y-110750000D01*
G36*
X98100000Y-110750000D02*
G01*
X96500000Y-110750000D01*
X96500000Y-109250000D01*
X98100000Y-109250000D01*
X98100000Y-110750000D01*
G37*
X35500000Y-89250000D02*
X37100000Y-89250000D01*
X37100000Y-89250000D02*
X37100000Y-90750000D01*
X37100000Y-90750000D02*
X35500000Y-90750000D01*
X35500000Y-90750000D02*
X35500000Y-89250000D01*
G36*
X35500000Y-89250000D02*
G01*
X37100000Y-89250000D01*
X37100000Y-90750000D01*
X35500000Y-90750000D01*
X35500000Y-89250000D01*
G37*
X122500000Y-101250000D02*
X124100000Y-101250000D01*
X124100000Y-101250000D02*
X124100000Y-102750000D01*
X124100000Y-102750000D02*
X122500000Y-102750000D01*
X122500000Y-102750000D02*
X122500000Y-101250000D01*
G36*
X122500000Y-101250000D02*
G01*
X124100000Y-101250000D01*
X124100000Y-102750000D01*
X122500000Y-102750000D01*
X122500000Y-101250000D01*
G37*
X104500000Y-95250000D02*
X106100000Y-95250000D01*
X106100000Y-95250000D02*
X106100000Y-96750000D01*
X106100000Y-96750000D02*
X104500000Y-96750000D01*
X104500000Y-96750000D02*
X104500000Y-95250000D01*
G36*
X104500000Y-95250000D02*
G01*
X106100000Y-95250000D01*
X106100000Y-96750000D01*
X104500000Y-96750000D01*
X104500000Y-95250000D01*
G37*
X104500000Y-89250000D02*
X106100000Y-89250000D01*
X106100000Y-89250000D02*
X106100000Y-90750000D01*
X106100000Y-90750000D02*
X104500000Y-90750000D01*
X104500000Y-90750000D02*
X104500000Y-89250000D01*
G36*
X104500000Y-89250000D02*
G01*
X106100000Y-89250000D01*
X106100000Y-90750000D01*
X104500000Y-90750000D01*
X104500000Y-89250000D01*
G37*
X63100000Y-94750000D02*
X61500000Y-94750000D01*
X61500000Y-94750000D02*
X61500000Y-93250000D01*
X61500000Y-93250000D02*
X63100000Y-93250000D01*
X63100000Y-93250000D02*
X63100000Y-94750000D01*
G36*
X63100000Y-94750000D02*
G01*
X61500000Y-94750000D01*
X61500000Y-93250000D01*
X63100000Y-93250000D01*
X63100000Y-94750000D01*
G37*
X102100000Y-106750000D02*
X100500000Y-106750000D01*
X100500000Y-106750000D02*
X100500000Y-105250000D01*
X100500000Y-105250000D02*
X102100000Y-105250000D01*
X102100000Y-105250000D02*
X102100000Y-106750000D01*
G36*
X102100000Y-106750000D02*
G01*
X100500000Y-106750000D01*
X100500000Y-105250000D01*
X102100000Y-105250000D01*
X102100000Y-106750000D01*
G37*
X94500000Y-111250000D02*
X96100000Y-111250000D01*
X96100000Y-111250000D02*
X96100000Y-112750000D01*
X96100000Y-112750000D02*
X94500000Y-112750000D01*
X94500000Y-112750000D02*
X94500000Y-111250000D01*
G36*
X94500000Y-111250000D02*
G01*
X96100000Y-111250000D01*
X96100000Y-112750000D01*
X94500000Y-112750000D01*
X94500000Y-111250000D01*
G37*
X118500000Y-115250000D02*
X120100000Y-115250000D01*
X120100000Y-115250000D02*
X120100000Y-116750000D01*
X120100000Y-116750000D02*
X118500000Y-116750000D01*
X118500000Y-116750000D02*
X118500000Y-115250000D01*
G36*
X118500000Y-115250000D02*
G01*
X120100000Y-115250000D01*
X120100000Y-116750000D01*
X118500000Y-116750000D01*
X118500000Y-115250000D01*
G37*
X92500000Y-111250000D02*
X94100000Y-111250000D01*
X94100000Y-111250000D02*
X94100000Y-112750000D01*
X94100000Y-112750000D02*
X92500000Y-112750000D01*
X92500000Y-112750000D02*
X92500000Y-111250000D01*
G36*
X92500000Y-111250000D02*
G01*
X94100000Y-111250000D01*
X94100000Y-112750000D01*
X92500000Y-112750000D01*
X92500000Y-111250000D01*
G37*
X118100000Y-96750000D02*
X116500000Y-96750000D01*
X116500000Y-96750000D02*
X116500000Y-95250000D01*
X116500000Y-95250000D02*
X118100000Y-95250000D01*
X118100000Y-95250000D02*
X118100000Y-96750000D01*
G36*
X118100000Y-96750000D02*
G01*
X116500000Y-96750000D01*
X116500000Y-95250000D01*
X118100000Y-95250000D01*
X118100000Y-96750000D01*
G37*
X33500000Y-113250000D02*
X35100000Y-113250000D01*
X35100000Y-113250000D02*
X35100000Y-114750000D01*
X35100000Y-114750000D02*
X33500000Y-114750000D01*
X33500000Y-114750000D02*
X33500000Y-113250000D01*
G36*
X33500000Y-113250000D02*
G01*
X35100000Y-113250000D01*
X35100000Y-114750000D01*
X33500000Y-114750000D01*
X33500000Y-113250000D01*
G37*
X49500000Y-107250000D02*
X51100000Y-107250000D01*
X51100000Y-107250000D02*
X51100000Y-108750000D01*
X51100000Y-108750000D02*
X49500000Y-108750000D01*
X49500000Y-108750000D02*
X49500000Y-107250000D01*
G36*
X49500000Y-107250000D02*
G01*
X51100000Y-107250000D01*
X51100000Y-108750000D01*
X49500000Y-108750000D01*
X49500000Y-107250000D01*
G37*
X43500000Y-109250000D02*
X45100000Y-109250000D01*
X45100000Y-109250000D02*
X45100000Y-110750000D01*
X45100000Y-110750000D02*
X43500000Y-110750000D01*
X43500000Y-110750000D02*
X43500000Y-109250000D01*
G36*
X43500000Y-109250000D02*
G01*
X45100000Y-109250000D01*
X45100000Y-110750000D01*
X43500000Y-110750000D01*
X43500000Y-109250000D01*
G37*
X41500000Y-101250000D02*
X43100000Y-101250000D01*
X43100000Y-101250000D02*
X43100000Y-102750000D01*
X43100000Y-102750000D02*
X41500000Y-102750000D01*
X41500000Y-102750000D02*
X41500000Y-101250000D01*
G36*
X41500000Y-101250000D02*
G01*
X43100000Y-101250000D01*
X43100000Y-102750000D01*
X41500000Y-102750000D01*
X41500000Y-101250000D01*
G37*
X94500000Y-89250000D02*
X96100000Y-89250000D01*
X96100000Y-89250000D02*
X96100000Y-90750000D01*
X96100000Y-90750000D02*
X94500000Y-90750000D01*
X94500000Y-90750000D02*
X94500000Y-89250000D01*
G36*
X94500000Y-89250000D02*
G01*
X96100000Y-89250000D01*
X96100000Y-90750000D01*
X94500000Y-90750000D01*
X94500000Y-89250000D01*
G37*
X47100000Y-112750000D02*
X45500000Y-112750000D01*
X45500000Y-112750000D02*
X45500000Y-111250000D01*
X45500000Y-111250000D02*
X47100000Y-111250000D01*
X47100000Y-111250000D02*
X47100000Y-112750000D01*
G36*
X47100000Y-112750000D02*
G01*
X45500000Y-112750000D01*
X45500000Y-111250000D01*
X47100000Y-111250000D01*
X47100000Y-112750000D01*
G37*
X51500000Y-89250000D02*
X53100000Y-89250000D01*
X53100000Y-89250000D02*
X53100000Y-90750000D01*
X53100000Y-90750000D02*
X51500000Y-90750000D01*
X51500000Y-90750000D02*
X51500000Y-89250000D01*
G36*
X51500000Y-89250000D02*
G01*
X53100000Y-89250000D01*
X53100000Y-90750000D01*
X51500000Y-90750000D01*
X51500000Y-89250000D01*
G37*
X100100000Y-112750000D02*
X98500000Y-112750000D01*
X98500000Y-112750000D02*
X98500000Y-111250000D01*
X98500000Y-111250000D02*
X100100000Y-111250000D01*
X100100000Y-111250000D02*
X100100000Y-112750000D01*
G36*
X100100000Y-112750000D02*
G01*
X98500000Y-112750000D01*
X98500000Y-111250000D01*
X100100000Y-111250000D01*
X100100000Y-112750000D01*
G37*
X102500000Y-113250000D02*
X104100000Y-113250000D01*
X104100000Y-113250000D02*
X104100000Y-114750000D01*
X104100000Y-114750000D02*
X102500000Y-114750000D01*
X102500000Y-114750000D02*
X102500000Y-113250000D01*
G36*
X102500000Y-113250000D02*
G01*
X104100000Y-113250000D01*
X104100000Y-114750000D01*
X102500000Y-114750000D01*
X102500000Y-113250000D01*
G37*
X41500000Y-109250000D02*
X43100000Y-109250000D01*
X43100000Y-109250000D02*
X43100000Y-110750000D01*
X43100000Y-110750000D02*
X41500000Y-110750000D01*
X41500000Y-110750000D02*
X41500000Y-109250000D01*
G36*
X41500000Y-109250000D02*
G01*
X43100000Y-109250000D01*
X43100000Y-110750000D01*
X41500000Y-110750000D01*
X41500000Y-109250000D01*
G37*
X106100000Y-112750000D02*
X104500000Y-112750000D01*
X104500000Y-112750000D02*
X104500000Y-111250000D01*
X104500000Y-111250000D02*
X106100000Y-111250000D01*
X106100000Y-111250000D02*
X106100000Y-112750000D01*
G36*
X106100000Y-112750000D02*
G01*
X104500000Y-112750000D01*
X104500000Y-111250000D01*
X106100000Y-111250000D01*
X106100000Y-112750000D01*
G37*
X120500000Y-115250000D02*
X122100000Y-115250000D01*
X122100000Y-115250000D02*
X122100000Y-116750000D01*
X122100000Y-116750000D02*
X120500000Y-116750000D01*
X120500000Y-116750000D02*
X120500000Y-115250000D01*
G36*
X120500000Y-115250000D02*
G01*
X122100000Y-115250000D01*
X122100000Y-116750000D01*
X120500000Y-116750000D01*
X120500000Y-115250000D01*
G37*
X37500000Y-93250000D02*
X39100000Y-93250000D01*
X39100000Y-93250000D02*
X39100000Y-94750000D01*
X39100000Y-94750000D02*
X37500000Y-94750000D01*
X37500000Y-94750000D02*
X37500000Y-93250000D01*
G36*
X37500000Y-93250000D02*
G01*
X39100000Y-93250000D01*
X39100000Y-94750000D01*
X37500000Y-94750000D01*
X37500000Y-93250000D01*
G37*
X92500000Y-105250000D02*
X94100000Y-105250000D01*
X94100000Y-105250000D02*
X94100000Y-106750000D01*
X94100000Y-106750000D02*
X92500000Y-106750000D01*
X92500000Y-106750000D02*
X92500000Y-105250000D01*
G36*
X92500000Y-105250000D02*
G01*
X94100000Y-105250000D01*
X94100000Y-106750000D01*
X92500000Y-106750000D01*
X92500000Y-105250000D01*
G37*
X94500000Y-97250000D02*
X96100000Y-97250000D01*
X96100000Y-97250000D02*
X96100000Y-98750000D01*
X96100000Y-98750000D02*
X94500000Y-98750000D01*
X94500000Y-98750000D02*
X94500000Y-97250000D01*
G36*
X94500000Y-97250000D02*
G01*
X96100000Y-97250000D01*
X96100000Y-98750000D01*
X94500000Y-98750000D01*
X94500000Y-97250000D01*
G37*
X112500000Y-107250000D02*
X114100000Y-107250000D01*
X114100000Y-107250000D02*
X114100000Y-108750000D01*
X114100000Y-108750000D02*
X112500000Y-108750000D01*
X112500000Y-108750000D02*
X112500000Y-107250000D01*
G36*
X112500000Y-107250000D02*
G01*
X114100000Y-107250000D01*
X114100000Y-108750000D01*
X112500000Y-108750000D01*
X112500000Y-107250000D01*
G37*
X104500000Y-109250000D02*
X106100000Y-109250000D01*
X106100000Y-109250000D02*
X106100000Y-110750000D01*
X106100000Y-110750000D02*
X104500000Y-110750000D01*
X104500000Y-110750000D02*
X104500000Y-109250000D01*
G36*
X104500000Y-109250000D02*
G01*
X106100000Y-109250000D01*
X106100000Y-110750000D01*
X104500000Y-110750000D01*
X104500000Y-109250000D01*
G37*
X33500000Y-115250000D02*
X35100000Y-115250000D01*
X35100000Y-115250000D02*
X35100000Y-116750000D01*
X35100000Y-116750000D02*
X33500000Y-116750000D01*
X33500000Y-116750000D02*
X33500000Y-115250000D01*
G36*
X33500000Y-115250000D02*
G01*
X35100000Y-115250000D01*
X35100000Y-116750000D01*
X33500000Y-116750000D01*
X33500000Y-115250000D01*
G37*
X92500000Y-113250000D02*
X94100000Y-113250000D01*
X94100000Y-113250000D02*
X94100000Y-114750000D01*
X94100000Y-114750000D02*
X92500000Y-114750000D01*
X92500000Y-114750000D02*
X92500000Y-113250000D01*
G36*
X92500000Y-113250000D02*
G01*
X94100000Y-113250000D01*
X94100000Y-114750000D01*
X92500000Y-114750000D01*
X92500000Y-113250000D01*
G37*
X43100000Y-104750000D02*
X41500000Y-104750000D01*
X41500000Y-104750000D02*
X41500000Y-103250000D01*
X41500000Y-103250000D02*
X43100000Y-103250000D01*
X43100000Y-103250000D02*
X43100000Y-104750000D01*
G36*
X43100000Y-104750000D02*
G01*
X41500000Y-104750000D01*
X41500000Y-103250000D01*
X43100000Y-103250000D01*
X43100000Y-104750000D01*
G37*
X98500000Y-105250000D02*
X100100000Y-105250000D01*
X100100000Y-105250000D02*
X100100000Y-106750000D01*
X100100000Y-106750000D02*
X98500000Y-106750000D01*
X98500000Y-106750000D02*
X98500000Y-105250000D01*
G36*
X98500000Y-105250000D02*
G01*
X100100000Y-105250000D01*
X100100000Y-106750000D01*
X98500000Y-106750000D01*
X98500000Y-105250000D01*
G37*
X96500000Y-107250000D02*
X98100000Y-107250000D01*
X98100000Y-107250000D02*
X98100000Y-108750000D01*
X98100000Y-108750000D02*
X96500000Y-108750000D01*
X96500000Y-108750000D02*
X96500000Y-107250000D01*
G36*
X96500000Y-107250000D02*
G01*
X98100000Y-107250000D01*
X98100000Y-108750000D01*
X96500000Y-108750000D01*
X96500000Y-107250000D01*
G37*
X77500000Y-107250000D02*
X79100000Y-107250000D01*
X79100000Y-107250000D02*
X79100000Y-108750000D01*
X79100000Y-108750000D02*
X77500000Y-108750000D01*
X77500000Y-108750000D02*
X77500000Y-107250000D01*
G36*
X77500000Y-107250000D02*
G01*
X79100000Y-107250000D01*
X79100000Y-108750000D01*
X77500000Y-108750000D01*
X77500000Y-107250000D01*
G37*
X108100000Y-106750000D02*
X106500000Y-106750000D01*
X106500000Y-106750000D02*
X106500000Y-105250000D01*
X106500000Y-105250000D02*
X108100000Y-105250000D01*
X108100000Y-105250000D02*
X108100000Y-106750000D01*
G36*
X108100000Y-106750000D02*
G01*
X106500000Y-106750000D01*
X106500000Y-105250000D01*
X108100000Y-105250000D01*
X108100000Y-106750000D01*
G37*
X45500000Y-89250000D02*
X47100000Y-89250000D01*
X47100000Y-89250000D02*
X47100000Y-90750000D01*
X47100000Y-90750000D02*
X45500000Y-90750000D01*
X45500000Y-90750000D02*
X45500000Y-89250000D01*
G36*
X45500000Y-89250000D02*
G01*
X47100000Y-89250000D01*
X47100000Y-90750000D01*
X45500000Y-90750000D01*
X45500000Y-89250000D01*
G37*
X59500000Y-95250000D02*
X61100000Y-95250000D01*
X61100000Y-95250000D02*
X61100000Y-96750000D01*
X61100000Y-96750000D02*
X59500000Y-96750000D01*
X59500000Y-96750000D02*
X59500000Y-95250000D01*
G36*
X59500000Y-95250000D02*
G01*
X61100000Y-95250000D01*
X61100000Y-96750000D01*
X59500000Y-96750000D01*
X59500000Y-95250000D01*
G37*
X98500000Y-99250000D02*
X100100000Y-99250000D01*
X100100000Y-99250000D02*
X100100000Y-100750000D01*
X100100000Y-100750000D02*
X98500000Y-100750000D01*
X98500000Y-100750000D02*
X98500000Y-99250000D01*
G36*
X98500000Y-99250000D02*
G01*
X100100000Y-99250000D01*
X100100000Y-100750000D01*
X98500000Y-100750000D01*
X98500000Y-99250000D01*
G37*
X92500000Y-107250000D02*
X94100000Y-107250000D01*
X94100000Y-107250000D02*
X94100000Y-108750000D01*
X94100000Y-108750000D02*
X92500000Y-108750000D01*
X92500000Y-108750000D02*
X92500000Y-107250000D01*
G36*
X92500000Y-107250000D02*
G01*
X94100000Y-107250000D01*
X94100000Y-108750000D01*
X92500000Y-108750000D01*
X92500000Y-107250000D01*
G37*
X136500000Y-107250000D02*
X138100000Y-107250000D01*
X138100000Y-107250000D02*
X138100000Y-108750000D01*
X138100000Y-108750000D02*
X136500000Y-108750000D01*
X136500000Y-108750000D02*
X136500000Y-107250000D01*
G36*
X136500000Y-107250000D02*
G01*
X138100000Y-107250000D01*
X138100000Y-108750000D01*
X136500000Y-108750000D01*
X136500000Y-107250000D01*
G37*
X92500000Y-93250000D02*
X94100000Y-93250000D01*
X94100000Y-93250000D02*
X94100000Y-94750000D01*
X94100000Y-94750000D02*
X92500000Y-94750000D01*
X92500000Y-94750000D02*
X92500000Y-93250000D01*
G36*
X92500000Y-93250000D02*
G01*
X94100000Y-93250000D01*
X94100000Y-94750000D01*
X92500000Y-94750000D01*
X92500000Y-93250000D01*
G37*
X41100000Y-112750000D02*
X39500000Y-112750000D01*
X39500000Y-112750000D02*
X39500000Y-111250000D01*
X39500000Y-111250000D02*
X41100000Y-111250000D01*
X41100000Y-111250000D02*
X41100000Y-112750000D01*
G36*
X41100000Y-112750000D02*
G01*
X39500000Y-112750000D01*
X39500000Y-111250000D01*
X41100000Y-111250000D01*
X41100000Y-112750000D01*
G37*
X67500000Y-115250000D02*
X69100000Y-115250000D01*
X69100000Y-115250000D02*
X69100000Y-116750000D01*
X69100000Y-116750000D02*
X67500000Y-116750000D01*
X67500000Y-116750000D02*
X67500000Y-115250000D01*
G36*
X67500000Y-115250000D02*
G01*
X69100000Y-115250000D01*
X69100000Y-116750000D01*
X67500000Y-116750000D01*
X67500000Y-115250000D01*
G37*
X33500000Y-103250000D02*
X35100000Y-103250000D01*
X35100000Y-103250000D02*
X35100000Y-104750000D01*
X35100000Y-104750000D02*
X33500000Y-104750000D01*
X33500000Y-104750000D02*
X33500000Y-103250000D01*
G36*
X33500000Y-103250000D02*
G01*
X35100000Y-103250000D01*
X35100000Y-104750000D01*
X33500000Y-104750000D01*
X33500000Y-103250000D01*
G37*
X67500000Y-89250000D02*
X69100000Y-89250000D01*
X69100000Y-89250000D02*
X69100000Y-90750000D01*
X69100000Y-90750000D02*
X67500000Y-90750000D01*
X67500000Y-90750000D02*
X67500000Y-89250000D01*
G36*
X67500000Y-89250000D02*
G01*
X69100000Y-89250000D01*
X69100000Y-90750000D01*
X67500000Y-90750000D01*
X67500000Y-89250000D01*
G37*
X49100000Y-106750000D02*
X47500000Y-106750000D01*
X47500000Y-106750000D02*
X47500000Y-105250000D01*
X47500000Y-105250000D02*
X49100000Y-105250000D01*
X49100000Y-105250000D02*
X49100000Y-106750000D01*
G36*
X49100000Y-106750000D02*
G01*
X47500000Y-106750000D01*
X47500000Y-105250000D01*
X49100000Y-105250000D01*
X49100000Y-106750000D01*
G37*
X94500000Y-89250000D02*
X96100000Y-89250000D01*
X96100000Y-89250000D02*
X96100000Y-90750000D01*
X96100000Y-90750000D02*
X94500000Y-90750000D01*
X94500000Y-90750000D02*
X94500000Y-89250000D01*
G36*
X94500000Y-89250000D02*
G01*
X96100000Y-89250000D01*
X96100000Y-90750000D01*
X94500000Y-90750000D01*
X94500000Y-89250000D01*
G37*
X98500000Y-109250000D02*
X100100000Y-109250000D01*
X100100000Y-109250000D02*
X100100000Y-110750000D01*
X100100000Y-110750000D02*
X98500000Y-110750000D01*
X98500000Y-110750000D02*
X98500000Y-109250000D01*
G36*
X98500000Y-109250000D02*
G01*
X100100000Y-109250000D01*
X100100000Y-110750000D01*
X98500000Y-110750000D01*
X98500000Y-109250000D01*
G37*
X43100000Y-106750000D02*
X41500000Y-106750000D01*
X41500000Y-106750000D02*
X41500000Y-105250000D01*
X41500000Y-105250000D02*
X43100000Y-105250000D01*
X43100000Y-105250000D02*
X43100000Y-106750000D01*
G36*
X43100000Y-106750000D02*
G01*
X41500000Y-106750000D01*
X41500000Y-105250000D01*
X43100000Y-105250000D01*
X43100000Y-106750000D01*
G37*
X51085648Y-102741953D02*
X49485648Y-102741953D01*
X49485648Y-102741953D02*
X49485648Y-101241953D01*
X49485648Y-101241953D02*
X51085648Y-101241953D01*
X51085648Y-101241953D02*
X51085648Y-102741953D01*
G36*
X51085648Y-102741953D02*
G01*
X49485648Y-102741953D01*
X49485648Y-101241953D01*
X51085648Y-101241953D01*
X51085648Y-102741953D01*
G37*
X39500000Y-109250000D02*
X41100000Y-109250000D01*
X41100000Y-109250000D02*
X41100000Y-110750000D01*
X41100000Y-110750000D02*
X39500000Y-110750000D01*
X39500000Y-110750000D02*
X39500000Y-109250000D01*
G36*
X39500000Y-109250000D02*
G01*
X41100000Y-109250000D01*
X41100000Y-110750000D01*
X39500000Y-110750000D01*
X39500000Y-109250000D01*
G37*
X33500000Y-91250000D02*
X35100000Y-91250000D01*
X35100000Y-91250000D02*
X35100000Y-92750000D01*
X35100000Y-92750000D02*
X33500000Y-92750000D01*
X33500000Y-92750000D02*
X33500000Y-91250000D01*
G36*
X33500000Y-91250000D02*
G01*
X35100000Y-91250000D01*
X35100000Y-92750000D01*
X33500000Y-92750000D01*
X33500000Y-91250000D01*
G37*
X65500000Y-109250000D02*
X67100000Y-109250000D01*
X67100000Y-109250000D02*
X67100000Y-110750000D01*
X67100000Y-110750000D02*
X65500000Y-110750000D01*
X65500000Y-110750000D02*
X65500000Y-109250000D01*
G36*
X65500000Y-109250000D02*
G01*
X67100000Y-109250000D01*
X67100000Y-110750000D01*
X65500000Y-110750000D01*
X65500000Y-109250000D01*
G37*
X120100000Y-108750000D02*
X118500000Y-108750000D01*
X118500000Y-108750000D02*
X118500000Y-107250000D01*
X118500000Y-107250000D02*
X120100000Y-107250000D01*
X120100000Y-107250000D02*
X120100000Y-108750000D01*
G36*
X120100000Y-108750000D02*
G01*
X118500000Y-108750000D01*
X118500000Y-107250000D01*
X120100000Y-107250000D01*
X120100000Y-108750000D01*
G37*
X100500000Y-101250000D02*
X102100000Y-101250000D01*
X102100000Y-101250000D02*
X102100000Y-102750000D01*
X102100000Y-102750000D02*
X100500000Y-102750000D01*
X100500000Y-102750000D02*
X100500000Y-101250000D01*
G36*
X100500000Y-101250000D02*
G01*
X102100000Y-101250000D01*
X102100000Y-102750000D01*
X100500000Y-102750000D01*
X100500000Y-101250000D01*
G37*
X104100000Y-96750000D02*
X102500000Y-96750000D01*
X102500000Y-96750000D02*
X102500000Y-95250000D01*
X102500000Y-95250000D02*
X104100000Y-95250000D01*
X104100000Y-95250000D02*
X104100000Y-96750000D01*
G36*
X104100000Y-96750000D02*
G01*
X102500000Y-96750000D01*
X102500000Y-95250000D01*
X104100000Y-95250000D01*
X104100000Y-96750000D01*
G37*
X53500000Y-107250000D02*
X55100000Y-107250000D01*
X55100000Y-107250000D02*
X55100000Y-108750000D01*
X55100000Y-108750000D02*
X53500000Y-108750000D01*
X53500000Y-108750000D02*
X53500000Y-107250000D01*
G36*
X53500000Y-107250000D02*
G01*
X55100000Y-107250000D01*
X55100000Y-108750000D01*
X53500000Y-108750000D01*
X53500000Y-107250000D01*
G37*
X98100000Y-116750000D02*
X96500000Y-116750000D01*
X96500000Y-116750000D02*
X96500000Y-115250000D01*
X96500000Y-115250000D02*
X98100000Y-115250000D01*
X98100000Y-115250000D02*
X98100000Y-116750000D01*
G36*
X98100000Y-116750000D02*
G01*
X96500000Y-116750000D01*
X96500000Y-115250000D01*
X98100000Y-115250000D01*
X98100000Y-116750000D01*
G37*
X96500000Y-113250000D02*
X98100000Y-113250000D01*
X98100000Y-113250000D02*
X98100000Y-114750000D01*
X98100000Y-114750000D02*
X96500000Y-114750000D01*
X96500000Y-114750000D02*
X96500000Y-113250000D01*
G36*
X96500000Y-113250000D02*
G01*
X98100000Y-113250000D01*
X98100000Y-114750000D01*
X96500000Y-114750000D01*
X96500000Y-113250000D01*
G37*
X57500000Y-103250000D02*
X59100000Y-103250000D01*
X59100000Y-103250000D02*
X59100000Y-104750000D01*
X59100000Y-104750000D02*
X57500000Y-104750000D01*
X57500000Y-104750000D02*
X57500000Y-103250000D01*
G36*
X57500000Y-103250000D02*
G01*
X59100000Y-103250000D01*
X59100000Y-104750000D01*
X57500000Y-104750000D01*
X57500000Y-103250000D01*
G37*
X100500000Y-95250000D02*
X102100000Y-95250000D01*
X102100000Y-95250000D02*
X102100000Y-96750000D01*
X102100000Y-96750000D02*
X100500000Y-96750000D01*
X100500000Y-96750000D02*
X100500000Y-95250000D01*
G36*
X100500000Y-95250000D02*
G01*
X102100000Y-95250000D01*
X102100000Y-96750000D01*
X100500000Y-96750000D01*
X100500000Y-95250000D01*
G37*
X59100000Y-96750000D02*
X57500000Y-96750000D01*
X57500000Y-96750000D02*
X57500000Y-95250000D01*
X57500000Y-95250000D02*
X59100000Y-95250000D01*
X59100000Y-95250000D02*
X59100000Y-96750000D01*
G36*
X59100000Y-96750000D02*
G01*
X57500000Y-96750000D01*
X57500000Y-95250000D01*
X59100000Y-95250000D01*
X59100000Y-96750000D01*
G37*
X39500000Y-99250000D02*
X41100000Y-99250000D01*
X41100000Y-99250000D02*
X41100000Y-100750000D01*
X41100000Y-100750000D02*
X39500000Y-100750000D01*
X39500000Y-100750000D02*
X39500000Y-99250000D01*
G36*
X39500000Y-99250000D02*
G01*
X41100000Y-99250000D01*
X41100000Y-100750000D01*
X39500000Y-100750000D01*
X39500000Y-99250000D01*
G37*
X45100000Y-96750000D02*
X43500000Y-96750000D01*
X43500000Y-96750000D02*
X43500000Y-95250000D01*
X43500000Y-95250000D02*
X45100000Y-95250000D01*
X45100000Y-95250000D02*
X45100000Y-96750000D01*
G36*
X45100000Y-96750000D02*
G01*
X43500000Y-96750000D01*
X43500000Y-95250000D01*
X45100000Y-95250000D01*
X45100000Y-96750000D01*
G37*
X96500000Y-99250000D02*
X98100000Y-99250000D01*
X98100000Y-99250000D02*
X98100000Y-100750000D01*
X98100000Y-100750000D02*
X96500000Y-100750000D01*
X96500000Y-100750000D02*
X96500000Y-99250000D01*
G36*
X96500000Y-99250000D02*
G01*
X98100000Y-99250000D01*
X98100000Y-100750000D01*
X96500000Y-100750000D01*
X96500000Y-99250000D01*
G37*
X59500000Y-115250000D02*
X61100000Y-115250000D01*
X61100000Y-115250000D02*
X61100000Y-116750000D01*
X61100000Y-116750000D02*
X59500000Y-116750000D01*
X59500000Y-116750000D02*
X59500000Y-115250000D01*
G36*
X59500000Y-115250000D02*
G01*
X61100000Y-115250000D01*
X61100000Y-116750000D01*
X59500000Y-116750000D01*
X59500000Y-115250000D01*
G37*
X114500000Y-115250000D02*
X116100000Y-115250000D01*
X116100000Y-115250000D02*
X116100000Y-116750000D01*
X116100000Y-116750000D02*
X114500000Y-116750000D01*
X114500000Y-116750000D02*
X114500000Y-115250000D01*
G36*
X114500000Y-115250000D02*
G01*
X116100000Y-115250000D01*
X116100000Y-116750000D01*
X114500000Y-116750000D01*
X114500000Y-115250000D01*
G37*
X35500000Y-111250000D02*
X37100000Y-111250000D01*
X37100000Y-111250000D02*
X37100000Y-112750000D01*
X37100000Y-112750000D02*
X35500000Y-112750000D01*
X35500000Y-112750000D02*
X35500000Y-111250000D01*
G36*
X35500000Y-111250000D02*
G01*
X37100000Y-111250000D01*
X37100000Y-112750000D01*
X35500000Y-112750000D01*
X35500000Y-111250000D01*
G37*
X45500000Y-109250000D02*
X47100000Y-109250000D01*
X47100000Y-109250000D02*
X47100000Y-110750000D01*
X47100000Y-110750000D02*
X45500000Y-110750000D01*
X45500000Y-110750000D02*
X45500000Y-109250000D01*
G36*
X45500000Y-109250000D02*
G01*
X47100000Y-109250000D01*
X47100000Y-110750000D01*
X45500000Y-110750000D01*
X45500000Y-109250000D01*
G37*
D11*
X87051248Y-78400062D03*
X88551248Y-79150062D03*
X87051248Y-80650062D03*
X87051248Y-77650062D03*
X88551248Y-78400062D03*
X88551248Y-79900062D03*
X87051248Y-79150062D03*
X87051248Y-79900062D03*
X88551248Y-80650062D03*
X88551248Y-77650062D03*
X87051248Y-51500062D03*
X88551248Y-52250062D03*
X87051248Y-53750062D03*
X87051248Y-50750062D03*
X88551248Y-51500062D03*
X88551248Y-53000062D03*
X87051248Y-52250062D03*
X87051248Y-53000062D03*
X88551248Y-53750062D03*
X88551248Y-50750062D03*
X88550000Y-127550000D03*
X87050000Y-126800000D03*
X88550000Y-125300000D03*
X88550000Y-128300000D03*
X87050000Y-127550000D03*
X87050000Y-126050000D03*
X88550000Y-126800000D03*
X88550000Y-126050000D03*
X87050000Y-125300000D03*
X87050000Y-128300000D03*
X88550000Y-154450000D03*
X87050000Y-153700000D03*
X88550000Y-152200000D03*
X88550000Y-155200000D03*
X87050000Y-154450000D03*
X87050000Y-152950000D03*
X88550000Y-153700000D03*
X88550000Y-152950000D03*
X87050000Y-152200000D03*
X87050000Y-155200000D03*
X137250000Y-146750000D03*
X138000000Y-145250000D03*
X139500000Y-146750000D03*
X136500000Y-146750000D03*
X137250000Y-145250000D03*
X138750000Y-145250000D03*
X138000000Y-146750000D03*
X138750000Y-146750000D03*
X139500000Y-145250000D03*
X136500000Y-145250000D03*
X95800000Y-146750000D03*
X96550000Y-145250000D03*
X98050000Y-146750000D03*
X95050000Y-146750000D03*
X95800000Y-145250000D03*
X97300000Y-145250000D03*
X96550000Y-146750000D03*
X97300000Y-146750000D03*
X98050000Y-145250000D03*
X95050000Y-145250000D03*
X137250000Y-60750000D03*
X138000000Y-59250000D03*
X139500000Y-60750000D03*
X136500000Y-60750000D03*
X137250000Y-59250000D03*
X138750000Y-59250000D03*
X138000000Y-60750000D03*
X138750000Y-60750000D03*
X139500000Y-59250000D03*
X136500000Y-59250000D03*
X95800000Y-60750000D03*
X96550000Y-59250000D03*
X98050000Y-60750000D03*
X95050000Y-60750000D03*
X95800000Y-59250000D03*
X97300000Y-59250000D03*
X96550000Y-60750000D03*
X97300000Y-60750000D03*
X98050000Y-59250000D03*
X95050000Y-59250000D03*
X77500000Y-59250000D03*
X80500000Y-59250000D03*
X79750000Y-60750000D03*
X79000000Y-60750000D03*
X79750000Y-59250000D03*
X78250000Y-59250000D03*
X77500000Y-60750000D03*
X80500000Y-60750000D03*
X79000000Y-59250000D03*
X78250000Y-60750000D03*
X36050000Y-59250000D03*
X39050000Y-59250000D03*
X38300000Y-60750000D03*
X37550000Y-60750000D03*
X38300000Y-59250000D03*
X36800000Y-59250000D03*
X36050000Y-60750000D03*
X39050000Y-60750000D03*
X37550000Y-59250000D03*
X36800000Y-60750000D03*
X78250000Y-146750000D03*
X79000000Y-145250000D03*
X80500000Y-146750000D03*
X77500000Y-146750000D03*
X78250000Y-145250000D03*
X79750000Y-145250000D03*
X79000000Y-146750000D03*
X79750000Y-146750000D03*
X80500000Y-145250000D03*
X77500000Y-145250000D03*
X36800000Y-146750000D03*
X36800000Y-145250000D03*
X37550000Y-146750000D03*
X37550000Y-145250000D03*
X38300000Y-145250000D03*
X38300000Y-146750000D03*
X39050000Y-145250000D03*
X36050000Y-145250000D03*
X36050000Y-146750000D03*
X39050000Y-146750000D03*
D12*
X74300000Y-70230000D03*
X74300000Y-69270000D03*
D13*
X75820000Y-81750000D03*
X76780000Y-81750000D03*
X77820000Y-81750000D03*
X78780000Y-81750000D03*
D14*
X77087500Y-69750000D03*
X75512500Y-69750000D03*
D15*
X74675000Y-80400000D03*
X75125000Y-80400000D03*
X75575000Y-80400000D03*
X76025000Y-80400000D03*
X76475000Y-80400000D03*
X76925000Y-80400000D03*
X76925000Y-77600000D03*
X76475000Y-77600000D03*
X76025000Y-77600000D03*
X75575000Y-77600000D03*
X75125000Y-77600000D03*
X74675000Y-77600000D03*
D16*
X75800000Y-79000000D03*
D17*
X78300000Y-70270000D03*
X78300000Y-69250000D03*
D13*
X73820000Y-81750000D03*
X74780000Y-81750000D03*
D18*
X74900000Y-120900025D03*
X74900000Y-123900000D03*
M02*
