G04 #@! TF.GenerationSoftware,KiCad,Pcbnew,(6.0.7)*
G04 #@! TF.CreationDate,2023-01-11T21:48:03+01:00*
G04 #@! TF.ProjectId,PCBWallet,50434257-616c-46c6-9574-2e6b69636164,rev?*
G04 #@! TF.SameCoordinates,Original*
G04 #@! TF.FileFunction,Legend,Top*
G04 #@! TF.FilePolarity,Positive*
%FSLAX46Y46*%
G04 Gerber Fmt 4.6, Leading zero omitted, Abs format (unit mm)*
G04 Created by KiCad (PCBNEW (6.0.7)) date 2023-01-11 21:48:03*
%MOMM*%
%LPD*%
G01*
G04 APERTURE LIST*
G04 Aperture macros list*
%AMRoundRect*
0 Rectangle with rounded corners*
0 $1 Rounding radius*
0 $2 $3 $4 $5 $6 $7 $8 $9 X,Y pos of 4 corners*
0 Add a 4 corners polygon primitive as box body*
4,1,4,$2,$3,$4,$5,$6,$7,$8,$9,$2,$3,0*
0 Add four circle primitives for the rounded corners*
1,1,$1+$1,$2,$3*
1,1,$1+$1,$4,$5*
1,1,$1+$1,$6,$7*
1,1,$1+$1,$8,$9*
0 Add four rect primitives between the rounded corners*
20,1,$1+$1,$2,$3,$4,$5,0*
20,1,$1+$1,$4,$5,$6,$7,0*
20,1,$1+$1,$6,$7,$8,$9,0*
20,1,$1+$1,$8,$9,$2,$3,0*%
G04 Aperture macros list end*
%ADD10C,0.500000*%
%ADD11C,0.100000*%
%ADD12C,0.200000*%
%ADD13C,0.150000*%
%ADD14C,0.300000*%
%ADD15C,0.120000*%
%ADD16C,0.500000*%
%ADD17RoundRect,0.140000X0.170000X-0.140000X0.170000X0.140000X-0.170000X0.140000X-0.170000X-0.140000X0*%
%ADD18RoundRect,0.140000X-0.140000X-0.170000X0.140000X-0.170000X0.140000X0.170000X-0.140000X0.170000X0*%
%ADD19RoundRect,0.218750X0.218750X0.256250X-0.218750X0.256250X-0.218750X-0.256250X0.218750X-0.256250X0*%
%ADD20R,0.250000X0.700000*%
%ADD21R,2.380000X1.660000*%
%ADD22RoundRect,0.135000X0.185000X-0.135000X0.185000X0.135000X-0.185000X0.135000X-0.185000X-0.135000X0*%
%ADD23C,0.400000*%
G04 APERTURE END LIST*
D10*
X60242857Y-53685714D02*
X59442857Y-52542857D01*
X58871428Y-53685714D02*
X58871428Y-51285714D01*
X59785714Y-51285714D01*
X60014285Y-51400000D01*
X60128571Y-51514285D01*
X60242857Y-51742857D01*
X60242857Y-52085714D01*
X60128571Y-52314285D01*
X60014285Y-52428571D01*
X59785714Y-52542857D01*
X58871428Y-52542857D01*
X48371428Y-53685714D02*
X48371428Y-51285714D01*
X49285714Y-51285714D01*
X49514285Y-51400000D01*
X49628571Y-51514285D01*
X49742857Y-51742857D01*
X49742857Y-52085714D01*
X49628571Y-52314285D01*
X49514285Y-52428571D01*
X49285714Y-52542857D01*
X48371428Y-52542857D01*
X44985714Y-52428571D02*
X45785714Y-52428571D01*
X46128571Y-53685714D02*
X44985714Y-53685714D01*
X44985714Y-51285714D01*
X46128571Y-51285714D01*
X42742857Y-53685714D02*
X41600000Y-53685714D01*
X41600000Y-51285714D01*
D11*
G36*
X38000000Y-52500000D02*
G01*
X39500000Y-54000000D01*
X38250000Y-54000000D01*
X36750000Y-52500000D01*
X38250000Y-51000000D01*
X39500000Y-51000000D01*
X38000000Y-52500000D01*
G37*
X38000000Y-52500000D02*
X39500000Y-54000000D01*
X38250000Y-54000000D01*
X36750000Y-52500000D01*
X38250000Y-51000000D01*
X39500000Y-51000000D01*
X38000000Y-52500000D01*
D10*
X55485714Y-52428571D02*
X56285714Y-52428571D01*
X56628571Y-53685714D02*
X55485714Y-53685714D01*
X55485714Y-51285714D01*
X56628571Y-51285714D01*
X51971428Y-53685714D02*
X51971428Y-51285714D01*
X52885714Y-51285714D01*
X53114285Y-51400000D01*
X53228571Y-51514285D01*
X53342857Y-51742857D01*
X53342857Y-52085714D01*
X53228571Y-52314285D01*
X53114285Y-52428571D01*
X52885714Y-52542857D01*
X51971428Y-52542857D01*
X55314285Y-50085714D02*
X55314285Y-47685714D01*
X56685714Y-50085714D01*
X56685714Y-47685714D01*
X52028571Y-49400000D02*
X53171428Y-49400000D01*
X51800000Y-50085714D02*
X52600000Y-47685714D01*
X53400000Y-50085714D01*
X49000000Y-50085714D02*
X49000000Y-47685714D01*
X46142857Y-50085714D02*
X45000000Y-50085714D01*
X45000000Y-47685714D01*
D12*
X35500000Y-93250000D02*
X37100000Y-93250000D01*
X37100000Y-93250000D02*
X37100000Y-94750000D01*
X37100000Y-94750000D02*
X35500000Y-94750000D01*
X35500000Y-94750000D02*
X35500000Y-93250000D01*
G36*
X35500000Y-93250000D02*
G01*
X37100000Y-93250000D01*
X37100000Y-94750000D01*
X35500000Y-94750000D01*
X35500000Y-93250000D01*
G37*
X92500000Y-109250000D02*
X94100000Y-109250000D01*
X94100000Y-109250000D02*
X94100000Y-110750000D01*
X94100000Y-110750000D02*
X92500000Y-110750000D01*
X92500000Y-110750000D02*
X92500000Y-109250000D01*
G36*
X92500000Y-109250000D02*
G01*
X94100000Y-109250000D01*
X94100000Y-110750000D01*
X92500000Y-110750000D01*
X92500000Y-109250000D01*
G37*
X94500000Y-113250000D02*
X96100000Y-113250000D01*
X96100000Y-113250000D02*
X96100000Y-114750000D01*
X96100000Y-114750000D02*
X94500000Y-114750000D01*
X94500000Y-114750000D02*
X94500000Y-113250000D01*
G36*
X94500000Y-113250000D02*
G01*
X96100000Y-113250000D01*
X96100000Y-114750000D01*
X94500000Y-114750000D01*
X94500000Y-113250000D01*
G37*
X110500000Y-103250000D02*
X112100000Y-103250000D01*
X112100000Y-103250000D02*
X112100000Y-104750000D01*
X112100000Y-104750000D02*
X110500000Y-104750000D01*
X110500000Y-104750000D02*
X110500000Y-103250000D01*
G36*
X110500000Y-103250000D02*
G01*
X112100000Y-103250000D01*
X112100000Y-104750000D01*
X110500000Y-104750000D01*
X110500000Y-103250000D01*
G37*
X35500000Y-115250000D02*
X37100000Y-115250000D01*
X37100000Y-115250000D02*
X37100000Y-116750000D01*
X37100000Y-116750000D02*
X35500000Y-116750000D01*
X35500000Y-116750000D02*
X35500000Y-115250000D01*
G36*
X35500000Y-115250000D02*
G01*
X37100000Y-115250000D01*
X37100000Y-116750000D01*
X35500000Y-116750000D01*
X35500000Y-115250000D01*
G37*
X33500000Y-99250000D02*
X35100000Y-99250000D01*
X35100000Y-99250000D02*
X35100000Y-100750000D01*
X35100000Y-100750000D02*
X33500000Y-100750000D01*
X33500000Y-100750000D02*
X33500000Y-99250000D01*
G36*
X33500000Y-99250000D02*
G01*
X35100000Y-99250000D01*
X35100000Y-100750000D01*
X33500000Y-100750000D01*
X33500000Y-99250000D01*
G37*
X33500000Y-109250000D02*
X35100000Y-109250000D01*
X35100000Y-109250000D02*
X35100000Y-110750000D01*
X35100000Y-110750000D02*
X33500000Y-110750000D01*
X33500000Y-110750000D02*
X33500000Y-109250000D01*
G36*
X33500000Y-109250000D02*
G01*
X35100000Y-109250000D01*
X35100000Y-110750000D01*
X33500000Y-110750000D01*
X33500000Y-109250000D01*
G37*
X35500000Y-95250000D02*
X37100000Y-95250000D01*
X37100000Y-95250000D02*
X37100000Y-96750000D01*
X37100000Y-96750000D02*
X35500000Y-96750000D01*
X35500000Y-96750000D02*
X35500000Y-95250000D01*
G36*
X35500000Y-95250000D02*
G01*
X37100000Y-95250000D01*
X37100000Y-96750000D01*
X35500000Y-96750000D01*
X35500000Y-95250000D01*
G37*
X43500000Y-97250000D02*
X45100000Y-97250000D01*
X45100000Y-97250000D02*
X45100000Y-98750000D01*
X45100000Y-98750000D02*
X43500000Y-98750000D01*
X43500000Y-98750000D02*
X43500000Y-97250000D01*
G36*
X43500000Y-97250000D02*
G01*
X45100000Y-97250000D01*
X45100000Y-98750000D01*
X43500000Y-98750000D01*
X43500000Y-97250000D01*
G37*
X94500000Y-105250000D02*
X96100000Y-105250000D01*
X96100000Y-105250000D02*
X96100000Y-106750000D01*
X96100000Y-106750000D02*
X94500000Y-106750000D01*
X94500000Y-106750000D02*
X94500000Y-105250000D01*
G36*
X94500000Y-105250000D02*
G01*
X96100000Y-105250000D01*
X96100000Y-106750000D01*
X94500000Y-106750000D01*
X94500000Y-105250000D01*
G37*
X120500000Y-107250000D02*
X122100000Y-107250000D01*
X122100000Y-107250000D02*
X122100000Y-108750000D01*
X122100000Y-108750000D02*
X120500000Y-108750000D01*
X120500000Y-108750000D02*
X120500000Y-107250000D01*
G36*
X120500000Y-107250000D02*
G01*
X122100000Y-107250000D01*
X122100000Y-108750000D01*
X120500000Y-108750000D01*
X120500000Y-107250000D01*
G37*
X47500000Y-113250000D02*
X49100000Y-113250000D01*
X49100000Y-113250000D02*
X49100000Y-114750000D01*
X49100000Y-114750000D02*
X47500000Y-114750000D01*
X47500000Y-114750000D02*
X47500000Y-113250000D01*
G36*
X47500000Y-113250000D02*
G01*
X49100000Y-113250000D01*
X49100000Y-114750000D01*
X47500000Y-114750000D01*
X47500000Y-113250000D01*
G37*
X94500000Y-103250000D02*
X96100000Y-103250000D01*
X96100000Y-103250000D02*
X96100000Y-104750000D01*
X96100000Y-104750000D02*
X94500000Y-104750000D01*
X94500000Y-104750000D02*
X94500000Y-103250000D01*
G36*
X94500000Y-103250000D02*
G01*
X96100000Y-103250000D01*
X96100000Y-104750000D01*
X94500000Y-104750000D01*
X94500000Y-103250000D01*
G37*
X49500000Y-97250000D02*
X51100000Y-97250000D01*
X51100000Y-97250000D02*
X51100000Y-98750000D01*
X51100000Y-98750000D02*
X49500000Y-98750000D01*
X49500000Y-98750000D02*
X49500000Y-97250000D01*
G36*
X49500000Y-97250000D02*
G01*
X51100000Y-97250000D01*
X51100000Y-98750000D01*
X49500000Y-98750000D01*
X49500000Y-97250000D01*
G37*
X33500000Y-89250000D02*
X35100000Y-89250000D01*
X35100000Y-89250000D02*
X35100000Y-90750000D01*
X35100000Y-90750000D02*
X33500000Y-90750000D01*
X33500000Y-90750000D02*
X33500000Y-89250000D01*
G36*
X33500000Y-89250000D02*
G01*
X35100000Y-89250000D01*
X35100000Y-90750000D01*
X33500000Y-90750000D01*
X33500000Y-89250000D01*
G37*
X108500000Y-97250000D02*
X110100000Y-97250000D01*
X110100000Y-97250000D02*
X110100000Y-98750000D01*
X110100000Y-98750000D02*
X108500000Y-98750000D01*
X108500000Y-98750000D02*
X108500000Y-97250000D01*
G36*
X108500000Y-97250000D02*
G01*
X110100000Y-97250000D01*
X110100000Y-98750000D01*
X108500000Y-98750000D01*
X108500000Y-97250000D01*
G37*
X35500000Y-113250000D02*
X37100000Y-113250000D01*
X37100000Y-113250000D02*
X37100000Y-114750000D01*
X37100000Y-114750000D02*
X35500000Y-114750000D01*
X35500000Y-114750000D02*
X35500000Y-113250000D01*
G36*
X35500000Y-113250000D02*
G01*
X37100000Y-113250000D01*
X37100000Y-114750000D01*
X35500000Y-114750000D01*
X35500000Y-113250000D01*
G37*
X94500000Y-101250000D02*
X96100000Y-101250000D01*
X96100000Y-101250000D02*
X96100000Y-102750000D01*
X96100000Y-102750000D02*
X94500000Y-102750000D01*
X94500000Y-102750000D02*
X94500000Y-101250000D01*
G36*
X94500000Y-101250000D02*
G01*
X96100000Y-101250000D01*
X96100000Y-102750000D01*
X94500000Y-102750000D01*
X94500000Y-101250000D01*
G37*
X33500000Y-97250000D02*
X35100000Y-97250000D01*
X35100000Y-97250000D02*
X35100000Y-98750000D01*
X35100000Y-98750000D02*
X33500000Y-98750000D01*
X33500000Y-98750000D02*
X33500000Y-97250000D01*
G36*
X33500000Y-97250000D02*
G01*
X35100000Y-97250000D01*
X35100000Y-98750000D01*
X33500000Y-98750000D01*
X33500000Y-97250000D01*
G37*
X96500000Y-111250000D02*
X98100000Y-111250000D01*
X98100000Y-111250000D02*
X98100000Y-112750000D01*
X98100000Y-112750000D02*
X96500000Y-112750000D01*
X96500000Y-112750000D02*
X96500000Y-111250000D01*
G36*
X96500000Y-111250000D02*
G01*
X98100000Y-111250000D01*
X98100000Y-112750000D01*
X96500000Y-112750000D01*
X96500000Y-111250000D01*
G37*
D11*
G36*
X38000000Y-48900000D02*
G01*
X39500000Y-50400000D01*
X38250000Y-50400000D01*
X36750000Y-48900000D01*
X38250000Y-47400000D01*
X39500000Y-47400000D01*
X38000000Y-48900000D01*
G37*
X38000000Y-48900000D02*
X39500000Y-50400000D01*
X38250000Y-50400000D01*
X36750000Y-48900000D01*
X38250000Y-47400000D01*
X39500000Y-47400000D01*
X38000000Y-48900000D01*
D12*
X92500000Y-89250000D02*
X94100000Y-89250000D01*
X94100000Y-89250000D02*
X94100000Y-90750000D01*
X94100000Y-90750000D02*
X92500000Y-90750000D01*
X92500000Y-90750000D02*
X92500000Y-89250000D01*
G36*
X92500000Y-89250000D02*
G01*
X94100000Y-89250000D01*
X94100000Y-90750000D01*
X92500000Y-90750000D01*
X92500000Y-89250000D01*
G37*
X65500000Y-99250000D02*
X67100000Y-99250000D01*
X67100000Y-99250000D02*
X67100000Y-100750000D01*
X67100000Y-100750000D02*
X65500000Y-100750000D01*
X65500000Y-100750000D02*
X65500000Y-99250000D01*
G36*
X65500000Y-99250000D02*
G01*
X67100000Y-99250000D01*
X67100000Y-100750000D01*
X65500000Y-100750000D01*
X65500000Y-99250000D01*
G37*
X106500000Y-93250000D02*
X108100000Y-93250000D01*
X108100000Y-93250000D02*
X108100000Y-94750000D01*
X108100000Y-94750000D02*
X106500000Y-94750000D01*
X106500000Y-94750000D02*
X106500000Y-93250000D01*
G36*
X106500000Y-93250000D02*
G01*
X108100000Y-93250000D01*
X108100000Y-94750000D01*
X106500000Y-94750000D01*
X106500000Y-93250000D01*
G37*
X39500000Y-103250000D02*
X41100000Y-103250000D01*
X41100000Y-103250000D02*
X41100000Y-104750000D01*
X41100000Y-104750000D02*
X39500000Y-104750000D01*
X39500000Y-104750000D02*
X39500000Y-103250000D01*
G36*
X39500000Y-103250000D02*
G01*
X41100000Y-103250000D01*
X41100000Y-104750000D01*
X39500000Y-104750000D01*
X39500000Y-103250000D01*
G37*
X98500000Y-101250000D02*
X100100000Y-101250000D01*
X100100000Y-101250000D02*
X100100000Y-102750000D01*
X100100000Y-102750000D02*
X98500000Y-102750000D01*
X98500000Y-102750000D02*
X98500000Y-101250000D01*
G36*
X98500000Y-101250000D02*
G01*
X100100000Y-101250000D01*
X100100000Y-102750000D01*
X98500000Y-102750000D01*
X98500000Y-101250000D01*
G37*
X96500000Y-97250000D02*
X98100000Y-97250000D01*
X98100000Y-97250000D02*
X98100000Y-98750000D01*
X98100000Y-98750000D02*
X96500000Y-98750000D01*
X96500000Y-98750000D02*
X96500000Y-97250000D01*
G36*
X96500000Y-97250000D02*
G01*
X98100000Y-97250000D01*
X98100000Y-98750000D01*
X96500000Y-98750000D01*
X96500000Y-97250000D01*
G37*
X33500000Y-101250000D02*
X35100000Y-101250000D01*
X35100000Y-101250000D02*
X35100000Y-102750000D01*
X35100000Y-102750000D02*
X33500000Y-102750000D01*
X33500000Y-102750000D02*
X33500000Y-101250000D01*
G36*
X33500000Y-101250000D02*
G01*
X35100000Y-101250000D01*
X35100000Y-102750000D01*
X33500000Y-102750000D01*
X33500000Y-101250000D01*
G37*
X73500000Y-91250000D02*
X75100000Y-91250000D01*
X75100000Y-91250000D02*
X75100000Y-92750000D01*
X75100000Y-92750000D02*
X73500000Y-92750000D01*
X73500000Y-92750000D02*
X73500000Y-91250000D01*
G36*
X73500000Y-91250000D02*
G01*
X75100000Y-91250000D01*
X75100000Y-92750000D01*
X73500000Y-92750000D01*
X73500000Y-91250000D01*
G37*
X132500000Y-91250000D02*
X134100000Y-91250000D01*
X134100000Y-91250000D02*
X134100000Y-92750000D01*
X134100000Y-92750000D02*
X132500000Y-92750000D01*
X132500000Y-92750000D02*
X132500000Y-91250000D01*
G36*
X132500000Y-91250000D02*
G01*
X134100000Y-91250000D01*
X134100000Y-92750000D01*
X132500000Y-92750000D01*
X132500000Y-91250000D01*
G37*
X94500000Y-95250000D02*
X96100000Y-95250000D01*
X96100000Y-95250000D02*
X96100000Y-96750000D01*
X96100000Y-96750000D02*
X94500000Y-96750000D01*
X94500000Y-96750000D02*
X94500000Y-95250000D01*
G36*
X94500000Y-95250000D02*
G01*
X96100000Y-95250000D01*
X96100000Y-96750000D01*
X94500000Y-96750000D01*
X94500000Y-95250000D01*
G37*
X43500000Y-91250000D02*
X45100000Y-91250000D01*
X45100000Y-91250000D02*
X45100000Y-92750000D01*
X45100000Y-92750000D02*
X43500000Y-92750000D01*
X43500000Y-92750000D02*
X43500000Y-91250000D01*
G36*
X43500000Y-91250000D02*
G01*
X45100000Y-91250000D01*
X45100000Y-92750000D01*
X43500000Y-92750000D01*
X43500000Y-91250000D01*
G37*
X92500000Y-101250000D02*
X94100000Y-101250000D01*
X94100000Y-101250000D02*
X94100000Y-102750000D01*
X94100000Y-102750000D02*
X92500000Y-102750000D01*
X92500000Y-102750000D02*
X92500000Y-101250000D01*
G36*
X92500000Y-101250000D02*
G01*
X94100000Y-101250000D01*
X94100000Y-102750000D01*
X92500000Y-102750000D01*
X92500000Y-101250000D01*
G37*
X43500000Y-115250000D02*
X45100000Y-115250000D01*
X45100000Y-115250000D02*
X45100000Y-116750000D01*
X45100000Y-116750000D02*
X43500000Y-116750000D01*
X43500000Y-116750000D02*
X43500000Y-115250000D01*
G36*
X43500000Y-115250000D02*
G01*
X45100000Y-115250000D01*
X45100000Y-116750000D01*
X43500000Y-116750000D01*
X43500000Y-115250000D01*
G37*
X102500000Y-107250000D02*
X104100000Y-107250000D01*
X104100000Y-107250000D02*
X104100000Y-108750000D01*
X104100000Y-108750000D02*
X102500000Y-108750000D01*
X102500000Y-108750000D02*
X102500000Y-107250000D01*
G36*
X102500000Y-107250000D02*
G01*
X104100000Y-107250000D01*
X104100000Y-108750000D01*
X102500000Y-108750000D01*
X102500000Y-107250000D01*
G37*
X37500000Y-111250000D02*
X39100000Y-111250000D01*
X39100000Y-111250000D02*
X39100000Y-112750000D01*
X39100000Y-112750000D02*
X37500000Y-112750000D01*
X37500000Y-112750000D02*
X37500000Y-111250000D01*
G36*
X37500000Y-111250000D02*
G01*
X39100000Y-111250000D01*
X39100000Y-112750000D01*
X37500000Y-112750000D01*
X37500000Y-111250000D01*
G37*
X96500000Y-103250000D02*
X98100000Y-103250000D01*
X98100000Y-103250000D02*
X98100000Y-104750000D01*
X98100000Y-104750000D02*
X96500000Y-104750000D01*
X96500000Y-104750000D02*
X96500000Y-103250000D01*
G36*
X96500000Y-103250000D02*
G01*
X98100000Y-103250000D01*
X98100000Y-104750000D01*
X96500000Y-104750000D01*
X96500000Y-103250000D01*
G37*
X102500000Y-115250000D02*
X104100000Y-115250000D01*
X104100000Y-115250000D02*
X104100000Y-116750000D01*
X104100000Y-116750000D02*
X102500000Y-116750000D01*
X102500000Y-116750000D02*
X102500000Y-115250000D01*
G36*
X102500000Y-115250000D02*
G01*
X104100000Y-115250000D01*
X104100000Y-116750000D01*
X102500000Y-116750000D01*
X102500000Y-115250000D01*
G37*
X39500000Y-101250000D02*
X41100000Y-101250000D01*
X41100000Y-101250000D02*
X41100000Y-102750000D01*
X41100000Y-102750000D02*
X39500000Y-102750000D01*
X39500000Y-102750000D02*
X39500000Y-101250000D01*
G36*
X39500000Y-101250000D02*
G01*
X41100000Y-101250000D01*
X41100000Y-102750000D01*
X39500000Y-102750000D01*
X39500000Y-101250000D01*
G37*
X37500000Y-103250000D02*
X39100000Y-103250000D01*
X39100000Y-103250000D02*
X39100000Y-104750000D01*
X39100000Y-104750000D02*
X37500000Y-104750000D01*
X37500000Y-104750000D02*
X37500000Y-103250000D01*
G36*
X37500000Y-103250000D02*
G01*
X39100000Y-103250000D01*
X39100000Y-104750000D01*
X37500000Y-104750000D01*
X37500000Y-103250000D01*
G37*
X98500000Y-91250000D02*
X100100000Y-91250000D01*
X100100000Y-91250000D02*
X100100000Y-92750000D01*
X100100000Y-92750000D02*
X98500000Y-92750000D01*
X98500000Y-92750000D02*
X98500000Y-91250000D01*
G36*
X98500000Y-91250000D02*
G01*
X100100000Y-91250000D01*
X100100000Y-92750000D01*
X98500000Y-92750000D01*
X98500000Y-91250000D01*
G37*
X112500000Y-99250000D02*
X114100000Y-99250000D01*
X114100000Y-99250000D02*
X114100000Y-100750000D01*
X114100000Y-100750000D02*
X112500000Y-100750000D01*
X112500000Y-100750000D02*
X112500000Y-99250000D01*
G36*
X112500000Y-99250000D02*
G01*
X114100000Y-99250000D01*
X114100000Y-100750000D01*
X112500000Y-100750000D01*
X112500000Y-99250000D01*
G37*
X116500000Y-113250000D02*
X118100000Y-113250000D01*
X118100000Y-113250000D02*
X118100000Y-114750000D01*
X118100000Y-114750000D02*
X116500000Y-114750000D01*
X116500000Y-114750000D02*
X116500000Y-113250000D01*
G36*
X116500000Y-113250000D02*
G01*
X118100000Y-113250000D01*
X118100000Y-114750000D01*
X116500000Y-114750000D01*
X116500000Y-113250000D01*
G37*
X92500000Y-97250000D02*
X94100000Y-97250000D01*
X94100000Y-97250000D02*
X94100000Y-98750000D01*
X94100000Y-98750000D02*
X92500000Y-98750000D01*
X92500000Y-98750000D02*
X92500000Y-97250000D01*
G36*
X92500000Y-97250000D02*
G01*
X94100000Y-97250000D01*
X94100000Y-98750000D01*
X92500000Y-98750000D01*
X92500000Y-97250000D01*
G37*
X53500000Y-99250000D02*
X55100000Y-99250000D01*
X55100000Y-99250000D02*
X55100000Y-100750000D01*
X55100000Y-100750000D02*
X53500000Y-100750000D01*
X53500000Y-100750000D02*
X53500000Y-99250000D01*
G36*
X53500000Y-99250000D02*
G01*
X55100000Y-99250000D01*
X55100000Y-100750000D01*
X53500000Y-100750000D01*
X53500000Y-99250000D01*
G37*
X102500000Y-91250000D02*
X104100000Y-91250000D01*
X104100000Y-91250000D02*
X104100000Y-92750000D01*
X104100000Y-92750000D02*
X102500000Y-92750000D01*
X102500000Y-92750000D02*
X102500000Y-91250000D01*
G36*
X102500000Y-91250000D02*
G01*
X104100000Y-91250000D01*
X104100000Y-92750000D01*
X102500000Y-92750000D01*
X102500000Y-91250000D01*
G37*
X110500000Y-109250000D02*
X112100000Y-109250000D01*
X112100000Y-109250000D02*
X112100000Y-110750000D01*
X112100000Y-110750000D02*
X110500000Y-110750000D01*
X110500000Y-110750000D02*
X110500000Y-109250000D01*
G36*
X110500000Y-109250000D02*
G01*
X112100000Y-109250000D01*
X112100000Y-110750000D01*
X110500000Y-110750000D01*
X110500000Y-109250000D01*
G37*
X94500000Y-115250000D02*
X96100000Y-115250000D01*
X96100000Y-115250000D02*
X96100000Y-116750000D01*
X96100000Y-116750000D02*
X94500000Y-116750000D01*
X94500000Y-116750000D02*
X94500000Y-115250000D01*
G36*
X94500000Y-115250000D02*
G01*
X96100000Y-115250000D01*
X96100000Y-116750000D01*
X94500000Y-116750000D01*
X94500000Y-115250000D01*
G37*
X104500000Y-105250000D02*
X106100000Y-105250000D01*
X106100000Y-105250000D02*
X106100000Y-106750000D01*
X106100000Y-106750000D02*
X104500000Y-106750000D01*
X104500000Y-106750000D02*
X104500000Y-105250000D01*
G36*
X104500000Y-105250000D02*
G01*
X106100000Y-105250000D01*
X106100000Y-106750000D01*
X104500000Y-106750000D01*
X104500000Y-105250000D01*
G37*
X37500000Y-97250000D02*
X39100000Y-97250000D01*
X39100000Y-97250000D02*
X39100000Y-98750000D01*
X39100000Y-98750000D02*
X37500000Y-98750000D01*
X37500000Y-98750000D02*
X37500000Y-97250000D01*
G36*
X37500000Y-97250000D02*
G01*
X39100000Y-97250000D01*
X39100000Y-98750000D01*
X37500000Y-98750000D01*
X37500000Y-97250000D01*
G37*
X47500000Y-93250000D02*
X49100000Y-93250000D01*
X49100000Y-93250000D02*
X49100000Y-94750000D01*
X49100000Y-94750000D02*
X47500000Y-94750000D01*
X47500000Y-94750000D02*
X47500000Y-93250000D01*
G36*
X47500000Y-93250000D02*
G01*
X49100000Y-93250000D01*
X49100000Y-94750000D01*
X47500000Y-94750000D01*
X47500000Y-93250000D01*
G37*
X126500000Y-101250000D02*
X128100000Y-101250000D01*
X128100000Y-101250000D02*
X128100000Y-102750000D01*
X128100000Y-102750000D02*
X126500000Y-102750000D01*
X126500000Y-102750000D02*
X126500000Y-101250000D01*
G36*
X126500000Y-101250000D02*
G01*
X128100000Y-101250000D01*
X128100000Y-102750000D01*
X126500000Y-102750000D01*
X126500000Y-101250000D01*
G37*
X33500000Y-95250000D02*
X35100000Y-95250000D01*
X35100000Y-95250000D02*
X35100000Y-96750000D01*
X35100000Y-96750000D02*
X33500000Y-96750000D01*
X33500000Y-96750000D02*
X33500000Y-95250000D01*
G36*
X33500000Y-95250000D02*
G01*
X35100000Y-95250000D01*
X35100000Y-96750000D01*
X33500000Y-96750000D01*
X33500000Y-95250000D01*
G37*
X35500000Y-105250000D02*
X37100000Y-105250000D01*
X37100000Y-105250000D02*
X37100000Y-106750000D01*
X37100000Y-106750000D02*
X35500000Y-106750000D01*
X35500000Y-106750000D02*
X35500000Y-105250000D01*
G36*
X35500000Y-105250000D02*
G01*
X37100000Y-105250000D01*
X37100000Y-106750000D01*
X35500000Y-106750000D01*
X35500000Y-105250000D01*
G37*
X39500000Y-91250000D02*
X41100000Y-91250000D01*
X41100000Y-91250000D02*
X41100000Y-92750000D01*
X41100000Y-92750000D02*
X39500000Y-92750000D01*
X39500000Y-92750000D02*
X39500000Y-91250000D01*
G36*
X39500000Y-91250000D02*
G01*
X41100000Y-91250000D01*
X41100000Y-92750000D01*
X39500000Y-92750000D01*
X39500000Y-91250000D01*
G37*
X43500000Y-107250000D02*
X45100000Y-107250000D01*
X45100000Y-107250000D02*
X45100000Y-108750000D01*
X45100000Y-108750000D02*
X43500000Y-108750000D01*
X43500000Y-108750000D02*
X43500000Y-107250000D01*
G36*
X43500000Y-107250000D02*
G01*
X45100000Y-107250000D01*
X45100000Y-108750000D01*
X43500000Y-108750000D01*
X43500000Y-107250000D01*
G37*
X61500000Y-107250000D02*
X63100000Y-107250000D01*
X63100000Y-107250000D02*
X63100000Y-108750000D01*
X63100000Y-108750000D02*
X61500000Y-108750000D01*
X61500000Y-108750000D02*
X61500000Y-107250000D01*
G36*
X61500000Y-107250000D02*
G01*
X63100000Y-107250000D01*
X63100000Y-108750000D01*
X61500000Y-108750000D01*
X61500000Y-107250000D01*
G37*
X35500000Y-103250000D02*
X37100000Y-103250000D01*
X37100000Y-103250000D02*
X37100000Y-104750000D01*
X37100000Y-104750000D02*
X35500000Y-104750000D01*
X35500000Y-104750000D02*
X35500000Y-103250000D01*
G36*
X35500000Y-103250000D02*
G01*
X37100000Y-103250000D01*
X37100000Y-104750000D01*
X35500000Y-104750000D01*
X35500000Y-103250000D01*
G37*
X102500000Y-97250000D02*
X104100000Y-97250000D01*
X104100000Y-97250000D02*
X104100000Y-98750000D01*
X104100000Y-98750000D02*
X102500000Y-98750000D01*
X102500000Y-98750000D02*
X102500000Y-97250000D01*
G36*
X102500000Y-97250000D02*
G01*
X104100000Y-97250000D01*
X104100000Y-98750000D01*
X102500000Y-98750000D01*
X102500000Y-97250000D01*
G37*
X94500000Y-109250000D02*
X96100000Y-109250000D01*
X96100000Y-109250000D02*
X96100000Y-110750000D01*
X96100000Y-110750000D02*
X94500000Y-110750000D01*
X94500000Y-110750000D02*
X94500000Y-109250000D01*
G36*
X94500000Y-109250000D02*
G01*
X96100000Y-109250000D01*
X96100000Y-110750000D01*
X94500000Y-110750000D01*
X94500000Y-109250000D01*
G37*
X92500000Y-95250000D02*
X94100000Y-95250000D01*
X94100000Y-95250000D02*
X94100000Y-96750000D01*
X94100000Y-96750000D02*
X92500000Y-96750000D01*
X92500000Y-96750000D02*
X92500000Y-95250000D01*
G36*
X92500000Y-95250000D02*
G01*
X94100000Y-95250000D01*
X94100000Y-96750000D01*
X92500000Y-96750000D01*
X92500000Y-95250000D01*
G37*
X124500000Y-99250000D02*
X126100000Y-99250000D01*
X126100000Y-99250000D02*
X126100000Y-100750000D01*
X126100000Y-100750000D02*
X124500000Y-100750000D01*
X124500000Y-100750000D02*
X124500000Y-99250000D01*
G36*
X124500000Y-99250000D02*
G01*
X126100000Y-99250000D01*
X126100000Y-100750000D01*
X124500000Y-100750000D01*
X124500000Y-99250000D01*
G37*
X35500000Y-101250000D02*
X37100000Y-101250000D01*
X37100000Y-101250000D02*
X37100000Y-102750000D01*
X37100000Y-102750000D02*
X35500000Y-102750000D01*
X35500000Y-102750000D02*
X35500000Y-101250000D01*
G36*
X35500000Y-101250000D02*
G01*
X37100000Y-101250000D01*
X37100000Y-102750000D01*
X35500000Y-102750000D01*
X35500000Y-101250000D01*
G37*
X57500000Y-113250000D02*
X59100000Y-113250000D01*
X59100000Y-113250000D02*
X59100000Y-114750000D01*
X59100000Y-114750000D02*
X57500000Y-114750000D01*
X57500000Y-114750000D02*
X57500000Y-113250000D01*
G36*
X57500000Y-113250000D02*
G01*
X59100000Y-113250000D01*
X59100000Y-114750000D01*
X57500000Y-114750000D01*
X57500000Y-113250000D01*
G37*
X35500000Y-109250000D02*
X37100000Y-109250000D01*
X37100000Y-109250000D02*
X37100000Y-110750000D01*
X37100000Y-110750000D02*
X35500000Y-110750000D01*
X35500000Y-110750000D02*
X35500000Y-109250000D01*
G36*
X35500000Y-109250000D02*
G01*
X37100000Y-109250000D01*
X37100000Y-110750000D01*
X35500000Y-110750000D01*
X35500000Y-109250000D01*
G37*
X98500000Y-93250000D02*
X100100000Y-93250000D01*
X100100000Y-93250000D02*
X100100000Y-94750000D01*
X100100000Y-94750000D02*
X98500000Y-94750000D01*
X98500000Y-94750000D02*
X98500000Y-93250000D01*
G36*
X98500000Y-93250000D02*
G01*
X100100000Y-93250000D01*
X100100000Y-94750000D01*
X98500000Y-94750000D01*
X98500000Y-93250000D01*
G37*
X98500000Y-103250000D02*
X100100000Y-103250000D01*
X100100000Y-103250000D02*
X100100000Y-104750000D01*
X100100000Y-104750000D02*
X98500000Y-104750000D01*
X98500000Y-104750000D02*
X98500000Y-103250000D01*
G36*
X98500000Y-103250000D02*
G01*
X100100000Y-103250000D01*
X100100000Y-104750000D01*
X98500000Y-104750000D01*
X98500000Y-103250000D01*
G37*
X51500000Y-103250000D02*
X53100000Y-103250000D01*
X53100000Y-103250000D02*
X53100000Y-104750000D01*
X53100000Y-104750000D02*
X51500000Y-104750000D01*
X51500000Y-104750000D02*
X51500000Y-103250000D01*
G36*
X51500000Y-103250000D02*
G01*
X53100000Y-103250000D01*
X53100000Y-104750000D01*
X51500000Y-104750000D01*
X51500000Y-103250000D01*
G37*
X106500000Y-113250000D02*
X108100000Y-113250000D01*
X108100000Y-113250000D02*
X108100000Y-114750000D01*
X108100000Y-114750000D02*
X106500000Y-114750000D01*
X106500000Y-114750000D02*
X106500000Y-113250000D01*
G36*
X106500000Y-113250000D02*
G01*
X108100000Y-113250000D01*
X108100000Y-114750000D01*
X106500000Y-114750000D01*
X106500000Y-113250000D01*
G37*
X92500000Y-99250000D02*
X94100000Y-99250000D01*
X94100000Y-99250000D02*
X94100000Y-100750000D01*
X94100000Y-100750000D02*
X92500000Y-100750000D01*
X92500000Y-100750000D02*
X92500000Y-99250000D01*
G36*
X92500000Y-99250000D02*
G01*
X94100000Y-99250000D01*
X94100000Y-100750000D01*
X92500000Y-100750000D01*
X92500000Y-99250000D01*
G37*
X45500000Y-105250000D02*
X47100000Y-105250000D01*
X47100000Y-105250000D02*
X47100000Y-106750000D01*
X47100000Y-106750000D02*
X45500000Y-106750000D01*
X45500000Y-106750000D02*
X45500000Y-105250000D01*
G36*
X45500000Y-105250000D02*
G01*
X47100000Y-105250000D01*
X47100000Y-106750000D01*
X45500000Y-106750000D01*
X45500000Y-105250000D01*
G37*
X39500000Y-93250000D02*
X41100000Y-93250000D01*
X41100000Y-93250000D02*
X41100000Y-94750000D01*
X41100000Y-94750000D02*
X39500000Y-94750000D01*
X39500000Y-94750000D02*
X39500000Y-93250000D01*
G36*
X39500000Y-93250000D02*
G01*
X41100000Y-93250000D01*
X41100000Y-94750000D01*
X39500000Y-94750000D01*
X39500000Y-93250000D01*
G37*
X94500000Y-93250000D02*
X96100000Y-93250000D01*
X96100000Y-93250000D02*
X96100000Y-94750000D01*
X96100000Y-94750000D02*
X94500000Y-94750000D01*
X94500000Y-94750000D02*
X94500000Y-93250000D01*
G36*
X94500000Y-93250000D02*
G01*
X96100000Y-93250000D01*
X96100000Y-94750000D01*
X94500000Y-94750000D01*
X94500000Y-93250000D01*
G37*
X51500000Y-109250000D02*
X53100000Y-109250000D01*
X53100000Y-109250000D02*
X53100000Y-110750000D01*
X53100000Y-110750000D02*
X51500000Y-110750000D01*
X51500000Y-110750000D02*
X51500000Y-109250000D01*
G36*
X51500000Y-109250000D02*
G01*
X53100000Y-109250000D01*
X53100000Y-110750000D01*
X51500000Y-110750000D01*
X51500000Y-109250000D01*
G37*
X67500000Y-101250000D02*
X69100000Y-101250000D01*
X69100000Y-101250000D02*
X69100000Y-102750000D01*
X69100000Y-102750000D02*
X67500000Y-102750000D01*
X67500000Y-102750000D02*
X67500000Y-101250000D01*
G36*
X67500000Y-101250000D02*
G01*
X69100000Y-101250000D01*
X69100000Y-102750000D01*
X67500000Y-102750000D01*
X67500000Y-101250000D01*
G37*
D13*
X115609523Y-98452380D02*
X115133333Y-98452380D01*
X115133333Y-97452380D01*
X50038095Y-96452380D02*
X50038095Y-95452380D01*
X50419047Y-95452380D01*
X50514285Y-95500000D01*
X50561904Y-95547619D01*
X50609523Y-95642857D01*
X50609523Y-95785714D01*
X50561904Y-95880952D01*
X50514285Y-95928571D01*
X50419047Y-95976190D01*
X50038095Y-95976190D01*
X113061904Y-98166666D02*
X113538095Y-98166666D01*
X112966666Y-98452380D02*
X113300000Y-97452380D01*
X113633333Y-98452380D01*
X62014285Y-97452380D02*
X62585714Y-97452380D01*
X62300000Y-98452380D02*
X62300000Y-97452380D01*
X111609523Y-96357142D02*
X111561904Y-96404761D01*
X111419047Y-96452380D01*
X111323809Y-96452380D01*
X111180952Y-96404761D01*
X111085714Y-96309523D01*
X111038095Y-96214285D01*
X110990476Y-96023809D01*
X110990476Y-95880952D01*
X111038095Y-95690476D01*
X111085714Y-95595238D01*
X111180952Y-95500000D01*
X111323809Y-95452380D01*
X111419047Y-95452380D01*
X111561904Y-95500000D01*
X111609523Y-95547619D01*
X113371428Y-95928571D02*
X113514285Y-95976190D01*
X113561904Y-96023809D01*
X113609523Y-96119047D01*
X113609523Y-96261904D01*
X113561904Y-96357142D01*
X113514285Y-96404761D01*
X113419047Y-96452380D01*
X113038095Y-96452380D01*
X113038095Y-95452380D01*
X113371428Y-95452380D01*
X113466666Y-95500000D01*
X113514285Y-95547619D01*
X113561904Y-95642857D01*
X113561904Y-95738095D01*
X113514285Y-95833333D01*
X113466666Y-95880952D01*
X113371428Y-95928571D01*
X113038095Y-95928571D01*
X51871428Y-97452380D02*
X52109523Y-98452380D01*
X52300000Y-97738095D01*
X52490476Y-98452380D01*
X52728571Y-97452380D01*
X60085714Y-97928571D02*
X60419047Y-97928571D01*
X60561904Y-98452380D02*
X60085714Y-98452380D01*
X60085714Y-97452380D01*
X60561904Y-97452380D01*
X119085714Y-97928571D02*
X119419047Y-97928571D01*
X119561904Y-98452380D02*
X119085714Y-98452380D01*
X119085714Y-97452380D01*
X119561904Y-97452380D01*
X54061904Y-98166666D02*
X54538095Y-98166666D01*
X53966666Y-98452380D02*
X54300000Y-97452380D01*
X54633333Y-98452380D01*
X110871428Y-97452380D02*
X111109523Y-98452380D01*
X111300000Y-97738095D01*
X111490476Y-98452380D01*
X111728571Y-97452380D01*
X117609523Y-98452380D02*
X117133333Y-98452380D01*
X117133333Y-97452380D01*
X54371428Y-95928571D02*
X54514285Y-95976190D01*
X54561904Y-96023809D01*
X54609523Y-96119047D01*
X54609523Y-96261904D01*
X54561904Y-96357142D01*
X54514285Y-96404761D01*
X54419047Y-96452380D01*
X54038095Y-96452380D01*
X54038095Y-95452380D01*
X54371428Y-95452380D01*
X54466666Y-95500000D01*
X54514285Y-95547619D01*
X54561904Y-95642857D01*
X54561904Y-95738095D01*
X54514285Y-95833333D01*
X54466666Y-95880952D01*
X54371428Y-95928571D01*
X54038095Y-95928571D01*
X56609523Y-98452380D02*
X56133333Y-98452380D01*
X56133333Y-97452380D01*
X58609523Y-98452380D02*
X58133333Y-98452380D01*
X58133333Y-97452380D01*
D10*
X42000000Y-50085714D02*
X42000000Y-47685714D01*
D13*
X121014285Y-97452380D02*
X121585714Y-97452380D01*
X121300000Y-98452380D02*
X121300000Y-97452380D01*
X52609523Y-96357142D02*
X52561904Y-96404761D01*
X52419047Y-96452380D01*
X52323809Y-96452380D01*
X52180952Y-96404761D01*
X52085714Y-96309523D01*
X52038095Y-96214285D01*
X51990476Y-96023809D01*
X51990476Y-95880952D01*
X52038095Y-95690476D01*
X52085714Y-95595238D01*
X52180952Y-95500000D01*
X52323809Y-95452380D01*
X52419047Y-95452380D01*
X52561904Y-95500000D01*
X52609523Y-95547619D01*
D14*
X51371428Y-130678571D02*
X51371428Y-131750000D01*
X51300000Y-131964285D01*
X51157142Y-132107142D01*
X50942857Y-132178571D01*
X50800000Y-132178571D01*
X52800000Y-132178571D02*
X52085714Y-132178571D01*
X52085714Y-130678571D01*
X54157142Y-132035714D02*
X54085714Y-132107142D01*
X53871428Y-132178571D01*
X53728571Y-132178571D01*
X53514285Y-132107142D01*
X53371428Y-131964285D01*
X53300000Y-131821428D01*
X53228571Y-131535714D01*
X53228571Y-131321428D01*
X53300000Y-131035714D01*
X53371428Y-130892857D01*
X53514285Y-130750000D01*
X53728571Y-130678571D01*
X53871428Y-130678571D01*
X54085714Y-130750000D01*
X54157142Y-130821428D01*
X55228571Y-130678571D02*
X55228571Y-131750000D01*
X55157142Y-131964285D01*
X55014285Y-132107142D01*
X54800000Y-132178571D01*
X54657142Y-132178571D01*
X56657142Y-132178571D02*
X55942857Y-132178571D01*
X55942857Y-130678571D01*
X58014285Y-132035714D02*
X57942857Y-132107142D01*
X57728571Y-132178571D01*
X57585714Y-132178571D01*
X57371428Y-132107142D01*
X57228571Y-131964285D01*
X57157142Y-131821428D01*
X57085714Y-131535714D01*
X57085714Y-131321428D01*
X57157142Y-131035714D01*
X57228571Y-130892857D01*
X57371428Y-130750000D01*
X57585714Y-130678571D01*
X57728571Y-130678571D01*
X57942857Y-130750000D01*
X58014285Y-130821428D01*
X59085714Y-130678571D02*
X59085714Y-131750000D01*
X59014285Y-131964285D01*
X58871428Y-132107142D01*
X58657142Y-132178571D01*
X58514285Y-132178571D01*
X60514285Y-132178571D02*
X59800000Y-132178571D01*
X59800000Y-130678571D01*
X61871428Y-132035714D02*
X61800000Y-132107142D01*
X61585714Y-132178571D01*
X61442857Y-132178571D01*
X61228571Y-132107142D01*
X61085714Y-131964285D01*
X61014285Y-131821428D01*
X60942857Y-131535714D01*
X60942857Y-131321428D01*
X61014285Y-131035714D01*
X61085714Y-130892857D01*
X61228571Y-130750000D01*
X61442857Y-130678571D01*
X61585714Y-130678571D01*
X61800000Y-130750000D01*
X61871428Y-130821428D01*
X62942857Y-130678571D02*
X62942857Y-131750000D01*
X62871428Y-131964285D01*
X62728571Y-132107142D01*
X62514285Y-132178571D01*
X62371428Y-132178571D01*
X64371428Y-132178571D02*
X63657142Y-132178571D01*
X63657142Y-130678571D01*
X65728571Y-132035714D02*
X65657142Y-132107142D01*
X65442857Y-132178571D01*
X65300000Y-132178571D01*
X65085714Y-132107142D01*
X64942857Y-131964285D01*
X64871428Y-131821428D01*
X64800000Y-131535714D01*
X64800000Y-131321428D01*
X64871428Y-131035714D01*
X64942857Y-130892857D01*
X65085714Y-130750000D01*
X65300000Y-130678571D01*
X65442857Y-130678571D01*
X65657142Y-130750000D01*
X65728571Y-130821428D01*
D13*
X109038095Y-96452380D02*
X109038095Y-95452380D01*
X109419047Y-95452380D01*
X109514285Y-95500000D01*
X109561904Y-95547619D01*
X109609523Y-95642857D01*
X109609523Y-95785714D01*
X109561904Y-95880952D01*
X109514285Y-95928571D01*
X109419047Y-95976190D01*
X109038095Y-95976190D01*
G36*
X100867529Y-134842664D02*
G01*
X101001024Y-134882697D01*
X101009138Y-134886376D01*
X101143615Y-134972641D01*
X101260497Y-135092387D01*
X101347592Y-135231518D01*
X101379345Y-135314466D01*
X101405429Y-135481293D01*
X101391099Y-135648411D01*
X101340040Y-135806136D01*
X101255934Y-135944787D01*
X101142465Y-136054681D01*
X101083712Y-136091684D01*
X100995946Y-136138949D01*
X100995946Y-136502352D01*
X100994171Y-136668238D01*
X100987608Y-136793072D01*
X100974399Y-136884748D01*
X100952685Y-136951163D01*
X100920608Y-137000212D01*
X100876308Y-137039788D01*
X100868043Y-137045712D01*
X100783679Y-137078069D01*
X100682069Y-137078510D01*
X100582714Y-137047584D01*
X100563965Y-137037158D01*
X100516710Y-137000900D01*
X100481886Y-136953150D01*
X100457750Y-136886574D01*
X100442561Y-136793834D01*
X100434580Y-136667594D01*
X100432064Y-136500517D01*
X100432046Y-136481294D01*
X100431516Y-136342732D01*
X100429303Y-136245508D01*
X100424470Y-136181932D01*
X100416080Y-136144313D01*
X100403196Y-136124960D01*
X100387676Y-136117021D01*
X100335276Y-136085945D01*
X100267806Y-136027165D01*
X100197691Y-135953578D01*
X100137356Y-135878081D01*
X100102620Y-135821154D01*
X100044773Y-135646683D01*
X100032386Y-135471296D01*
X100062870Y-135302169D01*
X100133637Y-135146475D01*
X100242097Y-135011390D01*
X100385663Y-134904089D01*
X100444305Y-134874160D01*
X100569793Y-134837977D01*
X100717327Y-134827617D01*
X100867529Y-134842664D01*
G37*
G36*
X115696274Y-133116754D02*
G01*
X115735472Y-133117369D01*
X116169110Y-133124420D01*
X116243902Y-133196138D01*
X116313892Y-133290816D01*
X116336746Y-133392937D01*
X116311608Y-133497942D01*
X116303559Y-133513818D01*
X116278308Y-133547707D01*
X116222847Y-133613640D01*
X116140513Y-133707901D01*
X116034648Y-133826773D01*
X115908589Y-133966539D01*
X115765675Y-134123484D01*
X115609247Y-134293891D01*
X115442642Y-134474044D01*
X115387644Y-134533231D01*
X115218895Y-134715480D01*
X115059689Y-134889080D01*
X114913308Y-135050337D01*
X114783035Y-135195558D01*
X114672150Y-135321049D01*
X114583936Y-135423117D01*
X114521675Y-135498069D01*
X114488649Y-135542211D01*
X114484733Y-135549367D01*
X114465429Y-135614812D01*
X114472215Y-135672628D01*
X114487665Y-135713378D01*
X114508742Y-135746716D01*
X114557686Y-135814980D01*
X114631848Y-135914717D01*
X114728578Y-136042472D01*
X114845226Y-136194790D01*
X114979143Y-136368218D01*
X115127678Y-136559301D01*
X115288182Y-136764584D01*
X115458006Y-136980613D01*
X115519293Y-137058296D01*
X115717568Y-137309430D01*
X115887616Y-137525082D01*
X116031604Y-137708248D01*
X116151701Y-137861925D01*
X116250074Y-137989110D01*
X116328889Y-138092799D01*
X116390315Y-138175988D01*
X116436518Y-138241675D01*
X116469666Y-138292854D01*
X116491927Y-138332524D01*
X116505468Y-138363681D01*
X116512456Y-138389320D01*
X116515059Y-138412440D01*
X116515444Y-138435512D01*
X116509151Y-138517505D01*
X116483671Y-138576444D01*
X116440006Y-138626685D01*
X116364568Y-138702123D01*
X115844785Y-138702123D01*
X115664231Y-138701520D01*
X115526422Y-138699443D01*
X115425081Y-138695486D01*
X115353928Y-138689248D01*
X115306687Y-138680325D01*
X115277079Y-138668312D01*
X115272474Y-138665330D01*
X115246937Y-138639326D01*
X115193940Y-138578930D01*
X115116693Y-138488006D01*
X115018408Y-138370420D01*
X114902295Y-138230038D01*
X114771566Y-138070723D01*
X114629432Y-137896343D01*
X114479104Y-137710761D01*
X114467850Y-137696822D01*
X114316637Y-137510061D01*
X114173045Y-137333798D01*
X114040340Y-137171965D01*
X113921784Y-137028493D01*
X113820644Y-136907313D01*
X113740182Y-136812355D01*
X113683663Y-136747551D01*
X113654351Y-136716832D01*
X113653510Y-136716144D01*
X113569205Y-136676740D01*
X113490371Y-136666701D01*
X113451330Y-136668140D01*
X113416541Y-136676244D01*
X113379325Y-136696080D01*
X113333003Y-136732715D01*
X113270896Y-136791215D01*
X113186324Y-136876645D01*
X113110569Y-136954781D01*
X113013368Y-137058001D01*
X112926546Y-137155160D01*
X112856868Y-137238307D01*
X112811096Y-137299492D01*
X112797973Y-137322233D01*
X112786267Y-137363229D01*
X112777365Y-137427936D01*
X112770994Y-137521660D01*
X112766879Y-137649710D01*
X112764747Y-137817394D01*
X112764285Y-137976187D01*
X112764285Y-138551247D01*
X112613409Y-138702123D01*
X112131077Y-138702001D01*
X111965293Y-138701717D01*
X111841217Y-138700469D01*
X111751523Y-138697524D01*
X111688885Y-138692146D01*
X111645975Y-138683601D01*
X111615468Y-138671154D01*
X111590038Y-138654071D01*
X111580953Y-138646837D01*
X111526435Y-138583496D01*
X111489380Y-138507429D01*
X111489013Y-138506146D01*
X111485108Y-138467848D01*
X111481542Y-138384553D01*
X111478316Y-138260297D01*
X111475429Y-138099116D01*
X111472880Y-137905048D01*
X111470670Y-137682127D01*
X111468797Y-137434391D01*
X111467262Y-137165876D01*
X111466065Y-136880618D01*
X111465204Y-136582654D01*
X111464679Y-136276020D01*
X111464490Y-135964752D01*
X111464638Y-135652886D01*
X111465120Y-135344460D01*
X111465938Y-135043509D01*
X111467090Y-134754070D01*
X111468576Y-134480179D01*
X111470396Y-134225872D01*
X111472550Y-133995186D01*
X111475036Y-133792157D01*
X111477856Y-133620821D01*
X111481008Y-133485216D01*
X111484492Y-133389376D01*
X111488307Y-133337339D01*
X111489481Y-133330997D01*
X111524480Y-133252969D01*
X111575390Y-133185552D01*
X111577131Y-133183893D01*
X111600059Y-133163609D01*
X111624341Y-133148557D01*
X111657180Y-133137956D01*
X111705780Y-133131027D01*
X111777343Y-133126988D01*
X111879072Y-133125061D01*
X112018171Y-133124464D01*
X112126235Y-133124420D01*
X112281352Y-133123675D01*
X112410249Y-133124198D01*
X112515343Y-133130127D01*
X112599053Y-133145597D01*
X112663795Y-133174747D01*
X112711987Y-133221713D01*
X112746047Y-133290632D01*
X112768393Y-133385642D01*
X112781442Y-133510880D01*
X112787612Y-133670483D01*
X112789320Y-133868587D01*
X112788983Y-134109331D01*
X112788803Y-134258236D01*
X112788855Y-134498398D01*
X112789497Y-134694443D01*
X112791455Y-134851289D01*
X112795455Y-134973851D01*
X112802224Y-135067048D01*
X112812488Y-135135797D01*
X112826973Y-135185015D01*
X112846407Y-135219620D01*
X112871514Y-135244528D01*
X112903022Y-135264657D01*
X112940374Y-135284259D01*
X112974351Y-135301410D01*
X113005592Y-135313730D01*
X113036921Y-135318822D01*
X113071165Y-135314283D01*
X113111149Y-135297715D01*
X113159699Y-135266716D01*
X113219640Y-135218887D01*
X113293797Y-135151828D01*
X113384997Y-135063137D01*
X113496064Y-134950416D01*
X113629825Y-134811263D01*
X113789105Y-134643279D01*
X113976730Y-134444064D01*
X114163704Y-134245085D01*
X114344422Y-134053369D01*
X114517021Y-133871506D01*
X114678269Y-133702816D01*
X114824938Y-133550620D01*
X114953798Y-133418239D01*
X115061620Y-133308995D01*
X115145172Y-133226207D01*
X115201227Y-133173198D01*
X115224642Y-133154145D01*
X115258256Y-133138164D01*
X115299229Y-133126848D01*
X115355541Y-133119623D01*
X115435167Y-133115916D01*
X115546085Y-133115151D01*
X115696274Y-133116754D01*
G37*
G36*
X93674097Y-133113228D02*
G01*
X93797969Y-133120715D01*
X93895464Y-133132035D01*
X93955830Y-133147187D01*
X93959188Y-133148798D01*
X93985410Y-133161535D01*
X94008332Y-133172970D01*
X94028176Y-133186290D01*
X94045162Y-133204684D01*
X94059511Y-133231338D01*
X94071445Y-133269443D01*
X94081186Y-133322184D01*
X94088953Y-133392750D01*
X94094969Y-133484330D01*
X94099454Y-133600110D01*
X94102629Y-133743279D01*
X94104716Y-133917025D01*
X94105937Y-134124536D01*
X94106511Y-134368999D01*
X94106660Y-134653604D01*
X94106605Y-134981536D01*
X94106563Y-135273265D01*
X94106563Y-137251836D01*
X94169433Y-137326552D01*
X94235833Y-137383689D01*
X94314334Y-137423823D01*
X94322666Y-137426366D01*
X94369944Y-137432480D01*
X94463225Y-137437859D01*
X94599484Y-137442442D01*
X94775694Y-137446166D01*
X94988830Y-137448970D01*
X95235865Y-137450794D01*
X95513773Y-137451575D01*
X95568170Y-137451600D01*
X95836147Y-137451688D01*
X96059448Y-137452004D01*
X96242429Y-137452728D01*
X96389450Y-137454040D01*
X96504869Y-137456120D01*
X96593042Y-137459151D01*
X96658329Y-137463311D01*
X96705086Y-137468781D01*
X96737673Y-137475743D01*
X96760448Y-137484375D01*
X96777767Y-137494859D01*
X96787319Y-137502087D01*
X96827856Y-137541729D01*
X96858060Y-137592692D01*
X96879095Y-137661795D01*
X96892126Y-137755860D01*
X96898317Y-137881705D01*
X96898831Y-138046150D01*
X96897295Y-138146422D01*
X96889285Y-138559157D01*
X96729149Y-138702123D01*
X94860086Y-138701578D01*
X94511705Y-138701417D01*
X94209047Y-138701102D01*
X93948803Y-138700560D01*
X93727660Y-138699716D01*
X93542308Y-138698496D01*
X93389436Y-138696827D01*
X93265733Y-138694635D01*
X93167887Y-138691845D01*
X93092589Y-138688383D01*
X93036526Y-138684177D01*
X92996389Y-138679151D01*
X92968865Y-138673232D01*
X92950645Y-138666346D01*
X92938728Y-138658673D01*
X92887558Y-138605391D01*
X92859047Y-138562760D01*
X92854270Y-138537097D01*
X92849999Y-138478783D01*
X92846219Y-138386287D01*
X92842913Y-138258082D01*
X92840067Y-138092639D01*
X92837664Y-137888428D01*
X92835688Y-137643921D01*
X92834125Y-137357589D01*
X92832957Y-137027904D01*
X92832170Y-136653336D01*
X92831747Y-136232357D01*
X92831660Y-135901951D01*
X92831601Y-135481697D01*
X92831522Y-135107715D01*
X92831572Y-134777243D01*
X92831898Y-134487519D01*
X92832648Y-134235780D01*
X92833970Y-134019265D01*
X92836011Y-133835210D01*
X92838920Y-133680854D01*
X92842845Y-133553435D01*
X92847933Y-133450190D01*
X92854333Y-133368357D01*
X92862191Y-133305173D01*
X92871656Y-133257877D01*
X92882876Y-133223706D01*
X92895999Y-133199898D01*
X92911173Y-133183691D01*
X92928544Y-133172322D01*
X92948262Y-133163030D01*
X92970474Y-133153051D01*
X92979035Y-133148798D01*
X93035385Y-133133287D01*
X93129868Y-133121610D01*
X93251733Y-133113765D01*
X93390227Y-133109753D01*
X93534599Y-133109574D01*
X93674097Y-133113228D01*
G37*
G36*
X136521639Y-135485197D02*
G01*
X136521727Y-135117211D01*
X136521934Y-134792643D01*
X136522313Y-134508681D01*
X136522913Y-134262519D01*
X136523786Y-134051345D01*
X136524982Y-133872352D01*
X136526552Y-133722730D01*
X136528546Y-133599669D01*
X136531016Y-133500362D01*
X136534011Y-133421999D01*
X136537583Y-133361770D01*
X136541783Y-133316868D01*
X136546661Y-133284481D01*
X136552267Y-133261803D01*
X136558653Y-133246022D01*
X136565869Y-133234331D01*
X136569825Y-133229115D01*
X136591007Y-133203152D01*
X136613079Y-133181212D01*
X136640078Y-133162991D01*
X136676040Y-133148189D01*
X136725004Y-133136503D01*
X136791005Y-133127631D01*
X136878080Y-133121271D01*
X136990268Y-133117122D01*
X137131605Y-133114882D01*
X137306127Y-133114248D01*
X137517873Y-133114918D01*
X137770878Y-133116592D01*
X138045280Y-133118772D01*
X138340541Y-133121236D01*
X138591731Y-133123719D01*
X138803814Y-133126641D01*
X138981750Y-133130426D01*
X139130505Y-133135496D01*
X139255039Y-133142272D01*
X139360315Y-133151177D01*
X139451296Y-133162633D01*
X139532945Y-133177063D01*
X139610224Y-133194889D01*
X139688095Y-133216532D01*
X139771522Y-133242415D01*
X139865466Y-133272961D01*
X139868243Y-133273870D01*
X140193091Y-133404840D01*
X140503034Y-133578088D01*
X140792122Y-133788528D01*
X141054407Y-134031077D01*
X141283942Y-134300648D01*
X141474777Y-134592157D01*
X141528866Y-134693532D01*
X141656831Y-134999929D01*
X141745279Y-135328353D01*
X141793701Y-135671118D01*
X141801590Y-136020539D01*
X141768435Y-136368931D01*
X141693728Y-136708607D01*
X141667896Y-136793126D01*
X141536741Y-137119734D01*
X141363084Y-137427438D01*
X141151252Y-137711887D01*
X140905570Y-137968729D01*
X140630362Y-138193614D01*
X140329954Y-138382189D01*
X140008670Y-138530103D01*
X139904411Y-138567387D01*
X139814987Y-138596787D01*
X139733830Y-138621758D01*
X139656079Y-138642695D01*
X139576875Y-138659991D01*
X139491355Y-138674040D01*
X139394660Y-138685236D01*
X139281929Y-138693973D01*
X139148301Y-138700644D01*
X138988917Y-138705643D01*
X138798915Y-138709365D01*
X138573435Y-138712202D01*
X138307616Y-138714549D01*
X138066216Y-138716313D01*
X137818706Y-138717797D01*
X137585455Y-138718705D01*
X137371169Y-138719053D01*
X137180551Y-138718857D01*
X137018304Y-138718132D01*
X136889133Y-138716894D01*
X136797743Y-138715158D01*
X136748836Y-138712940D01*
X136742278Y-138711942D01*
X136640977Y-138664900D01*
X136577064Y-138608382D01*
X136556306Y-138575491D01*
X136550684Y-138558584D01*
X136545684Y-138529083D01*
X136541271Y-138484344D01*
X136537411Y-138421719D01*
X136534069Y-138338563D01*
X136531212Y-138232228D01*
X136528805Y-138100070D01*
X136526813Y-137939440D01*
X136525202Y-137747694D01*
X136523938Y-137522184D01*
X136522988Y-137260264D01*
X136522315Y-136959288D01*
X136521887Y-136616610D01*
X136521668Y-136229583D01*
X136521621Y-135899802D01*
X137134556Y-135899802D01*
X137134824Y-136322284D01*
X137135635Y-136696497D01*
X137136999Y-137023204D01*
X137138924Y-137303167D01*
X137141420Y-137537149D01*
X137144496Y-137725912D01*
X137148161Y-137870220D01*
X137152425Y-137970835D01*
X137157297Y-138028519D01*
X137160638Y-138043078D01*
X137198825Y-138088804D01*
X137257489Y-138135820D01*
X137264837Y-138140543D01*
X137286113Y-138152718D01*
X137310286Y-138162614D01*
X137342201Y-138170414D01*
X137386701Y-138176298D01*
X137448631Y-138180452D01*
X137532835Y-138183055D01*
X137644156Y-138184292D01*
X137787440Y-138184345D01*
X137967530Y-138183396D01*
X138189270Y-138181627D01*
X138323648Y-138180436D01*
X138571259Y-138178067D01*
X138775285Y-138175656D01*
X138941176Y-138172913D01*
X139074382Y-138169548D01*
X139180353Y-138165272D01*
X139264539Y-138159795D01*
X139332388Y-138152827D01*
X139389352Y-138144079D01*
X139440879Y-138133260D01*
X139492420Y-138120083D01*
X139500482Y-138117886D01*
X139819719Y-138006084D01*
X140112650Y-137854049D01*
X140376670Y-137664475D01*
X140609170Y-137440057D01*
X140807544Y-137183489D01*
X140969186Y-136897465D01*
X141091487Y-136584680D01*
X141134749Y-136428733D01*
X141172973Y-136206645D01*
X141188776Y-135960317D01*
X141182173Y-135709107D01*
X141153181Y-135472376D01*
X141133874Y-135380019D01*
X141035254Y-135070512D01*
X140894654Y-134779142D01*
X140716028Y-134510917D01*
X140503331Y-134270846D01*
X140260516Y-134063939D01*
X139991538Y-133895204D01*
X139941795Y-133869837D01*
X139833241Y-133817072D01*
X139736902Y-133773193D01*
X139646872Y-133737325D01*
X139557247Y-133708596D01*
X139462122Y-133686132D01*
X139355590Y-133669061D01*
X139231748Y-133656508D01*
X139084690Y-133647601D01*
X138908512Y-133641466D01*
X138697307Y-133637230D01*
X138445170Y-133634020D01*
X138339666Y-133632911D01*
X138083596Y-133630455D01*
X137871852Y-133629111D01*
X137699729Y-133629332D01*
X137562524Y-133631570D01*
X137455533Y-133636275D01*
X137374049Y-133643900D01*
X137313370Y-133654897D01*
X137268792Y-133669716D01*
X137235609Y-133688810D01*
X137209117Y-133712630D01*
X137184613Y-133741628D01*
X137182759Y-133743980D01*
X137174273Y-133755883D01*
X137166846Y-133770712D01*
X137160407Y-133791620D01*
X137154886Y-133821760D01*
X137150212Y-133864285D01*
X137146315Y-133922348D01*
X137143124Y-133999103D01*
X137140569Y-134097703D01*
X137138580Y-134221300D01*
X137137085Y-134373049D01*
X137136014Y-134556101D01*
X137135297Y-134773610D01*
X137134863Y-135028729D01*
X137134643Y-135324612D01*
X137134564Y-135664411D01*
X137134556Y-135899802D01*
X136521621Y-135899802D01*
X136521621Y-135899408D01*
X136521639Y-135485197D01*
G37*
G36*
X130294594Y-134506405D02*
G01*
X130295469Y-134252814D01*
X130296970Y-134034498D01*
X130299256Y-133848705D01*
X130302483Y-133692685D01*
X130306811Y-133563685D01*
X130312396Y-133458953D01*
X130319397Y-133375737D01*
X130327971Y-133311286D01*
X130338276Y-133262848D01*
X130350469Y-133227671D01*
X130364709Y-133203003D01*
X130381153Y-133186093D01*
X130399959Y-133174188D01*
X130421285Y-133164537D01*
X130445288Y-133154388D01*
X130453453Y-133150637D01*
X130476658Y-133141241D01*
X130505987Y-133133444D01*
X130545674Y-133127144D01*
X130599952Y-133122239D01*
X130673057Y-133118628D01*
X130769221Y-133116210D01*
X130892678Y-133114884D01*
X131047664Y-133114548D01*
X131238411Y-133115102D01*
X131469153Y-133116442D01*
X131744125Y-133118470D01*
X131784601Y-133118788D01*
X132069690Y-133121206D01*
X132310246Y-133123684D01*
X132510767Y-133126391D01*
X132675755Y-133129499D01*
X132809711Y-133133177D01*
X132917133Y-133137595D01*
X133002524Y-133142924D01*
X133070383Y-133149334D01*
X133125210Y-133156996D01*
X133171507Y-133166078D01*
X133196703Y-133172188D01*
X133503516Y-133273312D01*
X133777687Y-133409476D01*
X134017970Y-133579686D01*
X134223120Y-133782951D01*
X134391891Y-134018277D01*
X134487613Y-134201314D01*
X134550531Y-134354694D01*
X134594899Y-134501817D01*
X134623255Y-134656414D01*
X134638139Y-134832214D01*
X134642105Y-135036776D01*
X134635617Y-135259062D01*
X134614927Y-135447942D01*
X134576789Y-135617805D01*
X134517957Y-135783041D01*
X134435182Y-135958040D01*
X134433524Y-135961231D01*
X134310605Y-136154843D01*
X134151294Y-136340366D01*
X133967990Y-136504857D01*
X133805145Y-136616954D01*
X133686254Y-136696230D01*
X133608907Y-136770858D01*
X133567150Y-136848370D01*
X133555019Y-136933434D01*
X133556253Y-136953269D01*
X133561527Y-136975681D01*
X133573204Y-137004167D01*
X133593643Y-137042221D01*
X133625204Y-137093339D01*
X133670249Y-137161016D01*
X133731137Y-137248749D01*
X133810230Y-137360031D01*
X133909888Y-137498358D01*
X134032471Y-137667227D01*
X134180341Y-137870131D01*
X134277591Y-138003378D01*
X134375673Y-138139113D01*
X134464975Y-138265325D01*
X134541009Y-138375462D01*
X134599293Y-138462974D01*
X134635340Y-138521309D01*
X134644119Y-138538731D01*
X134657218Y-138588206D01*
X134644334Y-138625309D01*
X134598412Y-138670336D01*
X134598376Y-138670366D01*
X134556230Y-138702680D01*
X134514430Y-138720048D01*
X134457598Y-138725594D01*
X134370356Y-138722437D01*
X134348532Y-138721076D01*
X134247994Y-138709871D01*
X134163430Y-138691839D01*
X134114248Y-138672144D01*
X134088092Y-138644442D01*
X134037100Y-138581054D01*
X133964593Y-138486440D01*
X133873890Y-138365060D01*
X133768313Y-138221374D01*
X133651181Y-138059841D01*
X133525815Y-137884923D01*
X133474627Y-137812941D01*
X133311827Y-137584695D01*
X133174808Y-137395291D01*
X133062097Y-137242809D01*
X132972222Y-137125326D01*
X132903712Y-137040922D01*
X132855095Y-136987673D01*
X132824900Y-136963659D01*
X132823716Y-136963137D01*
X132783922Y-136954767D01*
X132708172Y-136948368D01*
X132594023Y-136943884D01*
X132439031Y-136941260D01*
X132240752Y-136940439D01*
X131996741Y-136941366D01*
X131902989Y-136942069D01*
X131050174Y-136949131D01*
X130978658Y-137029199D01*
X130907143Y-137109267D01*
X130906781Y-137801496D01*
X130905937Y-138028494D01*
X130903571Y-138210039D01*
X130899537Y-138349696D01*
X130893690Y-138451027D01*
X130885884Y-138517595D01*
X130876134Y-138552655D01*
X130806352Y-138638316D01*
X130707650Y-138693566D01*
X130593110Y-138713302D01*
X130498509Y-138699987D01*
X130430439Y-138665497D01*
X130365241Y-138610707D01*
X130357534Y-138601998D01*
X130294208Y-138526739D01*
X130294208Y-135928561D01*
X130294153Y-135506350D01*
X130294094Y-135130421D01*
X130294121Y-135037170D01*
X130907143Y-135037170D01*
X130907698Y-135361339D01*
X130909367Y-135636532D01*
X130912149Y-135862794D01*
X130916045Y-136040173D01*
X130921057Y-136168712D01*
X130927185Y-136248460D01*
X130933225Y-136277827D01*
X130971441Y-136323529D01*
X131030145Y-136370435D01*
X131037423Y-136375094D01*
X131059457Y-136387586D01*
X131084593Y-136397667D01*
X131117861Y-136405543D01*
X131164290Y-136411419D01*
X131228910Y-136415502D01*
X131316750Y-136417997D01*
X131432840Y-136419110D01*
X131582209Y-136419047D01*
X131769887Y-136418015D01*
X132000902Y-136416219D01*
X132034942Y-136415935D01*
X132954343Y-136408245D01*
X133152405Y-136341836D01*
X133398596Y-136236404D01*
X133612149Y-136097291D01*
X133790561Y-135927058D01*
X133931329Y-135728266D01*
X134031948Y-135503476D01*
X134058288Y-135415044D01*
X134084287Y-135269358D01*
X134096521Y-135097685D01*
X134094989Y-134919375D01*
X134079689Y-134753779D01*
X134058360Y-134646495D01*
X133972205Y-134418064D01*
X133844692Y-134210871D01*
X133680405Y-134029017D01*
X133483926Y-133876602D01*
X133259842Y-133757728D01*
X133012735Y-133676495D01*
X132961506Y-133665238D01*
X132879668Y-133653810D01*
X132760906Y-133644199D01*
X132612385Y-133636416D01*
X132441273Y-133630476D01*
X132254735Y-133626390D01*
X132059938Y-133624171D01*
X131864047Y-133623833D01*
X131674229Y-133625387D01*
X131497650Y-133628847D01*
X131341476Y-133634226D01*
X131212873Y-133641535D01*
X131119008Y-133650788D01*
X131067346Y-133661871D01*
X131032292Y-133676877D01*
X131002764Y-133692874D01*
X130978288Y-133713930D01*
X130958391Y-133744114D01*
X130942599Y-133787497D01*
X130930437Y-133848147D01*
X130921431Y-133930133D01*
X130915108Y-134037524D01*
X130910994Y-134174390D01*
X130908614Y-134344800D01*
X130907494Y-134552823D01*
X130907161Y-134802528D01*
X130907143Y-135037170D01*
X130294121Y-135037170D01*
X130294189Y-134798024D01*
X130294594Y-134506405D01*
G37*
G36*
X124491280Y-135928101D02*
G01*
X124630694Y-135624901D01*
X124769309Y-135324575D01*
X124905574Y-135030495D01*
X125037941Y-134746037D01*
X125164860Y-134474572D01*
X125284781Y-134219476D01*
X125396155Y-133984121D01*
X125497433Y-133771881D01*
X125587064Y-133586130D01*
X125663500Y-133430240D01*
X125725191Y-133307586D01*
X125770588Y-133221541D01*
X125798141Y-133175479D01*
X125803965Y-133168903D01*
X125871482Y-133140400D01*
X125976180Y-133122814D01*
X126064961Y-133116701D01*
X126110584Y-133113285D01*
X126150855Y-133108821D01*
X126187078Y-133105579D01*
X126220555Y-133105829D01*
X126252587Y-133111842D01*
X126284479Y-133125888D01*
X126317531Y-133150235D01*
X126353047Y-133187155D01*
X126392328Y-133238918D01*
X126436677Y-133307792D01*
X126487397Y-133396049D01*
X126545790Y-133505958D01*
X126613159Y-133639789D01*
X126690804Y-133799813D01*
X126780030Y-133988298D01*
X126882139Y-134207516D01*
X126998432Y-134459736D01*
X127130213Y-134747229D01*
X127278783Y-135072263D01*
X127445446Y-135437110D01*
X127631503Y-135844038D01*
X127638376Y-135859059D01*
X127825876Y-136269402D01*
X127999807Y-136651331D01*
X128159491Y-137003326D01*
X128304252Y-137323863D01*
X128433411Y-137611421D01*
X128546291Y-137864477D01*
X128642215Y-138081510D01*
X128720505Y-138260997D01*
X128780483Y-138401416D01*
X128821473Y-138501245D01*
X128842796Y-138558961D01*
X128845894Y-138572017D01*
X128827611Y-138650326D01*
X128768712Y-138701343D01*
X128669425Y-138724908D01*
X128624636Y-138726640D01*
X128489240Y-138719414D01*
X128389517Y-138695484D01*
X128313951Y-138651472D01*
X128288439Y-138628029D01*
X128258543Y-138584603D01*
X128212639Y-138500713D01*
X128153156Y-138381330D01*
X128082525Y-138231427D01*
X128003176Y-138055975D01*
X127952799Y-137941439D01*
X127869889Y-137752331D01*
X127803117Y-137603421D01*
X127749849Y-137489607D01*
X127707452Y-137405789D01*
X127673291Y-137346865D01*
X127644732Y-137307734D01*
X127619140Y-137283295D01*
X127609556Y-137276743D01*
X127592083Y-137267263D01*
X127570176Y-137259195D01*
X127539994Y-137252427D01*
X127497690Y-137246845D01*
X127439424Y-137242334D01*
X127361350Y-137238782D01*
X127259626Y-137236073D01*
X127130408Y-137234095D01*
X126969853Y-137232733D01*
X126774117Y-137231873D01*
X126539356Y-137231402D01*
X126261728Y-137231206D01*
X126071477Y-137231172D01*
X124606951Y-137231081D01*
X124533987Y-137298503D01*
X124496122Y-137347486D01*
X124441624Y-137440013D01*
X124370209Y-137576629D01*
X124281591Y-137757879D01*
X124179714Y-137975145D01*
X124103868Y-138137809D01*
X124032662Y-138287529D01*
X123969211Y-138417987D01*
X123916632Y-138522864D01*
X123878040Y-138595844D01*
X123856550Y-138630609D01*
X123856338Y-138630847D01*
X123786488Y-138678205D01*
X123686407Y-138710362D01*
X123573175Y-138725014D01*
X123463868Y-138719856D01*
X123380309Y-138695064D01*
X123325463Y-138642179D01*
X123311151Y-138596251D01*
X123319956Y-138562685D01*
X123348105Y-138488136D01*
X123394049Y-138375979D01*
X123456237Y-138229586D01*
X123533120Y-138052332D01*
X123623150Y-137847590D01*
X123724775Y-137618733D01*
X123836448Y-137369134D01*
X123956617Y-137102169D01*
X124083735Y-136821209D01*
X124216251Y-136529629D01*
X124242695Y-136471680D01*
X124900386Y-136471680D01*
X124916466Y-136544337D01*
X124969571Y-136618220D01*
X124983745Y-136632857D01*
X125067104Y-136716216D01*
X127106176Y-136716216D01*
X127180966Y-136648793D01*
X127213403Y-136618897D01*
X127239185Y-136590364D01*
X127257175Y-136559228D01*
X127266235Y-136521522D01*
X127265226Y-136473280D01*
X127253011Y-136410538D01*
X127228451Y-136329327D01*
X127190410Y-136225684D01*
X127137748Y-136095640D01*
X127069328Y-135935232D01*
X126984011Y-135740491D01*
X126880661Y-135507454D01*
X126804157Y-135335550D01*
X126707241Y-135118396D01*
X126615312Y-134913507D01*
X126530497Y-134725539D01*
X126454919Y-134559151D01*
X126390702Y-134419001D01*
X126339970Y-134309746D01*
X126304849Y-134236046D01*
X126287512Y-134202635D01*
X126238853Y-134157076D01*
X126168376Y-134120240D01*
X126154398Y-134115564D01*
X126048822Y-134102218D01*
X125958160Y-134131855D01*
X125879183Y-134206419D01*
X125811319Y-134322158D01*
X125745849Y-134463514D01*
X125671472Y-134627934D01*
X125590433Y-134810124D01*
X125504972Y-135004794D01*
X125417335Y-135206649D01*
X125329762Y-135410398D01*
X125244498Y-135610747D01*
X125163785Y-135802405D01*
X125089865Y-135980079D01*
X125024983Y-136138476D01*
X124971381Y-136272304D01*
X124931301Y-136376270D01*
X124906987Y-136445082D01*
X124900386Y-136471680D01*
X124242695Y-136471680D01*
X124352616Y-136230802D01*
X124491280Y-135928101D01*
G37*
G36*
X120867161Y-133084091D02*
G01*
X121161212Y-133127858D01*
X121369884Y-133177785D01*
X121520173Y-133227953D01*
X121679911Y-133293205D01*
X121841072Y-133369047D01*
X121995633Y-133450985D01*
X122135570Y-133534522D01*
X122252858Y-133615165D01*
X122339474Y-133688419D01*
X122385976Y-133746947D01*
X122419520Y-133855508D01*
X122413173Y-133961528D01*
X122371378Y-134054412D01*
X122298578Y-134123568D01*
X122214416Y-134156015D01*
X122135749Y-134163949D01*
X122065011Y-134151833D01*
X121988301Y-134114902D01*
X121891719Y-134048389D01*
X121884349Y-134042874D01*
X121745034Y-133951112D01*
X121574872Y-133858716D01*
X121391231Y-133773969D01*
X121211480Y-133705149D01*
X121112451Y-133674875D01*
X120905938Y-133633632D01*
X120672282Y-133610816D01*
X120429975Y-133606907D01*
X120197508Y-133622389D01*
X120040991Y-133646962D01*
X119752643Y-133723162D01*
X119492197Y-133828820D01*
X119250078Y-133969171D01*
X119016708Y-134149452D01*
X118866722Y-134288996D01*
X118652715Y-134523703D01*
X118483120Y-134762978D01*
X118353440Y-135014884D01*
X118259178Y-135287489D01*
X118221365Y-135446408D01*
X118199361Y-135596476D01*
X118186896Y-135774330D01*
X118184029Y-135962967D01*
X118190818Y-136145381D01*
X118207323Y-136304567D01*
X118218179Y-136365240D01*
X118311685Y-136692074D01*
X118446403Y-136995030D01*
X118619305Y-137271379D01*
X118827364Y-137518390D01*
X119067551Y-137733333D01*
X119336839Y-137913478D01*
X119632199Y-138056094D01*
X119950604Y-138158451D01*
X120270488Y-138215779D01*
X120589129Y-138227826D01*
X120909618Y-138193461D01*
X121225147Y-138114540D01*
X121528909Y-137992915D01*
X121814097Y-137830440D01*
X121896482Y-137772937D01*
X122000554Y-137702231D01*
X122079431Y-137662092D01*
X122142194Y-137648026D01*
X122149003Y-137647876D01*
X122263686Y-137668545D01*
X122355238Y-137724526D01*
X122417879Y-137806778D01*
X122445827Y-137906258D01*
X122433302Y-138013926D01*
X122413491Y-138061540D01*
X122377212Y-138106276D01*
X122311355Y-138165954D01*
X122228125Y-138229850D01*
X122198964Y-138250009D01*
X121862229Y-138448413D01*
X121513258Y-138599578D01*
X121152686Y-138703236D01*
X121099585Y-138714286D01*
X120998054Y-138729788D01*
X120865720Y-138743453D01*
X120716017Y-138754579D01*
X120562376Y-138762464D01*
X120418233Y-138766406D01*
X120297019Y-138765703D01*
X120217567Y-138760384D01*
X119819526Y-138688262D01*
X119450338Y-138576797D01*
X119108971Y-138425518D01*
X118794393Y-138233957D01*
X118505571Y-138001644D01*
X118464823Y-137963651D01*
X118210333Y-137689558D01*
X117996855Y-137391574D01*
X117825429Y-137073470D01*
X117697096Y-136739018D01*
X117612898Y-136391989D01*
X117573876Y-136036155D01*
X117581070Y-135675287D01*
X117635521Y-135313158D01*
X117682179Y-135127961D01*
X117803597Y-134792374D01*
X117967411Y-134476793D01*
X118169935Y-134184462D01*
X118407483Y-133918624D01*
X118676371Y-133682523D01*
X118972913Y-133479401D01*
X119293423Y-133312503D01*
X119634216Y-133185072D01*
X119984652Y-133101549D01*
X120261327Y-133069971D01*
X120561348Y-133064474D01*
X120867161Y-133084091D01*
G37*
G36*
X97657319Y-135545392D02*
G01*
X97685302Y-135367760D01*
X97779482Y-135022392D01*
X97916368Y-134688073D01*
X98091243Y-134375036D01*
X98237848Y-134168806D01*
X98348069Y-134028512D01*
X98348555Y-133674535D01*
X98351697Y-133459636D01*
X98351905Y-133455897D01*
X99034556Y-133455897D01*
X99256536Y-133344412D01*
X99383337Y-133284798D01*
X99525504Y-133224221D01*
X99657759Y-133173301D01*
X99692678Y-133161176D01*
X99966827Y-133083412D01*
X100245762Y-133034112D01*
X100544824Y-133010982D01*
X100713996Y-133008538D01*
X101100786Y-133030197D01*
X101464411Y-133092855D01*
X101810522Y-133197838D01*
X102136004Y-133341950D01*
X102225150Y-133387633D01*
X102297595Y-133424552D01*
X102342356Y-133447118D01*
X102350531Y-133451098D01*
X102363541Y-133436698D01*
X102368732Y-133385635D01*
X102366696Y-133309552D01*
X102358027Y-133220093D01*
X102343320Y-133128901D01*
X102331446Y-133076668D01*
X102249791Y-132852966D01*
X102125459Y-132636136D01*
X101964670Y-132436749D01*
X101940015Y-132411245D01*
X101719521Y-132221724D01*
X101476422Y-132074042D01*
X101215401Y-131969295D01*
X100941140Y-131908583D01*
X100658324Y-131893002D01*
X100371634Y-131923651D01*
X100129051Y-131986655D01*
X99907875Y-132080993D01*
X99700853Y-132209285D01*
X99512969Y-132365438D01*
X99349203Y-132543361D01*
X99214536Y-132736961D01*
X99113951Y-132940145D01*
X99052428Y-133146820D01*
X99034556Y-133325255D01*
X99034556Y-133455897D01*
X98351905Y-133455897D01*
X98361649Y-133280582D01*
X98380171Y-133124445D01*
X98409026Y-132978298D01*
X98449975Y-132829212D01*
X98473961Y-132754265D01*
X98582183Y-132495987D01*
X98731002Y-132242481D01*
X98912354Y-132004582D01*
X99118179Y-131793127D01*
X99295521Y-131649943D01*
X99463872Y-131543955D01*
X99661937Y-131441806D01*
X99870644Y-131352236D01*
X100070919Y-131283989D01*
X100127051Y-131268842D01*
X100325180Y-131232760D01*
X100551839Y-131213607D01*
X100789540Y-131211383D01*
X101020794Y-131226088D01*
X101228113Y-131257723D01*
X101276423Y-131268842D01*
X101470377Y-131328903D01*
X101678543Y-131412935D01*
X101881848Y-131512196D01*
X102061216Y-131617944D01*
X102107953Y-131649943D01*
X102258577Y-131772059D01*
X102414765Y-131924039D01*
X102562469Y-132090803D01*
X102687644Y-132257272D01*
X102720036Y-132307036D01*
X102841136Y-132528306D01*
X102933227Y-132760200D01*
X102998230Y-133010636D01*
X103038067Y-133287530D01*
X103054661Y-133598799D01*
X103055405Y-133688530D01*
X103056280Y-133838040D01*
X103059338Y-133945691D01*
X103065230Y-134018632D01*
X103074605Y-134064015D01*
X103088114Y-134088990D01*
X103092157Y-134092837D01*
X103159111Y-134163475D01*
X103237766Y-134270563D01*
X103322788Y-134404568D01*
X103408846Y-134555958D01*
X103490605Y-134715201D01*
X103562735Y-134872764D01*
X103619901Y-135019117D01*
X103633900Y-135061191D01*
X103721915Y-135417739D01*
X103762336Y-135774919D01*
X103756431Y-136129247D01*
X103705467Y-136477242D01*
X103610713Y-136815420D01*
X103473435Y-137140299D01*
X103294903Y-137448397D01*
X103076382Y-137736232D01*
X102819142Y-138000320D01*
X102524450Y-138237180D01*
X102461963Y-138280415D01*
X102148237Y-138464299D01*
X101807581Y-138612882D01*
X101451200Y-138721684D01*
X101256296Y-138762297D01*
X101105026Y-138781243D01*
X100921117Y-138792900D01*
X100719891Y-138797290D01*
X100516671Y-138794438D01*
X100326780Y-138784365D01*
X100165541Y-138767095D01*
X100125579Y-138760609D01*
X99757408Y-138670951D01*
X99403587Y-138538103D01*
X99069251Y-138365190D01*
X98759538Y-138155332D01*
X98479583Y-137911654D01*
X98234523Y-137637277D01*
X98196866Y-137588023D01*
X98066850Y-137393229D01*
X97943271Y-137169775D01*
X97834722Y-136935354D01*
X97749796Y-136707660D01*
X97719928Y-136605888D01*
X97671102Y-136360532D01*
X97644050Y-136089797D01*
X97640561Y-135886325D01*
X98948589Y-135886325D01*
X98957916Y-136149458D01*
X98995575Y-136360714D01*
X99089379Y-136635418D01*
X99221134Y-136884961D01*
X99386498Y-137106686D01*
X99581132Y-137297935D01*
X99800693Y-137456050D01*
X100040842Y-137578372D01*
X100297238Y-137662244D01*
X100565539Y-137705008D01*
X100841406Y-137704006D01*
X101114384Y-137658133D01*
X101198167Y-137631467D01*
X101307612Y-137589024D01*
X101425010Y-137537903D01*
X101483929Y-137509950D01*
X101616658Y-137439627D01*
X101725379Y-137367654D01*
X101830251Y-137279590D01*
X101903006Y-137209756D01*
X102098833Y-136986823D01*
X102248342Y-136750954D01*
X102353512Y-136497676D01*
X102416321Y-136222518D01*
X102436591Y-136004593D01*
X102434402Y-135760459D01*
X102403009Y-135537833D01*
X102338800Y-135319832D01*
X102242696Y-135098757D01*
X102130614Y-134913045D01*
X101982371Y-134729875D01*
X101809905Y-134561320D01*
X101625154Y-134419459D01*
X101495186Y-134342644D01*
X101226722Y-134230875D01*
X100953116Y-134165668D01*
X100678911Y-134145513D01*
X100408650Y-134168904D01*
X100146878Y-134234332D01*
X99898136Y-134340289D01*
X99666969Y-134485268D01*
X99457919Y-134667760D01*
X99275532Y-134886259D01*
X99130236Y-135127510D01*
X99036269Y-135361428D01*
X98975213Y-135619007D01*
X98948589Y-135886325D01*
X97640561Y-135886325D01*
X97639286Y-135811983D01*
X97657319Y-135545392D01*
G37*
G36*
X107947800Y-133016764D02*
G01*
X108174768Y-133028530D01*
X108387570Y-133050527D01*
X108571577Y-133082230D01*
X108622935Y-133094587D01*
X108961815Y-133200993D01*
X109273831Y-133337157D01*
X109572776Y-133509766D01*
X109784904Y-133658301D01*
X109909915Y-133760643D01*
X109993905Y-133853409D01*
X110036594Y-133941936D01*
X110037697Y-134031559D01*
X109996935Y-134127616D01*
X109914024Y-134235441D01*
X109788682Y-134360373D01*
X109745746Y-134399324D01*
X109626834Y-134504127D01*
X109536085Y-134579628D01*
X109466258Y-134630452D01*
X109410112Y-134661224D01*
X109360405Y-134676567D01*
X109309897Y-134681107D01*
X109304470Y-134681145D01*
X109250024Y-134674421D01*
X109192073Y-134650082D01*
X109119130Y-134602119D01*
X109047038Y-134546523D01*
X108795039Y-134376136D01*
X108520613Y-134248421D01*
X108326131Y-134187872D01*
X108219077Y-134163629D01*
X108121864Y-134149553D01*
X108016783Y-134144195D01*
X107886125Y-134146104D01*
X107837997Y-134147932D01*
X107553155Y-134177329D01*
X107297326Y-134242682D01*
X107062928Y-134347307D01*
X106842381Y-134494519D01*
X106646601Y-134669015D01*
X106456115Y-134891961D01*
X106308467Y-135136066D01*
X106204552Y-135397089D01*
X106145264Y-135670787D01*
X106131498Y-135952921D01*
X106164148Y-136239247D01*
X106244110Y-136525526D01*
X106251035Y-136544214D01*
X106335362Y-136738143D01*
X106436189Y-136907638D01*
X106563541Y-137067384D01*
X106708838Y-137214685D01*
X106931553Y-137396048D01*
X107167265Y-137531729D01*
X107420349Y-137623433D01*
X107695183Y-137672870D01*
X107909845Y-137683250D01*
X108208737Y-137661641D01*
X108485382Y-137597041D01*
X108738759Y-137489791D01*
X108967843Y-137340233D01*
X108988875Y-137323372D01*
X109094258Y-137239608D01*
X109172468Y-137183884D01*
X109232439Y-137151066D01*
X109283105Y-137136017D01*
X109319594Y-137133302D01*
X109364998Y-137137504D01*
X109411321Y-137153066D01*
X109464827Y-137184480D01*
X109531775Y-137236239D01*
X109618429Y-137312839D01*
X109731050Y-137418771D01*
X109771551Y-137457631D01*
X110018339Y-137695126D01*
X110018339Y-137819520D01*
X110015130Y-137892899D01*
X109999616Y-137945261D01*
X109962971Y-137995472D01*
X109911584Y-138047668D01*
X109838840Y-138111773D01*
X109743003Y-138187457D01*
X109642535Y-138260267D01*
X109623505Y-138273216D01*
X109290573Y-138470110D01*
X108945404Y-138621067D01*
X108585480Y-138726739D01*
X108208287Y-138787778D01*
X107811308Y-138804836D01*
X107603378Y-138796999D01*
X107235198Y-138749886D01*
X106877552Y-138657314D01*
X106534764Y-138522089D01*
X106211156Y-138347020D01*
X105911047Y-138134915D01*
X105638761Y-137888581D01*
X105398620Y-137610827D01*
X105194944Y-137304461D01*
X105133847Y-137192493D01*
X104986852Y-136858088D01*
X104886535Y-136518760D01*
X104831216Y-136177686D01*
X104819212Y-135838044D01*
X104848840Y-135503011D01*
X104918419Y-135175762D01*
X105026266Y-134859476D01*
X105170699Y-134557330D01*
X105350036Y-134272499D01*
X105562595Y-134008162D01*
X105806694Y-133767495D01*
X106080651Y-133553676D01*
X106382783Y-133369880D01*
X106711409Y-133219286D01*
X107064846Y-133105070D01*
X107328206Y-133048101D01*
X107509889Y-133026024D01*
X107721297Y-133015753D01*
X107947800Y-133016764D01*
G37*
D15*
X73940000Y-69857836D02*
X73940000Y-69642164D01*
X74660000Y-69857836D02*
X74660000Y-69642164D01*
X76192164Y-81390000D02*
X76407836Y-81390000D01*
X76192164Y-82110000D02*
X76407836Y-82110000D01*
X78192164Y-82110000D02*
X78407836Y-82110000D01*
X78192164Y-81390000D02*
X78407836Y-81390000D01*
X77785000Y-70485000D02*
X77785000Y-69015000D01*
X75500000Y-70485000D02*
X77785000Y-70485000D01*
X77785000Y-69015000D02*
X75500000Y-69015000D01*
D13*
X74175000Y-79000000D02*
X74175000Y-77500000D01*
X77425000Y-80500000D02*
X77425000Y-77500000D01*
D15*
X78680000Y-69913641D02*
X78680000Y-69606359D01*
X77920000Y-69913641D02*
X77920000Y-69606359D01*
X74192164Y-81390000D02*
X74407836Y-81390000D01*
X74192164Y-82110000D02*
X74407836Y-82110000D01*
%LPC*%
D12*
X33500000Y-51000000D02*
X36500000Y-51000000D01*
X36500000Y-51000000D02*
X36500000Y-54000000D01*
X36500000Y-54000000D02*
X33500000Y-54000000D01*
X33500000Y-54000000D02*
X33500000Y-51000000D01*
G36*
X33500000Y-51000000D02*
G01*
X36500000Y-51000000D01*
X36500000Y-54000000D01*
X33500000Y-54000000D01*
X33500000Y-51000000D01*
G37*
X33500000Y-105250000D02*
X35100000Y-105250000D01*
X35100000Y-105250000D02*
X35100000Y-106750000D01*
X35100000Y-106750000D02*
X33500000Y-106750000D01*
X33500000Y-106750000D02*
X33500000Y-105250000D01*
G36*
X33500000Y-105250000D02*
G01*
X35100000Y-105250000D01*
X35100000Y-106750000D01*
X33500000Y-106750000D01*
X33500000Y-105250000D01*
G37*
X114500000Y-95250000D02*
X116100000Y-95250000D01*
X116100000Y-95250000D02*
X116100000Y-96750000D01*
X116100000Y-96750000D02*
X114500000Y-96750000D01*
X114500000Y-96750000D02*
X114500000Y-95250000D01*
G36*
X114500000Y-95250000D02*
G01*
X116100000Y-95250000D01*
X116100000Y-96750000D01*
X114500000Y-96750000D01*
X114500000Y-95250000D01*
G37*
X39100000Y-116750000D02*
X37500000Y-116750000D01*
X37500000Y-116750000D02*
X37500000Y-115250000D01*
X37500000Y-115250000D02*
X39100000Y-115250000D01*
X39100000Y-115250000D02*
X39100000Y-116750000D01*
G36*
X39100000Y-116750000D02*
G01*
X37500000Y-116750000D01*
X37500000Y-115250000D01*
X39100000Y-115250000D01*
X39100000Y-116750000D01*
G37*
X43500000Y-113250000D02*
X45100000Y-113250000D01*
X45100000Y-113250000D02*
X45100000Y-114750000D01*
X45100000Y-114750000D02*
X43500000Y-114750000D01*
X43500000Y-114750000D02*
X43500000Y-113250000D01*
G36*
X43500000Y-113250000D02*
G01*
X45100000Y-113250000D01*
X45100000Y-114750000D01*
X43500000Y-114750000D01*
X43500000Y-113250000D01*
G37*
X108485648Y-99241953D02*
X110085648Y-99241953D01*
X110085648Y-99241953D02*
X110085648Y-100741953D01*
X110085648Y-100741953D02*
X108485648Y-100741953D01*
X108485648Y-100741953D02*
X108485648Y-99241953D01*
G36*
X108485648Y-99241953D02*
G01*
X110085648Y-99241953D01*
X110085648Y-100741953D01*
X108485648Y-100741953D01*
X108485648Y-99241953D01*
G37*
X112500000Y-103250000D02*
X114100000Y-103250000D01*
X114100000Y-103250000D02*
X114100000Y-104750000D01*
X114100000Y-104750000D02*
X112500000Y-104750000D01*
X112500000Y-104750000D02*
X112500000Y-103250000D01*
G36*
X112500000Y-103250000D02*
G01*
X114100000Y-103250000D01*
X114100000Y-104750000D01*
X112500000Y-104750000D01*
X112500000Y-103250000D01*
G37*
X92500000Y-91250000D02*
X94100000Y-91250000D01*
X94100000Y-91250000D02*
X94100000Y-92750000D01*
X94100000Y-92750000D02*
X92500000Y-92750000D01*
X92500000Y-92750000D02*
X92500000Y-91250000D01*
G36*
X92500000Y-91250000D02*
G01*
X94100000Y-91250000D01*
X94100000Y-92750000D01*
X92500000Y-92750000D01*
X92500000Y-91250000D01*
G37*
X102100000Y-104750000D02*
X100500000Y-104750000D01*
X100500000Y-104750000D02*
X100500000Y-103250000D01*
X100500000Y-103250000D02*
X102100000Y-103250000D01*
X102100000Y-103250000D02*
X102100000Y-104750000D01*
G36*
X102100000Y-104750000D02*
G01*
X100500000Y-104750000D01*
X100500000Y-103250000D01*
X102100000Y-103250000D01*
X102100000Y-104750000D01*
G37*
X126500000Y-115250000D02*
X128100000Y-115250000D01*
X128100000Y-115250000D02*
X128100000Y-116750000D01*
X128100000Y-116750000D02*
X126500000Y-116750000D01*
X126500000Y-116750000D02*
X126500000Y-115250000D01*
G36*
X126500000Y-115250000D02*
G01*
X128100000Y-115250000D01*
X128100000Y-116750000D01*
X126500000Y-116750000D01*
X126500000Y-115250000D01*
G37*
X92500000Y-103250000D02*
X94100000Y-103250000D01*
X94100000Y-103250000D02*
X94100000Y-104750000D01*
X94100000Y-104750000D02*
X92500000Y-104750000D01*
X92500000Y-104750000D02*
X92500000Y-103250000D01*
G36*
X92500000Y-103250000D02*
G01*
X94100000Y-103250000D01*
X94100000Y-104750000D01*
X92500000Y-104750000D01*
X92500000Y-103250000D01*
G37*
X33500000Y-111250000D02*
X35100000Y-111250000D01*
X35100000Y-111250000D02*
X35100000Y-112750000D01*
X35100000Y-112750000D02*
X33500000Y-112750000D01*
X33500000Y-112750000D02*
X33500000Y-111250000D01*
G36*
X33500000Y-111250000D02*
G01*
X35100000Y-111250000D01*
X35100000Y-112750000D01*
X33500000Y-112750000D01*
X33500000Y-111250000D01*
G37*
X92500000Y-115250000D02*
X94100000Y-115250000D01*
X94100000Y-115250000D02*
X94100000Y-116750000D01*
X94100000Y-116750000D02*
X92500000Y-116750000D01*
X92500000Y-116750000D02*
X92500000Y-115250000D01*
G36*
X92500000Y-115250000D02*
G01*
X94100000Y-115250000D01*
X94100000Y-116750000D01*
X92500000Y-116750000D01*
X92500000Y-115250000D01*
G37*
X35500000Y-89250000D02*
X37100000Y-89250000D01*
X37100000Y-89250000D02*
X37100000Y-90750000D01*
X37100000Y-90750000D02*
X35500000Y-90750000D01*
X35500000Y-90750000D02*
X35500000Y-89250000D01*
G36*
X35500000Y-89250000D02*
G01*
X37100000Y-89250000D01*
X37100000Y-90750000D01*
X35500000Y-90750000D01*
X35500000Y-89250000D01*
G37*
X122100000Y-94750000D02*
X120500000Y-94750000D01*
X120500000Y-94750000D02*
X120500000Y-93250000D01*
X120500000Y-93250000D02*
X122100000Y-93250000D01*
X122100000Y-93250000D02*
X122100000Y-94750000D01*
G36*
X122100000Y-94750000D02*
G01*
X120500000Y-94750000D01*
X120500000Y-93250000D01*
X122100000Y-93250000D01*
X122100000Y-94750000D01*
G37*
X61100000Y-108750000D02*
X59500000Y-108750000D01*
X59500000Y-108750000D02*
X59500000Y-107250000D01*
X59500000Y-107250000D02*
X61100000Y-107250000D01*
X61100000Y-107250000D02*
X61100000Y-108750000D01*
G36*
X61100000Y-108750000D02*
G01*
X59500000Y-108750000D01*
X59500000Y-107250000D01*
X61100000Y-107250000D01*
X61100000Y-108750000D01*
G37*
X96500000Y-93250000D02*
X98100000Y-93250000D01*
X98100000Y-93250000D02*
X98100000Y-94750000D01*
X98100000Y-94750000D02*
X96500000Y-94750000D01*
X96500000Y-94750000D02*
X96500000Y-93250000D01*
G36*
X96500000Y-93250000D02*
G01*
X98100000Y-93250000D01*
X98100000Y-94750000D01*
X96500000Y-94750000D01*
X96500000Y-93250000D01*
G37*
X114500000Y-105250000D02*
X116100000Y-105250000D01*
X116100000Y-105250000D02*
X116100000Y-106750000D01*
X116100000Y-106750000D02*
X114500000Y-106750000D01*
X114500000Y-106750000D02*
X114500000Y-105250000D01*
G36*
X114500000Y-105250000D02*
G01*
X116100000Y-105250000D01*
X116100000Y-106750000D01*
X114500000Y-106750000D01*
X114500000Y-105250000D01*
G37*
X49485648Y-99241953D02*
X51085648Y-99241953D01*
X51085648Y-99241953D02*
X51085648Y-100741953D01*
X51085648Y-100741953D02*
X49485648Y-100741953D01*
X49485648Y-100741953D02*
X49485648Y-99241953D01*
G36*
X49485648Y-99241953D02*
G01*
X51085648Y-99241953D01*
X51085648Y-100741953D01*
X49485648Y-100741953D01*
X49485648Y-99241953D01*
G37*
X33500000Y-47400000D02*
X36500000Y-47400000D01*
X36500000Y-47400000D02*
X36500000Y-50400000D01*
X36500000Y-50400000D02*
X33500000Y-50400000D01*
X33500000Y-50400000D02*
X33500000Y-47400000D01*
G36*
X33500000Y-47400000D02*
G01*
X36500000Y-47400000D01*
X36500000Y-50400000D01*
X33500000Y-50400000D01*
X33500000Y-47400000D01*
G37*
X108500000Y-107250000D02*
X110100000Y-107250000D01*
X110100000Y-107250000D02*
X110100000Y-108750000D01*
X110100000Y-108750000D02*
X108500000Y-108750000D01*
X108500000Y-108750000D02*
X108500000Y-107250000D01*
G36*
X108500000Y-107250000D02*
G01*
X110100000Y-107250000D01*
X110100000Y-108750000D01*
X108500000Y-108750000D01*
X108500000Y-107250000D01*
G37*
X33500000Y-107250000D02*
X35100000Y-107250000D01*
X35100000Y-107250000D02*
X35100000Y-108750000D01*
X35100000Y-108750000D02*
X33500000Y-108750000D01*
X33500000Y-108750000D02*
X33500000Y-107250000D01*
G36*
X33500000Y-107250000D02*
G01*
X35100000Y-107250000D01*
X35100000Y-108750000D01*
X33500000Y-108750000D01*
X33500000Y-107250000D01*
G37*
X35500000Y-97250000D02*
X37100000Y-97250000D01*
X37100000Y-97250000D02*
X37100000Y-98750000D01*
X37100000Y-98750000D02*
X35500000Y-98750000D01*
X35500000Y-98750000D02*
X35500000Y-97250000D01*
G36*
X35500000Y-97250000D02*
G01*
X37100000Y-97250000D01*
X37100000Y-98750000D01*
X35500000Y-98750000D01*
X35500000Y-97250000D01*
G37*
X100500000Y-109250000D02*
X102100000Y-109250000D01*
X102100000Y-109250000D02*
X102100000Y-110750000D01*
X102100000Y-110750000D02*
X100500000Y-110750000D01*
X100500000Y-110750000D02*
X100500000Y-109250000D01*
G36*
X100500000Y-109250000D02*
G01*
X102100000Y-109250000D01*
X102100000Y-110750000D01*
X100500000Y-110750000D01*
X100500000Y-109250000D01*
G37*
X122500000Y-97250000D02*
X124100000Y-97250000D01*
X124100000Y-97250000D02*
X124100000Y-98750000D01*
X124100000Y-98750000D02*
X122500000Y-98750000D01*
X122500000Y-98750000D02*
X122500000Y-97250000D01*
G36*
X122500000Y-97250000D02*
G01*
X124100000Y-97250000D01*
X124100000Y-98750000D01*
X122500000Y-98750000D01*
X122500000Y-97250000D01*
G37*
X94500000Y-91250000D02*
X96100000Y-91250000D01*
X96100000Y-91250000D02*
X96100000Y-92750000D01*
X96100000Y-92750000D02*
X94500000Y-92750000D01*
X94500000Y-92750000D02*
X94500000Y-91250000D01*
G36*
X94500000Y-91250000D02*
G01*
X96100000Y-91250000D01*
X96100000Y-92750000D01*
X94500000Y-92750000D01*
X94500000Y-91250000D01*
G37*
X124500000Y-109250000D02*
X126100000Y-109250000D01*
X126100000Y-109250000D02*
X126100000Y-110750000D01*
X126100000Y-110750000D02*
X124500000Y-110750000D01*
X124500000Y-110750000D02*
X124500000Y-109250000D01*
G36*
X124500000Y-109250000D02*
G01*
X126100000Y-109250000D01*
X126100000Y-110750000D01*
X124500000Y-110750000D01*
X124500000Y-109250000D01*
G37*
X55500000Y-115250000D02*
X57100000Y-115250000D01*
X57100000Y-115250000D02*
X57100000Y-116750000D01*
X57100000Y-116750000D02*
X55500000Y-116750000D01*
X55500000Y-116750000D02*
X55500000Y-115250000D01*
G36*
X55500000Y-115250000D02*
G01*
X57100000Y-115250000D01*
X57100000Y-116750000D01*
X55500000Y-116750000D01*
X55500000Y-115250000D01*
G37*
X126500000Y-89250000D02*
X128100000Y-89250000D01*
X128100000Y-89250000D02*
X128100000Y-90750000D01*
X128100000Y-90750000D02*
X126500000Y-90750000D01*
X126500000Y-90750000D02*
X126500000Y-89250000D01*
G36*
X126500000Y-89250000D02*
G01*
X128100000Y-89250000D01*
X128100000Y-90750000D01*
X126500000Y-90750000D01*
X126500000Y-89250000D01*
G37*
X39100000Y-110750000D02*
X37500000Y-110750000D01*
X37500000Y-110750000D02*
X37500000Y-109250000D01*
X37500000Y-109250000D02*
X39100000Y-109250000D01*
X39100000Y-109250000D02*
X39100000Y-110750000D01*
G36*
X39100000Y-110750000D02*
G01*
X37500000Y-110750000D01*
X37500000Y-109250000D01*
X39100000Y-109250000D01*
X39100000Y-110750000D01*
G37*
X37500000Y-99250000D02*
X39100000Y-99250000D01*
X39100000Y-99250000D02*
X39100000Y-100750000D01*
X39100000Y-100750000D02*
X37500000Y-100750000D01*
X37500000Y-100750000D02*
X37500000Y-99250000D01*
G36*
X37500000Y-99250000D02*
G01*
X39100000Y-99250000D01*
X39100000Y-100750000D01*
X37500000Y-100750000D01*
X37500000Y-99250000D01*
G37*
X47500000Y-103250000D02*
X49100000Y-103250000D01*
X49100000Y-103250000D02*
X49100000Y-104750000D01*
X49100000Y-104750000D02*
X47500000Y-104750000D01*
X47500000Y-104750000D02*
X47500000Y-103250000D01*
G36*
X47500000Y-103250000D02*
G01*
X49100000Y-103250000D01*
X49100000Y-104750000D01*
X47500000Y-104750000D01*
X47500000Y-103250000D01*
G37*
X37500000Y-113250000D02*
X39100000Y-113250000D01*
X39100000Y-113250000D02*
X39100000Y-114750000D01*
X39100000Y-114750000D02*
X37500000Y-114750000D01*
X37500000Y-114750000D02*
X37500000Y-113250000D01*
G36*
X37500000Y-113250000D02*
G01*
X39100000Y-113250000D01*
X39100000Y-114750000D01*
X37500000Y-114750000D01*
X37500000Y-113250000D01*
G37*
X102500000Y-109250000D02*
X104100000Y-109250000D01*
X104100000Y-109250000D02*
X104100000Y-110750000D01*
X104100000Y-110750000D02*
X102500000Y-110750000D01*
X102500000Y-110750000D02*
X102500000Y-109250000D01*
G36*
X102500000Y-109250000D02*
G01*
X104100000Y-109250000D01*
X104100000Y-110750000D01*
X102500000Y-110750000D01*
X102500000Y-109250000D01*
G37*
X110085648Y-102741953D02*
X108485648Y-102741953D01*
X108485648Y-102741953D02*
X108485648Y-101241953D01*
X108485648Y-101241953D02*
X110085648Y-101241953D01*
X110085648Y-101241953D02*
X110085648Y-102741953D01*
G36*
X110085648Y-102741953D02*
G01*
X108485648Y-102741953D01*
X108485648Y-101241953D01*
X110085648Y-101241953D01*
X110085648Y-102741953D01*
G37*
X45500000Y-95250000D02*
X47100000Y-95250000D01*
X47100000Y-95250000D02*
X47100000Y-96750000D01*
X47100000Y-96750000D02*
X45500000Y-96750000D01*
X45500000Y-96750000D02*
X45500000Y-95250000D01*
G36*
X45500000Y-95250000D02*
G01*
X47100000Y-95250000D01*
X47100000Y-96750000D01*
X45500000Y-96750000D01*
X45500000Y-95250000D01*
G37*
X55500000Y-95250000D02*
X57100000Y-95250000D01*
X57100000Y-95250000D02*
X57100000Y-96750000D01*
X57100000Y-96750000D02*
X55500000Y-96750000D01*
X55500000Y-96750000D02*
X55500000Y-95250000D01*
G36*
X55500000Y-95250000D02*
G01*
X57100000Y-95250000D01*
X57100000Y-96750000D01*
X55500000Y-96750000D01*
X55500000Y-95250000D01*
G37*
X63500000Y-97250000D02*
X65100000Y-97250000D01*
X65100000Y-97250000D02*
X65100000Y-98750000D01*
X65100000Y-98750000D02*
X63500000Y-98750000D01*
X63500000Y-98750000D02*
X63500000Y-97250000D01*
G36*
X63500000Y-97250000D02*
G01*
X65100000Y-97250000D01*
X65100000Y-98750000D01*
X63500000Y-98750000D01*
X63500000Y-97250000D01*
G37*
X35500000Y-107250000D02*
X37100000Y-107250000D01*
X37100000Y-107250000D02*
X37100000Y-108750000D01*
X37100000Y-108750000D02*
X35500000Y-108750000D01*
X35500000Y-108750000D02*
X35500000Y-107250000D01*
G36*
X35500000Y-107250000D02*
G01*
X37100000Y-107250000D01*
X37100000Y-108750000D01*
X35500000Y-108750000D01*
X35500000Y-107250000D01*
G37*
X110500000Y-89250000D02*
X112100000Y-89250000D01*
X112100000Y-89250000D02*
X112100000Y-90750000D01*
X112100000Y-90750000D02*
X110500000Y-90750000D01*
X110500000Y-90750000D02*
X110500000Y-89250000D01*
G36*
X110500000Y-89250000D02*
G01*
X112100000Y-89250000D01*
X112100000Y-90750000D01*
X110500000Y-90750000D01*
X110500000Y-89250000D01*
G37*
X104100000Y-112750000D02*
X102500000Y-112750000D01*
X102500000Y-112750000D02*
X102500000Y-111250000D01*
X102500000Y-111250000D02*
X104100000Y-111250000D01*
X104100000Y-111250000D02*
X104100000Y-112750000D01*
G36*
X104100000Y-112750000D02*
G01*
X102500000Y-112750000D01*
X102500000Y-111250000D01*
X104100000Y-111250000D01*
X104100000Y-112750000D01*
G37*
X61500000Y-115250000D02*
X63100000Y-115250000D01*
X63100000Y-115250000D02*
X63100000Y-116750000D01*
X63100000Y-116750000D02*
X61500000Y-116750000D01*
X61500000Y-116750000D02*
X61500000Y-115250000D01*
G36*
X61500000Y-115250000D02*
G01*
X63100000Y-115250000D01*
X63100000Y-116750000D01*
X61500000Y-116750000D01*
X61500000Y-115250000D01*
G37*
X63500000Y-101250000D02*
X65100000Y-101250000D01*
X65100000Y-101250000D02*
X65100000Y-102750000D01*
X65100000Y-102750000D02*
X63500000Y-102750000D01*
X63500000Y-102750000D02*
X63500000Y-101250000D01*
G36*
X63500000Y-101250000D02*
G01*
X65100000Y-101250000D01*
X65100000Y-102750000D01*
X63500000Y-102750000D01*
X63500000Y-101250000D01*
G37*
X45100000Y-112750000D02*
X43500000Y-112750000D01*
X43500000Y-112750000D02*
X43500000Y-111250000D01*
X43500000Y-111250000D02*
X45100000Y-111250000D01*
X45100000Y-111250000D02*
X45100000Y-112750000D01*
G36*
X45100000Y-112750000D02*
G01*
X43500000Y-112750000D01*
X43500000Y-111250000D01*
X45100000Y-111250000D01*
X45100000Y-112750000D01*
G37*
X118500000Y-95250000D02*
X120100000Y-95250000D01*
X120100000Y-95250000D02*
X120100000Y-96750000D01*
X120100000Y-96750000D02*
X118500000Y-96750000D01*
X118500000Y-96750000D02*
X118500000Y-95250000D01*
G36*
X118500000Y-95250000D02*
G01*
X120100000Y-95250000D01*
X120100000Y-96750000D01*
X118500000Y-96750000D01*
X118500000Y-95250000D01*
G37*
X33500000Y-93250000D02*
X35100000Y-93250000D01*
X35100000Y-93250000D02*
X35100000Y-94750000D01*
X35100000Y-94750000D02*
X33500000Y-94750000D01*
X33500000Y-94750000D02*
X33500000Y-93250000D01*
G36*
X33500000Y-93250000D02*
G01*
X35100000Y-93250000D01*
X35100000Y-94750000D01*
X33500000Y-94750000D01*
X33500000Y-93250000D01*
G37*
X116500000Y-103250000D02*
X118100000Y-103250000D01*
X118100000Y-103250000D02*
X118100000Y-104750000D01*
X118100000Y-104750000D02*
X116500000Y-104750000D01*
X116500000Y-104750000D02*
X116500000Y-103250000D01*
G36*
X116500000Y-103250000D02*
G01*
X118100000Y-103250000D01*
X118100000Y-104750000D01*
X116500000Y-104750000D01*
X116500000Y-103250000D01*
G37*
X94500000Y-107250000D02*
X96100000Y-107250000D01*
X96100000Y-107250000D02*
X96100000Y-108750000D01*
X96100000Y-108750000D02*
X94500000Y-108750000D01*
X94500000Y-108750000D02*
X94500000Y-107250000D01*
G36*
X94500000Y-107250000D02*
G01*
X96100000Y-107250000D01*
X96100000Y-108750000D01*
X94500000Y-108750000D01*
X94500000Y-107250000D01*
G37*
X106500000Y-103250000D02*
X108100000Y-103250000D01*
X108100000Y-103250000D02*
X108100000Y-104750000D01*
X108100000Y-104750000D02*
X106500000Y-104750000D01*
X106500000Y-104750000D02*
X106500000Y-103250000D01*
G36*
X106500000Y-103250000D02*
G01*
X108100000Y-103250000D01*
X108100000Y-104750000D01*
X106500000Y-104750000D01*
X106500000Y-103250000D01*
G37*
X37500000Y-107250000D02*
X39100000Y-107250000D01*
X39100000Y-107250000D02*
X39100000Y-108750000D01*
X39100000Y-108750000D02*
X37500000Y-108750000D01*
X37500000Y-108750000D02*
X37500000Y-107250000D01*
G36*
X37500000Y-107250000D02*
G01*
X39100000Y-107250000D01*
X39100000Y-108750000D01*
X37500000Y-108750000D01*
X37500000Y-107250000D01*
G37*
X39500000Y-105250000D02*
X41100000Y-105250000D01*
X41100000Y-105250000D02*
X41100000Y-106750000D01*
X41100000Y-106750000D02*
X39500000Y-106750000D01*
X39500000Y-106750000D02*
X39500000Y-105250000D01*
G36*
X39500000Y-105250000D02*
G01*
X41100000Y-105250000D01*
X41100000Y-106750000D01*
X39500000Y-106750000D01*
X39500000Y-105250000D01*
G37*
X53500000Y-103250000D02*
X55100000Y-103250000D01*
X55100000Y-103250000D02*
X55100000Y-104750000D01*
X55100000Y-104750000D02*
X53500000Y-104750000D01*
X53500000Y-104750000D02*
X53500000Y-103250000D01*
G36*
X53500000Y-103250000D02*
G01*
X55100000Y-103250000D01*
X55100000Y-104750000D01*
X53500000Y-104750000D01*
X53500000Y-103250000D01*
G37*
X55500000Y-105250000D02*
X57100000Y-105250000D01*
X57100000Y-105250000D02*
X57100000Y-106750000D01*
X57100000Y-106750000D02*
X55500000Y-106750000D01*
X55500000Y-106750000D02*
X55500000Y-105250000D01*
G36*
X55500000Y-105250000D02*
G01*
X57100000Y-105250000D01*
X57100000Y-106750000D01*
X55500000Y-106750000D01*
X55500000Y-105250000D01*
G37*
X35500000Y-91250000D02*
X37100000Y-91250000D01*
X37100000Y-91250000D02*
X37100000Y-92750000D01*
X37100000Y-92750000D02*
X35500000Y-92750000D01*
X35500000Y-92750000D02*
X35500000Y-91250000D01*
G36*
X35500000Y-91250000D02*
G01*
X37100000Y-91250000D01*
X37100000Y-92750000D01*
X35500000Y-92750000D01*
X35500000Y-91250000D01*
G37*
X41500000Y-95250000D02*
X43100000Y-95250000D01*
X43100000Y-95250000D02*
X43100000Y-96750000D01*
X43100000Y-96750000D02*
X41500000Y-96750000D01*
X41500000Y-96750000D02*
X41500000Y-95250000D01*
G36*
X41500000Y-95250000D02*
G01*
X43100000Y-95250000D01*
X43100000Y-96750000D01*
X41500000Y-96750000D01*
X41500000Y-95250000D01*
G37*
X98100000Y-110750000D02*
X96500000Y-110750000D01*
X96500000Y-110750000D02*
X96500000Y-109250000D01*
X96500000Y-109250000D02*
X98100000Y-109250000D01*
X98100000Y-109250000D02*
X98100000Y-110750000D01*
G36*
X98100000Y-110750000D02*
G01*
X96500000Y-110750000D01*
X96500000Y-109250000D01*
X98100000Y-109250000D01*
X98100000Y-110750000D01*
G37*
X35500000Y-89250000D02*
X37100000Y-89250000D01*
X37100000Y-89250000D02*
X37100000Y-90750000D01*
X37100000Y-90750000D02*
X35500000Y-90750000D01*
X35500000Y-90750000D02*
X35500000Y-89250000D01*
G36*
X35500000Y-89250000D02*
G01*
X37100000Y-89250000D01*
X37100000Y-90750000D01*
X35500000Y-90750000D01*
X35500000Y-89250000D01*
G37*
X122500000Y-101250000D02*
X124100000Y-101250000D01*
X124100000Y-101250000D02*
X124100000Y-102750000D01*
X124100000Y-102750000D02*
X122500000Y-102750000D01*
X122500000Y-102750000D02*
X122500000Y-101250000D01*
G36*
X122500000Y-101250000D02*
G01*
X124100000Y-101250000D01*
X124100000Y-102750000D01*
X122500000Y-102750000D01*
X122500000Y-101250000D01*
G37*
X104500000Y-95250000D02*
X106100000Y-95250000D01*
X106100000Y-95250000D02*
X106100000Y-96750000D01*
X106100000Y-96750000D02*
X104500000Y-96750000D01*
X104500000Y-96750000D02*
X104500000Y-95250000D01*
G36*
X104500000Y-95250000D02*
G01*
X106100000Y-95250000D01*
X106100000Y-96750000D01*
X104500000Y-96750000D01*
X104500000Y-95250000D01*
G37*
X104500000Y-89250000D02*
X106100000Y-89250000D01*
X106100000Y-89250000D02*
X106100000Y-90750000D01*
X106100000Y-90750000D02*
X104500000Y-90750000D01*
X104500000Y-90750000D02*
X104500000Y-89250000D01*
G36*
X104500000Y-89250000D02*
G01*
X106100000Y-89250000D01*
X106100000Y-90750000D01*
X104500000Y-90750000D01*
X104500000Y-89250000D01*
G37*
X63100000Y-94750000D02*
X61500000Y-94750000D01*
X61500000Y-94750000D02*
X61500000Y-93250000D01*
X61500000Y-93250000D02*
X63100000Y-93250000D01*
X63100000Y-93250000D02*
X63100000Y-94750000D01*
G36*
X63100000Y-94750000D02*
G01*
X61500000Y-94750000D01*
X61500000Y-93250000D01*
X63100000Y-93250000D01*
X63100000Y-94750000D01*
G37*
X102100000Y-106750000D02*
X100500000Y-106750000D01*
X100500000Y-106750000D02*
X100500000Y-105250000D01*
X100500000Y-105250000D02*
X102100000Y-105250000D01*
X102100000Y-105250000D02*
X102100000Y-106750000D01*
G36*
X102100000Y-106750000D02*
G01*
X100500000Y-106750000D01*
X100500000Y-105250000D01*
X102100000Y-105250000D01*
X102100000Y-106750000D01*
G37*
X94500000Y-111250000D02*
X96100000Y-111250000D01*
X96100000Y-111250000D02*
X96100000Y-112750000D01*
X96100000Y-112750000D02*
X94500000Y-112750000D01*
X94500000Y-112750000D02*
X94500000Y-111250000D01*
G36*
X94500000Y-111250000D02*
G01*
X96100000Y-111250000D01*
X96100000Y-112750000D01*
X94500000Y-112750000D01*
X94500000Y-111250000D01*
G37*
X118500000Y-115250000D02*
X120100000Y-115250000D01*
X120100000Y-115250000D02*
X120100000Y-116750000D01*
X120100000Y-116750000D02*
X118500000Y-116750000D01*
X118500000Y-116750000D02*
X118500000Y-115250000D01*
G36*
X118500000Y-115250000D02*
G01*
X120100000Y-115250000D01*
X120100000Y-116750000D01*
X118500000Y-116750000D01*
X118500000Y-115250000D01*
G37*
X92500000Y-111250000D02*
X94100000Y-111250000D01*
X94100000Y-111250000D02*
X94100000Y-112750000D01*
X94100000Y-112750000D02*
X92500000Y-112750000D01*
X92500000Y-112750000D02*
X92500000Y-111250000D01*
G36*
X92500000Y-111250000D02*
G01*
X94100000Y-111250000D01*
X94100000Y-112750000D01*
X92500000Y-112750000D01*
X92500000Y-111250000D01*
G37*
X118100000Y-96750000D02*
X116500000Y-96750000D01*
X116500000Y-96750000D02*
X116500000Y-95250000D01*
X116500000Y-95250000D02*
X118100000Y-95250000D01*
X118100000Y-95250000D02*
X118100000Y-96750000D01*
G36*
X118100000Y-96750000D02*
G01*
X116500000Y-96750000D01*
X116500000Y-95250000D01*
X118100000Y-95250000D01*
X118100000Y-96750000D01*
G37*
X33500000Y-113250000D02*
X35100000Y-113250000D01*
X35100000Y-113250000D02*
X35100000Y-114750000D01*
X35100000Y-114750000D02*
X33500000Y-114750000D01*
X33500000Y-114750000D02*
X33500000Y-113250000D01*
G36*
X33500000Y-113250000D02*
G01*
X35100000Y-113250000D01*
X35100000Y-114750000D01*
X33500000Y-114750000D01*
X33500000Y-113250000D01*
G37*
X49500000Y-107250000D02*
X51100000Y-107250000D01*
X51100000Y-107250000D02*
X51100000Y-108750000D01*
X51100000Y-108750000D02*
X49500000Y-108750000D01*
X49500000Y-108750000D02*
X49500000Y-107250000D01*
G36*
X49500000Y-107250000D02*
G01*
X51100000Y-107250000D01*
X51100000Y-108750000D01*
X49500000Y-108750000D01*
X49500000Y-107250000D01*
G37*
X43500000Y-109250000D02*
X45100000Y-109250000D01*
X45100000Y-109250000D02*
X45100000Y-110750000D01*
X45100000Y-110750000D02*
X43500000Y-110750000D01*
X43500000Y-110750000D02*
X43500000Y-109250000D01*
G36*
X43500000Y-109250000D02*
G01*
X45100000Y-109250000D01*
X45100000Y-110750000D01*
X43500000Y-110750000D01*
X43500000Y-109250000D01*
G37*
X41500000Y-101250000D02*
X43100000Y-101250000D01*
X43100000Y-101250000D02*
X43100000Y-102750000D01*
X43100000Y-102750000D02*
X41500000Y-102750000D01*
X41500000Y-102750000D02*
X41500000Y-101250000D01*
G36*
X41500000Y-101250000D02*
G01*
X43100000Y-101250000D01*
X43100000Y-102750000D01*
X41500000Y-102750000D01*
X41500000Y-101250000D01*
G37*
X94500000Y-89250000D02*
X96100000Y-89250000D01*
X96100000Y-89250000D02*
X96100000Y-90750000D01*
X96100000Y-90750000D02*
X94500000Y-90750000D01*
X94500000Y-90750000D02*
X94500000Y-89250000D01*
G36*
X94500000Y-89250000D02*
G01*
X96100000Y-89250000D01*
X96100000Y-90750000D01*
X94500000Y-90750000D01*
X94500000Y-89250000D01*
G37*
X47100000Y-112750000D02*
X45500000Y-112750000D01*
X45500000Y-112750000D02*
X45500000Y-111250000D01*
X45500000Y-111250000D02*
X47100000Y-111250000D01*
X47100000Y-111250000D02*
X47100000Y-112750000D01*
G36*
X47100000Y-112750000D02*
G01*
X45500000Y-112750000D01*
X45500000Y-111250000D01*
X47100000Y-111250000D01*
X47100000Y-112750000D01*
G37*
X51500000Y-89250000D02*
X53100000Y-89250000D01*
X53100000Y-89250000D02*
X53100000Y-90750000D01*
X53100000Y-90750000D02*
X51500000Y-90750000D01*
X51500000Y-90750000D02*
X51500000Y-89250000D01*
G36*
X51500000Y-89250000D02*
G01*
X53100000Y-89250000D01*
X53100000Y-90750000D01*
X51500000Y-90750000D01*
X51500000Y-89250000D01*
G37*
X100100000Y-112750000D02*
X98500000Y-112750000D01*
X98500000Y-112750000D02*
X98500000Y-111250000D01*
X98500000Y-111250000D02*
X100100000Y-111250000D01*
X100100000Y-111250000D02*
X100100000Y-112750000D01*
G36*
X100100000Y-112750000D02*
G01*
X98500000Y-112750000D01*
X98500000Y-111250000D01*
X100100000Y-111250000D01*
X100100000Y-112750000D01*
G37*
X102500000Y-113250000D02*
X104100000Y-113250000D01*
X104100000Y-113250000D02*
X104100000Y-114750000D01*
X104100000Y-114750000D02*
X102500000Y-114750000D01*
X102500000Y-114750000D02*
X102500000Y-113250000D01*
G36*
X102500000Y-113250000D02*
G01*
X104100000Y-113250000D01*
X104100000Y-114750000D01*
X102500000Y-114750000D01*
X102500000Y-113250000D01*
G37*
X41500000Y-109250000D02*
X43100000Y-109250000D01*
X43100000Y-109250000D02*
X43100000Y-110750000D01*
X43100000Y-110750000D02*
X41500000Y-110750000D01*
X41500000Y-110750000D02*
X41500000Y-109250000D01*
G36*
X41500000Y-109250000D02*
G01*
X43100000Y-109250000D01*
X43100000Y-110750000D01*
X41500000Y-110750000D01*
X41500000Y-109250000D01*
G37*
X106100000Y-112750000D02*
X104500000Y-112750000D01*
X104500000Y-112750000D02*
X104500000Y-111250000D01*
X104500000Y-111250000D02*
X106100000Y-111250000D01*
X106100000Y-111250000D02*
X106100000Y-112750000D01*
G36*
X106100000Y-112750000D02*
G01*
X104500000Y-112750000D01*
X104500000Y-111250000D01*
X106100000Y-111250000D01*
X106100000Y-112750000D01*
G37*
X120500000Y-115250000D02*
X122100000Y-115250000D01*
X122100000Y-115250000D02*
X122100000Y-116750000D01*
X122100000Y-116750000D02*
X120500000Y-116750000D01*
X120500000Y-116750000D02*
X120500000Y-115250000D01*
G36*
X120500000Y-115250000D02*
G01*
X122100000Y-115250000D01*
X122100000Y-116750000D01*
X120500000Y-116750000D01*
X120500000Y-115250000D01*
G37*
X37500000Y-93250000D02*
X39100000Y-93250000D01*
X39100000Y-93250000D02*
X39100000Y-94750000D01*
X39100000Y-94750000D02*
X37500000Y-94750000D01*
X37500000Y-94750000D02*
X37500000Y-93250000D01*
G36*
X37500000Y-93250000D02*
G01*
X39100000Y-93250000D01*
X39100000Y-94750000D01*
X37500000Y-94750000D01*
X37500000Y-93250000D01*
G37*
X92500000Y-105250000D02*
X94100000Y-105250000D01*
X94100000Y-105250000D02*
X94100000Y-106750000D01*
X94100000Y-106750000D02*
X92500000Y-106750000D01*
X92500000Y-106750000D02*
X92500000Y-105250000D01*
G36*
X92500000Y-105250000D02*
G01*
X94100000Y-105250000D01*
X94100000Y-106750000D01*
X92500000Y-106750000D01*
X92500000Y-105250000D01*
G37*
X94500000Y-97250000D02*
X96100000Y-97250000D01*
X96100000Y-97250000D02*
X96100000Y-98750000D01*
X96100000Y-98750000D02*
X94500000Y-98750000D01*
X94500000Y-98750000D02*
X94500000Y-97250000D01*
G36*
X94500000Y-97250000D02*
G01*
X96100000Y-97250000D01*
X96100000Y-98750000D01*
X94500000Y-98750000D01*
X94500000Y-97250000D01*
G37*
X112500000Y-107250000D02*
X114100000Y-107250000D01*
X114100000Y-107250000D02*
X114100000Y-108750000D01*
X114100000Y-108750000D02*
X112500000Y-108750000D01*
X112500000Y-108750000D02*
X112500000Y-107250000D01*
G36*
X112500000Y-107250000D02*
G01*
X114100000Y-107250000D01*
X114100000Y-108750000D01*
X112500000Y-108750000D01*
X112500000Y-107250000D01*
G37*
X104500000Y-109250000D02*
X106100000Y-109250000D01*
X106100000Y-109250000D02*
X106100000Y-110750000D01*
X106100000Y-110750000D02*
X104500000Y-110750000D01*
X104500000Y-110750000D02*
X104500000Y-109250000D01*
G36*
X104500000Y-109250000D02*
G01*
X106100000Y-109250000D01*
X106100000Y-110750000D01*
X104500000Y-110750000D01*
X104500000Y-109250000D01*
G37*
X33500000Y-115250000D02*
X35100000Y-115250000D01*
X35100000Y-115250000D02*
X35100000Y-116750000D01*
X35100000Y-116750000D02*
X33500000Y-116750000D01*
X33500000Y-116750000D02*
X33500000Y-115250000D01*
G36*
X33500000Y-115250000D02*
G01*
X35100000Y-115250000D01*
X35100000Y-116750000D01*
X33500000Y-116750000D01*
X33500000Y-115250000D01*
G37*
X92500000Y-113250000D02*
X94100000Y-113250000D01*
X94100000Y-113250000D02*
X94100000Y-114750000D01*
X94100000Y-114750000D02*
X92500000Y-114750000D01*
X92500000Y-114750000D02*
X92500000Y-113250000D01*
G36*
X92500000Y-113250000D02*
G01*
X94100000Y-113250000D01*
X94100000Y-114750000D01*
X92500000Y-114750000D01*
X92500000Y-113250000D01*
G37*
X43100000Y-104750000D02*
X41500000Y-104750000D01*
X41500000Y-104750000D02*
X41500000Y-103250000D01*
X41500000Y-103250000D02*
X43100000Y-103250000D01*
X43100000Y-103250000D02*
X43100000Y-104750000D01*
G36*
X43100000Y-104750000D02*
G01*
X41500000Y-104750000D01*
X41500000Y-103250000D01*
X43100000Y-103250000D01*
X43100000Y-104750000D01*
G37*
X98500000Y-105250000D02*
X100100000Y-105250000D01*
X100100000Y-105250000D02*
X100100000Y-106750000D01*
X100100000Y-106750000D02*
X98500000Y-106750000D01*
X98500000Y-106750000D02*
X98500000Y-105250000D01*
G36*
X98500000Y-105250000D02*
G01*
X100100000Y-105250000D01*
X100100000Y-106750000D01*
X98500000Y-106750000D01*
X98500000Y-105250000D01*
G37*
X96500000Y-107250000D02*
X98100000Y-107250000D01*
X98100000Y-107250000D02*
X98100000Y-108750000D01*
X98100000Y-108750000D02*
X96500000Y-108750000D01*
X96500000Y-108750000D02*
X96500000Y-107250000D01*
G36*
X96500000Y-107250000D02*
G01*
X98100000Y-107250000D01*
X98100000Y-108750000D01*
X96500000Y-108750000D01*
X96500000Y-107250000D01*
G37*
X77500000Y-107250000D02*
X79100000Y-107250000D01*
X79100000Y-107250000D02*
X79100000Y-108750000D01*
X79100000Y-108750000D02*
X77500000Y-108750000D01*
X77500000Y-108750000D02*
X77500000Y-107250000D01*
G36*
X77500000Y-107250000D02*
G01*
X79100000Y-107250000D01*
X79100000Y-108750000D01*
X77500000Y-108750000D01*
X77500000Y-107250000D01*
G37*
X108100000Y-106750000D02*
X106500000Y-106750000D01*
X106500000Y-106750000D02*
X106500000Y-105250000D01*
X106500000Y-105250000D02*
X108100000Y-105250000D01*
X108100000Y-105250000D02*
X108100000Y-106750000D01*
G36*
X108100000Y-106750000D02*
G01*
X106500000Y-106750000D01*
X106500000Y-105250000D01*
X108100000Y-105250000D01*
X108100000Y-106750000D01*
G37*
X45500000Y-89250000D02*
X47100000Y-89250000D01*
X47100000Y-89250000D02*
X47100000Y-90750000D01*
X47100000Y-90750000D02*
X45500000Y-90750000D01*
X45500000Y-90750000D02*
X45500000Y-89250000D01*
G36*
X45500000Y-89250000D02*
G01*
X47100000Y-89250000D01*
X47100000Y-90750000D01*
X45500000Y-90750000D01*
X45500000Y-89250000D01*
G37*
X59500000Y-95250000D02*
X61100000Y-95250000D01*
X61100000Y-95250000D02*
X61100000Y-96750000D01*
X61100000Y-96750000D02*
X59500000Y-96750000D01*
X59500000Y-96750000D02*
X59500000Y-95250000D01*
G36*
X59500000Y-95250000D02*
G01*
X61100000Y-95250000D01*
X61100000Y-96750000D01*
X59500000Y-96750000D01*
X59500000Y-95250000D01*
G37*
X98500000Y-99250000D02*
X100100000Y-99250000D01*
X100100000Y-99250000D02*
X100100000Y-100750000D01*
X100100000Y-100750000D02*
X98500000Y-100750000D01*
X98500000Y-100750000D02*
X98500000Y-99250000D01*
G36*
X98500000Y-99250000D02*
G01*
X100100000Y-99250000D01*
X100100000Y-100750000D01*
X98500000Y-100750000D01*
X98500000Y-99250000D01*
G37*
X92500000Y-107250000D02*
X94100000Y-107250000D01*
X94100000Y-107250000D02*
X94100000Y-108750000D01*
X94100000Y-108750000D02*
X92500000Y-108750000D01*
X92500000Y-108750000D02*
X92500000Y-107250000D01*
G36*
X92500000Y-107250000D02*
G01*
X94100000Y-107250000D01*
X94100000Y-108750000D01*
X92500000Y-108750000D01*
X92500000Y-107250000D01*
G37*
X136500000Y-107250000D02*
X138100000Y-107250000D01*
X138100000Y-107250000D02*
X138100000Y-108750000D01*
X138100000Y-108750000D02*
X136500000Y-108750000D01*
X136500000Y-108750000D02*
X136500000Y-107250000D01*
G36*
X136500000Y-107250000D02*
G01*
X138100000Y-107250000D01*
X138100000Y-108750000D01*
X136500000Y-108750000D01*
X136500000Y-107250000D01*
G37*
X92500000Y-93250000D02*
X94100000Y-93250000D01*
X94100000Y-93250000D02*
X94100000Y-94750000D01*
X94100000Y-94750000D02*
X92500000Y-94750000D01*
X92500000Y-94750000D02*
X92500000Y-93250000D01*
G36*
X92500000Y-93250000D02*
G01*
X94100000Y-93250000D01*
X94100000Y-94750000D01*
X92500000Y-94750000D01*
X92500000Y-93250000D01*
G37*
X41100000Y-112750000D02*
X39500000Y-112750000D01*
X39500000Y-112750000D02*
X39500000Y-111250000D01*
X39500000Y-111250000D02*
X41100000Y-111250000D01*
X41100000Y-111250000D02*
X41100000Y-112750000D01*
G36*
X41100000Y-112750000D02*
G01*
X39500000Y-112750000D01*
X39500000Y-111250000D01*
X41100000Y-111250000D01*
X41100000Y-112750000D01*
G37*
X67500000Y-115250000D02*
X69100000Y-115250000D01*
X69100000Y-115250000D02*
X69100000Y-116750000D01*
X69100000Y-116750000D02*
X67500000Y-116750000D01*
X67500000Y-116750000D02*
X67500000Y-115250000D01*
G36*
X67500000Y-115250000D02*
G01*
X69100000Y-115250000D01*
X69100000Y-116750000D01*
X67500000Y-116750000D01*
X67500000Y-115250000D01*
G37*
X33500000Y-103250000D02*
X35100000Y-103250000D01*
X35100000Y-103250000D02*
X35100000Y-104750000D01*
X35100000Y-104750000D02*
X33500000Y-104750000D01*
X33500000Y-104750000D02*
X33500000Y-103250000D01*
G36*
X33500000Y-103250000D02*
G01*
X35100000Y-103250000D01*
X35100000Y-104750000D01*
X33500000Y-104750000D01*
X33500000Y-103250000D01*
G37*
X67500000Y-89250000D02*
X69100000Y-89250000D01*
X69100000Y-89250000D02*
X69100000Y-90750000D01*
X69100000Y-90750000D02*
X67500000Y-90750000D01*
X67500000Y-90750000D02*
X67500000Y-89250000D01*
G36*
X67500000Y-89250000D02*
G01*
X69100000Y-89250000D01*
X69100000Y-90750000D01*
X67500000Y-90750000D01*
X67500000Y-89250000D01*
G37*
X49100000Y-106750000D02*
X47500000Y-106750000D01*
X47500000Y-106750000D02*
X47500000Y-105250000D01*
X47500000Y-105250000D02*
X49100000Y-105250000D01*
X49100000Y-105250000D02*
X49100000Y-106750000D01*
G36*
X49100000Y-106750000D02*
G01*
X47500000Y-106750000D01*
X47500000Y-105250000D01*
X49100000Y-105250000D01*
X49100000Y-106750000D01*
G37*
X94500000Y-89250000D02*
X96100000Y-89250000D01*
X96100000Y-89250000D02*
X96100000Y-90750000D01*
X96100000Y-90750000D02*
X94500000Y-90750000D01*
X94500000Y-90750000D02*
X94500000Y-89250000D01*
G36*
X94500000Y-89250000D02*
G01*
X96100000Y-89250000D01*
X96100000Y-90750000D01*
X94500000Y-90750000D01*
X94500000Y-89250000D01*
G37*
X98500000Y-109250000D02*
X100100000Y-109250000D01*
X100100000Y-109250000D02*
X100100000Y-110750000D01*
X100100000Y-110750000D02*
X98500000Y-110750000D01*
X98500000Y-110750000D02*
X98500000Y-109250000D01*
G36*
X98500000Y-109250000D02*
G01*
X100100000Y-109250000D01*
X100100000Y-110750000D01*
X98500000Y-110750000D01*
X98500000Y-109250000D01*
G37*
X43100000Y-106750000D02*
X41500000Y-106750000D01*
X41500000Y-106750000D02*
X41500000Y-105250000D01*
X41500000Y-105250000D02*
X43100000Y-105250000D01*
X43100000Y-105250000D02*
X43100000Y-106750000D01*
G36*
X43100000Y-106750000D02*
G01*
X41500000Y-106750000D01*
X41500000Y-105250000D01*
X43100000Y-105250000D01*
X43100000Y-106750000D01*
G37*
X51085648Y-102741953D02*
X49485648Y-102741953D01*
X49485648Y-102741953D02*
X49485648Y-101241953D01*
X49485648Y-101241953D02*
X51085648Y-101241953D01*
X51085648Y-101241953D02*
X51085648Y-102741953D01*
G36*
X51085648Y-102741953D02*
G01*
X49485648Y-102741953D01*
X49485648Y-101241953D01*
X51085648Y-101241953D01*
X51085648Y-102741953D01*
G37*
X39500000Y-109250000D02*
X41100000Y-109250000D01*
X41100000Y-109250000D02*
X41100000Y-110750000D01*
X41100000Y-110750000D02*
X39500000Y-110750000D01*
X39500000Y-110750000D02*
X39500000Y-109250000D01*
G36*
X39500000Y-109250000D02*
G01*
X41100000Y-109250000D01*
X41100000Y-110750000D01*
X39500000Y-110750000D01*
X39500000Y-109250000D01*
G37*
X33500000Y-91250000D02*
X35100000Y-91250000D01*
X35100000Y-91250000D02*
X35100000Y-92750000D01*
X35100000Y-92750000D02*
X33500000Y-92750000D01*
X33500000Y-92750000D02*
X33500000Y-91250000D01*
G36*
X33500000Y-91250000D02*
G01*
X35100000Y-91250000D01*
X35100000Y-92750000D01*
X33500000Y-92750000D01*
X33500000Y-91250000D01*
G37*
X65500000Y-109250000D02*
X67100000Y-109250000D01*
X67100000Y-109250000D02*
X67100000Y-110750000D01*
X67100000Y-110750000D02*
X65500000Y-110750000D01*
X65500000Y-110750000D02*
X65500000Y-109250000D01*
G36*
X65500000Y-109250000D02*
G01*
X67100000Y-109250000D01*
X67100000Y-110750000D01*
X65500000Y-110750000D01*
X65500000Y-109250000D01*
G37*
X120100000Y-108750000D02*
X118500000Y-108750000D01*
X118500000Y-108750000D02*
X118500000Y-107250000D01*
X118500000Y-107250000D02*
X120100000Y-107250000D01*
X120100000Y-107250000D02*
X120100000Y-108750000D01*
G36*
X120100000Y-108750000D02*
G01*
X118500000Y-108750000D01*
X118500000Y-107250000D01*
X120100000Y-107250000D01*
X120100000Y-108750000D01*
G37*
X100500000Y-101250000D02*
X102100000Y-101250000D01*
X102100000Y-101250000D02*
X102100000Y-102750000D01*
X102100000Y-102750000D02*
X100500000Y-102750000D01*
X100500000Y-102750000D02*
X100500000Y-101250000D01*
G36*
X100500000Y-101250000D02*
G01*
X102100000Y-101250000D01*
X102100000Y-102750000D01*
X100500000Y-102750000D01*
X100500000Y-101250000D01*
G37*
X104100000Y-96750000D02*
X102500000Y-96750000D01*
X102500000Y-96750000D02*
X102500000Y-95250000D01*
X102500000Y-95250000D02*
X104100000Y-95250000D01*
X104100000Y-95250000D02*
X104100000Y-96750000D01*
G36*
X104100000Y-96750000D02*
G01*
X102500000Y-96750000D01*
X102500000Y-95250000D01*
X104100000Y-95250000D01*
X104100000Y-96750000D01*
G37*
X53500000Y-107250000D02*
X55100000Y-107250000D01*
X55100000Y-107250000D02*
X55100000Y-108750000D01*
X55100000Y-108750000D02*
X53500000Y-108750000D01*
X53500000Y-108750000D02*
X53500000Y-107250000D01*
G36*
X53500000Y-107250000D02*
G01*
X55100000Y-107250000D01*
X55100000Y-108750000D01*
X53500000Y-108750000D01*
X53500000Y-107250000D01*
G37*
X98100000Y-116750000D02*
X96500000Y-116750000D01*
X96500000Y-116750000D02*
X96500000Y-115250000D01*
X96500000Y-115250000D02*
X98100000Y-115250000D01*
X98100000Y-115250000D02*
X98100000Y-116750000D01*
G36*
X98100000Y-116750000D02*
G01*
X96500000Y-116750000D01*
X96500000Y-115250000D01*
X98100000Y-115250000D01*
X98100000Y-116750000D01*
G37*
X96500000Y-113250000D02*
X98100000Y-113250000D01*
X98100000Y-113250000D02*
X98100000Y-114750000D01*
X98100000Y-114750000D02*
X96500000Y-114750000D01*
X96500000Y-114750000D02*
X96500000Y-113250000D01*
G36*
X96500000Y-113250000D02*
G01*
X98100000Y-113250000D01*
X98100000Y-114750000D01*
X96500000Y-114750000D01*
X96500000Y-113250000D01*
G37*
X57500000Y-103250000D02*
X59100000Y-103250000D01*
X59100000Y-103250000D02*
X59100000Y-104750000D01*
X59100000Y-104750000D02*
X57500000Y-104750000D01*
X57500000Y-104750000D02*
X57500000Y-103250000D01*
G36*
X57500000Y-103250000D02*
G01*
X59100000Y-103250000D01*
X59100000Y-104750000D01*
X57500000Y-104750000D01*
X57500000Y-103250000D01*
G37*
X100500000Y-95250000D02*
X102100000Y-95250000D01*
X102100000Y-95250000D02*
X102100000Y-96750000D01*
X102100000Y-96750000D02*
X100500000Y-96750000D01*
X100500000Y-96750000D02*
X100500000Y-95250000D01*
G36*
X100500000Y-95250000D02*
G01*
X102100000Y-95250000D01*
X102100000Y-96750000D01*
X100500000Y-96750000D01*
X100500000Y-95250000D01*
G37*
X59100000Y-96750000D02*
X57500000Y-96750000D01*
X57500000Y-96750000D02*
X57500000Y-95250000D01*
X57500000Y-95250000D02*
X59100000Y-95250000D01*
X59100000Y-95250000D02*
X59100000Y-96750000D01*
G36*
X59100000Y-96750000D02*
G01*
X57500000Y-96750000D01*
X57500000Y-95250000D01*
X59100000Y-95250000D01*
X59100000Y-96750000D01*
G37*
X39500000Y-99250000D02*
X41100000Y-99250000D01*
X41100000Y-99250000D02*
X41100000Y-100750000D01*
X41100000Y-100750000D02*
X39500000Y-100750000D01*
X39500000Y-100750000D02*
X39500000Y-99250000D01*
G36*
X39500000Y-99250000D02*
G01*
X41100000Y-99250000D01*
X41100000Y-100750000D01*
X39500000Y-100750000D01*
X39500000Y-99250000D01*
G37*
X45100000Y-96750000D02*
X43500000Y-96750000D01*
X43500000Y-96750000D02*
X43500000Y-95250000D01*
X43500000Y-95250000D02*
X45100000Y-95250000D01*
X45100000Y-95250000D02*
X45100000Y-96750000D01*
G36*
X45100000Y-96750000D02*
G01*
X43500000Y-96750000D01*
X43500000Y-95250000D01*
X45100000Y-95250000D01*
X45100000Y-96750000D01*
G37*
X96500000Y-99250000D02*
X98100000Y-99250000D01*
X98100000Y-99250000D02*
X98100000Y-100750000D01*
X98100000Y-100750000D02*
X96500000Y-100750000D01*
X96500000Y-100750000D02*
X96500000Y-99250000D01*
G36*
X96500000Y-99250000D02*
G01*
X98100000Y-99250000D01*
X98100000Y-100750000D01*
X96500000Y-100750000D01*
X96500000Y-99250000D01*
G37*
X59500000Y-115250000D02*
X61100000Y-115250000D01*
X61100000Y-115250000D02*
X61100000Y-116750000D01*
X61100000Y-116750000D02*
X59500000Y-116750000D01*
X59500000Y-116750000D02*
X59500000Y-115250000D01*
G36*
X59500000Y-115250000D02*
G01*
X61100000Y-115250000D01*
X61100000Y-116750000D01*
X59500000Y-116750000D01*
X59500000Y-115250000D01*
G37*
X114500000Y-115250000D02*
X116100000Y-115250000D01*
X116100000Y-115250000D02*
X116100000Y-116750000D01*
X116100000Y-116750000D02*
X114500000Y-116750000D01*
X114500000Y-116750000D02*
X114500000Y-115250000D01*
G36*
X114500000Y-115250000D02*
G01*
X116100000Y-115250000D01*
X116100000Y-116750000D01*
X114500000Y-116750000D01*
X114500000Y-115250000D01*
G37*
X35500000Y-111250000D02*
X37100000Y-111250000D01*
X37100000Y-111250000D02*
X37100000Y-112750000D01*
X37100000Y-112750000D02*
X35500000Y-112750000D01*
X35500000Y-112750000D02*
X35500000Y-111250000D01*
G36*
X35500000Y-111250000D02*
G01*
X37100000Y-111250000D01*
X37100000Y-112750000D01*
X35500000Y-112750000D01*
X35500000Y-111250000D01*
G37*
X45500000Y-109250000D02*
X47100000Y-109250000D01*
X47100000Y-109250000D02*
X47100000Y-110750000D01*
X47100000Y-110750000D02*
X45500000Y-110750000D01*
X45500000Y-110750000D02*
X45500000Y-109250000D01*
G36*
X45500000Y-109250000D02*
G01*
X47100000Y-109250000D01*
X47100000Y-110750000D01*
X45500000Y-110750000D01*
X45500000Y-109250000D01*
G37*
D16*
X87051248Y-78400062D03*
X88551248Y-79150062D03*
X87051248Y-80650062D03*
X87051248Y-77650062D03*
X88551248Y-78400062D03*
X88551248Y-79900062D03*
X87051248Y-79150062D03*
X87051248Y-79900062D03*
X88551248Y-80650062D03*
X88551248Y-77650062D03*
X87051248Y-51500062D03*
X88551248Y-52250062D03*
X87051248Y-53750062D03*
X87051248Y-50750062D03*
X88551248Y-51500062D03*
X88551248Y-53000062D03*
X87051248Y-52250062D03*
X87051248Y-53000062D03*
X88551248Y-53750062D03*
X88551248Y-50750062D03*
X88550000Y-127550000D03*
X87050000Y-126800000D03*
X88550000Y-125300000D03*
X88550000Y-128300000D03*
X87050000Y-127550000D03*
X87050000Y-126050000D03*
X88550000Y-126800000D03*
X88550000Y-126050000D03*
X87050000Y-125300000D03*
X87050000Y-128300000D03*
X88550000Y-154450000D03*
X87050000Y-153700000D03*
X88550000Y-152200000D03*
X88550000Y-155200000D03*
X87050000Y-154450000D03*
X87050000Y-152950000D03*
X88550000Y-153700000D03*
X88550000Y-152950000D03*
X87050000Y-152200000D03*
X87050000Y-155200000D03*
X137250000Y-146750000D03*
X138000000Y-145250000D03*
X139500000Y-146750000D03*
X136500000Y-146750000D03*
X137250000Y-145250000D03*
X138750000Y-145250000D03*
X138000000Y-146750000D03*
X138750000Y-146750000D03*
X139500000Y-145250000D03*
X136500000Y-145250000D03*
X95800000Y-146750000D03*
X96550000Y-145250000D03*
X98050000Y-146750000D03*
X95050000Y-146750000D03*
X95800000Y-145250000D03*
X97300000Y-145250000D03*
X96550000Y-146750000D03*
X97300000Y-146750000D03*
X98050000Y-145250000D03*
X95050000Y-145250000D03*
X137250000Y-60750000D03*
X138000000Y-59250000D03*
X139500000Y-60750000D03*
X136500000Y-60750000D03*
X137250000Y-59250000D03*
X138750000Y-59250000D03*
X138000000Y-60750000D03*
X138750000Y-60750000D03*
X139500000Y-59250000D03*
X136500000Y-59250000D03*
X95800000Y-60750000D03*
X96550000Y-59250000D03*
X98050000Y-60750000D03*
X95050000Y-60750000D03*
X95800000Y-59250000D03*
X97300000Y-59250000D03*
X96550000Y-60750000D03*
X97300000Y-60750000D03*
X98050000Y-59250000D03*
X95050000Y-59250000D03*
X77500000Y-59250000D03*
X80500000Y-59250000D03*
X79750000Y-60750000D03*
X79000000Y-60750000D03*
X79750000Y-59250000D03*
X78250000Y-59250000D03*
X77500000Y-60750000D03*
X80500000Y-60750000D03*
X79000000Y-59250000D03*
X78250000Y-60750000D03*
X36050000Y-59250000D03*
X39050000Y-59250000D03*
X38300000Y-60750000D03*
X37550000Y-60750000D03*
X38300000Y-59250000D03*
X36800000Y-59250000D03*
X36050000Y-60750000D03*
X39050000Y-60750000D03*
X37550000Y-59250000D03*
X36800000Y-60750000D03*
X78250000Y-146750000D03*
X79000000Y-145250000D03*
X80500000Y-146750000D03*
X77500000Y-146750000D03*
X78250000Y-145250000D03*
X79750000Y-145250000D03*
X79000000Y-146750000D03*
X79750000Y-146750000D03*
X80500000Y-145250000D03*
X77500000Y-145250000D03*
X36800000Y-146750000D03*
X36800000Y-145250000D03*
X37550000Y-146750000D03*
X37550000Y-145250000D03*
X38300000Y-145250000D03*
X38300000Y-146750000D03*
X39050000Y-145250000D03*
X36050000Y-145250000D03*
X36050000Y-146750000D03*
X39050000Y-146750000D03*
D17*
X74300000Y-70230000D03*
X74300000Y-69270000D03*
D18*
X75820000Y-81750000D03*
X76780000Y-81750000D03*
X77820000Y-81750000D03*
X78780000Y-81750000D03*
D19*
X77087500Y-69750000D03*
X75512500Y-69750000D03*
D20*
X74675000Y-80400000D03*
X75125000Y-80400000D03*
X75575000Y-80400000D03*
X76025000Y-80400000D03*
X76475000Y-80400000D03*
X76925000Y-80400000D03*
X76925000Y-77600000D03*
X76475000Y-77600000D03*
X76025000Y-77600000D03*
X75575000Y-77600000D03*
X75125000Y-77600000D03*
X74675000Y-77600000D03*
D21*
X75800000Y-79000000D03*
D22*
X78300000Y-70270000D03*
X78300000Y-69250000D03*
D18*
X73820000Y-81750000D03*
X74780000Y-81750000D03*
D23*
X74900000Y-120900025D03*
X74900000Y-123900000D03*
M02*
