G04 #@! TF.GenerationSoftware,KiCad,Pcbnew,(6.0.7)*
G04 #@! TF.CreationDate,2023-01-11T21:48:03+01:00*
G04 #@! TF.ProjectId,PCBWallet,50434257-616c-46c6-9574-2e6b69636164,rev?*
G04 #@! TF.SameCoordinates,Original*
G04 #@! TF.FileFunction,Profile,NP*
%FSLAX46Y46*%
G04 Gerber Fmt 4.6, Leading zero omitted, Abs format (unit mm)*
G04 Created by KiCad (PCBNEW (6.0.7)) date 2023-01-11 21:48:03*
%MOMM*%
%LPD*%
G01*
G04 APERTURE LIST*
G04 #@! TA.AperFunction,Profile*
%ADD10C,0.050000*%
G04 #@! TD*
G04 APERTURE END LIST*
D10*
X81799938Y-145001248D02*
G75*
G03*
X86800000Y-140000000I-1191J5001253D01*
G01*
X88800000Y-169000000D02*
X88800000Y-156450000D01*
X86800000Y-156450000D02*
X86800000Y-169000000D01*
X88800000Y-140000000D02*
X88800000Y-129550000D01*
X86800000Y-129550000D02*
X86800000Y-140000000D01*
X88800000Y-88000000D02*
X88800000Y-81950000D01*
X86800000Y-88000000D02*
X86801248Y-81900062D01*
X88800000Y-55050000D02*
X88800000Y-59000000D01*
X86801248Y-55000062D02*
X86800000Y-59000000D01*
X88800000Y-55050000D02*
G75*
G03*
X86801248Y-55000062I-998752J49938D01*
G01*
X88800000Y-81950000D02*
G75*
G03*
X86801248Y-81900062I-998752J49938D01*
G01*
X86801248Y-76400062D02*
G75*
G03*
X88801248Y-76400062I1000000J0D01*
G01*
X86801248Y-49500062D02*
G75*
G03*
X88801248Y-49500062I1000000J0D01*
G01*
X88800000Y-129550000D02*
G75*
G03*
X86800000Y-129550000I-1000000J0D01*
G01*
X86801248Y-124000062D02*
G75*
G03*
X88800000Y-124050000I998752J-49938D01*
G01*
X88800000Y-156450000D02*
G75*
G03*
X86800000Y-156450000I-1000000J0D01*
G01*
X86801248Y-150900062D02*
G75*
G03*
X88800000Y-150950000I998752J-49938D01*
G01*
X135250000Y-147000000D02*
G75*
G03*
X135250000Y-145000000I0J1000000D01*
G01*
X135250000Y-147000000D02*
X99300000Y-147000000D01*
X93800000Y-147000000D02*
G75*
G03*
X93800000Y-145000000I0J1000000D01*
G01*
X140799938Y-145001248D02*
G75*
G03*
X140750000Y-147000000I-49938J-998752D01*
G01*
X135250000Y-145000000D02*
X99300000Y-145000000D01*
X99300000Y-145000000D02*
G75*
G03*
X99300000Y-147000000I0J-1000000D01*
G01*
X140799938Y-59001248D02*
G75*
G03*
X140750000Y-61000000I-49938J-998752D01*
G01*
X135250000Y-59000000D02*
X99300000Y-59000000D01*
X131602418Y-60997505D02*
X135250000Y-61000000D01*
X135250000Y-61000000D02*
G75*
G03*
X135250000Y-59000000I0J1000000D01*
G01*
X93800000Y-61000000D02*
G75*
G03*
X93800000Y-59000000I0J1000000D01*
G01*
X99300000Y-59000000D02*
G75*
G03*
X99300000Y-61000000I0J-1000000D01*
G01*
X103000000Y-61000000D02*
X99300000Y-61000000D01*
X72602418Y-60997505D02*
X76250000Y-61000000D01*
X44000000Y-61000000D02*
X40300000Y-61000000D01*
X76250000Y-61000000D02*
G75*
G03*
X76250000Y-59000000I0J1000000D01*
G01*
X34800000Y-61000000D02*
G75*
G03*
X34800000Y-59000000I0J1000000D01*
G01*
X81799938Y-59001248D02*
G75*
G03*
X81750000Y-61000000I-49938J-998752D01*
G01*
X76250000Y-59000000D02*
X40300000Y-59000000D01*
X40300000Y-59000000D02*
G75*
G03*
X40300000Y-61000000I0J-1000000D01*
G01*
X76250000Y-147000000D02*
X40300000Y-147000000D01*
X76250000Y-145000000D02*
X40300000Y-145000000D01*
X76250000Y-147000000D02*
G75*
G03*
X76250000Y-145000000I0J1000000D01*
G01*
X81799938Y-145001248D02*
G75*
G03*
X81750000Y-147000000I-49938J-998752D01*
G01*
X40300000Y-145000000D02*
G75*
G03*
X40300000Y-147000000I0J-1000000D01*
G01*
X34800000Y-147000000D02*
G75*
G03*
X34800000Y-145000000I0J1000000D01*
G01*
X107493369Y-63806912D02*
X108800000Y-66000000D01*
X108800000Y-66000000D02*
G75*
G03*
X126074972Y-65499986I8500000J4999999D01*
G01*
X86800000Y-66000000D02*
G75*
G03*
X81750000Y-61000000I-5000248J0D01*
G01*
X107493369Y-63806912D02*
G75*
G03*
X103000000Y-61000000I-4493369J-2193087D01*
G01*
X131602418Y-60997505D02*
G75*
G03*
X127109049Y-63804417I16J-5000025D01*
G01*
X127109049Y-63804417D02*
X126074972Y-65499986D01*
X72602418Y-60997505D02*
G75*
G03*
X68109049Y-63804417I16J-5000025D01*
G01*
X49800000Y-66000000D02*
G75*
G03*
X67074972Y-65499986I8500000J4999999D01*
G01*
X48493369Y-63806912D02*
X49800000Y-66000000D01*
X68109049Y-63804417D02*
X67074972Y-65499986D01*
X48493369Y-63806912D02*
G75*
G03*
X44000000Y-61000000I-4493368J-2193086D01*
G01*
X34800000Y-174000000D02*
X81800000Y-174000000D01*
X29800000Y-147000000D02*
X29800000Y-169000000D01*
X86801248Y-150900062D02*
X86800000Y-147000000D01*
X81799938Y-59001248D02*
X85800000Y-59000000D01*
X86800000Y-147000000D02*
X81750000Y-147000000D01*
X85800000Y-59000000D02*
X86800000Y-59000000D01*
X86801248Y-49500062D02*
X86800000Y-37000000D01*
X29800000Y-66000000D02*
X29800000Y-88000000D01*
X85800000Y-88000000D02*
X86800000Y-88000000D01*
X86801248Y-76400062D02*
X86800000Y-66000000D01*
X84800000Y-118000000D02*
X84800000Y-88000000D01*
X31800000Y-118000000D02*
X30800000Y-118000000D01*
X30800000Y-88000000D02*
X29800000Y-88000000D01*
X84800000Y-88000000D02*
X85800000Y-88000000D01*
X86801248Y-124000062D02*
X86800000Y-118000000D01*
X30800000Y-88000000D02*
X31800000Y-88000000D01*
X30800000Y-118000000D02*
X29800000Y-118000000D01*
X29800000Y-118000000D02*
X29800000Y-140000000D01*
X85800000Y-118000000D02*
X86800000Y-118000000D01*
X31800000Y-88000000D02*
X31800000Y-118000000D01*
X85800000Y-118000000D02*
X84800000Y-118000000D01*
X29800000Y-140000000D02*
G75*
G03*
X34800000Y-145000000I5000000J0D01*
G01*
X34800000Y-61000000D02*
G75*
G03*
X29800000Y-66000000I0J-5000000D01*
G01*
X81800000Y-32000000D02*
X72602418Y-31997505D01*
X48493369Y-34806912D02*
G75*
G03*
X44000000Y-32000000I-4493369J-2193088D01*
G01*
X34800000Y-32000000D02*
X44000000Y-32000000D01*
X48493369Y-34806912D02*
X49800000Y-37000000D01*
X68109049Y-34804417D02*
X67074972Y-36499986D01*
X79800000Y-41500000D02*
X79800000Y-40000000D01*
X72800000Y-41500000D02*
X72800000Y-40000000D01*
X78800000Y-47000000D02*
X73800000Y-47000000D01*
X72800000Y-48000000D02*
X72800000Y-53000000D01*
X73800000Y-54000000D02*
X78800000Y-54000000D01*
X79800000Y-53000000D02*
X79800000Y-48000000D01*
X145799938Y-140001248D02*
X145800000Y-118000000D01*
X144800000Y-88000000D02*
X145800000Y-88000000D01*
X89800000Y-88000000D02*
X90800000Y-88000000D01*
X127109049Y-34804417D02*
X126074972Y-36499986D01*
X107493369Y-34806912D02*
G75*
G03*
X103000000Y-32000000I-4493369J-2193088D01*
G01*
X143800000Y-88000000D02*
X144800000Y-88000000D01*
X34800000Y-32000000D02*
G75*
G03*
X29800000Y-37000000I0J-5000000D01*
G01*
X89800000Y-59000000D02*
X93800000Y-59000000D01*
X89800000Y-147000000D02*
X88800000Y-147000000D01*
X89800000Y-88000000D02*
X88800000Y-88000000D01*
X90800000Y-88000000D02*
X90800000Y-118000000D01*
X78800000Y-54000000D02*
G75*
G03*
X79800000Y-53000000I0J1000000D01*
G01*
X72800000Y-53000000D02*
G75*
G03*
X73800000Y-54000000I1000000J0D01*
G01*
X90800000Y-118000000D02*
X89800000Y-118000000D01*
X144800000Y-118000000D02*
X143800000Y-118000000D01*
X145800000Y-88000000D02*
X145800000Y-66000000D01*
X107493369Y-34806912D02*
X108800000Y-37000000D01*
X145800000Y-169000000D02*
X145800000Y-147000000D01*
X78800000Y-42500000D02*
G75*
G03*
X79800000Y-41500000I0J1000000D01*
G01*
X89800000Y-118000000D02*
X88800000Y-118000000D01*
X88800000Y-169000000D02*
G75*
G03*
X93800000Y-174000000I5000000J0D01*
G01*
X86800000Y-37000000D02*
G75*
G03*
X81800000Y-32000000I-5000000J0D01*
G01*
X78800000Y-39000000D02*
X73800000Y-39000000D01*
X73800000Y-42500000D02*
X78800000Y-42500000D01*
X140800000Y-174000000D02*
G75*
G03*
X145800000Y-169000000I0J5000000D01*
G01*
X29800000Y-169000000D02*
G75*
G03*
X34800000Y-174000000I5000000J0D01*
G01*
X29800000Y-37000000D02*
X29800000Y-59000000D01*
X93800000Y-147000000D02*
X89800000Y-147000000D01*
X93800000Y-174000000D02*
X140800000Y-174000000D01*
X49800000Y-37000000D02*
G75*
G03*
X67074972Y-36499986I8500000J5000000D01*
G01*
X79800000Y-48000000D02*
G75*
G03*
X78800000Y-47000000I-1000000J0D01*
G01*
X144800000Y-118000000D02*
X145800000Y-118000000D01*
X30800000Y-147000000D02*
X29800000Y-147000000D01*
X88800000Y-66000000D02*
X88801248Y-76400062D01*
X72602418Y-31997518D02*
G75*
G03*
X68109049Y-34804417I-18J-4999982D01*
G01*
X143800000Y-118000000D02*
X143800000Y-88000000D01*
X93800000Y-32000000D02*
G75*
G03*
X88800000Y-37000000I0J-5000000D01*
G01*
X34800000Y-147000000D02*
X30800000Y-147000000D01*
X140799938Y-145001248D02*
G75*
G03*
X145799938Y-140001248I0J5000000D01*
G01*
X145800000Y-66000000D02*
G75*
G03*
X140750000Y-61000000I-5000248J0D01*
G01*
X72800000Y-41500000D02*
G75*
G03*
X73800000Y-42500000I1000000J0D01*
G01*
X140799938Y-59001248D02*
X144800000Y-59000000D01*
X30800000Y-59000000D02*
X29800000Y-59000000D01*
X81800000Y-174000000D02*
G75*
G03*
X86800000Y-169000000I0J5000000D01*
G01*
X140800000Y-32000000D02*
X131602418Y-31997505D01*
X89800000Y-59000000D02*
X88800000Y-59000000D01*
X73800000Y-39000000D02*
G75*
G03*
X72800000Y-40000000I0J-1000000D01*
G01*
X88800000Y-140000000D02*
G75*
G03*
X93800000Y-145000000I5000000J0D01*
G01*
X93800000Y-61000000D02*
G75*
G03*
X88800000Y-66000000I0J-5000000D01*
G01*
X88800000Y-37000000D02*
X88801248Y-49500062D01*
X144800000Y-59000000D02*
X145800000Y-59000000D01*
X93800000Y-32000000D02*
X103000000Y-32000000D01*
X73800000Y-47000000D02*
G75*
G03*
X72800000Y-48000000I0J-1000000D01*
G01*
X145800000Y-37000000D02*
G75*
G03*
X140800000Y-32000000I-5000000J0D01*
G01*
X88800000Y-118000000D02*
X88800000Y-124050000D01*
X145800000Y-147000000D02*
X140750000Y-147000000D01*
X108800000Y-37000000D02*
G75*
G03*
X126074972Y-36499986I8500000J5000000D01*
G01*
X145800000Y-59000000D02*
X145800000Y-37000000D01*
X131602418Y-31997518D02*
G75*
G03*
X127109049Y-34804417I-18J-4999982D01*
G01*
X79800000Y-40000000D02*
G75*
G03*
X78800000Y-39000000I-1000000J0D01*
G01*
X30800000Y-59000000D02*
X34800000Y-59000000D01*
X88800000Y-147000000D02*
X88800000Y-150950000D01*
M02*
