<?xml version="1.0" standalone="no"?>
 <!DOCTYPE svg PUBLIC "-//W3C//DTD SVG 1.1//EN" 
 "http://www.w3.org/Graphics/SVG/1.1/DTD/svg11.dtd"> 
<svg
  xmlns:svg="http://www.w3.org/2000/svg"
  xmlns="http://www.w3.org/2000/svg"
  xmlns:xlink="http://www.w3.org/1999/xlink"
  version="1.1"
  width="12.204700cm" height="13.248640cm" viewBox="0 0 122047000 132486400">
<title>SVG Picture created as PCBWallet-Edge_Cuts.svg date 2022/08/19 10:27:06 </title>
  <desc>Picture generated by PCBNEW </desc>
<g style="fill:#000000; fill-opacity:1.000000;stroke:#000000; stroke-opacity:1.000000;
stroke-linecap:round; stroke-linejoin:round;"
 transform="translate(0 0) scale(1 1)">
</g>
<g style="fill:#000000; fill-opacity:0.0; 
stroke:#000000; stroke-width:0.000000; stroke-opacity:1; 
stroke-linecap:round; stroke-linejoin:round;">
</g>
<g style="fill:#000000; fill-opacity:0.0; 
stroke:#000000; stroke-width:50000.000000; stroke-opacity:1; 
stroke-linecap:round; stroke-linejoin:round;">
<path d="M5025000 84027495
L52025000 84027495
" />
<path d="M25000 57027495
L25000 79027495
" />
<path d="M57025000 79027495
L57025000 57027495
" />
<path d="M55025000 27027495
L56025000 27027495
" />
<path d="M56025000 57027495
L57025000 57027495
" />
<path d="M56025000 57027495
L55025000 57027495
" />
<path d="M56025000 27027495
L57025000 27027495
" />
<path d="M57025000 27027495
L57025000 5027495
" />
<path d="M2025000 27027495
L55025000 27027495
" />
<path d="M65025000 5027495
L65025000 28027495
" />
<path d="M70025000 27495
L117025000 27495
" />
<path d="M70025000 84027495
L117025000 84027495
" />
<path d="M121025000 28027495
L122025000 28027495
" />
<path d="M122025000 28027495
L122025000 5027495
" />
<path d="M120025000 57027495
L120025000 27027495
" />
<path d="M67025000 57027495
L66025000 57027495
" />
<path d="M66025000 28027495
L65025000 28027495
" />
<path d="M120025000 27027495
L121025000 27027495
" />
<path d="M122025000 79027495
L122025000 56027495
" />
<path d="M121025000 27027495
L121025000 28027495
" />
<path d="M66025000 27027495
L66025000 28027495
" />
<path d="M66025000 57027495
L66025000 56027495
" />
<path d="M66025000 27027495
L67025000 27027495
" />
<path d="M66025000 56027495
L65025000 56027495
" />
<path d="M65025000 56027495
L65025000 79027495
" />
<path d="M121025000 56027495
L122025000 56027495
" />
<path d="M121025000 57027495
L121025000 56027495
" />
<path d="M67025000 27027495
L67025000 57027495
" />
<path d="M121025000 57027495
L120025000 57027495
" />
<path d="M65025000.000000 79027495.000000 A5000000.000000 5000000.000000 0.0 0 0 70025000.000000 84027495.000000" />
<path d="M70025000.000000 27495.000000 A5000000.000000 5000000.000000 0.0 0 0 65025000.000000 5027495.000000" />
<path d="M117025000.000000 84027495.000000 A5000000.000000 5000000.000000 0.0 0 0 122025000.000000 79027495.000000" />
<path d="M122025000.000000 5027495.000000 A5000000.000000 5000000.000000 0.0 0 0 117025000.000000 27495.000000" />
<path d="M52025000 27495
L42827418 25000
" />
<path d="M18718368.803476 2834407.095918 A4999998.000000 4999998.000000 0.0 0 0 14225000.000000 27495.000000" />
<path d="M5025000 27495
L14222582 29990
" />
<path d="M18718369 2834407
L20025000 5027495
" />
<path d="M38334049 2831912
L37299972 4527481
" />
<path d="M50025000 9527495
L50025000 8027495
" />
<path d="M43025000 9527495
L43025000 8027495
" />
<path d="M49025000 15027495
L44025000 15027495
" />
<path d="M43025000 16027495
L43025000 21027495
" />
<path d="M44025000 22027495
L49025000 22027495
" />
<path d="M50025000 21027495
L50025000 16027495
" />
<path d="M5025000.000000 27495.000000 A5000000.000000 5000000.000000 0.0 0 0 25000.000000 5027495.000000" />
<path d="M49025000.000000 22027495.000000 A999999.000000 999999.000000 0.0 0 0 50025000.000000 21027495.000000" />
<path d="M43025000.000000 21027495.000000 A999999.000000 999999.000000 0.0 0 0 44025000.000000 22027495.000000" />
<path d="M49025000.000000 10527495.000000 A999999.000000 999999.000000 0.0 0 0 50025000.000000 9527495.000000" />
<path d="M57025000.000000 5027495.000000 A5000000.000000 5000000.000000 0.0 0 0 52025000.000000 27495.000000" />
<path d="M49025000 7027495
L44025000 7027495
" />
<path d="M44025000 10527495
L49025000 10527495
" />
<path d="M25000.000000 79027495.000000 A5000000.000000 5000000.000000 0.0 0 0 5025000.000000 84027495.000000" />
<path d="M25000 5027495
L25000 27027495
" />
<path d="M20024999.960901 5027495.022999 A9861541.000000 9861541.000000 0.0 0 0 37299971.652325 4527480.821705" />
<path d="M50025000.000000 16027495.000000 A999999.000000 999999.000000 0.0 0 0 49025000.000000 15027495.000000" />
<path d="M1025000 57027495
L25000 57027495
" />
<path d="M42827418.000000 25000.000000 A4999998.000000 4999998.000000 0.0 0 0 38334049.196524 2831912.095918" />
<path d="M2025000 57027495
L1025000 57027495
" />
<path d="M43025000.000000 9527495.000000 A999999.000000 999999.000000 0.0 0 0 44025000.000000 10527495.000000" />
<path d="M1025000 27027495
L25000 27027495
" />
<path d="M55025000 57027495
L2025000 57027495
" />
<path d="M52025000.000000 84027495.000000 A5000000.000000 5000000.000000 0.0 0 0 57025000.000000 79027495.000000" />
<path d="M44025000.000000 7027495.000001 A999999.000000 999999.000000 0.0 0 0 43025000.000000 8027495.000000" />
<path d="M44025000.000000 15027495.000000 A999999.000000 999999.000000 0.0 0 0 43025000.000000 16027495.000000" />
<path d="M50025000.000000 8027495.000000 A999999.000000 999999.000000 0.0 0 0 49025000.000000 7027495.000001" />
<path d="M1025000 27027495
L2025000 27027495
" />
<g >
</g>
<g >
</g>
<g >
</g>
<g >
</g>
<g >
</g>
<g >
</g>
<g >
</g>
<g >
</g>
<g >
</g>
<g >
</g>
<g >
</g>
</g> 
</svg>
